<?xml version="1.0" encoding="UTF-8"?>
<svg version="1.1" xmlns="http://www.w3.org/2000/svg" width="400" height="400">
<path d="M0 0 C1.10408203 -0.020625 2.20816406 -0.04125 3.34570312 -0.0625 C10.4355798 -0.09600208 16.41395415 0.75926069 23.0625 3.25 C23.0625 3.91 23.0625 4.57 23.0625 5.25 C23.59875 5.353125 24.135 5.45625 24.6875 5.5625 C27.68752044 6.43092697 30.3004535 7.80620296 33.0625 9.25 C33.0625 9.91 33.0625 10.57 33.0625 11.25 C33.7225 11.435625 34.3825 11.62125 35.0625 11.8125 C42.25499222 15.25890252 46.71911758 20.76223412 51 27.3125 C51.38961914 27.90192383 51.77923828 28.49134766 52.18066406 29.09863281 C54.49861915 32.79538932 55.64634368 35.91008412 56.0625 40.25 C56.7225 40.25 57.3825 40.25 58.0625 40.25 C58.7225 42.56 59.3825 44.87 60.0625 47.25 C95.05820174 48.14167932 95.05820174 48.14167932 130.0625 48.25 C130.17464844 47.55519531 130.28679687 46.86039063 130.40234375 46.14453125 C131.14696115 42.87967036 132.30650088 40.01399795 133.625 36.9375 C134.08003906 35.86886719 134.53507813 34.80023438 135.00390625 33.69921875 C135.52791016 32.48685547 135.52791016 32.48685547 136.0625 31.25 C136.7225 31.25 137.3825 31.25 138.0625 31.25 C138.124375 30.528125 138.18625 29.80625 138.25 29.0625 C139.30915507 25.39619401 141.29724962 23.80785661 144.0625 21.25 C144.3925 20.59 144.7225 19.93 145.0625 19.25 C145.7225 19.25 146.3825 19.25 147.0625 19.25 C147.3925 18.26 147.7225 17.27 148.0625 16.25 C148.7225 16.25 149.3825 16.25 150.0625 16.25 C150.0625 15.59 150.0625 14.93 150.0625 14.25 C152.11470832 12.70477214 154.14951295 11.31208736 156.3125 9.9375 C156.8796875 9.55916016 157.446875 9.18082031 158.03125 8.79101562 C168.23519203 2.23609199 177.49370097 -0.56943078 189.625 -0.3125 C190.78580078 -0.32345703 191.94660156 -0.33441406 193.14257812 -0.34570312 C201.5401317 -0.2725112 201.5401317 -0.2725112 203.84741211 2.03540039 C205.8724178 5.72614314 206.18765288 9.00039419 206.18948364 13.17228699 C206.19230347 14.16291641 206.19512329 15.15354584 206.19802856 16.17419434 C206.19499222 17.79569397 206.19499222 17.79569397 206.19189453 19.44995117 C206.19452301 21.16550957 206.19452301 21.16550957 206.19720459 22.91572571 C206.20161531 26.70815538 206.19868529 30.50053858 206.1953125 34.29296875 C206.19598637 36.93695586 206.19695708 39.58094291 206.19821167 42.22492981 C206.20003208 47.7791087 206.19763389 53.3332743 206.19287109 58.88745117 C206.18746354 65.26626547 206.1891659 71.64504763 206.1946975 78.02386111 C206.19927421 83.52565093 206.19985609 89.0274312 206.19725883 94.52922231 C206.19571638 97.80326746 206.19584949 101.07729466 206.19879532 104.35133934 C206.20838356 118.01943404 206.12661084 131.618232 205.0625 145.25 C204.4025 145.25 203.7425 145.25 203.0625 145.25 C203.04832031 145.88164062 203.03414062 146.51328125 203.01953125 147.1640625 C202.57132698 155.570921 200.13489452 162.48398434 197.0625 170.25 C198.33867187 170.22679687 199.61484375 170.20359375 200.9296875 170.1796875 C202.5989525 170.16093171 204.2682238 170.14273131 205.9375 170.125 C206.77925781 170.10824219 207.62101563 170.09148437 208.48828125 170.07421875 C209.29394531 170.06777344 210.09960938 170.06132812 210.9296875 170.0546875 C211.67331543 170.04421387 212.41694336 170.03374023 213.18310547 170.02294922 C215.0625 170.25 215.0625 170.25 217.0625 172.25 C216.6875 174.375 216.6875 174.375 216.0625 176.25 C214.928125 176.38277344 213.79375 176.51554688 212.625 176.65234375 C211.10416481 176.83071331 209.58333158 177.00909962 208.0625 177.1875 C206.94681641 177.31801758 206.94681641 177.31801758 205.80859375 177.45117188 C200.89028708 178.02853831 195.97565228 178.63027284 191.0625 179.25 C191.0625 180.24 191.0625 181.23 191.0625 182.25 C190.4025 182.25 189.7425 182.25 189.0625 182.25 C189.000625 182.930625 188.93875 183.61125 188.875 184.3125 C188.08240402 187.17803932 187.24517623 188.58637621 185.51171875 190.93359375 C185.05498779 191.5567749 184.59825684 192.17995605 184.12768555 192.82202148 C183.77617432 193.29325439 183.42466309 193.7644873 183.0625 194.25 C183.82916992 194.38051758 184.59583984 194.51103516 185.38574219 194.64550781 C188.86440366 195.24723932 192.33825093 195.87331583 195.8125 196.5 C197.0190625 196.70496094 198.225625 196.90992188 199.46875 197.12109375 C200.62890625 197.33378906 201.7890625 197.54648438 202.984375 197.765625 C204.05268555 197.95415039 205.12099609 198.14267578 206.22167969 198.33691406 C209.44910388 199.37426079 210.89073535 200.69336566 213.0625 203.25 C211.0625 205.25 211.0625 205.25 207.16015625 205.5 C201.49621742 205.37289899 196.04658569 204.33655815 190.5 203.25 C189.49130859 203.05921875 188.48261719 202.8684375 187.44335938 202.671875 C184.98158485 202.20518789 182.52148836 201.73111337 180.0625 201.25 C180.5575 202.178125 181.0525 203.10625 181.5625 204.0625 C183.0625 207.25 183.0625 207.25 183.0625 210.25 C183.7225 210.25 184.3825 210.25 185.0625 210.25 C185.3925 212.23 185.7225 214.21 186.0625 216.25 C186.7225 216.25 187.3825 216.25 188.0625 216.25 C188.41183594 217.46558594 188.76117188 218.68117187 189.12109375 219.93359375 C189.5805586 221.51827863 190.0402033 223.10291137 190.5 224.6875 C190.73009766 225.48994141 190.96019531 226.29238281 191.19726562 227.11914062 C192.04955862 230.99053247 192.04955862 230.99053247 194.0625 234.25 C194.46713017 236.26133682 194.81076065 238.28507429 195.125 240.3125 C195.38990234 241.96958984 195.38990234 241.96958984 195.66015625 243.66015625 C197.82035743 262.93418424 192.72310732 282.86003462 184.69921875 300.1953125 C184.26222656 301.14148438 183.82523438 302.08765625 183.375 303.0625 C182.97925781 303.89394531 182.58351563 304.72539062 182.17578125 305.58203125 C180.85702974 308.74240768 179.95248372 311.94608782 179.0625 315.25 C188.98637545 313.13323861 197.32021964 310.59929742 206.0625 305.25 C206.79984375 304.92257812 207.5371875 304.59515625 208.296875 304.2578125 C210.41308002 303.3101766 210.41308002 303.3101766 211.0625 300.25 C211.7225 300.25 212.3825 300.25 213.0625 300.25 C213.35125 299.6725 213.64 299.095 213.9375 298.5 C214.97916667 296.41666667 216.02083333 294.33333333 217.0625 292.25 C217.7225 292.25 218.3825 292.25 219.0625 292.25 C219.18625 291.363125 219.31 290.47625 219.4375 289.5625 C220.0625 286.25 220.0625 286.25 221.0625 283.8125 C224.70287971 274.484027 223.73615906 262.72933667 221.0625 253.25 C219.88911988 250.59286179 218.60927623 248.06890856 217.18359375 245.5390625 C214.72625872 240.52164672 214.10865435 234.55749074 215.6640625 229.1640625 C216.40157832 227.16010538 217.20810645 225.20656123 218.0625 223.25 C218.35125 222.486875 218.64 221.72375 218.9375 220.9375 C220.54567243 218.52524136 222.50097346 217.53076327 225.0625 216.25 C225.7225 216.25 226.3825 216.25 227.0625 216.25 C227.0625 215.59 227.0625 214.93 227.0625 214.25 C234.41902302 211.74565174 240.73335502 210.97991193 248 214.1875 C249.36265724 214.85801388 250.71864393 215.5425578 252.0625 216.25 C252.7225 216.58 253.3825 216.91 254.0625 217.25 C254.0625 217.91 254.0625 218.57 254.0625 219.25 C255.0525 219.58 256.0425 219.91 257.0625 220.25 C258.55091297 222.58725047 259.85568008 224.86099343 261.125 227.3125 C261.47626953 227.95638672 261.82753906 228.60027344 262.18945312 229.26367188 C266.679029 237.77604352 267.37138232 245.59767021 267.36328125 255.08984375 C267.36756638 256.21137344 267.3718515 257.33290314 267.37626648 258.48841858 C267.38198765 260.85091479 267.38252644 263.21342861 267.37817383 265.57592773 C267.37501303 269.1726713 267.39850485 272.76859223 267.42382812 276.36523438 C267.42610139 278.6692698 267.42680449 280.97330743 267.42578125 283.27734375 C267.434991 284.34323227 267.44420074 285.40912079 267.45368958 286.50730896 C267.41398027 292.97536782 266.53672672 298.26954902 264.0625 304.25 C263.46308594 305.73693359 263.46308594 305.73693359 262.8515625 307.25390625 C257.47534337 319.07076373 257.47534337 319.07076373 254.0625 323.25 C253.4025 323.25 252.7425 323.25 252.0625 323.25 C251.7325 324.57 251.4025 325.89 251.0625 327.25 C250.4025 327.25 249.7425 327.25 249.0625 327.25 C248.8046875 327.83265625 248.546875 328.4153125 248.28125 329.015625 C246.96415983 331.4302903 245.51161616 333.06740177 243.5625 335 C242.9540625 335.61359375 242.345625 336.2271875 241.71875 336.859375 C240.0625 338.25 240.0625 338.25 238.0625 338.25 C237.7325 339.24 237.4025 340.23 237.0625 341.25 C236.0725 341.25 235.0825 341.25 234.0625 341.25 C234.0625 341.91 234.0625 342.57 234.0625 343.25 C228.76838235 347.25 228.76838235 347.25 225.0625 347.25 C225.0625 347.91 225.0625 348.57 225.0625 349.25 C215.57386365 354.12429949 206.43539415 357.01248412 196.0625 359.25 C194.92711792 359.51804443 194.92711792 359.51804443 193.76879883 359.79150391 C190.5477198 360.3372131 187.49762523 360.36204901 184.23046875 360.34765625 C182.93818359 360.34443359 181.64589844 360.34121094 180.31445312 360.33789062 C178.95963474 360.32953665 177.60481703 360.32107172 176.25 360.3125 C174.87565265 360.30748 173.50130355 360.30291797 172.12695312 360.29882812 C168.77209076 360.28705668 165.41731779 360.27061283 162.0625 360.25 C158.51464542 368.65553342 158.51464542 368.65553342 155.18359375 377.1484375 C154.90193359 377.89480469 154.62027344 378.64117187 154.33007812 379.41015625 C153.76850726 380.90855945 153.21133423 382.40861705 152.65820312 383.91015625 C152.23764648 385.01810547 152.23764648 385.01810547 151.80859375 386.1484375 C151.56810303 386.79474121 151.3276123 387.44104492 151.07983398 388.10693359 C149.60646184 391.21066785 148.32969972 393.62636856 146.0625 396.25 C143.02390584 396.84996842 140.78729894 397.048844 137.75390625 396.9765625 C136.54830299 396.97805801 136.54830299 396.97805801 135.31834412 396.97958374 C133.62122697 396.97491022 131.92409501 396.95549825 130.22729492 396.92236328 C127.63658958 396.87521094 125.05000923 396.8812351 122.45898438 396.89453125 C120.80726724 396.88337486 119.15556739 396.86915326 117.50390625 396.8515625 C116.73293106 396.85338531 115.96195587 396.85520813 115.1676178 396.85708618 C111.48013732 396.76045359 109.2360858 396.35648351 106.06762695 394.4128418 C104.0625 392.25 104.0625 392.25 103.5390625 389.04296875 C103.61253906 387.25826172 103.61253906 387.25826172 103.6875 385.4375 C103.72101563 384.25542969 103.75453125 383.07335937 103.7890625 381.85546875 C104.0625 378.25 104.0625 378.25 104.58203125 374.953125 C105.19639897 370.21799816 105.16962501 365.58051082 105.125 360.8125 C105.11823242 359.42901367 105.11823242 359.42901367 105.11132812 358.01757812 C105.09963938 355.76164952 105.08325455 353.50586033 105.0625 351.25 C104.08667969 351.26160156 103.11085938 351.27320313 102.10546875 351.28515625 C100.83316406 351.29417969 99.56085938 351.30320312 98.25 351.3125 C96.35314453 351.32990234 96.35314453 351.32990234 94.41796875 351.34765625 C91.0625 351.25 91.0625 351.25 88.0625 350.25 C88.2036912 354.64599495 88.35133008 359.04175213 88.5 363.4375 C88.53931641 364.66404297 88.57863281 365.89058594 88.61914062 367.15429688 C88.89538057 375.20775381 89.37479827 383.22118779 90.0625 391.25 C89.4025 391.25 88.7425 391.25 88.0625 391.25 C87.753125 391.889375 87.44375 392.52875 87.125 393.1875 C86.0625 395.25 86.0625 395.25 85.0625 396.25 C79.86388458 396.61440622 74.66358835 396.69235602 69.45361328 396.76489258 C67.69966471 396.7965084 65.94592913 396.84423927 64.19287109 396.90844727 C49.66584474 397.43343793 49.66584474 397.43343793 45.84570312 394.61376953 C44.48852462 392.50077613 43.73178736 390.662764 43.0625 388.25 C42.4746875 386.88101563 42.4746875 386.88101563 41.875 385.484375 C41.606875 384.66453125 41.33875 383.8446875 41.0625 383 C39.68298981 378.96758561 38.17120117 375.04608693 36.5 371.125 C31.0625 358.2193287 31.0625 358.2193287 31.0625 353.25 C30.4025 353.25 29.7425 353.25 29.0625 353.25 C28.79695313 352.41855469 28.53140625 351.58710938 28.2578125 350.73046875 C27.72800781 349.10044922 27.72800781 349.10044922 27.1875 347.4375 C26.83945313 346.35855469 26.49140625 345.27960938 26.1328125 344.16796875 C25.14290347 341.11684198 25.14290347 341.11684198 23.0625 338.25 C22.34987684 336.13996737 21.6885351 334.01232297 21.0625 331.875 C20.12987812 328.70554282 19.22306131 325.63021811 17.9375 322.5859375 C17.0625 320.25 17.0625 320.25 17.0625 316.25 C16.4025 316.25 15.7425 316.25 15.0625 316.25 C13.30515549 311.27638346 11.73665387 306.5084002 11.0625 301.25 C10.4025 301.25 9.7425 301.25 9.0625 301.25 C2.1456094 286.90898015 -1.45029851 272.1964797 -1.9375 256.25 C-2.01226562 254.93644531 -2.08703125 253.62289062 -2.1640625 252.26953125 C-2.93973196 234.18660623 3.60434251 217.49769632 13.0625 202.25 C3.90523733 202.7884328 3.90523733 202.7884328 -5.125 204.3125 C-10.09307597 205.41379763 -14.86921724 205.44410445 -19.9375 205.25 C-19.9375 203.6 -19.9375 201.95 -19.9375 200.25 C-12.76980171 198.34369726 -5.68686183 196.79026639 1.6640625 195.77734375 C4.23349703 195.43818058 4.23349703 195.43818058 6.0625 193.25 C5.65257813 192.75371094 5.24265625 192.25742188 4.8203125 191.74609375 C4.28148438 191.06675781 3.74265625 190.38742188 3.1875 189.6875 C2.38699219 188.69556641 2.38699219 188.69556641 1.5703125 187.68359375 C0.0625 185.25 0.0625 185.25 -1.9375 178.25 C-8.8675 177.59 -15.7975 176.93 -22.9375 176.25 C-22.9375 171.25 -22.9375 171.25 -21.9375 170.25 C-19.40700598 170.17686433 -16.90445163 170.15752473 -14.375 170.1875 C-13.66408203 170.19201172 -12.95316406 170.19652344 -12.22070312 170.20117188 C-10.45959987 170.21299136 -8.69853964 170.23092737 -6.9375 170.25 C-7.4325 169.13625 -7.4325 169.13625 -7.9375 168 C-8.9375 165.25 -8.9375 165.25 -8.9375 161.25 C-9.5975 161.25 -10.2575 161.25 -10.9375 161.25 C-15.81141366 144.30858887 -16.66503819 128.09289959 -16.54326439 110.56228256 C-16.52278463 106.94037327 -16.5290526 103.31848628 -16.53137207 99.6965332 C-16.531319 93.63869854 -16.51184124 87.58118112 -16.47949219 81.5234375 C-16.44235317 74.53499573 -16.43385826 67.54696403 -16.4407897 60.55843639 C-16.4470981 53.78911542 -16.43635131 47.01993369 -16.41682434 40.25064087 C-16.40868356 37.38634242 -16.40593446 34.52211543 -16.40751648 31.6578064 C-16.40856042 27.67145833 -16.38436647 23.68548049 -16.35742188 19.69921875 C-16.36035248 18.52105591 -16.36328308 17.34289307 -16.36630249 16.12902832 C-16.22036802 2.15091501 -13.12556117 0.05942529 0 0 Z " fill="#DCE9F8" transform="translate(78.9375,-0.25)"/>
<path d="M0 0 C1.1859375 0.02255859 2.371875 0.04511719 3.59375 0.06835938 C6.48055497 0.12656109 9.36455431 0.20825702 12.25 0.3125 C12.25 1.9625 12.25 3.6125 12.25 5.3125 C12.91 5.3125 13.57 5.3125 14.25 5.3125 C14.25 51.1825 14.25 97.0525 14.25 144.3125 C-1.85472973 144.3125 -1.85472973 144.3125 -8.625 142.3125 C-9.32496094 142.12171875 -10.02492188 141.9309375 -10.74609375 141.734375 C-12.41846449 141.27619124 -14.08502129 140.79685744 -15.75 140.3125 C-16.0490625 141.40046875 -16.348125 142.4884375 -16.65625 143.609375 C-18.05348344 148.34000823 -20.02111989 152.21917984 -22.75 156.3125 C-23.74 156.3125 -24.73 156.3125 -25.75 156.3125 C-25.75 156.9725 -25.75 157.6325 -25.75 158.3125 C-27.4 158.6425 -29.05 158.9725 -30.75 159.3125 C-31.08 160.3025 -31.41 161.2925 -31.75 162.3125 C-34.47923388 162.3395817 -37.20819637 162.35937847 -39.9375 162.375 C-41.09088867 162.38756836 -41.09088867 162.38756836 -42.26757812 162.40039062 C-46.23526789 162.41741934 -49.87571234 162.29854115 -53.75 161.3125 C-53.75 160.6525 -53.75 159.9925 -53.75 159.3125 C-54.74 158.9825 -55.73 158.6525 -56.75 158.3125 C-58.3203125 156.60546875 -58.3203125 156.60546875 -59.875 154.5 C-60.39320313 153.81292969 -60.91140625 153.12585938 -61.4453125 152.41796875 C-62.72967647 150.34529755 -63.31106659 148.69451668 -63.75 146.3125 C-64.41 146.3125 -65.07 146.3125 -65.75 146.3125 C-65.82433779 141.41954853 -65.87869027 136.52692817 -65.91479492 131.63354492 C-65.92985114 129.97007519 -65.95030063 128.30664495 -65.97631836 126.64331055 C-66.01284207 124.24778478 -66.02975782 121.85278533 -66.04296875 119.45703125 C-66.05845261 118.7172554 -66.07393646 117.97747955 -66.08988953 117.21528625 C-66.09134896 112.70450384 -65.48750972 109.91772668 -62.75 106.3125 C-61.76 105.3225 -61.76 105.3225 -60.75 104.3125 C-61.678125 104.2196875 -61.678125 104.2196875 -62.625 104.125 C-64.75 103.3125 -64.75 103.3125 -66 100.75 C-66.2475 99.945625 -66.495 99.14125 -66.75 98.3125 C-67.41 98.3125 -68.07 98.3125 -68.75 98.3125 C-69.70221784 96.17000987 -70.65371193 94.02724039 -71.6015625 91.8828125 C-72.3327083 90.24643857 -73.07621042 88.61548926 -73.8359375 86.9921875 C-74.17882812 86.25226563 -74.52171875 85.51234375 -74.875 84.75 C-75.18695313 84.08871094 -75.49890625 83.42742187 -75.8203125 82.74609375 C-78.18425352 76.55813048 -79.15700829 70.2318179 -79.875 63.6875 C-79.96136719 62.96304688 -80.04773438 62.23859375 -80.13671875 61.4921875 C-80.60924872 57.3519249 -80.75 53.52905729 -80.75 49.3125 C-73.49 49.3125 -66.23 49.3125 -58.75 49.3125 C-58.481875 47.45625 -58.21375 45.6 -57.9375 43.6875 C-57.16481091 38.98465849 -56.22684234 35.36551473 -53.75 31.3125 C-53.09 31.3125 -52.43 31.3125 -51.75 31.3125 C-51.688125 30.590625 -51.62625 29.86875 -51.5625 29.125 C-50.50334493 25.45869401 -48.51525038 23.87035661 -45.75 21.3125 C-45.42 20.6525 -45.09 19.9925 -44.75 19.3125 C-44.09 19.3125 -43.43 19.3125 -42.75 19.3125 C-42.255 17.8275 -42.255 17.8275 -41.75 16.3125 C-41.09 16.3125 -40.43 16.3125 -39.75 16.3125 C-39.75 15.6525 -39.75 14.9925 -39.75 14.3125 C-37.69779168 12.76727214 -35.66298705 11.37458736 -33.5 10 C-32.9328125 9.62166016 -32.365625 9.24332031 -31.78125 8.85351562 C-21.42780523 2.20255274 -12.30292796 -0.45231353 0 0 Z " fill="#ADC0D9" transform="translate(268.75,-0.3125)"/>
<path d="M0 0 C1.27290894 0.00193359 1.27290894 0.00193359 2.5715332 0.00390625 C8.71244123 0.09799275 14.18731836 0.85612335 19.875 3.3125 C19.875 3.9725 19.875 4.6325 19.875 5.3125 C20.41125 5.415625 20.9475 5.51875 21.5 5.625 C24.50002044 6.49342697 27.1129535 7.86870296 29.875 9.3125 C29.875 9.9725 29.875 10.6325 29.875 11.3125 C30.535 11.498125 31.195 11.68375 31.875 11.875 C39.03830328 15.30741616 43.52516432 20.80057087 47.8125 27.3125 C48.39692871 28.18406738 48.39692871 28.18406738 48.99316406 29.07324219 C51.56203873 33.14729898 52.41556436 36.55734116 52.875 41.3125 C53.5219365 42.9869239 54.18459426 44.65552621 54.875 46.3125 C54.875 47.3025 54.875 48.2925 54.875 49.3125 C62.465 49.3125 70.055 49.3125 77.875 49.3125 C77.689375 53.829375 77.689375 53.829375 77.5 58.4375 C77.44900146 59.84346436 77.44900146 59.84346436 77.39697266 61.27783203 C77.17529403 65.98724892 76.55785035 69.86496695 74.875 74.3125 C74.44674708 76.24747204 74.03012914 78.18505471 73.625 80.125 C72.35636602 85.38263773 70.40709155 89.16142248 67.1796875 93.47265625 C65.68900498 95.38579689 65.68900498 95.38579689 64.875 98.3125 C64.215 98.3125 63.555 98.3125 62.875 98.3125 C62.875 99.3025 62.875 100.2925 62.875 101.3125 C62.215 101.3125 61.555 101.3125 60.875 101.3125 C60.38 102.7975 60.38 102.7975 59.875 104.3125 C58.885 104.3125 57.895 104.3125 56.875 104.3125 C56.875 104.9725 56.875 105.6325 56.875 106.3125 C58.36 106.8075 58.36 106.8075 59.875 107.3125 C62.52107127 111.54140228 63.25179902 114.79614651 63.23828125 119.7421875 C63.23731445 121.55396484 63.23731445 121.55396484 63.23632812 123.40234375 C63.22021484 124.65144531 63.20410156 125.90054688 63.1875 127.1875 C63.19072266 128.42886719 63.19394531 129.67023438 63.19726562 130.94921875 C63.1594319 137.40846674 62.81650938 143.13989249 60.875 149.3125 C60.215 149.3125 59.555 149.3125 58.875 149.3125 C58.7925 149.869375 58.71 150.42625 58.625 151 C57.61206205 154.12322533 56.1592825 155.96476521 53.875 158.3125 C51.125 159.125 51.125 159.125 48.875 159.3125 C48.875 159.9725 48.875 160.6325 48.875 161.3125 C45.02521634 162.59576122 41.38426659 162.4575798 37.375 162.4375 C36.21677734 162.44330078 36.21677734 162.44330078 35.03515625 162.44921875 C31.72996263 162.44349051 29.03122502 162.36457501 25.875 161.3125 C25.875 160.6525 25.875 159.9925 25.875 159.3125 C24.555 158.9825 23.235 158.6525 21.875 158.3125 C21.875 157.6525 21.875 156.9925 21.875 156.3125 C21.25625 156.250625 20.6375 156.18875 20 156.125 C17.875 155.3125 17.875 155.3125 16.75 152.8125 C16.46125 151.9875 16.1725 151.1625 15.875 150.3125 C15.215 149.9825 14.555 149.6525 13.875 149.3125 C12.91938803 145.18210747 12.74662565 141.18795613 12.7421875 136.9609375 C12.74089844 135.78015625 12.73960938 134.599375 12.73828125 133.3828125 C12.74214844 132.16335937 12.74601562 130.94390625 12.75 129.6875 C12.74419922 127.84671875 12.74419922 127.84671875 12.73828125 125.96875 C12.73957031 124.79054688 12.74085937 123.61234375 12.7421875 122.3984375 C12.74331543 121.3264209 12.74444336 120.2544043 12.74560547 119.14990234 C12.85760313 116.69398386 13.16424463 114.65368725 13.875 112.3125 C13.215 112.3125 12.555 112.3125 11.875 112.3125 C11.875 121.5525 11.875 130.7925 11.875 140.3125 C2.21229111 142.97807487 -6.03229345 145.00063908 -16.125 144.3125 C-17.10119945 136.99250001 -17.26112598 129.82825589 -17.23852539 122.44897461 C-17.23867142 121.18944977 -17.23881744 119.92992493 -17.2389679 118.63223267 C-17.23925287 115.20517441 -17.23340489 111.77815169 -17.22639394 108.35110164 C-17.22011021 104.75966879 -17.21955265 101.16823498 -17.21836853 97.57679749 C-17.21526994 90.78784849 -17.20707653 83.99891574 -17.19701904 77.20997387 C-17.18581202 69.47593633 -17.18033592 61.74189799 -17.17532361 54.00785434 C-17.16489258 38.10939351 -17.14732184 22.21094886 -17.125 6.3125 C-16.465 6.3125 -15.805 6.3125 -15.125 6.3125 C-14.8775 5.69375 -14.63 5.075 -14.375 4.4375 C-11.26650379 -0.84694356 -5.42331094 -0.03359062 0 0 Z " fill="#ADC0D9" transform="translate(82.125,-0.3125)"/>
<path d="M0 0 C0.928125 0.20625 1.85625 0.4125 2.8125 0.625 C2.8125 1.615 2.8125 2.605 2.8125 3.625 C3.4725 3.625 4.1325 3.625 4.8125 3.625 C4.8125 4.615 4.8125 5.605 4.8125 6.625 C5.8025 6.955 6.7925 7.285 7.8125 7.625 C9.83600324 10.66025486 10.13374018 11.81926202 10.4375 15.3125 C10.54964844 16.52486328 10.54964844 16.52486328 10.6640625 17.76171875 C10.71304688 18.37660156 10.76203125 18.99148437 10.8125 19.625 C11.4725 19.625 12.1325 19.625 12.8125 19.625 C14.61307892 30.42847355 14.35805486 41.80611601 12.8125 52.625 C12.1525 52.625 11.4925 52.625 10.8125 52.625 C10.75191406 53.23988281 10.69132812 53.85476563 10.62890625 54.48828125 C10.50322266 55.70064453 10.50322266 55.70064453 10.375 56.9375 C10.25318359 58.13826172 10.25318359 58.13826172 10.12890625 59.36328125 C9.8125 61.625 9.8125 61.625 8.8125 64.625 C8.1525 64.625 7.4925 64.625 6.8125 64.625 C6.585625 65.49125 6.35875 66.3575 6.125 67.25 C4.54274094 71.31866616 2.85483058 73.50846624 -0.1875 76.625 C-1.1775 76.625 -2.1675 76.625 -3.1875 76.625 C-3.6825 78.11 -3.6825 78.11 -4.1875 79.625 C-4.8475 79.625 -5.5075 79.625 -6.1875 79.625 C-6.6825 81.11 -6.6825 81.11 -7.1875 82.625 C-10.02028531 84.87249909 -13.12704549 86.70294985 -16.1875 88.625 C-16.97125 89.181875 -17.755 89.73875 -18.5625 90.3125 C-22.04025431 92.05137715 -25.60905467 92.93170722 -29.37109375 93.87890625 C-32.21840863 94.57986603 -32.21840863 94.57986603 -34.99609375 95.69921875 C-39.01773139 96.86583824 -42.65054373 96.91835371 -46.8125 96.875 C-47.56273437 96.88273437 -48.31296875 96.89046875 -49.0859375 96.8984375 C-53.03815455 96.88442255 -55.77313025 96.58644645 -59.1875 94.625 C-61.09235849 94.19401247 -63.01106582 93.82107236 -64.9375 93.5 C-65.92234375 93.33242188 -66.9071875 93.16484375 -67.921875 92.9921875 C-69.04335937 92.81042969 -69.04335937 92.81042969 -70.1875 92.625 C-70.1875 91.965 -70.1875 91.305 -70.1875 90.625 C-71.5075 90.625 -72.8275 90.625 -74.1875 90.625 C-75.85416667 88.95833333 -77.52083333 87.29166667 -79.1875 85.625 C-81.86540896 84.75261142 -81.86540896 84.75261142 -84.1875 84.625 C-84.5175 82.975 -84.8475 81.325 -85.1875 79.625 C-86.8375 79.295 -88.4875 78.965 -90.1875 78.625 C-90.1875 77.635 -90.1875 76.645 -90.1875 75.625 C-90.8475 75.625 -91.5075 75.625 -92.1875 75.625 C-92.1875 74.965 -92.1875 74.305 -92.1875 73.625 C-93.1775 73.295 -94.1675 72.965 -95.1875 72.625 C-95.6825 70.15 -95.6825 70.15 -96.1875 67.625 C-96.8475 67.625 -97.5075 67.625 -98.1875 67.625 C-98.6825 64.655 -98.6825 64.655 -99.1875 61.625 C-99.8475 61.625 -100.5075 61.625 -101.1875 61.625 C-107.70298234 48.59403531 -107.6395466 32.56103997 -104.1875 18.625 C-103.5275 18.295 -102.8675 17.965 -102.1875 17.625 C-101.40734379 15.79989003 -100.70954594 13.93893324 -100.0625 12.0625 C-99.70929688 11.05058594 -99.35609375 10.03867188 -98.9921875 8.99609375 C-98.59386719 7.82240234 -98.59386719 7.82240234 -98.1875 6.625 C-97.5275 6.625 -96.8675 6.625 -96.1875 6.625 C-96.1875 5.635 -96.1875 4.645 -96.1875 3.625 C-95.5275 3.625 -94.8675 3.625 -94.1875 3.625 C-94.1875 2.635 -94.1875 1.645 -94.1875 0.625 C-89.42476348 0.34651915 -86.2362612 1.18273785 -81.875 3.0625 C-76.47820369 5.25707353 -71.97077333 6.23944844 -66.1875 6.625 C-65.6925 7.12 -65.6925 7.12 -65.1875 7.625 C-62.42003808 7.76357379 -59.6794387 7.83822876 -56.91015625 7.86328125 C-55.64938515 7.87538887 -55.64938515 7.87538887 -54.36314392 7.88774109 C-52.57504348 7.90160794 -50.78691628 7.91231839 -48.9987793 7.92016602 C-46.29227332 7.93723342 -43.5870359 7.98107578 -40.88085938 8.02539062 C-31.74174663 8.10678403 -24.47886301 7.85373628 -16.1875 3.625 C-13.12890625 2.8671875 -13.12890625 2.8671875 -10.75 2.5 C-6.6357423 1.8528134 -4.07952295 -0.47994388 0 0 Z " fill="#FEFEFE" transform="translate(221.1875,227.375)"/>
<path d="M0 0 C0.99 0.495 0.99 0.495 2 1 C2 1.66 2 2.32 2 3 C2.99 3.33 3.98 3.66 5 4 C6.48841297 6.33725047 7.79318008 8.61099343 9.0625 11.0625 C9.5894043 12.02833008 9.5894043 12.02833008 10.12695312 13.01367188 C14.616529 21.52604352 15.30888232 29.34767021 15.30078125 38.83984375 C15.30506638 39.96137344 15.3093515 41.08290314 15.31376648 42.23841858 C15.31948765 44.60091479 15.32002644 46.96342861 15.31567383 49.32592773 C15.31251303 52.9226713 15.33600485 56.51859223 15.36132812 60.11523438 C15.36360139 62.4192698 15.36430449 64.72330743 15.36328125 67.02734375 C15.372491 68.09323227 15.38170074 69.15912079 15.39118958 70.25730896 C15.35148027 76.72536782 14.47422672 82.01954902 12 88 C11.60039062 88.99128906 11.20078125 89.98257813 10.7890625 91.00390625 C5.41284337 102.82076373 5.41284337 102.82076373 2 107 C1.34 107 0.68 107 0 107 C-0.495 108.98 -0.495 108.98 -1 111 C-1.66 111 -2.32 111 -3 111 C-3.38671875 111.87398437 -3.38671875 111.87398437 -3.78125 112.765625 C-5.09834017 115.1802903 -6.55088384 116.81740177 -8.5 118.75 C-9.1084375 119.36359375 -9.716875 119.9771875 -10.34375 120.609375 C-12 122 -12 122 -14 122 C-14.495 123.485 -14.495 123.485 -15 125 C-15.99 125 -16.98 125 -18 125 C-18 125.66 -18 126.32 -18 127 C-23.29411765 131 -23.29411765 131 -27 131 C-27 131.66 -27 132.32 -27 133 C-36.48863635 137.87429949 -45.62710585 140.76248412 -56 143 C-56.76594482 143.17869629 -57.53188965 143.35739258 -58.32104492 143.54150391 C-61.3921484 144.06711516 -64.27884056 144.11242256 -67.39453125 144.09765625 C-68.59658203 144.09443359 -69.79863281 144.09121094 -71.03710938 144.08789062 C-72.28298828 144.07951172 -73.52886719 144.07113281 -74.8125 144.0625 C-76.07771484 144.05798828 -77.34292969 144.05347656 -78.64648438 144.04882812 C-81.7643711 144.03706251 -84.88216133 144.02062272 -88 144 C-88 143.34 -88 142.68 -88 142 C-88.99 142 -89.98 142 -91 142 C-90.01 139.03 -89.02 136.06 -88 133 C-87.34 133 -86.68 133 -86 133 C-85.91363281 132.36835938 -85.82726562 131.73671875 -85.73828125 131.0859375 C-84.46057849 122.95083919 -81.93155152 115.66455264 -79 108 C-78.34 108 -77.68 108 -77 108 C-76.87625 106.88625 -76.7525 105.7725 -76.625 104.625 C-76 101 -76 101 -74 99 C-71.92845819 98.54648449 -69.84162412 98.16188564 -67.75 97.8125 C-59.65930414 96.19436083 -53.21830494 92.95197434 -46 89 C-45.22914063 88.66097656 -44.45828125 88.32195312 -43.6640625 87.97265625 C-41.64656807 87.03879902 -41.64656807 87.03879902 -41 84 C-40.34 84 -39.68 84 -39 84 C-38.71125 83.4225 -38.4225 82.845 -38.125 82.25 C-37.08333333 80.16666667 -36.04166667 78.08333333 -35 76 C-34.34 76 -33.68 76 -33 76 C-32.814375 74.6696875 -32.814375 74.6696875 -32.625 73.3125 C-32 70 -32 70 -31 67.5625 C-27.35962029 58.234027 -28.32634094 46.47933667 -31 37 C-32.17338012 34.34286179 -33.45322377 31.81890856 -34.87890625 29.2890625 C-37.33624128 24.27164672 -37.95384565 18.30749074 -36.3984375 12.9140625 C-35.66092168 10.91010538 -34.85439355 8.95656123 -34 7 C-33.71125 6.236875 -33.4225 5.47375 -33.125 4.6875 C-31.51682757 2.27524136 -29.56152654 1.28076327 -27 0 C-26.34 0 -25.68 0 -25 0 C-25 -0.66 -25 -1.32 -25 -2 C-15.60289539 -5.19901434 -8.79847268 -4.63175412 0 0 Z " fill="#AFC1D9" transform="translate(331,216)"/>
<path d="M0 0 C2.70894767 -0.08144943 5.41541263 -0.14070614 8.125 -0.1875 C8.88554688 -0.21263672 9.64609375 -0.23777344 10.4296875 -0.26367188 C15.4024261 -0.32797453 18.63616482 0.34405558 23 3 C23 3.66 23 4.32 23 5 C23.99 5.33 24.98 5.66 26 6 C26 6.66 26 7.32 26 8 C26.66 8 27.32 8 28 8 C28 8.99 28 9.98 28 11 C28.99 11.33 29.98 11.66 31 12 C33.64607127 16.22890228 34.37679902 19.48364651 34.36328125 24.4296875 C34.36263672 25.63753906 34.36199219 26.84539062 34.36132812 28.08984375 C34.34521484 29.33894531 34.32910156 30.58804688 34.3125 31.875 C34.31572266 33.11636719 34.31894531 34.35773438 34.32226562 35.63671875 C34.2844319 42.09596674 33.94150938 47.82739249 32 54 C31.34 54 30.68 54 30 54 C29.9175 54.556875 29.835 55.11375 29.75 55.6875 C28.73706205 58.81072533 27.2842825 60.65226521 25 63 C22.25 63.8125 22.25 63.8125 20 64 C20 64.66 20 65.32 20 66 C16.15021634 67.28326122 12.50926659 67.1450798 8.5 67.125 C7.72785156 67.12886719 6.95570312 67.13273437 6.16015625 67.13671875 C2.85496263 67.13099051 0.15622502 67.05207501 -3 66 C-3 65.34 -3 64.68 -3 64 C-4.32 63.67 -5.64 63.34 -7 63 C-7 62.34 -7 61.68 -7 61 C-7.928125 60.9071875 -7.928125 60.9071875 -8.875 60.8125 C-11 60 -11 60 -12.125 57.5 C-12.41375 56.675 -12.7025 55.85 -13 55 C-13.66 54.67 -14.32 54.34 -15 54 C-16.43183812 47.70312086 -16.26001348 41.2993501 -16.3125 34.875 C-16.34150391 33.71484375 -16.37050781 32.5546875 -16.40039062 31.359375 C-16.45763522 23.48604144 -15.67450722 16.09779259 -12 9 C-11.01 8.67 -10.02 8.34 -9 8 C-9 7.34 -9 6.68 -9 6 C-7.11930017 3.3879169 -6.02464205 3.00531495 -2.8125 2.3125 C-1.4203125 2.1578125 -1.4203125 2.1578125 0 2 C0 1.34 0 0.68 0 0 Z " fill="#F6F9F9" transform="translate(111,95)"/>
<path d="M0 0 C1.17852539 -0.01740234 1.17852539 -0.01740234 2.38085938 -0.03515625 C7.33325068 -0.01029069 10.80686183 0.59657744 15.0625 3.375 C16.9609375 5.3125 16.9609375 5.3125 18.4375 7.375 C18.94023437 8.055625 19.44296875 8.73625 19.9609375 9.4375 C21.0625 11.375 21.0625 11.375 21.0625 14.375 C21.7225 14.375 22.3825 14.375 23.0625 14.375 C25.37467064 18.99934127 24.41638966 25.7965825 24.4675293 30.93017578 C24.48898911 32.5459547 24.52294778 34.16162122 24.57006836 35.77685547 C24.83231746 44.85758044 24.93306886 52.0165975 19.65258789 59.8203125 C18.0625 61.375 18.0625 61.375 15.0625 61.375 C15.0625 62.035 15.0625 62.695 15.0625 63.375 C12.5875 63.87 12.5875 63.87 10.0625 64.375 C9.5675 65.86 9.5675 65.86 9.0625 67.375 C6.33326612 67.4020817 3.60430363 67.42187847 0.875 67.4375 C0.10607422 67.44587891 -0.66285156 67.45425781 -1.45507812 67.46289062 C-5.42276789 67.47991934 -9.06321234 67.36104115 -12.9375 66.375 C-12.9375 65.715 -12.9375 65.055 -12.9375 64.375 C-13.9275 64.045 -14.9175 63.715 -15.9375 63.375 C-17.5078125 61.66796875 -17.5078125 61.66796875 -19.0625 59.5625 C-19.58070313 58.87542969 -20.09890625 58.18835938 -20.6328125 57.48046875 C-21.91717647 55.40779755 -22.49856659 53.75701668 -22.9375 51.375 C-23.5975 51.375 -24.2575 51.375 -24.9375 51.375 C-25.01183779 46.48204853 -25.06619027 41.58942817 -25.10229492 36.69604492 C-25.11735114 35.03257519 -25.13780063 33.36914495 -25.16381836 31.70581055 C-25.20034207 29.31028478 -25.21725782 26.91528533 -25.23046875 24.51953125 C-25.24595261 23.7797554 -25.26143646 23.03997955 -25.27738953 22.27778625 C-25.27914368 16.85607534 -24.08171106 13.69789532 -20.4375 9.75 C-19.9425 9.29625 -19.4475 8.8425 -18.9375 8.375 C-18.421875 7.818125 -17.90625 7.26125 -17.375 6.6875 C-15.9375 5.375 -15.9375 5.375 -13.9375 5.375 C-13.9375 4.715 -13.9375 4.055 -13.9375 3.375 C-9.56573401 -0.23148703 -5.39044889 -0.0792066 0 0 Z " fill="#F8FAFA" transform="translate(227.9375,94.625)"/>
<path d="M0 0 C12.21 0 24.42 0 37 0 C37 1.65 37 3.3 37 5 C36.01 5.33 35.02 5.66 34 6 C34 6.99 34 7.98 34 9 C33.01 9 32.02 9 31 9 C31 9.99 31 10.98 31 12 C30.01 12 29.02 12 28 12 C27.9175 12.556875 27.835 13.11375 27.75 13.6875 C27 16 27 16 24.9375 18.25 C22.24834968 22.06685851 22.68868537 24.40810918 23 29 C23.66 29.33 24.32 29.66 25 30 C25 30.66 25 31.32 25 32 C32.74338636 32.38958535 32.74338636 32.38958535 40 30 C40.09087891 29.04287109 40.09087891 29.04287109 40.18359375 28.06640625 C40.26738281 27.24011719 40.35117188 26.41382813 40.4375 25.5625 C40.51871094 24.73878906 40.59992188 23.91507813 40.68359375 23.06640625 C41 21 41 21 42 20 C45 19.875 45 19.875 48 20 C49 21 49 21 49.375 24.625 C49.33625587 28.91785016 47.90297725 31.36476334 45.38671875 34.75 C44 36 44 36 41 36 C41 36.66 41 37.32 41 38 C37.49904689 39.16698437 34.6877768 39.13268287 31 39.125 C29.7625 39.12757813 28.525 39.13015625 27.25 39.1328125 C24 39 24 39 21 38 C20.67 37.34 20.34 36.68 20 36 C18.02 36 16.04 36 14 36 C14 36.66 14 37.32 14 38 C10.49904689 39.16698437 7.6877768 39.13268287 4 39.125 C2.7625 39.12757813 1.525 39.13015625 0.25 39.1328125 C-3 39 -3 39 -6 38 C-6 37.34 -6 36.68 -6 36 C-6.99 35.67 -7.98 35.34 -9 35 C-10.67578125 33.79296875 -10.67578125 33.79296875 -12 32 C-12.29296875 29.30078125 -12.29296875 29.30078125 -12.1875 26.3125 C-12.16042969 25.31863281 -12.13335937 24.32476562 -12.10546875 23.30078125 C-12.07066406 22.54152344 -12.03585938 21.78226563 -12 21 C-10.35 20.67 -8.7 20.34 -7 20 C-6.76216797 20.92232422 -6.76216797 20.92232422 -6.51953125 21.86328125 C-5.06811488 26.98144474 -5.06811488 26.98144474 -1.8125 31.0625 C2.18106508 32.39368836 4.78370332 32.54403828 9 32 C10.9354148 29.60943058 10.9354148 29.60943058 12 27 C12.66 27 13.32 27 14 27 C13.745504 25.51793505 13.47088238 24.03931385 13.1875 22.5625 C13.03667969 21.73878906 12.88585937 20.91507813 12.73046875 20.06640625 C12.48941406 19.38449219 12.24835938 18.70257813 12 18 C11.01 17.67 10.02 17.34 9 17 C8.5359375 16.01 8.5359375 16.01 8.0625 15 C7.17972859 12.79394438 7.17972859 12.79394438 4.875 12.25 C4.25625 12.1675 3.6375 12.085 3 12 C3 10.02 3 8.04 3 6 C2.01 6 1.02 6 0 6 C0 4.02 0 2.04 0 0 Z " fill="#B0C3DA" transform="translate(157,152)"/>
<path d="M0 0 C7.42857143 -0.14285714 7.42857143 -0.14285714 11 1 C11 1.66 11 2.32 11 3 C11.99 3.33 12.98 3.66 14 4 C14.33 6.31 14.66 8.62 15 11 C15.66 11 16.32 11 17 11 C17.08751413 14.87485635 17.14056435 18.74945643 17.1875 22.625 C17.21263672 23.71941406 17.23777344 24.81382812 17.26367188 25.94140625 C17.31690288 31.79681683 17.29983099 36.06324498 14 41 C13.34 41 12.68 41 12 41 C12 41.66 12 42.32 12 43 C8.19580714 45.91490102 5.41093323 46.34321758 0.6875 46.1875 C-0.91544922 46.14689453 -0.91544922 46.14689453 -2.55078125 46.10546875 C-3.35902344 46.07066406 -4.16726562 46.03585938 -5 46 C-5 45.34 -5 44.68 -5 44 C-5.8971875 43.9071875 -5.8971875 43.9071875 -6.8125 43.8125 C-9.92266847 42.65729457 -10.60417708 40.93122813 -12 38 C-12 37.01 -12 36.02 -12 35 C-12.66 35 -13.32 35 -14 35 C-14 27.41 -14 19.82 -14 12 C-13.34 12 -12.68 12 -12 12 C-12 12.66 -12 13.32 -12 14 C-10.741875 14.185625 -9.48375 14.37125 -8.1875 14.5625 C-7.47980469 14.66691406 -6.77210938 14.77132812 -6.04296875 14.87890625 C-3.7974658 15.13904799 -3.7974658 15.13904799 -1 14 C1.17671203 10.67091101 1.97506953 6.80688461 3 3 C2.34 3 1.68 3 1 3 C0.67 2.01 0.34 1.02 0 0 Z " fill="#748394" transform="translate(226,106)"/>
<path d="M0 0 C1.258125 -0.020625 2.51625 -0.04125 3.8125 -0.0625 C4.52019531 -0.07410156 5.22789063 -0.08570312 5.95703125 -0.09765625 C8 0 8 0 11 1 C11 1.66 11 2.32 11 3 C11.99 3.33 12.98 3.66 14 4 C14 4.66 14 5.32 14 6 C14.66 6 15.32 6 16 6 C17.65685067 10.97055201 17.30338389 16.13510547 17.35009766 21.34179688 C17.36665751 22.69385999 17.39394924 24.04583554 17.43212891 25.39746094 C17.48707871 27.35558539 17.505666 29.3146228 17.5234375 31.2734375 C17.54325684 32.44310059 17.56307617 33.61276367 17.58349609 34.81787109 C16.82861874 38.9346374 15.1492566 40.34397908 12 43 C11.29875 43.598125 10.5975 44.19625 9.875 44.8125 C5.35935993 46.67765568 0.82129778 46.2279773 -4 46 C-4 45.34 -4 44.68 -4 44 C-5.1446875 43.9071875 -5.1446875 43.9071875 -6.3125 43.8125 C-9 43 -9 43 -10.75 40.75 C-13.36222182 35.00311201 -13.1225645 29.38338405 -13.0625 23.1875 C-13.05798828 22.30384766 -13.05347656 21.42019531 -13.04882812 20.50976562 C-13.03709866 18.33981441 -13.01916495 16.16989828 -13 14 C-11.68 14.33 -10.36 14.66 -9 15 C-9 15.66 -9 16.32 -9 17 C-7.02 17 -5.04 17 -3 17 C-2.67 16.01 -2.34 15.02 -2 14 C-1.34 14 -0.68 14 0 14 C2.04148509 10.32532684 3.27583713 6.98602732 2.6875 2.75 C2.14401324 0.79327132 2.14401324 0.79327132 0 0 Z " fill="#748293" transform="translate(117,106)"/>
<path d="M0 0 C0 8.91 0 17.82 0 27 C-10.56 27 -21.12 27 -32 27 C-28.56340058 18.98126801 -28.56340058 18.98126801 -26.4375 15.5625 C-26.02371094 14.88316406 -25.60992187 14.20382813 -25.18359375 13.50390625 C-24.79300781 13.00761719 -24.40242187 12.51132812 -24 12 C-23.34 12 -22.68 12 -22 12 C-22 11.34 -22 10.68 -22 10 C-15.28616946 3.6819962 -9.32878218 0 0 0 Z " fill="#FCD7D7" transform="translate(263,22)"/>
<path d="M0 0 C9 1.125 9 1.125 12 3 C12 3.66 12 4.32 12 5 C12.61875 5.103125 13.2375 5.20625 13.875 5.3125 C16 6 16 6 18 9 C19.65532623 10.01866229 21.32260138 11.01810813 23 12 C25.376725 14.09639333 26.78678866 16.16637707 28.1875 19 C28.53167969 19.680625 28.87585938 20.36125 29.23046875 21.0625 C30 23 30 23 30 26 C20.1 26 10.2 26 0 26 C0 17.42 0 8.84 0 0 Z " fill="#FBD7D7" transform="translate(85,22)"/>
<path d="M0 0 C12.21 0 24.42 0 37 0 C37 1.65 37 3.3 37 5 C36.01 5.33 35.02 5.66 34 6 C34 6.99 34 7.98 34 9 C33.01 9 32.02 9 31 9 C31 9.99 31 10.98 31 12 C30.01 12 29.02 12 28 12 C27.9175 12.556875 27.835 13.11375 27.75 13.6875 C26.66632684 17.02882557 25.6696896 18.6558823 23 21 C19.62750275 21.42884188 16.38075062 21.29033164 13 21 C12.67 20.01 12.34 19.02 12 18 C11.01 17.67 10.02 17.34 9 17 C8.690625 16.34 8.38125 15.68 8.0625 15 C7.17972859 12.79394438 7.17972859 12.79394438 4.875 12.25 C4.25625 12.1675 3.6375 12.085 3 12 C3 10.02 3 8.04 3 6 C2.01 6 1.02 6 0 6 C0 4.02 0 2.04 0 0 Z " fill="#F4A3A4" transform="translate(157,152)"/>
<path d="M0 0 C1.64574566 -0.02688151 3.29161413 -0.04634123 4.9375 -0.0625 C5.85402344 -0.07410156 6.77054688 -0.08570313 7.71484375 -0.09765625 C10 0 10 0 11 1 C13.85528607 1.400383 16.69736487 1.7518227 19.5625 2.0625 C20.36880859 2.15337891 21.17511719 2.24425781 22.00585938 2.33789062 C24.00347377 2.56247449 26.0016856 2.78173236 28 3 C28 3.66 28 4.32 28 5 C29.65 5 31.3 5 33 5 C33 5.66 33 6.32 33 7 C34.79630859 7.05607422 34.79630859 7.05607422 36.62890625 7.11328125 C63.71828047 8.13314939 63.71828047 8.13314939 69.41015625 13.10546875 C69.93480469 13.73066406 70.45945312 14.35585937 71 15 C69 17 69 17 67.15234375 17.265625 C60.56020052 17.21911958 54.6895699 16.07612455 48.375 14.234375 C42.66535435 12.57987541 37.35648371 11.59759052 31.41015625 11.30859375 C29 11 29 11 27.234375 10.03515625 C23.71230906 8.4034299 20.0240609 8.33659511 16.1875 8 C10.54603965 7.49771004 5.4042236 6.73166043 0 5 C0 3.35 0 1.7 0 0 Z " fill="#B4C4DA" transform="translate(221,188)"/>
<path d="M0 0 C0.99 0 1.98 0 3 0 C3 0.66 3 1.32 3 2 C4.98 2.66 6.96 3.32 9 4 C9 4.66 9 5.32 9 6 C9.556875 6.12375 10.11375 6.2475 10.6875 6.375 C13.22114364 7.05976855 15.57921032 7.99133763 18 9 C18 9.66 18 10.32 18 11 C18.94875 11.309375 19.8975 11.61875 20.875 11.9375 C24 13 24 13 26 14 C26.04254356 15.99954746 26.04080783 18.00041636 26 20 C25 21 25 21 22.49975586 21.11352539 C21.41573486 21.10828857 20.33171387 21.10305176 19.21484375 21.09765625 C18.04501953 21.09443359 16.87519531 21.09121094 15.66992188 21.08789062 C13.82237305 21.07532227 13.82237305 21.07532227 11.9375 21.0625 C10.08415039 21.05573242 10.08415039 21.05573242 8.19335938 21.04882812 C5.12885883 21.03699608 2.06445279 21.02051173 -1 21 C-1.01358101 18.93361212 -1.02323453 16.86719821 -1.03125 14.80078125 C-1.03705078 13.65005127 -1.04285156 12.49932129 -1.04882812 11.3137207 C-0.99197755 7.45555644 -0.59726067 3.80753678 0 0 Z " fill="#B0C2D9" transform="translate(79,234)"/>
<path d="M0 0 C3.96 0 7.92 0 12 0 C11.67 1.65 11.34 3.3 11 5 C3.13646226 6.74486784 -4.70755263 8.35649866 -12.671875 9.5703125 C-15.01357037 9.8911815 -15.01357037 9.8911815 -17 11 C-20.72137433 11.4077203 -24.44099788 11.76732402 -28.171875 12.07421875 C-33.10078772 12.55251785 -36.61439762 13.53962485 -41 16 C-46.64891928 17.19496369 -52.25491056 17.10403582 -58 17 C-58 15.35 -58 13.7 -58 12 C-49.01294839 9.27489403 -39.96295674 8.10135689 -30.65991211 7.00268555 C-29.68546143 6.88578369 -28.71101074 6.76888184 -27.70703125 6.6484375 C-26.8250708 6.54708496 -25.94311035 6.44573242 -25.03442383 6.34130859 C-23.01065615 6.20411184 -23.01065615 6.20411184 -22 5 C-14.72939179 3.61512225 -7.36027475 2.74850252 0 2 C0 1.34 0 0.68 0 0 Z " fill="#B6C5DA" transform="translate(117,188)"/>
<path d="M0 0 C1.25433458 3.76300374 1.10695422 7.27210909 1.0625 11.1875 C1.05798828 11.93708984 1.05347656 12.68667969 1.04882812 13.45898438 C1.03706354 15.30602383 1.01912865 17.15302213 1 19 C-2.7499837 19.02905924 -6.49993837 19.04681874 -10.25 19.0625 C-11.84521484 19.07506836 -11.84521484 19.07506836 -13.47265625 19.08789062 C-14.49746094 19.09111328 -15.52226562 19.09433594 -16.578125 19.09765625 C-17.99206543 19.10551147 -17.99206543 19.10551147 -19.43457031 19.11352539 C-21.78123437 19.00968082 -23.75644478 18.66706529 -26 18 C-26 16.35 -26 14.7 -26 13 C-24.68 12.67 -23.36 12.34 -22 12 C-22 11.34 -22 10.68 -22 10 C-15.58278146 6.22516556 -15.58278146 6.22516556 -12.25 4.9375 C-9.86682711 3.9445113 -8.75949923 2.83947647 -7 1 C-4 0 -4 0 0 0 Z " fill="#B0C2D9" transform="translate(271,236)"/>
<path d="M0 0 C0.94818604 0.00459229 1.89637207 0.00918457 2.87329102 0.01391602 C3.86208252 0.01657471 4.85087402 0.0192334 5.86962891 0.02197266 C15.74850638 0.08067377 25.62301803 0.31767524 35.49829102 0.57641602 C36.67761703 0.60575226 36.67761703 0.60575226 37.88076782 0.63568115 C40.15837062 0.69349843 42.43573934 0.75707644 44.71313477 0.82250977 C45.38639801 0.83923233 46.05966125 0.8559549 46.75332642 0.8731842 C51.4154147 1.0169073 55.94552227 1.50738672 60.56079102 2.13891602 C61.05579102 4.61391602 61.05579102 4.61391602 61.56079102 7.13891602 C14.94771133 7.55949489 14.94771133 7.55949489 -6.43920898 4.13891602 C-6.76920898 3.14891602 -7.09920898 2.15891602 -7.43920898 1.13891602 C-5.50418904 -0.79610393 -2.57585626 0.00610335 0 0 Z " fill="#B4C4D9" transform="translate(64.439208984375,171.861083984375)"/>
<path d="M0 0 C-0.33 1.32 -0.66 2.64 -1 4 C-8.59 4 -16.18 4 -24 4 C-24 4.66 -24 5.32 -24 6 C-39.011703 6.78198952 -53.96828791 7.14417313 -69 7 C-69 5.35 -69 3.7 -69 2 C-59.57214255 1.08559993 -50.15167628 0.69533517 -40.6875 0.4375 C-39.58054779 0.40573166 -39.58054779 0.40573166 -38.45123291 0.37332153 C-25.63241643 0.00746045 -12.82411414 -0.11753261 0 0 Z " fill="#B2C2D7" transform="translate(294,172)"/>
<path d="M0 0 C1.4540625 0.0309375 1.4540625 0.0309375 2.9375 0.0625 C2.133125 0.68125 1.32875 1.3 0.5 1.9375 C-2.10124519 3.80414041 -2.10124519 3.80414041 -3.0625 6.0625 C-3.7225 6.0625 -4.3825 6.0625 -5.0625 6.0625 C-4.7325 51.6025 -4.4025 97.1425 -4.0625 144.0625 C-4.7225 144.0625 -5.3825 144.0625 -6.0625 144.0625 C-6.88079848 140.47803955 -7.1915707 137.16401374 -7.20294189 133.4903717 C-7.20865204 132.38150101 -7.21436218 131.27263031 -7.22024536 130.13015747 C-7.22136322 128.92326263 -7.22248108 127.7163678 -7.22363281 126.47290039 C-7.22859772 125.1943367 -7.23356262 123.91577301 -7.23867798 122.59846497 C-7.25176096 119.0984703 -7.25823844 115.59849479 -7.26268864 112.09847951 C-7.26562491 109.91022375 -7.26973067 107.72197316 -7.27419281 105.53372002 C-7.28785453 98.68225857 -7.29752868 91.83080901 -7.3013947 84.97933489 C-7.30587776 77.07876901 -7.32344262 69.17837594 -7.3523953 61.27786261 C-7.3740212 55.16391461 -7.3840994 49.05001521 -7.38543582 42.93602937 C-7.38648284 39.28725716 -7.39236909 35.63864769 -7.41025543 31.98991585 C-7.4298186 27.92033534 -7.42544357 23.85111648 -7.41894531 19.78149414 C-7.4281601 18.57662354 -7.43737488 17.37175293 -7.4468689 16.13037109 C-7.36681495 0.15034316 -7.36681495 0.15034316 0 0 Z " fill="#D6DEE7" transform="translate(70.0625,-0.0625)"/>
<path d="M0 0 C3.96 0 7.92 0 12 0 C12 5 12 5 10.125 7.3125 C8 9 8 9 6 9 C5.67 10.32 5.34 11.64 5 13 C4.38125 13.103125 3.7625 13.20625 3.125 13.3125 C0.63473516 13.87525373 0.63473516 13.87525373 -1 17 C-3.125 17.6875 -3.125 17.6875 -5 18 C-5.84584998 16.44424022 -6.67618399 14.8800388 -7.5 13.3125 C-7.9640625 12.44238281 -8.428125 11.57226562 -8.90625 10.67578125 C-10.0552674 7.86479224 -10.29455566 6.00341575 -10 3 C-9 2 -9 2 -6.93359375 1.90234375 C-5.69802734 1.91974609 -5.69802734 1.91974609 -4.4375 1.9375 C-3.61121094 1.94652344 -2.78492187 1.95554687 -1.93359375 1.96484375 C-1.29550781 1.97644531 -0.65742187 1.98804688 0 2 C0 1.34 0 0.68 0 0 Z " fill="#B0C2D8" transform="translate(93,278)"/>
<path d="M0 0 C7.03482474 -0.23668569 13.1834265 0.2120463 20 2 C19.44894091 5.9492568 18.61064629 9.34920174 17 13 C16.34 13 15.68 13 15 13 C15 13.99 15 14.98 15 16 C12.0625 15.1875 12.0625 15.1875 9 14 C8.67 13.01 8.34 12.02 8 11 C7.34 11 6.68 11 6 11 C5 10 4 9 3 8 C2.01 7.67 1.02 7.34 0 7 C0 4.69 0 2.38 0 0 Z " fill="#B2C4D9" transform="translate(249,278)"/>
<path d="M0 0 C1.65 0 3.3 0 5 0 C5 0.99 5 1.98 5 3 C7.64 3 10.28 3 13 3 C13 2.01 13 1.02 13 0 C14.65 0 16.3 0 18 0 C18 0.99 18 1.98 18 3 C20.31 3 22.62 3 25 3 C24.41327281 6.96040855 23.00739148 9.35936358 20 12 C16.62750275 12.42884188 13.38075062 12.29033164 10 12 C9.67 11.01 9.34 10.02 9 9 C8.01 8.67 7.02 8.34 6 8 C5.690625 7.34 5.38125 6.68 5.0625 6 C4.17972859 3.79394438 4.17972859 3.79394438 1.875 3.25 C0.946875 3.12625 0.946875 3.12625 0 3 C0 2.01 0 1.02 0 0 Z " fill="#F0A6A9" transform="translate(160,161)"/>
<path d="M0 0 C7.12872857 0.44844496 14.33602071 1.29275841 21 4 C21.99 5.485 21.99 5.485 23 7 C21 9 21 9 19.15234375 9.265625 C12.37336336 9.21780151 5.74864289 8.8324286 0 5 C1.65 4.34 3.3 3.68 5 3 C3.35 2.67 1.7 2.34 0 2 C0 1.34 0 0.68 0 0 Z " fill="#C3CFDE" transform="translate(269,196)"/>
<path d="M0 0 C3.5 0.3125 3.5 0.3125 7 1 C7.33 1.66 7.66 2.32 8 3 C5.69 2.67 3.38 2.34 1 2 C1 10.58 1 19.16 1 28 C10.9 28 20.8 28 31 28 C31.33 27.34 31.66 26.68 32 26 C32 26.99 32 27.98 32 29 C21.44 29 10.88 29 0 29 C-1.35048039 26.29903923 -1.12963577 24.17273483 -1.1328125 21.15234375 C-1.13410156 19.99025391 -1.13539062 18.82816406 -1.13671875 17.63085938 C-1.13285156 16.41205078 -1.12898438 15.19324219 -1.125 13.9375 C-1.12886719 12.71482422 -1.13273437 11.49214844 -1.13671875 10.23242188 C-1.13542969 9.07162109 -1.13414063 7.91082031 -1.1328125 6.71484375 C-1.13168457 5.64355225 -1.13055664 4.57226074 -1.12939453 3.46850586 C-1 1 -1 1 0 0 Z " fill="#C9C9DA" transform="translate(84,20)"/>
<path d="M0 0 C1.98 0 3.96 0 6 0 C6 8.91 6 17.82 6 27 C-4.56 27 -15.12 27 -26 27 C-26 26.67 -26 26.34 -26 26 C-16.1 26 -6.2 26 4 26 C4 18.08 4 10.16 4 2 C2.02 2 0.04 2 -2 2 C-1.34 1.34 -0.68 0.68 0 0 Z " fill="#DBD5E4" transform="translate(257,22)"/>
<path d="M0 0 C0 0.66 0 1.32 0 2 C6.6 2 13.2 2 20 2 C20 1.34 20 0.68 20 0 C20.66 0 21.32 0 22 0 C21.67 0.99 21.34 1.98 21 3 C14.83748371 5.60195132 8.59326599 5.19487486 2 5 C2 4.34 2 3.68 2 3 C0.515 3.2165625 0.515 3.2165625 -1 3.4375 C-7.68866708 4.38709945 -14.22670653 5.27646096 -21 5 C-21.33 4.34 -21.66 3.68 -22 3 C-17.05 2.67 -12.1 2.34 -7 2 C-7 1.34 -7 0.68 -7 0 C-4.3333581 -1.33332095 -2.83319697 -0.67102033 0 0 Z " fill="#CCDBEF" transform="translate(178,188)"/>
<path d="M0 0 C1.3542168 3.65638537 0.51496224 5.51327392 -1 9 C-2.79157359 9.02770475 -4.58328184 9.046704 -6.375 9.0625 C-7.37273437 9.07410156 -8.37046875 9.08570313 -9.3984375 9.09765625 C-13.94536013 8.97436659 -18.47397999 8.452602 -23 8 C-22.01 16.25 -21.02 24.5 -20 33 C-20.66 32.67 -21.32 32.34 -22 32 C-24.5471959 23.90243279 -24.16592763 15.37934519 -24 7 C-16.74 7 -9.48 7 -2 7 C-1.67 5.35 -1.34 3.7 -1 2 C-0.67 1.34 -0.34 0.68 0 0 Z " fill="#C9D8EC" transform="translate(211,41)"/>
<path d="M0 0 C1.50541621 0.02875212 3.01071693 0.06398056 4.51586914 0.10424805 C5.70521812 0.13254951 5.70521812 0.13254951 6.91859436 0.16142273 C8.59911965 0.20337826 10.27957723 0.24812282 11.95996094 0.29541016 C14.53640157 0.36556858 17.11286322 0.41991511 19.68969727 0.47338867 C21.31928023 0.51603868 22.94883895 0.55962731 24.57836914 0.60424805 C25.73936378 0.62628044 25.73936378 0.62628044 26.92381287 0.64875793 C32.38464089 0.8245823 32.38464089 0.8245823 34.61352539 3.0534668 C22.40352539 3.0534668 10.19352539 3.0534668 -2.38647461 3.0534668 C-2.38647461 4.0434668 -2.38647461 5.0334668 -2.38647461 6.0534668 C-3.04647461 6.0534668 -3.70647461 6.0534668 -4.38647461 6.0534668 C-4.42919561 4.38734775 -4.42711293 2.71963795 -4.38647461 1.0534668 C-3.38647461 0.0534668 -3.38647461 0.0534668 0 0 Z " fill="#CEDBEC" transform="translate(60.386474609375,169.946533203125)"/>
<path d="M0 0 C3.96 0 7.92 0 12 0 C11.67 9.24 11.34 18.48 11 28 C10.67 28 10.34 28 10 28 C10 19.42 10 10.84 10 2 C5.16817334 3.20795667 0.6561564 4.37034526 -4 6 C-4 5.01 -4 4.02 -4 3 C-3.01 3 -2.02 3 -1 3 C-0.67 2.01 -0.34 1.02 0 0 Z " fill="#C2C1D3" transform="translate(253,20)"/>
<path d="M0 0 C0 0.33 0 0.66 0 1 C-0.93972656 1.18175781 -0.93972656 1.18175781 -1.8984375 1.3671875 C-2.71570313 1.53476562 -3.53296875 1.70234375 -4.375 1.875 C-5.18710937 2.03742188 -5.99921875 2.19984375 -6.8359375 2.3671875 C-9.18673923 2.86658932 -9.18673923 2.86658932 -11 5 C-12.32 5 -13.64 5 -15 5 C-15 5.99 -15 6.98 -15 8 C-17.31 7.67 -19.62 7.34 -22 7 C-22.33 7.99 -22.66 8.98 -23 10 C-24.32 9.67 -25.64 9.34 -27 9 C-18.91563815 2.93672861 -10.17230378 -0.84769198 0 0 Z " fill="#CDD9E5" transform="translate(264,0)"/>
<path d="M0 0 C-0.33 0.66 -0.66 1.32 -1 2 C-1.66 2 -2.32 2 -3 2 C-3 2.66 -3 3.32 -3 4 C1.62 3.67 6.24 3.34 11 3 C5.09717539 6.93521641 -2.13576053 6.12430212 -9 6 C-9 4.35 -9 2.7 -9 1 C-5.8035914 -0.06546953 -3.34252724 -0.07427838 0 0 Z " fill="#CCD6E3" transform="translate(68,199)"/>
<path d="M0 0 C-0.33 0.99 -0.66 1.98 -1 3 C-6.13691161 4.99186369 -10.52450293 5.1921227 -16 5 C-16 4.34 -16 3.68 -16 3 C-10.85913339 -0.42724441 -5.99202204 -0.1015597 0 0 Z " fill="#B0BDD5" transform="translate(81,198)"/>
<path d="M0 0 C0.99 0.33 1.98 0.66 3 1 C1.1875 3 1.1875 3 -1 5 C-1.99 5 -2.98 5 -4 5 C-4 5.66 -4 6.32 -4 7 C-4.99 7.495 -4.99 7.495 -6 8 C-6.33 8.99 -6.66 9.98 -7 11 C-7.99 11 -8.98 11 -10 11 C-10 11.99 -10 12.98 -10 14 C-10.66 14 -11.32 14 -12 14 C-12 14.99 -12 15.98 -12 17 C-12.99 17 -13.98 17 -15 17 C-13.87548273 14.0280615 -12.77706209 11.66559313 -11 9 C-10.34 9 -9.68 9 -9 9 C-9 8.34 -9 7.68 -9 7 C-7.13671875 5.23828125 -7.13671875 5.23828125 -4.6875 3.3125 C-3.88699219 2.66925781 -3.08648437 2.02601562 -2.26171875 1.36328125 C-1.51535156 0.91339844 -0.76898438 0.46351562 0 0 Z " fill="#E9D5E1" transform="translate(250,25)"/>
<path d="M0 0 C0.99 0 1.98 0 3 0 C2.75 1.875 2.75 1.875 2 4 C1.34 4.28875 0.68 4.5775 0 4.875 C-0.99 5.431875 -0.99 5.431875 -2 6 C-2.81584568 9.05908413 -2.81584568 9.05908413 -3 12 C-3.99 12 -4.98 12 -6 12 C-6 12.99 -6 13.98 -6 15 C-6.99 15 -7.98 15 -9 15 C-8.42316338 11.10635283 -6.45178223 8.98810959 -4 6 C-3.67 5.01 -3.34 4.02 -3 3 C-2.01 3 -1.02 3 0 3 C0 2.01 0 1.02 0 0 Z " fill="#E2D7DB" transform="translate(188,161)"/>
<path d="M0 0 C0.33 0 0.66 0 1 0 C1 1.98 1 3.96 1 6 C1.99 6.33 2.98 6.66 4 7 C3.67 9.64 3.34 12.28 3 15 C2.01 15 1.02 15 0 15 C0 14.01 0 13.02 0 12 C-0.66 12 -1.32 12 -2 12 C-2.33 10.02 -2.66 8.04 -3 6 C-2.34 5.67 -1.68 5.34 -1 5 C-0.34444881 2.47266765 -0.34444881 2.47266765 0 0 Z " fill="#E2E2F2" transform="translate(194,152)"/>
<path d="M0 0 C1.98 0 3.96 0 6 0 C6 0.99 6 1.98 6 3 C7.32 3.33 8.64 3.66 10 4 C9.67 4.66 9.34 5.32 9 6 C10.98 6 12.96 6 15 6 C15.33 8.31 15.66 10.62 16 13 C15.608125 12.566875 15.21625 12.13375 14.8125 11.6875 C12.97761098 9.85439739 12.97761098 9.85439739 10.3125 8.4375 C9.549375 7.963125 8.78625 7.48875 8 7 C8 6.34 8 5.68 8 5 C6.68 4.67 5.36 4.34 4 4 C4 3.34 4 2.68 4 2 C2.68 1.67 1.36 1.34 0 1 C0 0.67 0 0.34 0 0 Z " fill="#C9C3D2" transform="translate(93,23)"/>
<path d="M0 0 C7.42857143 -0.14285714 7.42857143 -0.14285714 11 1 C11 1.66 11 2.32 11 3 C8.69 3 6.38 3 4 3 C4 3.66 4 4.32 4 5 C4.66 5 5.32 5 6 5 C5.67 6.65 5.34 8.3 5 10 C3.68 10.33 2.36 10.66 1 11 C1.66 8.36 2.32 5.72 3 3 C2.34 3 1.68 3 1 3 C0.67 2.01 0.34 1.02 0 0 Z " fill="#858D98" transform="translate(226,106)"/>
<path d="M0 0 C0.66 0 1.32 0 2 0 C1.66695423 3.10842723 1.10589629 3.91361092 -1.375 5.9375 C-2.24125 6.618125 -3.1075 7.29875 -4 8 C-4.7425 9.2375 -4.7425 9.2375 -5.5 10.5 C-7.24851491 13.41419152 -9.27391646 15.0106958 -12 17 C-11.58332936 12.13884258 -9.49843869 10.23605579 -6 7 C-5.67 6.34 -5.34 5.68 -5 5 C-4.34 5 -3.68 5 -3 5 C-2.67 4.01 -2.34 3.02 -2 2 C-1.34 2 -0.68 2 0 2 C0 1.34 0 0.68 0 0 Z " fill="#D2DBE6" transform="translate(229,14)"/>
<path d="M0 0 C4.3689695 3.30099918 6.9138202 5.78455049 9 11 C9 11.66 9 12.32 9 13 C8.01 13 7.02 13 6 13 C6 12.01 6 11.02 6 10 C5.01 10 4.02 10 3 10 C3 9.01 3 8.02 3 7 C2.34 7 1.68 7 1 7 C0.67 4.69 0.34 2.38 0 0 Z " fill="#EBD7DF" transform="translate(105,32)"/>
<path d="M0 0 C3 0.125 3 0.125 4 1.125 C4.14115161 3.79558851 4.04247107 6.44932238 4 9.125 C3.01 9.62 3.01 9.62 2 10.125 C2 7.155 2 4.185 2 1.125 C1.01 1.125 0.02 1.125 -1 1.125 C-1.66 3.765 -2.32 6.405 -3 9.125 C-3.66 9.125 -4.32 9.125 -5 9.125 C-4.00465116 0.16686047 -4.00465116 0.16686047 0 0 Z " fill="#C2D3E6" transform="translate(202,171.875)"/>
<path d="M0 0 C5.80933377 3.18130183 8.61681985 7.3853606 12 13 C11.67 13.66 11.34 14.32 11 15 C7.91910327 12.22719294 6.31224548 9.93673644 5 6 C3.68 6 2.36 6 1 6 C0.67 4.02 0.34 2.04 0 0 Z " fill="#D8E1EA" transform="translate(119,16)"/>
<path d="M0 0 C-4.04003903 2.96269529 -7.8572854 3.70063065 -12.6953125 4.47265625 C-15.25792381 4.91546088 -15.25792381 4.91546088 -18 7 C-17.125 3.125 -17.125 3.125 -16 2 C-13.69876158 1.41232597 -11.38344693 0.87924634 -9.0625 0.375 C-7.79535156 0.09398437 -6.52820313 -0.18703125 -5.22265625 -0.4765625 C-2 -1 -2 -1 0 0 Z " fill="#C5D0E1" transform="translate(273,313)"/>
<path d="M0 0 C0 0.33 0 0.66 0 1 C-0.93972656 1.18175781 -0.93972656 1.18175781 -1.8984375 1.3671875 C-2.71570313 1.53476562 -3.53296875 1.70234375 -4.375 1.875 C-5.18710937 2.03742188 -5.99921875 2.19984375 -6.8359375 2.3671875 C-9.18673923 2.86658932 -9.18673923 2.86658932 -11 5 C-12.32 5 -13.64 5 -15 5 C-15 5.99 -15 6.98 -15 8 C-15.66 8 -16.32 8 -17 8 C-16.9375 6.25 -16.9375 6.25 -16 4 C-10.65117888 -0.01161584 -6.57472413 -0.53671217 0 0 Z " fill="#C4CFDD" transform="translate(264,0)"/>
<path d="M0 0 C3.33524284 2.69995849 4.56351308 6.03255995 6 10 C6.1875 12.9375 6.1875 12.9375 6 15 C4.5393715 12.35261084 4 11.10551666 4 8 C3.34 8 2.68 8 2 8 C2 7.34 2 6.68 2 6 C1.34 6 0.68 6 0 6 C0 4.02 0 2.04 0 0 Z " fill="#DAE3EB" transform="translate(339,228)"/>
<path d="M0 0 C1.65 0 3.3 0 5 0 C5.66 2.31 6.32 4.62 7 7 C7.66 7 8.32 7 9 7 C9 7.66 9 8.32 9 9 C8.01 8.67 7.02 8.34 6 8 C5.690625 7.34 5.38125 6.68 5.0625 6 C4.17972859 3.79394438 4.17972859 3.79394438 1.875 3.25 C0.946875 3.12625 0.946875 3.12625 0 3 C0 2.01 0 1.02 0 0 Z " fill="#EABBC6" transform="translate(160,161)"/>
<path d="M0 0 C1.32 0.33 2.64 0.66 4 1 C0.71195019 3.91227269 -1.59885603 5.49701212 -6 6 C-6.33 6.99 -6.66 7.98 -7 9 C-7.33 8.34 -7.66 7.68 -8 7 C-5.47211993 4.20127563 -3.79588866 2.54226981 0 2 C0 1.34 0 0.68 0 0 Z " fill="#D3DCE7" transform="translate(306,214)"/>
<path d="M0 0 C2.64 0 5.28 0 8 0 C8 0.99 8 1.98 8 3 C5.36 3 2.72 3 0 3 C0 2.01 0 1.02 0 0 Z " fill="#CEB9C6" transform="translate(171,173)"/>
<path d="M0 0 C0.99 0 1.98 0 3 0 C3.268125 0.804375 3.53625 1.60875 3.8125 2.4375 C4.204375 3.283125 4.59625 4.12875 5 5 C5.99 5.33 6.98 5.66 8 6 C8 7.98 8 9.96 8 12 C2 4.6 2 4.6 2 1 C1.34 0.67 0.68 0.34 0 0 Z " fill="#BFC1D2" transform="translate(109,36)"/>
<path d="M0 0 C0.66 0.33 1.32 0.66 2 1 C0.35 5.62 -1.3 10.24 -3 15 C-4.40422318 9.38310727 -2.79026707 4.98261976 0 0 Z " fill="#EAF1F8" transform="translate(261,300)"/>
<path d="M0 0 C1.4540625 0.0309375 1.4540625 0.0309375 2.9375 0.0625 C2.133125 0.68125 1.32875 1.3 0.5 1.9375 C-2.10124519 3.80414041 -2.10124519 3.80414041 -3.0625 6.0625 C-4.0525 6.0625 -5.0425 6.0625 -6.0625 6.0625 C-3.76028481 0.07674051 -3.76028481 0.07674051 0 0 Z " fill="#C9D6E2" transform="translate(70.0625,-0.0625)"/>
<path d="M0 0 C0.66 0.33 1.32 0.66 2 1 C0.90716423 2.03295436 -0.19970579 3.05107835 -1.3125 4.0625 C-1.92738281 4.63097656 -2.54226562 5.19945312 -3.17578125 5.78515625 C-3.77777344 6.18605469 -4.37976563 6.58695312 -5 7 C-5.99 6.67 -6.98 6.34 -8 6 C-5.38485683 3.87961365 -2.80362384 1.86908256 0 0 Z " fill="#E9F1F8" transform="translate(212,310)"/>
<path d="M0 0 C1.32 0 2.64 0 4 0 C4.33 0.99 4.66 1.98 5 3 C4.34 3 3.68 3 3 3 C3 3.99 3 4.98 3 6 C2.01 6 1.02 6 0 6 C0 4.02 0 2.04 0 0 Z " fill="#EAADAF" transform="translate(157,152)"/>
<path d="M0 0 C1.32 0.33 2.64 0.66 4 1 C-1.75 6 -1.75 6 -4 6 C-4.33 6.66 -4.66 7.32 -5 8 C-5 6.68 -5 5.36 -5 4 C-4.0409375 3.8453125 -4.0409375 3.8453125 -3.0625 3.6875 C-2.381875 3.460625 -1.70125 3.23375 -1 3 C-0.67 2.01 -0.34 1.02 0 0 Z " fill="#BCC0D5" transform="translate(245,26)"/>
<path d="M0 0 C2.6875 -0.3125 2.6875 -0.3125 5 0 C5 0.66 5 1.32 5 2 C3.03852126 3.38938077 1.03833424 4.7260411 -1 6 C-1.66 5.67 -2.32 5.34 -3 5 C-1.8125 2.5 -1.8125 2.5 0 0 Z " fill="#D2DAE4" transform="translate(308,341)"/>
<path d="M0 0 C0.99 0 1.98 0 3 0 C3 0.99 3 1.98 3 3 C2.01 3 1.02 3 0 3 C0 3.99 0 4.98 0 6 C-0.99 6 -1.98 6 -3 6 C-2.42655063 3.13275314 -2.1385485 2.1385485 0 0 Z " fill="#E9DFE8" transform="translate(182,170)"/>
<path d="M0 0 C0.33 0.66 0.66 1.32 1 2 C1.66 2 2.32 2 3 2 C2.67 3.65 2.34 5.3 2 7 C0.68 7.33 -0.64 7.66 -2 8 C-1.34 5.36 -0.68 2.72 0 0 Z " fill="#929BA7" transform="translate(229,109)"/>
<path d="M0 0 C0.99 0.33 1.98 0.66 3 1 C2.34 2.65 1.68 4.3 1 6 C-0.32 6 -1.64 6 -3 6 C-3 5.01 -3 4.02 -3 3 C-2.01 3 -1.02 3 0 3 C0 2.01 0 1.02 0 0 Z " fill="#BBBED2" transform="translate(231,42)"/>
<path d="M0 0 C0.66 0 1.32 0 2 0 C1.43628586 3.26954202 0.50037734 4.82575883 -2 7 C-2.66 6.67 -3.32 6.34 -4 6 C-3.34 4.68 -2.68 3.36 -2 2 C-1.34 2 -0.68 2 0 2 C0 1.34 0 0.68 0 0 Z " fill="#CCD5E1" transform="translate(229,14)"/>
<path d="M0 0 C0.66 0 1.32 0 2 0 C0.85981998 3.42054006 0.07541482 4.2426201 -3 6 C-5.25 5.6875 -5.25 5.6875 -7 5 C-6.030625 4.360625 -5.06125 3.72125 -4.0625 3.0625 C-1.23963731 1.3034741 -1.23963731 1.3034741 0 0 Z " fill="#D1DEEA" transform="translate(287,303)"/>
<path d="M0 0 C0.33 0.66 0.66 1.32 1 2 C-0.61594832 4.04119788 -2.2856382 6.04072937 -4 8 C-4.66 8 -5.32 8 -6 8 C-5.67 7.01 -5.34 6.02 -5 5 C-4.34 5 -3.68 5 -3 5 C-2.5359375 4.0409375 -2.5359375 4.0409375 -2.0625 3.0625 C-1 1 -1 1 0 0 Z " fill="#8E97A2" transform="translate(120,115)"/>
<path d="M0 0 C1.65 0 3.3 0 5 0 C5.33 2.31 5.66 4.62 6 7 C1.125 2.25 1.125 2.25 0 0 Z " fill="#BDBFCE" transform="translate(103,29)"/>
<path d="M0 0 C2.64 0 5.28 0 8 0 C7.67 0.66 7.34 1.32 7 2 C4.67843403 2.40729228 2.3431213 2.74438677 0 3 C0 2.01 0 1.02 0 0 Z " fill="#CED7E0" transform="translate(284,353)"/>
<path d="M0 0 C0.66 0 1.32 0 2 0 C0.50902342 3.7952131 -1.75700849 5.61042731 -5 8 C-4.34 6.35 -3.68 4.7 -3 3 C-2.34 3 -1.68 3 -1 3 C-0.67 2.01 -0.34 1.02 0 0 Z " fill="#DDE4EF" transform="translate(326,327)"/>
<path d="M0 0 C0.99 0 1.98 0 3 0 C3 1.98 3 3.96 3 6 C2.01 5.67 1.02 5.34 0 5 C0 3.35 0 1.7 0 0 Z " fill="#E5DFE4" transform="translate(154,152)"/>
<path d="M0 0 C0.99 0 1.98 0 3 0 C3 1.65 3 3.3 3 5 C2.01 5.33 1.02 5.66 0 6 C0 4.02 0 2.04 0 0 Z " fill="#E6B0B1" transform="translate(191,152)"/>
</svg>
