<?xml version="1.0" encoding="UTF-8"?>
<svg version="1.1" xmlns="http://www.w3.org/2000/svg" width="512" height="512">
<path d="M0 0 C13.08154326 10.99544999 27.1244153 24.10294826 29.1171875 41.91015625 C30.15532046 64.59641468 17.12464488 85.21406982 4.8125 103.1875 C5.87726563 103.30996094 6.94203125 103.43242187 8.0390625 103.55859375 C17.53175156 105.14070859 25.96769097 111.99407604 31.60546875 119.609375 C38.77611153 131.01158229 39.98121082 141.77880528 39.75 155.015625 C39.67842464 157.98748793 39.67842464 157.98748793 40.30541992 159.98022461 C40.97727603 162.90475571 40.95905357 165.67584375 40.98828125 168.67578125 C41.01212891 169.93970703 41.03597656 171.20363281 41.06054688 172.50585938 C41.10332392 175.1567401 41.13467808 177.80783112 41.15429688 180.45898438 C41.37325601 190.47509192 42.84385548 195.42604824 49.875 202.6875 C54.59677258 207.91140138 57.12621489 211.84282552 56.9375 219.125 C56.12969777 224.93940066 53.2551491 228.49908946 48.8125 232.1875 C44.07433563 234.76258933 38.94008887 234.67450077 33.8125 233.1875 C21.25284711 225.82727331 11.57078344 213.98067709 7.46546936 200.06652832 C6.33670784 195.0896694 6.39181504 190.16498864 6.40625 185.08203125 C6.39541382 183.9585881 6.38457764 182.83514496 6.37341309 181.67765808 C6.327864 176.9128306 6.31606469 172.14806275 6.30126953 167.38305664 C6.28555123 163.88668645 6.25255934 160.39076579 6.21875 156.89453125 C6.22177124 155.82459427 6.22479248 154.75465729 6.22790527 153.65229797 C6.16871942 147.75030712 5.7950218 143.34495907 2.8125 138.1875 C-4.6203923 133.68667828 -14.81414298 133.19340598 -23.1875 135.1875 C-27.76621492 138.16583471 -30.75639016 141.98725425 -34.1875 146.1875 C-40.5161972 151.95806097 -47.48229793 156.94297936 -54.50512695 161.82641602 C-58.64110605 164.67697139 -58.64110605 164.67697139 -62.1875 168.1875 C-62.60843881 171.05699839 -62.87939092 173.8026682 -63.0625 176.6875 C-66.33413459 214.96415759 -87.47025247 250.55915634 -115.4375 276.25 C-120.21475193 280.21327797 -124.49044432 282.54318523 -130.8125 282.0625 C-135.96667705 281.23993185 -138.96919532 279.57501366 -142.4375 275.625 C-145.05324543 271.98164029 -145.3943655 269.90750728 -145.5 265.4375 C-145.53738281 264.41140625 -145.57476562 263.3853125 -145.61328125 262.328125 C-144.73838401 255.87475454 -140.37605354 252.23633391 -135.625 248.1875 C-116.52739912 231.25494017 -104.35299228 207.6962892 -98.1875 183.1875 C-98.69023438 183.34476563 -99.19296875 183.50203125 -99.7109375 183.6640625 C-108.35802221 185.49167977 -118.09723735 185.45415759 -125.78125 180.84375 C-126.5753125 180.2971875 -127.369375 179.750625 -128.1875 179.1875 C-129.1053125 178.5790625 -130.023125 177.970625 -130.96875 177.34375 C-142.77726498 169.01563943 -153.62358776 158.54516441 -161.1875 146.1875 C-161.75597656 145.32511719 -162.32445312 144.46273437 -162.91015625 143.57421875 C-177.83696199 119.8553604 -182.29335144 89.66063611 -176.2890625 62.37109375 C-168.86590605 32.61459757 -151.22617618 8.22396232 -125.27734375 -8.00732422 C-116.35151924 -13.32042592 -107.20508286 -17.02279338 -97.1875 -19.8125 C-96.08921875 -20.1321875 -94.9909375 -20.451875 -93.859375 -20.78125 C-61.19901337 -28.83448985 -26.3733133 -20.1776778 0 0 Z " fill="#E9358F" transform="translate(208.1875,166.8125)"/>
<path d="M0 0 C23.34307636 18.87051842 38.23129122 44.15259983 41.77807617 74.22363281 C44.53659259 104.55713444 36.56756244 134.69810159 17.47460938 158.65332031 C14.15714772 162.53522623 10.50391956 166.10485746 6.79833984 169.61376953 C3.27230865 172.96765273 0.65390929 176.31013825 -2.0234375 180.40625 C-8.43168537 186.47722166 -14.23588202 188.50975478 -23.0234375 188.40625 C-20.42110913 208.33460672 -14.40802032 226.05109838 0.1015625 240.53125 C3.89660466 245.1786066 3.6202564 250.40791612 3.6640625 256.15625 C3.67131348 257.08066895 3.67856445 258.00508789 3.68603516 258.95751953 C3.57241775 263.14763781 3.3320777 265.78686352 1.21875 269.46875 C-1.16998512 271.53288348 -2.50150406 272.17610131 -5.5859375 272.65625 C-8.21541569 273.09966959 -10.4760822 273.55713157 -13.0234375 274.40625 C-18.70255282 275.19034876 -23.1380103 274.67084493 -27.859375 271.33203125 C-48.15201689 253.27377773 -60.49296283 224.94383068 -62.8671875 198.19140625 C-63.6931149 183.46925041 -63.6931149 183.46925041 -62.0234375 176.40625 C-63.30541016 176.035 -63.30541016 176.035 -64.61328125 175.65625 C-68.26950244 174.31605438 -71.35590967 172.5354138 -74.5859375 170.40625 C-75.18801025 170.01469727 -75.79008301 169.62314453 -76.41040039 169.21972656 C-80.72914309 166.36799251 -84.87094197 163.32527983 -88.9609375 160.15625 C-89.5075 159.73778809 -90.0540625 159.31932617 -90.6171875 158.88818359 C-92.82919929 157.18082105 -94.95974369 155.46789743 -96.96875 153.5234375 C-98.72011476 151.75824972 -98.72011476 151.75824972 -102.0234375 150.40625 C-106.69978175 150.632221 -110.1699723 151.73634911 -114.0234375 154.40625 C-115.86847886 157.56609888 -116.89348758 160.57747552 -117.95703125 164.07421875 C-120.24491951 171.22282199 -124.69993642 177.35920931 -131.0234375 181.40625 C-135.31371566 182.810022 -138.37607503 182.59277817 -142.7109375 181.34375 C-147.36942063 178.61897685 -150.27699326 175.64558272 -152.0234375 170.40625 C-152.15500277 166.72242231 -152.19325888 163.91571415 -151.0234375 160.40625 C-152.3021875 160.2 -153.5809375 159.99375 -154.8984375 159.78125 C-163.16747821 157.90606597 -170.00059349 153.67119824 -174.77734375 146.62109375 C-180.91630757 135.70951855 -182.78588355 124.89734335 -179.3984375 112.78125 C-176.35037227 103.71165729 -171.35491546 97.2197797 -163.0234375 92.40625 C-161.28727179 91.79338025 -159.53016202 91.23693734 -157.7578125 90.73828125 C-156.86803711 90.48409424 -155.97826172 90.22990723 -155.06152344 89.96801758 C-154.38895508 89.78263428 -153.71638672 89.59725098 -153.0234375 89.40625 C-153.27512695 88.89876221 -153.52681641 88.39127441 -153.78613281 87.8684082 C-170.06448802 54.84542958 -170.06448802 54.84542958 -166.515625 36.828125 C-159.11806276 15.13818523 -134.77902983 -3.17191267 -115.18505859 -12.84375 C-77.60388531 -30.54170382 -32.67349246 -25.32828873 0 0 Z M-144.0234375 127.40625 C-143.0334375 128.39625 -142.0434375 129.38625 -141.0234375 130.40625 C-141.0234375 129.41625 -141.0234375 128.42625 -141.0234375 127.40625 C-142.0134375 127.40625 -143.0034375 127.40625 -144.0234375 127.40625 Z " fill="#572A44" transform="translate(436.0234375,166.59375)"/>
<path d="M0 0 C13.08154326 10.99544999 27.1244153 24.10294826 29.1171875 41.91015625 C29.9901063 60.98599948 20.61867013 79.2005711 10.5625 94.8125 C10.16272949 95.44615479 9.76295898 96.07980957 9.35107422 96.73266602 C7.44585068 99.55026679 6.3055454 101.02911949 3.015625 102.0859375 C2.28859375 102.11945313 1.5615625 102.15296875 0.8125 102.1875 C2.07382335 98.69460457 3.52233863 96.09424328 5.8125 93.1875 C9.55609217 87.97321091 12.30745286 82.41383073 15.0625 76.625 C15.48660156 75.73876953 15.91070312 74.85253906 16.34765625 73.93945312 C21.59124043 62.72817076 26.7700287 49.32759841 23.12890625 36.84375 C21.00534955 32.12081891 18.45858394 29.65882125 13.8125 27.1875 C3.56339643 23.77113214 -8.58254015 25.97185678 -18.1875 30.1875 C-18.8052832 30.4453125 -19.42306641 30.703125 -20.05957031 30.96875 C-40.67510008 39.61946283 -59.05654223 53.20985786 -75.27734375 68.46875 C-78.09516854 71.10124135 -80.97890252 73.64183435 -83.875 76.1875 C-88.37346154 80.27290338 -92.23818304 84.59924551 -95.96484375 89.39453125 C-98.1875 92.1875 -98.1875 92.1875 -100.81640625 95.01171875 C-101.66074219 95.93597656 -102.50507812 96.86023438 -103.375 97.8125 C-104.54095703 99.03839844 -104.54095703 99.03839844 -105.73046875 100.2890625 C-107.92733329 104.65923272 -106.59933615 107.67667673 -105.1875 112.1875 C-104.95844971 112.98494629 -104.72939941 113.78239258 -104.4934082 114.60400391 C-104.01471034 116.26566798 -103.52665827 117.92466138 -103.0300293 119.58105469 C-96.67047033 140.83133685 -93.60059187 161.16210544 -97.1875 183.1875 C-106.52880502 185.39183117 -117.36246802 185.89501919 -125.78125 180.84375 C-126.5753125 180.2971875 -127.369375 179.750625 -128.1875 179.1875 C-129.1053125 178.5790625 -130.023125 177.970625 -130.96875 177.34375 C-142.77726498 169.01563943 -153.62358776 158.54516441 -161.1875 146.1875 C-161.75597656 145.32511719 -162.32445312 144.46273437 -162.91015625 143.57421875 C-177.83696199 119.8553604 -182.29335144 89.66063611 -176.2890625 62.37109375 C-168.86590605 32.61459757 -151.22617618 8.22396232 -125.27734375 -8.00732422 C-116.35151924 -13.32042592 -107.20508286 -17.02279338 -97.1875 -19.8125 C-96.08921875 -20.1321875 -94.9909375 -20.451875 -93.859375 -20.78125 C-61.19901337 -28.83448985 -26.3733133 -20.1776778 0 0 Z " fill="#F6C54A" transform="translate(208.1875,166.8125)"/>
<path d="M0 0 C23.34307636 18.87051842 38.23129122 44.15259983 41.77807617 74.22363281 C44.53659259 104.55713444 36.56756244 134.69810159 17.47460938 158.65332031 C14.15714772 162.53522623 10.50391956 166.10485746 6.79833984 169.61376953 C3.27230865 172.96765273 0.65390929 176.31013825 -2.0234375 180.40625 C-7.1515321 185.26444488 -12.34595089 188.13879643 -19.4609375 188.65625 C-23.31325942 188.38591162 -26.36670449 187.60028527 -30.0234375 186.40625 C-30.0234375 183.43625 -30.0234375 180.46625 -30.0234375 177.40625 C-29.6934375 178.39625 -29.3634375 179.38625 -29.0234375 180.40625 C-17.54158122 180.21970905 -17.54158122 180.21970905 -8.0234375 174.40625 C-3.65729749 167.50493193 -3.25435767 160.39760824 -4.0234375 152.40625 C-5.28893671 146.91296194 -7.04878778 141.68117088 -9.0234375 136.40625 C-9.26449219 135.75108398 -9.50554687 135.09591797 -9.75390625 134.42089844 C-13.9451981 123.29401649 -20.04537003 113.80587844 -26.91943359 104.14526367 C-28.0234375 102.40625 -28.0234375 102.40625 -29.0234375 99.40625 C-29.63058594 99.10460937 -30.23773438 98.80296875 -30.86328125 98.4921875 C-33.59988689 97.1164617 -34.75345854 95.47719384 -36.5859375 93.03125 C-47.18113595 79.38919485 -59.45406287 67.07181499 -73.0234375 56.40625 C-74.03277344 55.5915625 -75.04210937 54.776875 -76.08203125 53.9375 C-94.68516153 39.07626307 -116.98635292 25.94829701 -141.296875 25.97265625 C-146.58796299 26.58828598 -150.57927001 27.8840194 -154.3359375 31.84375 C-159.31566288 39.4055552 -159.34468232 47.88839393 -157.57080078 56.63916016 C-154.535045 68.38756081 -148.96167251 78.90495018 -143.0234375 89.40625 C-142.5284375 90.39625 -142.5284375 90.39625 -142.0234375 91.40625 C-145.1454763 91.89598158 -147.91339292 92.03773113 -151.0234375 91.40625 C-153.4582689 88.62358554 -154.54086485 86.71996254 -156.0234375 83.40625 C-156.87228516 81.64087891 -156.87228516 81.64087891 -157.73828125 79.83984375 C-164.23827815 65.99562725 -170.7640607 49.75258077 -165.7109375 34.46875 C-154.93849388 11.23480365 -130.26871914 -7.43516241 -106.94580078 -16.39160156 C-70.59039697 -29.37995247 -30.53122753 -23.66761824 0 0 Z " fill="#F7D04B" transform="translate(436.0234375,166.59375)"/>
<path d="M0 0 C4.01865393 3.75984974 7.05514251 7.71547287 10.0625 12.3125 C10.48337891 12.93833984 10.90425781 13.56417969 11.33789062 14.20898438 C20.76407513 28.45786793 28.79244538 46.65687984 27 64 C25.57277449 70.24669715 22.71086949 74.98422525 17.5625 78.8125 C12.10306737 80.63231088 6.70325951 80.22846885 1 80 C0.67 81.98 0.34 83.96 0 86 C2.31 86.33 4.62 86.66 7 87 C7.14695312 88.19753906 7.29390625 89.39507812 7.4453125 90.62890625 C9.97283238 109.61765919 16.36501859 126.3929293 30.125 140.125 C33.92004216 144.7723566 33.6436939 150.00166612 33.6875 155.75 C33.69475098 156.67441895 33.70200195 157.59883789 33.70947266 158.55126953 C33.59585525 162.74138781 33.3555152 165.38061352 31.2421875 169.0625 C28.85345238 171.12663348 27.52193344 171.76985131 24.4375 172.25 C21.80802181 172.69341959 19.5473553 173.15088157 17 174 C11.32088468 174.78409876 6.8854272 174.26459493 2.1640625 170.92578125 C-18.81341535 152.25809789 -31.33249782 122.71229806 -33 95 C-34.29799014 70.9562778 -27.63629178 48.72843463 -18 27 C-17.34 27 -16.68 27 -16 27 C-15.896875 26.113125 -15.79375 25.22625 -15.6875 24.3125 C-14.98284093 20.9173245 -14.0445434 18.78057902 -12 16 C-11.34 16 -10.68 16 -10 16 C-9.731875 15.27167969 -9.46375 14.54335938 -9.1875 13.79296875 C-8.01993223 11.04688008 -6.67345845 8.77666757 -5 6.3125 C-4.2265625 5.16201172 -4.2265625 5.16201172 -3.4375 3.98828125 C-2 2 -2 2 0 0 Z " fill="#2BA9E8" transform="translate(406,267)"/>
<path d="M0 0 C3.54136658 1.97210227 6.18042521 4.36085042 8 8 C11.00100263 20.89947098 2.20300793 32.56906936 -4.25927734 43.04052734 C-12.02390163 55.20281494 -21.86382274 68.90921516 -34 77 C-33.47731534 79.76276177 -32.89130413 82.3260876 -32 85 C-32.80824219 85.13792969 -33.61648438 85.27585937 -34.44921875 85.41796875 C-38.00514594 86.26298402 -40.82561447 87.16942381 -44 89 C-45.88504197 92.1547369 -46.86583924 95.15738103 -47.93359375 98.66796875 C-50.22148201 105.81657199 -54.67649892 111.95295931 -61 116 C-65.29027816 117.403772 -68.35263753 117.18652817 -72.6875 115.9375 C-77.34598313 113.21272685 -80.25355576 110.23933272 -82 105 C-82.13156527 101.31617231 -82.16982138 98.50946415 -81 95 C-82.918125 94.690625 -82.918125 94.690625 -84.875 94.375 C-93.14404071 92.49981597 -99.97715599 88.26494824 -104.75390625 81.21484375 C-110.89287007 70.30326855 -112.76244605 59.49109335 -109.375 47.375 C-106.33753715 38.33695494 -101.32420805 31.80478185 -93 27 C-83.59612431 23.0265314 -71.13302279 25.06502549 -61.75390625 28.57421875 C-54.15471534 32.50855163 -48.5477478 38.87519511 -44 46 C-33.41620509 35.62848751 -26.14982803 22.00123212 -19.72460938 8.77099609 C-15.29925239 -0.00794195 -9.31909937 -1.67423714 0 0 Z M-74 62 C-73.01 62.99 -72.02 63.98 -71 65 C-71 64.01 -71 63.02 -71 62 C-71.99 62 -72.98 62 -74 62 Z " fill="#248FC7" transform="translate(366,232)"/>
<path d="M0 0 C3 1 3 1 4.16333008 3.07519531 C4.52837646 3.98366211 4.89342285 4.89212891 5.26953125 5.828125 C5.68058105 6.84463135 6.09163086 7.8611377 6.51513672 8.90844727 C7.15733154 10.56251587 7.15733154 10.56251587 7.8125 12.25 C8.25609863 13.38300537 8.69969727 14.51601074 9.15673828 15.68334961 C24.82732681 56.45373058 29.90005007 99.45686113 12.5859375 140.45703125 C2.32340574 163.38342609 -14.08151008 190.99287859 -36.4375 204 C-41.95445936 205.54862017 -46.58615212 205.07282128 -51.8125 202.75 C-54.8998973 200.28008216 -57.22919843 197.54160313 -59 194 C-59.17455695 192.0884583 -59.26715146 190.16895944 -59.3125 188.25 C-59.34988281 187.22390625 -59.38726562 186.1978125 -59.42578125 185.140625 C-58.55088401 178.68725454 -54.18855354 175.04883391 -49.4375 171 C-27.39312363 151.45473229 -12.26541977 121.4013055 -10.10205078 92.05322266 C-9.15870999 73.07356705 -13.563208 53.84131474 -19.80126953 36.0559082 C-20.1001709 35.18925537 -20.39907227 34.32260254 -20.70703125 33.4296875 C-20.9800708 32.66897949 -21.25311035 31.90827148 -21.53442383 31.12451172 C-22.06958915 28.68245162 -21.84377397 27.33452333 -21 25 C-19.57421875 22.9140625 -19.57421875 22.9140625 -17.6875 20.625 C-16.97851562 19.76261719 -16.26953125 18.90023438 -15.5390625 18.01171875 C-2.25619835 2.25619835 -2.25619835 2.25619835 0 0 Z " fill="#269ED8" transform="translate(122,244)"/>
<path d="M0 0 C4.78057396 3.46825954 7.28066703 6.76312713 9.1875 12.3125 C11.02715622 29.68101903 3.4327775 46.11829421 -5.3203125 60.69921875 C-6.92535952 63.36338551 -6.92535952 63.36338551 -8.1171875 66.64453125 C-9.98163178 70.62850548 -11.24025505 72.69226055 -14.8125 75.3125 C-23.24574473 77.21176509 -34.9517955 77.69793667 -42.7890625 73.57421875 C-54.76242733 64.61739932 -62.65709827 47.2453476 -68.9375 33.9375 C-69.23285645 33.31319092 -69.52821289 32.68888184 -69.83251953 32.0456543 C-71.09760467 29.26887346 -71.8125 27.40369582 -71.8125 24.3125 C-70.39819336 22.99731445 -70.39819336 22.99731445 -68.40234375 21.67578125 C-67.66717529 21.184729 -66.93200684 20.69367676 -66.17456055 20.18774414 C-65.37445557 19.67203857 -64.57435059 19.15633301 -63.75 18.625 C-62.52567261 17.82533813 -62.52567261 17.82533813 -61.27661133 17.00952148 C-44.9846057 6.50565281 -19.97484119 -9.39992527 0 0 Z " fill="#623141" transform="translate(223.8125,193.6875)"/>
<path d="M0 0 C10.63793949 8.29437615 12.59235081 25.52051741 14.24609375 38.16015625 C17.14277167 64.22724953 11.03211612 89.87456426 -5.140625 110.7578125 C-8.52132033 114.53623669 -11.31824594 116.54198166 -16.515625 117.23828125 C-21.74024067 117.45694977 -25.66314438 116.95050373 -30.06640625 113.91015625 C-33.95089422 109.80986339 -35.80711233 106.2005859 -36.44140625 100.59765625 C-35.80012578 94.29173159 -32.73022463 89.81289178 -29.12890625 84.72265625 C-19.62466103 70.71893291 -17.69030005 54.30416996 -20.06640625 37.91015625 C-21.26363162 31.93245067 -23.07292578 26.11030968 -24.87890625 20.29296875 C-26.24416559 15.36096939 -26.13903653 11.79758655 -24.25390625 6.9921875 C-21.95969531 2.96977161 -18.56058525 -0.2331034 -14.14453125 -1.75 C-9.33705967 -2.53618426 -4.3562492 -2.2975303 0 0 Z " fill="#EE2293" transform="translate(189.06640625,366.08984375)"/>
<path d="M0 0 C0.66 0 1.32 0 2 0 C9.97548539 23.00517329 16.44347386 47.47187082 13 72 C5.54217563 74.89252067 -3.96623748 75.64367756 -11.6796875 73.125 C-16.44877876 70.38952124 -18.68737388 66.90276738 -21 62 C-21.33 61.34 -21.66 60.68 -22 60 C-24.36941619 38.35629437 -12.54193523 18.24052216 -1 1 C-0.67 0.67 -0.34 0.34 0 0 Z " fill="#6C4245" transform="translate(99,273)"/>
<path d="M0 0 C0.66 0 1.32 0 2 0 C4.50804994 4.41843692 6.92884806 8.82528247 9.0625 13.4375 C16.91343691 29.21320709 28.81232909 48.60510939 46 55 C50.63404821 56.24177267 55.26861487 57.212587 60 58 C54.91505871 69.72434649 40.56789344 78.24272138 30.5 85.5 C29.90034424 85.93368896 29.30068848 86.36737793 28.68286133 86.81420898 C26.13145763 88.62573832 23.98749113 90.00416962 21 91 C19.38011767 89.38011767 19.75838724 87.51868407 19.640625 85.27734375 C17.95134583 57.4400843 11.91386367 30.81031471 -0.06640625 5.51171875 C-1 3 -1 3 0 0 Z " fill="#683A44" transform="translate(125,242)"/>
<path d="M0 0 C5.70071794 4.31763236 7.06358174 9.71664779 8.45703125 16.5234375 C8.75167915 18.93143584 8.75167915 18.93143584 10 20 C10.61249406 39.2935629 -1.43301019 59.14968875 -12.2109375 74.26171875 C-14 76 -14 76 -18 76 C-16.73867665 72.50710457 -15.29016137 69.90674328 -13 67 C-9.25640783 61.78571091 -6.50504714 56.22633073 -3.75 50.4375 C-3.32589844 49.55126953 -2.90179688 48.66503906 -2.46484375 47.75195312 C2.77874043 36.54067076 7.9575287 23.14009841 4.31640625 10.65625 C2.19284955 5.93331891 -0.35391606 3.47132125 -5 1 C-15.24910357 -2.41636786 -27.39504015 -0.21564322 -37 4 C-37.6177832 4.2578125 -38.23556641 4.515625 -38.87207031 4.78125 C-59.48760008 13.43196283 -77.86904223 27.02235786 -94.08984375 42.28125 C-96.90766854 44.91374135 -99.79140252 47.45433435 -102.6875 50 C-108.07709316 54.89470943 -112.51087872 60.28875139 -117 66 C-118.5825255 67.87568187 -120.16585297 69.75068742 -121.75 71.625 C-124.80929792 75.37408798 -127.35335067 79.01693187 -129.5625 83.3125 C-130.7508207 85.53414305 -131.99704051 87.6660042 -133.3125 89.8125 C-141.05198496 102.4759163 -147.64414744 114.93732551 -149 130 C-149.12375 131.32837891 -149.12375 131.32837891 -149.25 132.68359375 C-149.54110389 138.66032049 -148.62089619 143.17109469 -145 148 C-139.14845293 153.25252783 -133.58948486 153.65271829 -126 153.3125 C-125.03449219 153.28994141 -124.06898437 153.26738281 -123.07421875 153.24414062 C-120.71448126 153.18573128 -118.35809777 153.10390208 -116 153 C-116 154.32 -116 155.64 -116 157 C-125.82235057 159.31784675 -136.20849738 159.4725824 -145.08203125 154.38671875 C-146.95879238 153.0297937 -148.53569081 151.79689677 -150 150 C-150 149.01 -150 148.02 -150 147 C-150.31195313 146.23300781 -150.62390625 145.46601563 -150.9453125 144.67578125 C-156.03249277 131.7694165 -151.12389765 117.77271698 -146.125 105.625 C-143.47925958 99.78725932 -140.4957763 94.36542744 -137 89 C-136.6601709 88.4632666 -136.3203418 87.9265332 -135.97021484 87.37353516 C-120.44067486 62.8514188 -99.80340466 39.78639083 -76 23 C-74.95457031 22.23300781 -73.90914063 21.46601563 -72.83203125 20.67578125 C-54.20034191 7.30907599 -22.83173851 -13.41865333 0 0 Z " fill="#DBAC45" transform="translate(227,193)"/>
<path d="M0 0 C6.0224641 12.02771669 11.60005953 24.62002929 8.4609375 38.359375 C6.63485556 43.69715297 4.06365538 47.46548703 -0.4375 50.8125 C-5.89693263 52.63231088 -11.29674049 52.22846885 -17 52 C-18.48672975 33.26720511 -8.1569311 16.15995784 0 0 Z " fill="#552D40" transform="translate(424,295)"/>
<path d="M0 0 C0.763125 0.78375 1.52625 1.5675 2.3125 2.375 C4.90891805 5.07257717 4.90891805 5.07257717 8 7 C5.81805103 12.70663577 3.03373965 17.99141099 -0.0234375 23.265625 C-0.94296161 24.89869982 -1.78685229 26.57370457 -2.625 28.25 C-4 31 -4 31 -6 34 C-4.515 33.505 -4.515 33.505 -3 33 C-3 33.66 -3 34.32 -3 35 C-2.34 35.66 -1.68 36.32 -1 37 C-1.7734375 38.11375 -1.7734375 38.11375 -2.5625 39.25 C-4.25874231 41.81807744 -4.25874231 41.81807744 -3.625 44.1875 C-3.315625 45.0846875 -3.315625 45.0846875 -3 46 C-3.33 46.66 -3.66 47.32 -4 48 C-4.144375 48.928125 -4.28875 49.85625 -4.4375 50.8125 C-4.96391693 53.79552927 -5.78224947 56.23976546 -7 59 C-6.34 59 -5.68 59 -5 59 C-4.97290556 61.08326131 -4.95356127 63.16662441 -4.9375 65.25 C-4.92589844 66.41015625 -4.91429687 67.5703125 -4.90234375 68.765625 C-4.98319617 71.44345718 -5.35200111 73.44677362 -6 76 C-5.79375 77.175625 -5.5875 78.35125 -5.375 79.5625 C-5.25125 80.696875 -5.1275 81.83125 -5 83 C-5.48726563 83.47566406 -5.97453125 83.95132813 -6.4765625 84.44140625 C-8.19298038 85.88249925 -8.19298038 85.88249925 -8.25 88.0234375 C-7.5511916 94.59660405 -5.57682185 100.15206206 -2.9609375 106.21484375 C-2 109 -2 109 -3 112 C-17.03519755 83.29687058 -18.46484858 51.40543557 -8.72314453 21.04980469 C-6.19632463 13.88735368 -3.07725839 6.93876952 0 0 Z M1 5 C1 8 1 8 1 8 Z " fill="#1C7DC2" transform="translate(388,294)"/>
<path d="M0 0 C0.495 1.485 0.495 1.485 1 3 C1.99 3.66 2.98 4.32 4 5 C3.38898438 5.04125 2.77796875 5.0825 2.1484375 5.125 C-0.28159273 5.83555444 -0.28159273 5.83555444 -1.2734375 8.625 C-1.63695312 9.73875 -2.00046875 10.8525 -2.375 12 C-5.40794345 20.45885145 -9.26481333 28.04948053 -17 33 C-21.29027816 34.403772 -24.35263753 34.18652817 -28.6875 32.9375 C-33.34598313 30.21272685 -36.25355576 27.23933272 -38 22 C-38.43562894 14.01346948 -38.43562894 14.01346948 -36 11 C-33.05678518 10.188286 -30.31051811 9.60832603 -27.3125 9.125 C-17.60306838 7.34544598 -8.85309469 4.42654735 0 0 Z " fill="#246DBF" transform="translate(322,315)"/>
<path d="M0 0 C3.85050545 2.09385938 6.3547529 4.94617044 8 9 C8.69671833 13.90943384 8.53659091 17.88554196 6.375 22.375 C3.24662276 25.8326801 0.59582664 28.58522698 -4.17578125 29.34765625 C-9.1396298 29.53953611 -12.8390717 28.90297323 -17 26 C-21.01052719 21.44750967 -22.25746023 16.96449526 -22 11 C-20.27420059 5.72108416 -17.36222715 3.18079063 -13 0 C-8.55266845 -1.48244385 -4.5416232 -1.03828711 0 0 Z " fill="#3792E0" transform="translate(262,449)"/>
<path d="M0 0 C5.13308791 2.61320839 8.1797908 5.53937241 10 11 C10.43619612 16.23435345 10.3042595 19.9897995 7.38671875 24.453125 C4.208462 27.99844802 0.4384219 29.83496298 -4.30859375 30.15625 C-9.45245589 29.80927785 -13.06512971 28.46643335 -17 25 C-20.09818479 20.45599564 -20.7810678 16.34977943 -20 11 C-16.47632302 1.35625248 -9.51323783 -1.0667686 0 0 Z " fill="#E69952" transform="translate(371,432)"/>
<path d="M0 0 C5.13308791 2.61320839 8.1797908 5.53937241 10 11 C10.43619612 16.23435345 10.3042595 19.9897995 7.38671875 24.453125 C4.208462 27.99844802 0.4384219 29.83496298 -4.30859375 30.15625 C-9.45245589 29.80927785 -13.06512971 28.46643335 -17 25 C-20.09818479 20.45599564 -20.7810678 16.34977943 -20 11 C-16.47632302 1.35625248 -9.51323783 -1.0667686 0 0 Z " fill="#EA2F99" transform="translate(308,384)"/>
<path d="M0 0 C2.31 0.33 4.62 0.66 7 1 C7.14695312 2.19753906 7.29390625 3.39507812 7.4453125 4.62890625 C9.97283238 23.61765919 16.36501859 40.3929293 30.125 54.125 C33.92004216 58.7723566 33.6436939 64.00166612 33.6875 69.75 C33.69475098 70.67441895 33.70200195 71.59883789 33.70947266 72.55126953 C33.59335647 76.83354091 33.36495211 79.39123855 31.12890625 83.12109375 C29 85 29 85 26.25 85.3125 C25.5075 85.209375 24.765 85.10625 24 85 C26 81 26 81 27.046875 79.1953125 C28.19504465 76.55075782 28.33469148 74.50302835 28.375 71.625 C28.41753906 70.25214844 28.41753906 70.25214844 28.4609375 68.8515625 C27.57055372 63.34325608 23.6318756 59.48402864 20.14282227 55.30859375 C6.66360655 39.01539979 0.54694536 21.05739638 0 0 Z " fill="#54DBFF" transform="translate(406,353)"/>
<path d="M0 0 C3.81124497 3.36176153 5.89064226 6.6877071 6.3125 11.75 C6.25654088 16.15478248 4.84888795 18.59716161 2 22 C-1.09021256 24.98720547 -3.72372123 25.74845419 -8 26 C-13.52712355 25.0303292 -16.42053929 23.3164085 -20 19 C-21.68600001 13.94199996 -21.58520639 9.63241784 -19.8125 4.6875 C-17.3132758 0.98175377 -14.83731522 -0.35445682 -10.6875 -1.8125 C-6.82623172 -2.08189081 -3.54386793 -1.5965304 0 0 Z " fill="#C37628" transform="translate(199,323)"/>
<path d="M0 0 C5.57142857 5.14285714 5.57142857 5.14285714 6 9 C6.66 9 7.32 9 8 9 C8.33 10.32 8.66 11.64 9 13 C9.66 13 10.32 13 11 13 C12.2890625 14.64453125 12.2890625 14.64453125 13.625 16.8125 C14.07101562 17.52019531 14.51703125 18.22789062 14.9765625 18.95703125 C16 21 16 21 16 24 C16.66 24 17.32 24 18 24 C26.10717585 38.36358202 32.14617007 51.78098714 32.25 68.5625 C32.270625 69.39974609 32.29125 70.23699219 32.3125 71.09960938 C32.34307496 75.92663122 32.08054887 79.03582001 29 83 C30.485 83.495 30.485 83.495 32 84 C29.55954795 89.75249411 24.49739739 92.87871954 18.9375 95.375 C12.77143674 96.68692835 7.8662703 95.91551683 2 94 C2 91.03 2 88.06 2 85 C2.33 85.99 2.66 86.98 3 88 C14.48185628 87.81345905 14.48185628 87.81345905 24 82 C28.36614001 75.09868193 28.76907983 67.99135824 28 60 C26.73450079 54.50671194 24.97464972 49.27492088 23 44 C22.75894531 43.34483398 22.51789063 42.68966797 22.26953125 42.01464844 C18.0782394 30.88776649 11.97806747 21.39962844 5.10400391 11.73901367 C4 10 4 10 3 7 C0.99983534 5.79117904 0.99983534 5.79117904 -1 5 C-0.67 3.35 -0.34 1.7 0 0 Z M27 84 C26.67 84.66 26.34 85.32 26 86 C26.66 86 27.32 86 28 86 C27.67 85.34 27.34 84.68 27 84 Z " fill="#E1AA42" transform="translate(404,259)"/>
<path d="M0 0 C3.70390021 2.02666238 5.65363011 3.48044516 8 7 C8.78134795 12.31316608 8.9863499 16.61911013 5.8125 21.0625 C1.78580493 23.83644549 -0.48477911 25.02754947 -5.4375 24.9375 C-9.90466632 23.76192992 -11.71851539 22.20335403 -15 19 C-16.72732636 15.54534728 -16.35415682 11.78423122 -16 8 C-14.60911202 4.4455085 -13.43618806 3.28748758 -10.25 1.1875 C-6.47131569 -0.19317311 -3.99560775 -0.49945097 0 0 Z " fill="#EBA53C" transform="translate(147,418)"/>
<path d="M0 0 C1.48693359 1.29164063 1.48693359 1.29164063 3.00390625 2.609375 C14.59753308 12.5359634 26.90023653 21.18950845 40 29 C39.67 31.64 39.34 34.28 39 37 C34.32989503 35.64757141 30.4705847 33.65968064 26.4375 31 C25.83325195 30.60554688 25.22900391 30.21109375 24.60644531 29.8046875 C18.14467093 25.52599046 12.01855208 20.87763063 6 16 C4.48019531 14.78376953 4.48019531 14.78376953 2.9296875 13.54296875 C2.00414062 12.76566406 1.07859375 11.98835938 0.125 11.1875 C-0.69742187 10.50042969 -1.51984375 9.81335938 -2.3671875 9.10546875 C-4 7 -4 7 -3.9453125 4.36328125 C-3 2 -3 2 0 0 Z " fill="#C78E4B" transform="translate(335,306)"/>
<path d="M0 0 C4.40263409 4.02526546 5.15760691 8.82255677 6.38671875 14.453125 C6.74644791 16.92042093 6.74644791 16.92042093 8 18 C8.61249406 37.2935629 -3.43301019 57.14968875 -14.2109375 72.26171875 C-16 74 -16 74 -20 74 C-18.73867665 70.50710457 -17.29016137 67.90674328 -15 65 C-11.25640783 59.78571091 -8.50504714 54.22633073 -5.75 48.4375 C-5.32589844 47.55126953 -4.90179688 46.66503906 -4.46484375 45.75195312 C0.77874043 34.54067076 5.9575287 21.14009841 2.31640625 8.65625 C0.19284955 3.93331891 -2.35391606 1.47132125 -7 -1 C-10.16245541 -2.0541518 -12.86948218 -2.31275672 -16.1875 -2.5625 C-17.81751953 -2.68818359 -17.81751953 -2.68818359 -19.48046875 -2.81640625 C-20.31191406 -2.87699219 -21.14335937 -2.93757812 -22 -3 C-22 -3.33 -22 -3.66 -22 -4 C-13.30609023 -5.11680659 -7.25007988 -5.67397555 0 0 Z " fill="#BD8351" transform="translate(229,195)"/>
<path d="M0 0 C0 0.33 0 0.66 0 1 C-0.65226562 1.10957031 -1.30453125 1.21914062 -1.9765625 1.33203125 C-11.57065866 3.07255312 -17.22229264 6.01193486 -23 14 C-26.49292919 19.33577704 -26.11751599 22.95482644 -25 28.9375 C-24.85699463 29.76636719 -24.71398926 30.59523437 -24.56665039 31.44921875 C-22.97391924 40.09855316 -20.91974698 49.62037952 -16 57 C-15.75 60.0625 -15.75 60.0625 -16 63 C-16.99 63.99 -16.99 63.99 -18 65 C-24.15526943 52.49927023 -30.10393012 39.75266633 -30.1875 25.5625 C-30.20167969 24.47066406 -30.21585937 23.37882812 -30.23046875 22.25390625 C-29.98632306 18.80690016 -29.36944437 16.16967421 -28 13 C-24.9375 10.75 -24.9375 10.75 -22 9 C-21.67 8.34 -21.34 7.68 -21 7 C-20.34 7 -19.68 7 -19 7 C-18.835 6.401875 -18.67 5.80375 -18.5 5.1875 C-14.45426292 -0.71253325 -6.43100374 -0.40193773 0 0 Z " fill="#ECAC3C" transform="translate(299,187)"/>
<path d="M0 0 C0.99 1.32 1.98 2.64 3 4 C2.484375 4.7425 1.96875 5.485 1.4375 6.25 C-0.25874231 8.81807744 -0.25874231 8.81807744 0.375 11.1875 C0.58125 11.785625 0.7875 12.38375 1 13 C0.67 13.66 0.34 14.32 0 15 C-0.144375 15.928125 -0.28875 16.85625 -0.4375 17.8125 C-0.96391693 20.79552927 -1.78224947 23.23976546 -3 26 C-2.34 26 -1.68 26 -1 26 C-0.97290556 28.08326131 -0.95356127 30.16662441 -0.9375 32.25 C-0.92589844 33.41015625 -0.91429687 34.5703125 -0.90234375 35.765625 C-0.98320872 38.44387279 -1.34795076 40.44706146 -2 43 C-1.814375 44.19625 -1.62875 45.3925 -1.4375 46.625 C-1.293125 47.73875 -1.14875 48.8525 -1 50 C-1.66 50.66 -2.32 51.32 -3 52 C-3.99 51.67 -4.98 51.34 -6 51 C-5.67 46.71 -5.34 42.42 -5 38 C-5.66 38 -6.32 38 -7 38 C-8.36497888 19.89828005 -8.36497888 19.89828005 -7 11 C-6.896875 9.88625 -6.79375 8.7725 -6.6875 7.625 C-5.84125312 4.39387553 -4.55851306 3.09332887 -2 1 C-1.34 0.67 -0.68 0.34 0 0 Z " fill="#2193D6" transform="translate(384,327)"/>
<path d="M0 0 C2.96794762 3.41160989 2.96794762 3.41160989 3.109375 6.0078125 C2.99078125 6.70648438 2.8721875 7.40515625 2.75 8.125 C2.63269531 8.91777344 2.51539063 9.71054687 2.39453125 10.52734375 C2.26433594 11.34332031 2.13414062 12.15929687 2 13 C0.95970807 21.01159887 0.89531216 28.92740421 1 37 C1.66 37 2.32 37 3 37 C2.98259766 38.37285156 2.98259766 38.37285156 2.96484375 39.7734375 C2.95582031 40.96195312 2.94679688 42.15046875 2.9375 43.375 C2.92589844 44.55835938 2.91429687 45.74171875 2.90234375 46.9609375 C2.78533407 49.91921521 2.78533407 49.91921521 4 52 C4.10486659 53.43608972 4.18408297 54.87409615 4.25 56.3125 C4.7382881 62.08776957 6.75755794 66.92704726 9.0390625 72.21484375 C10 75 10 75 9 78 C-3.52617248 52.38295054 -4.67169195 27.64084406 0 0 Z " fill="#186BB0" transform="translate(376,328)"/>
<path d="M0 0 C1.27291136 2.54582272 0.69346125 4.14875186 0.2734375 6.87890625 C-0.69540078 14.39432321 -0.67887992 20.7550186 4 27 C9.85154707 32.25252783 15.41051514 32.65271829 23 32.3125 C23.96550781 32.28994141 24.93101563 32.26738281 25.92578125 32.24414062 C28.28551874 32.18573128 30.64190223 32.10390208 33 32 C33 33.32 33 34.64 33 36 C23.17764943 38.31784675 12.79150262 38.4725824 3.91796875 33.38671875 C2.04120762 32.0297937 0.46430919 30.79689677 -1 29 C-1 28.01 -1 27.02 -1 26 C-1.31582031 25.24589844 -1.63164063 24.49179687 -1.95703125 23.71484375 C-3.15638151 20.59293952 -3.44813278 17.89402087 -3.6875 14.5625 C-3.77386719 13.47066406 -3.86023438 12.37882812 -3.94921875 11.25390625 C-4.00037978 7.97566477 -3.82671845 5.17441615 -3 2 C-2.01 1.34 -1.02 0.68 0 0 Z " fill="#B07C56" transform="translate(78,314)"/>
<path d="M0 0 C2.31 0.33 4.62 0.66 7 1 C6.95359375 1.53625 6.9071875 2.0725 6.859375 2.625 C6.52228125 9.94474998 8.13178338 16.36587692 10.02734375 23.36328125 C11.58075311 29.17141022 11.58075311 29.17141022 12 32 C11 33 11 33 8.4375 33.0625 C7.633125 33.041875 6.82875 33.02125 6 33 C1.9959546 22.21240195 -0.45304756 11.55271277 0 0 Z " fill="#53DCFF" transform="translate(406,353)"/>
<path d="M0 0 C-5.08494129 11.72434649 -19.43210656 20.24272138 -29.5 27.5 C-30.09965576 27.93368896 -30.69931152 28.36737793 -31.31713867 28.81420898 C-33.86854237 30.62573832 -36.01250887 32.00416962 -39 33 C-39.33 31.68 -39.66 30.36 -40 29 C-39.14019531 28.40574219 -38.28039062 27.81148438 -37.39453125 27.19921875 C-26.18031244 19.36701517 -15.78834813 10.83183439 -5.90234375 1.36328125 C-4 0 -4 0 0 0 Z " fill="#9F645A" transform="translate(185,300)"/>
<path d="M0 0 C0.33 0 0.66 0 1 0 C1.14695312 1.12535156 1.29390625 2.25070312 1.4453125 3.41015625 C4.3173252 23.73705453 12.3701025 39.63666139 25.8203125 55.0703125 C27.31028925 57.50755924 27.22328361 59.19439288 27 62 C24.64046906 59.64046906 24.50858587 58.22104383 24 55 C23.34 55 22.68 55 22 55 C20.43753081 53.11436356 18.99022423 51.23359101 17.5625 49.25 C16.96985352 48.44175781 16.96985352 48.44175781 16.36523438 47.6171875 C14.6928195 45.33535688 13.03274711 43.04643845 11.40234375 40.734375 C9.93147045 38.73891278 9.93147045 38.73891278 7 37 C6.505 35.515 6.505 35.515 6 34 C5.34 33.67 4.68 33.34 4 33 C3.505 33.495 3.505 33.495 3 34 C2.34 33.67 1.68 33.34 1 33 C1 32.34 1 31.68 1 31 C2.32 30.67 3.64 30.34 5 30 C4.80664062 29.32195312 4.61328125 28.64390625 4.4140625 27.9453125 C1.77238548 18.50327879 -0.31757868 9.84493915 0 0 Z " fill="#1BD3FF" transform="translate(412,355)"/>
<path d="M0 0 C0.66 0.33 1.32 0.66 2 1 C1.443125 1.825 0.88625 2.65 0.3125 3.5 C-7.53772126 15.30997541 -13.89396731 27.59516682 -18.9921875 40.83984375 C-20 43 -20 43 -22 44 C-20.71227679 32.62752308 -15.63019315 22.64814602 -9.9375 12.875 C-9.52636963 12.1648877 -9.11523926 11.45477539 -8.69165039 10.72314453 C-6.19500285 6.56454952 -3.57810453 3.27833463 0 0 Z " fill="#D1A048" transform="translate(98,272)"/>
<path d="M0 0 C4.40263409 4.02526546 5.15760691 8.82255677 6.38671875 14.453125 C6.74644791 16.92042093 6.74644791 16.92042093 8 18 C7.96219927 19.64869317 7.84529698 21.29594032 7.6875 22.9375 C7.56955078 24.28134766 7.56955078 24.28134766 7.44921875 25.65234375 C7 28 7 28 5 30 C4.90203125 28.72125 4.8040625 27.4425 4.703125 26.125 C4.55293525 24.41659156 4.40184552 22.70826207 4.25 21 C4.188125 20.16082031 4.12625 19.32164062 4.0625 18.45703125 C3.5267585 12.69781015 2.32613854 7.81639806 -1 3 C-5.97646304 -0.96085834 -9.94572791 -2.0926892 -16.1875 -2.5625 C-17.81751953 -2.68818359 -17.81751953 -2.68818359 -19.48046875 -2.81640625 C-20.31191406 -2.87699219 -21.14335937 -2.93757812 -22 -3 C-22 -3.33 -22 -3.66 -22 -4 C-13.30609023 -5.11680659 -7.25007988 -5.67397555 0 0 Z " fill="#C3944C" transform="translate(229,195)"/>
<path d="M0 0 C0.99 0.66 1.98 1.32 3 2 C2.731875 2.495 2.46375 2.99 2.1875 3.5 C0.21262465 7.65763233 -1.59547853 11.9105296 -2.47265625 16.44140625 C-3.73413211 22.56190022 -6.41749291 28.88213273 -10 34 C-10.33 34 -10.66 34 -11 34 C-10.4520625 28.13112727 -9.2289055 23.07931985 -7.1875 17.5625 C-6.92050293 16.82330322 -6.65350586 16.08410645 -6.37841797 15.32250977 C-4.47140473 10.10660496 -2.37436886 5.02270335 0 0 Z " fill="#1967AA" transform="translate(388,294)"/>
<path d="M0 0 C0 0.33 0 0.66 0 1 C-0.65226562 1.10957031 -1.30453125 1.21914062 -1.9765625 1.33203125 C-11.70768626 3.09741211 -17.00914705 6.08783815 -23 14 C-26.15760837 18.88920005 -26.29244876 22.34599064 -26 28 C-26.99 28 -27.98 28 -29 28 C-30.65149276 17.95713863 -30.65149276 17.95713863 -28 13 C-24.9375 10.75 -24.9375 10.75 -22 9 C-21.67 8.34 -21.34 7.68 -21 7 C-20.34 7 -19.68 7 -19 7 C-18.835 6.401875 -18.67 5.80375 -18.5 5.1875 C-14.45426292 -0.71253325 -6.43100374 -0.40193773 0 0 Z " fill="#E7BB4A" transform="translate(299,187)"/>
<path d="M0 0 C5.57142857 5.14285714 5.57142857 5.14285714 6 9 C6.66 9 7.32 9 8 9 C8.33 10.32 8.66 11.64 9 13 C9.66 13 10.32 13 11 13 C12.2890625 14.64453125 12.2890625 14.64453125 13.625 16.8125 C14.07101562 17.52019531 14.51703125 18.22789062 14.9765625 18.95703125 C16 21 16 21 16 24 C16.66 24 17.32 24 18 24 C18.33 26.31 18.66 28.62 19 31 C15.08513917 27.50393824 12.58262888 23.4350479 9.875 19 C9.43285156 18.2884375 8.99070312 17.576875 8.53515625 16.84375 C5.22858433 11.48930121 5.22858433 11.48930121 3.99267578 8.84375 C2.73269124 6.50351309 1.42228837 5.96891535 -1 5 C-0.67 3.35 -0.34 1.7 0 0 Z " fill="#ECB741" transform="translate(404,259)"/>
<path d="M0 0 C0 4.10591371 -1.29609056 7.50186822 -3.03515625 11.203125 C-4.25741949 14.74620386 -4.42036555 18.16563747 -4.5625 21.875 C-4.78939811 26.98262138 -5.20178024 31.94680715 -6 37 C-6.33 37 -6.66 37 -7 37 C-7.70893903 28.20915606 -8.32171485 19.76681749 -7 11 C-6.896875 9.88625 -6.79375 8.7725 -6.6875 7.625 C-5.84125312 4.39387553 -4.55851306 3.09332887 -2 1 C-1.34 0.67 -0.68 0.34 0 0 Z " fill="#1C7EC3" transform="translate(384,327)"/>
<path d="M0 0 C0.66 0.33 1.32 0.66 2 1 C0.66617336 5.72902173 -1.39644704 9.65274425 -3.87890625 13.8515625 C-5.06441622 15.91857236 -5.06441622 15.91857236 -5.5078125 18.0390625 C-6.07870101 20.31355482 -6.98345606 21.82432643 -8.3125 23.75 C-8.72113281 24.36359375 -9.12976563 24.9771875 -9.55078125 25.609375 C-11 27 -11 27 -15 27 C-13.68553798 23.34656879 -12.07723774 20.53524213 -9.75 17.4375 C-5.79932734 11.94631347 -2.86692556 6.11190723 0 0 Z " fill="#A87658" transform="translate(224,242)"/>
<path d="M0 0 C1.85546875 0.1640625 1.85546875 0.1640625 4 1 C5.30078125 3.3984375 5.30078125 3.3984375 6.3125 6.375 C6.65925781 7.35210937 7.00601562 8.32921875 7.36328125 9.3359375 C8 12 8 12 7 15 C5.35 15 3.7 15 2 15 C-0.08989546 9.68670645 -1.6112798 5.71271928 0 0 Z " fill="#4EDBFF" transform="translate(410,371)"/>
<path d="M0 0 C2.00698975 1.3227887 4.00591923 2.65783025 6 4 C6.763125 4.495 7.52625 4.99 8.3125 5.5 C10.31590026 7.28080023 10.48621147 8.43105735 11 11 C11.66 11.33 12.32 11.66 13 12 C13 12.66 13 13.32 13 14 C14.08861328 14.39832031 14.08861328 14.39832031 15.19921875 14.8046875 C18.00170928 16.00072948 20.30479352 17.40329107 22.8125 19.125 C23.60269531 19.66382813 24.39289063 20.20265625 25.20703125 20.7578125 C25.79871094 21.16773438 26.39039063 21.57765625 27 22 C24 23 24 23 22.17578125 22.22265625 C20.45052083 21.1484375 18.72526042 20.07421875 17 19 C16.34 19.66 15.68 20.32 15 21 C14.67 19.35 14.34 17.7 14 16 C13.21625 15.9175 12.4325 15.835 11.625 15.75 C9 15 9 15 7.6875 13.125 C7 11 7 11 7 8 C6.401875 7.731875 5.80375 7.46375 5.1875 7.1875 C2.98180967 5.99012525 1.56416813 4.95521016 0 3 C0 2.01 0 1.02 0 0 Z " fill="#C58E4C" transform="translate(341,312)"/>
<path d="M0 0 C-2.849641 6.70503764 -9.96247841 13.09336838 -16 17 C-16.99 16.67 -17.98 16.34 -19 16 C-7.39002268 0 -7.39002268 0 0 0 Z " fill="#A46B58" transform="translate(185,300)"/>
<path d="M0 0 C0.66 0 1.32 0 2 0 C1.98839844 0.91523438 1.97679687 1.83046875 1.96484375 2.7734375 C1.95582031 3.96195312 1.94679688 5.15046875 1.9375 6.375 C1.92589844 7.55835938 1.91429687 8.74171875 1.90234375 9.9609375 C1.78533407 12.91921521 1.78533407 12.91921521 3 15 C3.10486659 16.43608972 3.18408297 17.87409615 3.25 19.3125 C3.7382881 25.08776957 5.75755794 29.92704726 8.0390625 35.21484375 C9 38 9 38 8 41 C7.20688633 39.27149655 6.4155741 37.54216646 5.625 35.8125 C5.18414062 34.84957031 4.74328125 33.88664062 4.2890625 32.89453125 C3.86367188 31.93933594 3.43828125 30.98414063 3 30 C2.64035156 29.26136719 2.28070313 28.52273438 1.91015625 27.76171875 C0.53332267 23.58394474 0.22056483 19.36534473 -0.1875 15 C-0.28224609 14.11054688 -0.37699219 13.22109375 -0.47460938 12.3046875 C-0.89513499 8.00312776 -1.23770278 4.21345628 0 0 Z " fill="#1A77BC" transform="translate(377,365)"/>
<path d="M0 0 C3.54581059 1.8662161 5.6710856 3.1340672 7 7 C7 7.99 7 8.98 7 10 C7.804375 9.979375 8.60875 9.95875 9.4375 9.9375 C12 10 12 10 13 11 C13.04063832 12.66617115 13.042721 14.33388095 13 16 C7.29014621 12.34880098 2.05535865 8.51755454 -3 4 C-2.34 3.67 -1.68 3.34 -1 3 C-0.67 2.01 -0.34 1.02 0 0 Z " fill="#D29B42" transform="translate(343,317)"/>
<path d="M0 0 C2.9375 0 2.9375 0 6 1 C7.875 4.0625 7.875 4.0625 9 7 C7.35 6.67 5.7 6.34 4 6 C4.66 7.65 5.32 9.3 6 11 C4.68 10.34 3.36 9.68 2 9 C2.33 7.68 2.66 6.36 3 5 C1.47899977 6.52100023 0.27976768 8.27509574 -1 10 C-3 7 -3 7 -2.75 4.4375 C-2 2 -2 2 0 0 Z " fill="#25D7F8" transform="translate(287,287)"/>
<path d="M0 0 C0.66 0.33 1.32 0.66 2 1 C3.81319012 8.90032839 1.92698925 14.57574829 -1 22 C-2.578125 20.33203125 -2.578125 20.33203125 -4 18 C-3.671875 15.44921875 -3.671875 15.44921875 -2.75 12.6875 C-1.41451105 8.41164269 -0.49391278 4.44521506 0 0 Z " fill="#B4814F" transform="translate(232,217)"/>
<path d="M0 0 C3.72649967 4.62085959 7.379182 9.29616947 11 14 C11.515625 14.64710938 12.03125 15.29421875 12.5625 15.9609375 C14.64102966 18.66538802 15.94694021 20.50123801 16.3125 23.9375 C16.209375 24.618125 16.10625 25.29875 16 26 C13.64046906 23.64046906 13.50858587 22.22104383 13 19 C12.34 19 11.68 19 11 19 C9.45037785 17.18279604 7.98419737 15.29394128 6.5625 13.375 C5.38880859 11.80878906 5.38880859 11.80878906 4.19140625 10.2109375 C2.15401478 7.22566872 0.52700473 4.27004872 -1 1 C-0.67 0.67 -0.34 0.34 0 0 Z " fill="#04CEFF" transform="translate(423,391)"/>
<path d="M0 0 C0 1.32 0 2.64 0 4 C-1.9914056 4.38133299 -3.99279077 4.71325582 -6 5 C-6.33 4.67 -6.66 4.34 -7 4 C-9.34987262 3.76472227 -11.70556039 3.58613583 -14.0625 3.4375 C-15.35285156 3.35371094 -16.64320312 3.26992188 -17.97265625 3.18359375 C-19.47119141 3.09271484 -19.47119141 3.09271484 -21 3 C-21 2.34 -21 1.68 -21 1 C-18.43761495 0.83138242 -15.87511576 0.66504227 -13.3125 0.5 C-12.59126953 0.45230469 -11.87003906 0.40460938 -11.12695312 0.35546875 C-7.41171286 0.11796481 -3.72305126 -0.05874637 0 0 Z " fill="#A47159" transform="translate(111,346)"/>
<path d="M0 0 C0.33 0.99 0.66 1.98 1 3 C4.3 3 7.6 3 11 3 C11 3.33 11 3.66 11 4 C6.545 4.495 6.545 4.495 2 5 C4.9982175 5.74955438 7.96936513 6.41070989 11 7 C10.67 8.32 10.34 9.64 10 11 C6.7 10.34 3.4 9.68 0 9 C0 6.03 0 3.06 0 0 Z " fill="#BF9459" transform="translate(406,344)"/>
<path d="M0 0 C1.66331525 3.32663049 0.62072244 6.91044261 0.1875 10.5 C0.10435547 11.28503906 0.02121094 12.07007813 -0.06445312 12.87890625 C-0.75485149 18.75485149 -0.75485149 18.75485149 -3 21 C-3.1968121 18.95920995 -3.38202831 16.91729993 -3.5625 14.875 C-3.66691406 13.73804688 -3.77132812 12.60109375 -3.87890625 11.4296875 C-3.99797398 8.05738198 -3.86493327 5.2612238 -3 2 C-2.01 1.34 -1.02 0.68 0 0 Z " fill="#C08C51" transform="translate(78,314)"/>
<path d="M0 0 C2.31 0.33 4.62 0.66 7 1 C6.67 3.64 6.34 6.28 6 9 C5.01 9.33 4.02 9.66 3 10 C2.01 10.495 2.01 10.495 1 11 C-0.28317892 7.15046324 -0.06643637 4.05261865 0 0 Z " fill="#69C8E4" transform="translate(406,353)"/>
<path d="M0 0 C2.625 0.6875 2.625 0.6875 5 2 C5.33 2.99 5.66 3.98 6 5 C1.8794254 6.99785435 -1.45194365 7.17835515 -6 7 C-4.19587357 3.73539027 -3.16605307 2.11070205 0 0 Z " fill="#04C7EB" transform="translate(328,312)"/>
<path d="M0 0 C0.99 0.33 1.98 0.66 3 1 C2.67 1.66 2.34 2.32 2 3 C1.34 3 0.68 3 0 3 C-1.27462592 4.48842315 -1.27462592 4.48842315 -2.5625 6.4375 C-6.19901456 11.48169762 -10.52466469 15.7036781 -15 20 C-15 15.79243909 -13.16978591 14.70329228 -10.3125 11.6875 C-6.74847833 7.88273401 -3.28391702 4.05016433 0 0 Z " fill="#2883AF" transform="translate(122,244)"/>
<path d="M0 0 C0 4 0 4 -2.375 6.6875 C-5 9 -5 9 -7 10 C-7.99 9.34 -8.98 8.68 -10 8 C-8.33333333 6.33333333 -6.66666667 4.66666667 -5 3 C-4.443125 2.401875 -3.88625 1.80375 -3.3125 1.1875 C-2 0 -2 0 0 0 Z " fill="#995D53" transform="translate(168,313)"/>
<path d="M0 0 C3 0 3 0 5.1875 1.625 C7.48899662 4.64075419 7.48408063 6.28871513 7 10 C6.34 10.66 5.68 11.32 5 12 C4.16180842 10.37750059 3.3295884 8.75191503 2.5 7.125 C2.0359375 6.22007812 1.571875 5.31515625 1.09375 4.3828125 C0 2 0 2 0 0 Z " fill="#D97A2C" transform="translate(276,240)"/>
<path d="M0 0 C0.33 0.66 0.66 1.32 1 2 C0.109375 3.98828125 0.109375 3.98828125 -1.25 6.3125 C-1.71277344 7.11171875 -2.17554688 7.9109375 -2.65234375 8.734375 C-3.09707031 9.48203125 -3.54179687 10.2296875 -4 11 C-4.598125 12.010625 -5.19625 13.02125 -5.8125 14.0625 C-6.204375 14.701875 -6.59625 15.34125 -7 16 C-7.66 15.67 -8.32 15.34 -9 15 C-4.5 4.07142857 -4.5 4.07142857 0 0 Z " fill="#2192D6" transform="translate(395,301)"/>
<path d="M0 0 C0.99 0 1.98 0 3 0 C3 0.66 3 1.32 3 2 C4.08861328 2.39832031 4.08861328 2.39832031 5.19921875 2.8046875 C8.00170928 4.00072948 10.30479352 5.40329107 12.8125 7.125 C13.60269531 7.66382813 14.39289063 8.20265625 15.20703125 8.7578125 C16.09455078 9.37269531 16.09455078 9.37269531 17 10 C14 11 14 11 12.17578125 10.22265625 C10.45052083 9.1484375 8.72526042 8.07421875 7 7 C6.34 7.66 5.68 8.32 5 9 C4.9175 8.2575 4.835 7.515 4.75 6.75 C3.8603054 3.48778646 2.51496251 2.19045122 0 0 Z " fill="#D29D4C" transform="translate(351,324)"/>
<path d="M0 0 C2.4780998 2.4780998 2.99296811 4.54847116 4.0625 7.875 C4.40410156 8.92429688 4.74570312 9.97359375 5.09765625 11.0546875 C5.80458102 13.3621389 6.44976718 15.65158363 7 18 C5.5 16.625 5.5 16.625 4 15 C4 14.34 4 13.68 4 13 C3.01 12.67 2.02 12.34 1 12 C1.66 12 2.32 12 3 12 C2.505 10.948125 2.01 9.89625 1.5 8.8125 C0.17220212 5.74547391 -0.30715006 3.37865064 0 0 Z " fill="#E9B245" transform="translate(275,227)"/>
<path d="M0 0 C3.63 0 7.26 0 11 0 C8.49484216 2.50515784 6.38931835 3.05099086 3 4 C1.68 4 0.36 4 -1 4 C-0.67 2.68 -0.34 1.36 0 0 Z " fill="#D1962F" transform="translate(417,351)"/>
<path d="M0 0 C0.99 0 1.98 0 3 0 C3.625 3.375 3.625 3.375 4 7 C3.34 7.66 2.68 8.32 2 9 C1.01 8.67 0.02 8.34 -1 8 C-0.67 5.36 -0.34 2.72 0 0 Z " fill="#208FD3" transform="translate(379,370)"/>
<path d="M0 0 C0 3.44118336 -0.68964993 5.82757352 -2 9 C-2.99 9.33 -3.98 9.66 -5 10 C-5.3125 6.6875 -5.3125 6.6875 -5 3 C-2.5 1.0625 -2.5 1.0625 0 0 Z " fill="#1E86CA" transform="translate(384,327)"/>
<path d="M0 0 C1.19872272 3.59616816 0.72500287 4.28921639 -0.8125 7.625 C-1.16957031 8.42164063 -1.52664062 9.21828125 -1.89453125 10.0390625 C-3 12 -3 12 -5 13 C-4.4999231 7.89921563 -3.74076891 3.74076891 0 0 Z " fill="#C9974C" transform="translate(81,303)"/>
<path d="M0 0 C0.99 0 1.98 0 3 0 C6 6.625 6 6.625 6 10 C5.01 10 4.02 10 3 10 C2.01 6.7 1.02 3.4 0 0 Z " fill="#DE952F" transform="translate(272,229)"/>
<path d="M0 0 C0.33 1.32 0.66 2.64 1 4 C-0.98 4.99 -2.96 5.98 -5 7 C-5.33 5.68 -5.66 4.36 -6 3 C-2.25 0 -2.25 0 0 0 Z " fill="#A0736B" transform="translate(151,326)"/>
<path d="M0 0 C0.66 0 1.32 0 2 0 C1.34 3.3 0.68 6.6 0 10 C-0.99 9.01 -1.98 8.02 -3 7 C-2.75546876 3.65807308 -2.39456443 2.39456443 0 0 Z " fill="#46B5DE" transform="translate(287,287)"/>
<path d="M0 0 C3.99996286 1.33332095 4.83782337 3.4957827 7 7 C4.6875 7.25 4.6875 7.25 2 7 C0.125 5.1875 0.125 5.1875 -1 3 C-0.67 2.01 -0.34 1.02 0 0 Z " fill="#C49A3A" transform="translate(283,251)"/>
<path d="M0 0 C1.32 0.33 2.64 0.66 4 1 C4.33 2.32 4.66 3.64 5 5 C4.2575 4.7525 3.515 4.505 2.75 4.25 C1.8425 4.1675 0.935 4.085 0 4 C-2.33454661 5.83358335 -2.33454661 5.83358335 -4 8 C-2.87548273 5.0280615 -1.77706209 2.66559313 0 0 Z " fill="#2490C5" transform="translate(122,246)"/>
<path d="M0 0 C0.33 0 0.66 0 1 0 C1 2.31 1 4.62 1 7 C2.98 7.495 2.98 7.495 5 8 C4.67 9.32 4.34 10.64 4 12 C2.68 11.67 1.36 11.34 0 11 C0 7.37 0 3.74 0 0 Z " fill="#F1BF26" transform="translate(269,208)"/>
<path d="M0 0 C2.5 2.3125 2.5 2.3125 5 5 C5 5.99 5 6.98 5 8 C0.32307692 6.52307692 0.32307692 6.52307692 -1.3125 3.875 C-1.539375 3.25625 -1.76625 2.6375 -2 2 C-1.34 2 -0.68 2 0 2 C0 1.34 0 0.68 0 0 Z " fill="#55E5FF" transform="translate(428,402)"/>
<path d="M0 0 C1.33617352 0.97528737 2.6688751 1.95533319 4 2.9375 C4.7425 3.48277344 5.485 4.02804687 6.25 4.58984375 C6.8275 5.05519531 7.405 5.52054687 8 6 C8 6.33 8 6.66 8 7 C3.52599758 7.36275695 3.52599758 7.36275695 1.1875 5.75 C0 4 0 4 0 0 Z " fill="#A68F62" transform="translate(331,309)"/>
<path d="M0 0 C3 1 3 1 4 3 C4.039992 4.99960012 4.04346799 7.00047242 4 9 C3.01 9 2.02 9 1 9 C0.67 6.03 0.34 3.06 0 0 Z " fill="#DFA73D" transform="translate(269,206)"/>
<path d="M0 0 C0.75 1.6875 0.75 1.6875 1 4 C-0.625 6.75 -0.625 6.75 -3 9 C-5.75 9.3125 -5.75 9.3125 -8 9 C-6.8553125 8.1646875 -6.8553125 8.1646875 -5.6875 7.3125 C-3.03859112 5.03320631 -1.61711178 3.06400128 0 0 Z " fill="#00DDFF" transform="translate(438,429)"/>
<path d="M0 0 C2.475 0.495 2.475 0.495 5 1 C4.67 2.32 4.34 3.64 4 5 C3.01 5 2.02 5 1 5 C0.67 5.66 0.34 6.32 0 7 C0 4.69 0 2.38 0 0 Z " fill="#4ADFFC" transform="translate(406,354)"/>
<path d="M0 0 C1.20628008 2.33214148 2.1654738 4.49642139 3 7 C1.68 7.33 0.36 7.66 -1 8 C-1.66 6.35 -2.32 4.7 -3 3 C-2.01 2.01 -1.02 1.02 0 0 Z " fill="#57EDFF" transform="translate(414,374)"/>
<path d="M0 0 C0 3.71626429 -1.29838335 5.73289602 -3 9 C-3.33 9.99 -3.66 10.98 -4 12 C-4.66 12 -5.32 12 -6 12 C-5.54300722 6.97307937 -3.00758252 3.85103739 0 0 Z " fill="#1E86CB" transform="translate(393,300)"/>
<path d="M0 0 C1.32 0 2.64 0 4 0 C2.60667426 3.36720387 1.0210714 4.9859524 -2 7 C-1.125 2.25 -1.125 2.25 0 0 Z " fill="#AD6E5F" transform="translate(181,300)"/>
<path d="M0 0 C1.9375 0.8125 1.9375 0.8125 4 2 C4.33 2.99 4.66 3.98 5 5 C4.01 5.33 3.02 5.66 2 6 C1.01 5.34 0.02 4.68 -1 4 C-0.67 2.68 -0.34 1.36 0 0 Z " fill="#B87E3D" transform="translate(358,330)"/>
<path d="M0 0 C2.31 0.66 4.62 1.32 7 2 C6.34 3.32 5.68 4.64 5 6 C4.01 5.01 3.02 4.02 2 3 C1.67 3.66 1.34 4.32 1 5 C0.67 3.35 0.34 1.7 0 0 Z " fill="#41C9FF" transform="translate(429,408)"/>
<path d="M0 0 C0.99 0 1.98 0 3 0 C2.45276317 3.37462715 1.9451 5.08235 0 8 C-0.66 6.02 -1.32 4.04 -2 2 C-1.34 1.34 -0.68 0.68 0 0 Z " fill="#A77D51" transform="translate(230,231)"/>
<path d="M0 0 C0.99 0.33 1.98 0.66 3 1 C4.1875 3.5625 4.1875 3.5625 5 6 C4.34 6.66 3.68 7.32 3 8 C0 3.375 0 3.375 0 0 Z " fill="#4CDAFF" transform="translate(431,411)"/>
<path d="M0 0 C2 0 2 0 4.625 2.375 C7 5 7 5 7 7 C3.62496331 5.8141763 1.35277269 4.72426311 -1 2 C-0.67 1.34 -0.34 0.68 0 0 Z " fill="#D39967" transform="translate(78,341)"/>
<path d="M0 0 C0.99 0.33 1.98 0.66 3 1 C3 2.65 3 4.3 3 6 C0.5 4.625 0.5 4.625 -2 3 C-2 2.34 -2 1.68 -2 1 C-1.34 0.67 -0.68 0.34 0 0 Z " fill="#B5763E" transform="translate(353,327)"/>
<path d="M0 0 C1.32 0.66 2.64 1.32 4 2 C2 4 2 4 -1.125 4.125 C-2.548125 4.063125 -2.548125 4.063125 -4 4 C-2.68 2.68 -1.36 1.36 0 0 Z " fill="#4FB6E7" transform="translate(328,312)"/>
<path d="M0 0 C2.475 0.99 2.475 0.99 5 2 C5 2.99 5 3.98 5 5 C3.35 4.67 1.7 4.34 0 4 C0 2.68 0 1.36 0 0 Z " fill="#D08B49" transform="translate(362,333)"/>
<path d="M0 0 C1.32 1.32 2.64 2.64 4 4 C3.01 4.66 2.02 5.32 1 6 C0.01 4.68 -0.98 3.36 -2 2 C-1.34 2 -0.68 2 0 2 C0 1.34 0 0.68 0 0 Z " fill="#B98138" transform="translate(342,318)"/>
<path d="M0 0 C-0.99 0 -1.98 0 -3 0 C-3.33 1.65 -3.66 3.3 -4 5 C-4.66 5 -5.32 5 -6 5 C-6 3.35 -6 1.7 -6 0 C-3.50907189 -1.24546405 -2.58919267 -0.7767578 0 0 Z " fill="#1999D7" transform="translate(293,292)"/>
<path d="M0 0 C0.33 0 0.66 0 1 0 C1.125 2.875 1.125 2.875 1 6 C0.34 6.66 -0.32 7.32 -1 8 C-1.625 5.125 -1.625 5.125 -2 2 C-1.34 1.34 -0.68 0.68 0 0 Z " fill="#E28B34" transform="translate(282,244)"/>
</svg>
