<?xml version="1.0" encoding="UTF-8"?>
<svg version="1.1" xmlns="http://www.w3.org/2000/svg" width="400" height="400">
<path d="M0 0 C0.84519196 -0.00807175 1.69038391 -0.01614349 2.56118774 -0.02445984 C4.35148087 -0.03826458 6.14179991 -0.04900281 7.93212891 -0.05688477 C9.73559462 -0.06832767 11.53902858 -0.08865529 13.34228516 -0.1184082 C39.88155587 -0.55543943 62.35675242 7.94761583 81.9765625 26.12109375 C89.09416442 32.94234924 89.09416442 32.94234924 98.2890625 35.23828125 C102.45418617 33.12767144 105.63801694 30.19182014 108.9765625 26.98828125 C122.91457186 14.00291565 144.55467868 0.41613337 164.32885742 0.04541016 C165.11455612 0.02934723 165.90025482 0.0132843 166.70976257 -0.00326538 C170.34026706 -0.04849601 173.97059581 -0.08889009 177.60131836 -0.11181641 C179.49499944 -0.12821748 181.38862285 -0.15529173 183.28198242 -0.19384766 C199.2697272 -0.51694592 213.43715532 1.4301018 227.7265625 9.11328125 C228.38285645 9.45496338 229.03915039 9.79664551 229.71533203 10.14868164 C239.35028454 15.26969565 247.37291906 21.76340932 255.2890625 29.23828125 C255.9284375 29.82480469 256.5678125 30.41132812 257.2265625 31.015625 C270.43135674 43.54249454 281.88367252 64.99248923 282.48193359 83.4074707 C282.57201615 87.83142782 282.6111578 92.2561579 282.63916016 96.6809082 C282.65559193 98.57458902 282.68270913 100.46821119 282.72119141 102.36157227 C283.17446546 124.84199441 277.32123882 143.98031058 262.2890625 161.23828125 C261.64710938 162.00011719 261.00515625 162.76195312 260.34375 163.546875 C252.16708317 172.97568823 242.78149643 181.29201851 233.34375 189.43359375 C230.61981463 191.82609972 227.95566264 194.28237544 225.2890625 196.73828125 C221.32916198 200.38374798 217.33421955 203.97949544 213.26953125 207.5078125 C207.32247207 212.7041581 201.50047482 218.04350848 195.6640625 223.36328125 C192.58596684 226.16585506 189.4960438 228.94796 186.3515625 231.67578125 C182.40238883 235.10596701 178.55883945 238.64831643 174.71118164 242.19116211 C171.32443631 245.30427424 167.89000001 248.35080207 164.4140625 251.36328125 C161.67082832 253.783782 158.98021682 256.26028767 156.2890625 258.73828125 C152.37924655 262.33840881 148.43039782 265.8824573 144.4140625 269.36328125 C141.67082268 271.78378697 138.98045998 274.26054625 136.2890625 276.73828125 C131.68027862 280.97455871 127.06151627 285.18637442 122.2890625 289.23828125 C121.48726562 289.93050781 120.68546875 290.62273437 119.859375 291.3359375 C112.54189741 297.46349092 106.57991699 300.98117535 96.84765625 300.56640625 C86.12012121 299.1906613 78.97046953 292.23045613 71.2890625 285.23828125 C69.97035156 284.04912109 69.97035156 284.04912109 68.625 282.8359375 C66.99341707 281.36233323 65.36447554 279.88579875 63.73828125 278.40625 C61.20825968 276.16675722 58.60999286 274.04240566 55.9765625 271.92578125 C51.16240662 268.03507417 46.63981916 263.90827659 42.12573242 259.68041992 C38.77842007 256.56303399 35.35919462 253.60268958 31.7890625 250.73828125 C27.02797772 246.91834114 22.57633225 242.84889306 18.125 238.6796875 C14.77789381 235.56259571 11.35892109 232.60247012 7.7890625 229.73828125 C3.6224004 226.39526166 -0.31513562 222.88712988 -4.2109375 219.23828125 C-8.97182744 214.77953681 -13.8756157 210.60030295 -18.96484375 206.515625 C-21.97414209 204.0200049 -24.85010556 201.40040606 -27.7109375 198.73828125 C-32.27926645 194.4931209 -36.9811558 190.48405969 -41.83984375 186.5703125 C-45.67886802 183.45208462 -49.44438339 180.25062893 -53.20874023 177.04296875 C-55.54903896 175.05241201 -57.89535388 173.09597786 -60.328125 171.21875 C-77.52095134 156.92897467 -88.50281338 132.39099426 -91.39453125 110.7421875 C-93.89853483 83.01266633 -85.9243032 57.0180494 -68.3046875 35.3046875 C-51.71751684 15.45578589 -26.37269832 0.24288247 0 0 Z " fill="#FE4C4C" transform="translate(105.7109375,62.76171875)"/>
<path d="M0 0 C1.21042969 0.00773437 1.21042969 0.00773437 2.4453125 0.015625 C7.17560947 0.07705743 11.709139 0.47444134 16.375 1.25 C16.375 1.91 16.375 2.57 16.375 3.25 C19.345 2.755 19.345 2.755 22.375 2.25 C22.375 3.24 22.375 4.23 22.375 5.25 C23.365 5.25 24.355 5.25 25.375 5.25 C25.375 6.24 25.375 7.23 25.375 8.25 C26.179375 8.4975 26.98375 8.745 27.8125 9 C30.375 10.25 30.375 10.25 31.1875 12.375 C31.249375 12.99375 31.31125 13.6125 31.375 14.25 C32.035 14.25 32.695 14.25 33.375 14.25 C34.60530726 15.8488191 35.76140163 17.50530585 36.875 19.1875 C39.08478178 22.81770686 39.08478178 22.81770686 42.375 25.25 C42.375 26.24 42.375 27.23 42.375 28.25 C43.035 28.25 43.695 28.25 44.375 28.25 C44.50777344 29.10464844 44.64054687 29.95929688 44.77734375 30.83984375 C45.04224609 32.49693359 45.04224609 32.49693359 45.3125 34.1875 C45.57353516 35.84072266 45.57353516 35.84072266 45.83984375 37.52734375 C46.09345136 40.15426929 46.09345136 40.15426929 47.375 41.25 C47.92102628 50.5639482 48.10451364 59.53722133 44.375 68.25 C44.06175781 68.98863281 43.74851562 69.72726563 43.42578125 70.48828125 C41.62506895 74.38152089 39.78374038 77.5230077 36.375 80.25 C35.715 80.25 35.055 80.25 34.375 80.25 C33.88 81.735 33.88 81.735 33.375 83.25 C32.715 83.25 32.055 83.25 31.375 83.25 C31.045 84.9 30.715 86.55 30.375 88.25 C29.385 88.25 28.395 88.25 27.375 88.25 C27.375 88.91 27.375 89.57 27.375 90.25 C23.22012277 93.49599784 19.46948798 93.81826373 14.375 94.25 C14.375 94.91 14.375 95.57 14.375 96.25 C3.46643486 98.36406301 -7.84995802 97.80678962 -18.625 95.25 C-18.625 94.59 -18.625 93.93 -18.625 93.25 C-19.615 93.25 -20.605 93.25 -21.625 93.25 C-21.625 92.59 -21.625 91.93 -21.625 91.25 C-23.275 90.92 -24.925 90.59 -26.625 90.25 C-26.625 89.59 -26.625 88.93 -26.625 88.25 C-27.615 88.25 -28.605 88.25 -29.625 88.25 C-29.625 87.59 -29.625 86.93 -29.625 86.25 C-31.11 85.755 -31.11 85.755 -32.625 85.25 C-32.625 84.59 -32.625 83.93 -32.625 83.25 C-33.285 83.25 -33.945 83.25 -34.625 83.25 C-34.625 82.26 -34.625 81.27 -34.625 80.25 C-35.615 79.92 -36.605 79.59 -37.625 79.25 C-37.625 78.59 -37.625 77.93 -37.625 77.25 C-38.285 77.25 -38.945 77.25 -39.625 77.25 C-40.12 74.28 -40.12 74.28 -40.625 71.25 C-41.285 71.25 -41.945 71.25 -42.625 71.25 C-42.955 68.61 -43.285 65.97 -43.625 63.25 C-44.285 63.25 -44.945 63.25 -45.625 63.25 C-46.64446539 58.20121902 -46.77536701 53.37413591 -46.75 48.25 C-46.75386719 47.46882813 -46.75773437 46.68765625 -46.76171875 45.8828125 C-46.75444141 41.56007169 -46.48447175 37.50643155 -45.625 33.25 C-44.965 33.25 -44.305 33.25 -43.625 33.25 C-43.625 32.26 -43.625 31.27 -43.625 30.25 C-42.965 30.25 -42.305 30.25 -41.625 30.25 C-41.52703125 29.62351563 -41.4290625 28.99703125 -41.328125 28.3515625 C-41.17859375 27.53429687 -41.0290625 26.71703125 -40.875 25.875 C-40.66617188 24.65683594 -40.66617188 24.65683594 -40.453125 23.4140625 C-39.625 21.25 -39.625 21.25 -37.59375 20.125 C-36.61921875 19.691875 -36.61921875 19.691875 -35.625 19.25 C-34.81328772 16.69480079 -34.81328772 16.69480079 -34.625 14.25 C-33.965 14.25 -33.305 14.25 -32.625 14.25 C-32.295 13.26 -31.965 12.27 -31.625 11.25 C-27.29166667 8.25 -27.29166667 8.25 -24.625 8.25 C-24.625 7.59 -24.625 6.93 -24.625 6.25 C-22.645 5.92 -20.665 5.59 -18.625 5.25 C-18.625 4.59 -18.625 3.93 -18.625 3.25 C-12.26840795 0.7256391 -6.81571459 -0.17588941 0 0 Z " fill="#FE8485" transform="translate(111.625,113.75)"/>
<path d="M0 0 C0.8466069 -0.0066568 1.69321381 -0.0133136 2.56547546 -0.02017212 C4.36174352 -0.03029403 6.15804915 -0.03498928 7.9543457 -0.03466797 C10.65187344 -0.0389867 13.34768954 -0.07515608 16.04492188 -0.11328125 C30.34713156 -0.20636333 42.41900046 1.96583027 55.38671875 8.3359375 C55.38671875 8.6659375 55.38671875 8.9959375 55.38671875 9.3359375 C52.74671875 9.3359375 50.10671875 9.3359375 47.38671875 9.3359375 C47.38671875 8.3459375 47.38671875 7.3559375 47.38671875 6.3359375 C46.7834375 6.20316406 46.18015625 6.07039063 45.55859375 5.93359375 C44.759375 5.75699219 43.96015625 5.58039063 43.13671875 5.3984375 C42.3478125 5.22441406 41.55890625 5.05039063 40.74609375 4.87109375 C39.33552394 4.55114662 37.92957996 4.20725265 36.53729248 3.81532288 C34.18124431 3.2901351 32.03121622 3.17602213 29.61816406 3.13061523 C28.67749084 3.11067001 27.73681763 3.09072479 26.76763916 3.07017517 C25.76021667 3.05346268 24.75279419 3.03675018 23.71484375 3.01953125 C22.15851227 2.9883596 22.15851227 2.9883596 20.57073975 2.95655823 C17.25946617 2.89122342 13.94811393 2.83225233 10.63671875 2.7734375 C8.3906169 2.73023701 6.14452297 2.68662223 3.8984375 2.64257812 C-1.60538582 2.53555847 -7.10928723 2.43376228 -12.61328125 2.3359375 C-8.45940844 0.0146864 -4.66589829 0.01286422 0 0 Z " fill="#F74E54" transform="translate(105.61328125,62.6640625)"/>
<path d="M0 0 C1.21042969 0.00773437 1.21042969 0.00773437 2.4453125 0.015625 C7.17560947 0.07705743 11.709139 0.47444134 16.375 1.25 C16.375 1.91 16.375 2.57 16.375 3.25 C18.355 2.92 20.335 2.59 22.375 2.25 C22.375 3.24 22.375 4.23 22.375 5.25 C23.365 5.25 24.355 5.25 25.375 5.25 C25.375 6.24 25.375 7.23 25.375 8.25 C24.715 7.981875 24.055 7.71375 23.375 7.4375 C22.385 7.045625 21.395 6.65375 20.375 6.25 C18.6734375 5.4765625 18.6734375 5.4765625 16.9375 4.6875 C8.44868309 1.52625816 -2.79770986 1.15260668 -11.625 3.25 C-12.285 3.91 -12.945 4.57 -13.625 5.25 C-16.25 5.375 -16.25 5.375 -18.625 5.25 C-18.625 4.59 -18.625 3.93 -18.625 3.25 C-12.26840795 0.7256391 -6.81571459 -0.17588941 0 0 Z " fill="#FE7172" transform="translate(111.625,113.75)"/>
<path d="M0 0 C2.31 0 4.62 0 7 0 C7 0.99 7 1.98 7 3 C11.95 2.67 16.9 2.34 22 2 C22 1.34 22 0.68 22 0 C24.31 0 26.62 0 29 0 C25.9624888 3.71251368 22.41641633 4.72038015 17.73828125 5.26171875 C11.07232448 5.56519245 5.97550438 3.84789996 0 1 C0 0.67 0 0.34 0 0 Z " fill="#EC5459" transform="translate(190,358)"/>
<path d="M0 0 C0.99 0.33 1.98 0.66 3 1 C1.85156176 2.14843824 0.70245907 3.29621676 -0.44921875 4.44140625 C-1.52470993 5.52231552 -2.58912583 6.6143141 -3.64453125 7.71484375 C-7.49299299 11.68492731 -11.4122218 14.91027183 -16 18 C-16 16.02 -16 14.04 -16 12 C-14.02 12 -12.04 12 -10 12 C-10 11.01 -10 10.02 -10 9 C-9.01 9 -8.02 9 -7 9 C-7 8.01 -7 7.02 -7 6 C-6.01 6 -5.02 6 -4 6 C-4 4.68 -4 3.36 -4 2 C-2.68 2 -1.36 2 0 2 C0 1.34 0 0.68 0 0 Z " fill="#E96166" transform="translate(254,324)"/>
<path d="M0 0 C2.76792815 3.33974565 4.41177032 6.8393568 6.125 10.8125 C6.64320313 11.99457031 7.16140625 13.17664063 7.6953125 14.39453125 C9.02425555 18.06702955 9.59490781 21.14174386 10 25 C9.01 24.67 8.02 24.34 7 24 C6.33984375 22.2578125 6.33984375 22.2578125 5.9375 20.125 C5.3349444 17.01466536 4.84080823 15.76121234 3 13 C2.875 9.8125 2.875 9.8125 3 7 C2.01 7 1.02 7 0 7 C0 4.69 0 2.38 0 0 Z " fill="#EF5059" transform="translate(376,112)"/>
<path d="M0 0 C8.25 0 16.5 0 25 0 C20.5 3.375 20.5 3.375 16.671875 3.29296875 C15.87265625 3.28330078 15.0734375 3.27363281 14.25 3.26367188 C13.425 3.23853516 12.6 3.21339844 11.75 3.1875 C10.90953125 3.17396484 10.0690625 3.16042969 9.203125 3.14648438 C7.13514062 3.11123464 5.06748729 3.0574302 3 3 C3 2.34 3 1.68 3 1 C2.01 0.67 1.02 0.34 0 0 Z " fill="#F6595A" transform="translate(100,210)"/>
<path d="M0 0 C7.99067452 0.40630548 18.15347455 2.15347455 24 8 C21.36 8 18.72 8 16 8 C16 7.01 16 6.02 16 5 C15.43152344 4.87882812 14.86304688 4.75765625 14.27734375 4.6328125 C9.45754536 3.58677946 4.7267066 2.40795516 0 1 C0 0.67 0 0.34 0 0 Z " fill="#EE555E" transform="translate(137,64)"/>
<path d="M0 0 C1.98 0 3.96 0 6 0 C2.19588166 3.91939465 -1.81576108 7.49102731 -6 11 C-6 9.35 -6 7.7 -6 6 C-5.01 6 -4.02 6 -3 6 C-3 5.01 -3 4.02 -3 3 C-2.01 3 -1.02 3 0 3 C0 2.01 0 1.02 0 0 Z " fill="#EA6064" transform="translate(263,314)"/>
<path d="M0 0 C3.3 0.33 6.6 0.66 10 1 C10 1.66 10 2.32 10 3 C11.98 2.67 13.96 2.34 16 2 C16 2.99 16 3.98 16 5 C16.99 5 17.98 5 19 5 C19 5.99 19 6.98 19 8 C18.32582031 7.72414063 17.65164062 7.44828125 16.95703125 7.1640625 C13.5584527 5.82618085 10.12928907 4.59731761 6.6875 3.375 C6.04232422 3.14554687 5.39714844 2.91609375 4.73242188 2.6796875 C3.15525821 2.1189182 1.57767216 1.55933709 0 1 C0 0.67 0 0.34 0 0 Z " fill="#FC6768" transform="translate(118,114)"/>
<path d="M0 0 C1.32 0.33 2.64 0.66 4 1 C-0.35842441 5.59687924 -4.74276241 9.45941142 -10 13 C-10 12.01 -10 11.02 -10 10 C-9.34 10 -8.68 10 -8 10 C-7.67 9.01 -7.34 8.02 -7 7 C-6.01 7 -5.02 7 -4 7 C-4 5.68 -4 4.36 -4 3 C-2.68 3 -1.36 3 0 3 C0 2.01 0 1.02 0 0 Z " fill="#E65F62" transform="translate(279,301)"/>
<path d="M0 0 C-1.59887554 1.48488441 -3.20428905 2.96273145 -4.8125 4.4375 C-5.70582031 5.26121094 -6.59914063 6.08492188 -7.51953125 6.93359375 C-10 9 -10 9 -13 10 C-13 8.68 -13 7.36 -13 6 C-11.68 6 -10.36 6 -9 6 C-9 5.01 -9 4.02 -9 3 C-8.01 3 -7.02 3 -6 3 C-6 2.01 -6 1.02 -6 0 C-3 -1 -3 -1 0 0 Z " fill="#E95F5E" transform="translate(326,264)"/>
<path d="M0 0 C0.33 0 0.66 0 1 0 C1 6.27 1 12.54 1 19 C0.67 19 0.34 19 0 19 C-0.3893647 16.39724671 -0.76193662 13.79393651 -1.125 11.1875 C-1.23714844 10.44951172 -1.34929688 9.71152344 -1.46484375 8.95117188 C-2.2265625 3.33984375 -2.2265625 3.33984375 0 0 Z " fill="#F54F51" transform="translate(16,163)"/>
<path d="M0 0 C2.18791144 3.4972793 2.1566779 6.06469839 1.8125 10.125 C1.73644531 11.17945313 1.66039062 12.23390625 1.58203125 13.3203125 C1 16 1 16 -2 18 C-1.85805236 15.93722893 -1.71127784 13.87478969 -1.5625 11.8125 C-1.48128906 10.66394531 -1.40007813 9.51539063 -1.31640625 8.33203125 C-1.04596188 5.48401829 -0.62478253 2.78789518 0 0 Z " fill="#F54E54" transform="translate(16,141)"/>
<path d="M0 0 C1.32 0.33 2.64 0.66 4 1 C-1.94 6.445 -1.94 6.445 -8 12 C-8.33 11.01 -8.66 10.02 -9 9 C-8.34 9 -7.68 9 -7 9 C-6.67 8.01 -6.34 7.02 -6 6 C-5.01 6 -4.02 6 -3 6 C-3 5.01 -3 4.02 -3 3 C-2.01 3 -1.02 3 0 3 C0 2.01 0 1.02 0 0 Z " fill="#E66568" transform="translate(307,276)"/>
<path d="M0 0 C1.98 0 3.96 0 6 0 C2.83047153 3.26008643 -0.39937989 6.22237877 -4 9 C-4 7.35 -4 5.7 -4 4 C-2.68 4 -1.36 4 0 4 C0 2.68 0 1.36 0 0 Z " fill="#EA5F60" transform="translate(232,342)"/>
<path d="M0 0 C1.32 0.33 2.64 0.66 4 1 C4.12375 1.639375 4.2475 2.27875 4.375 2.9375 C4.684375 3.9584375 4.684375 3.9584375 5 5 C5.66 5.33 6.32 5.66 7 6 C8.6875 8.375 8.6875 8.375 10 11 C9.67 11.99 9.34 12.98 9 14 C7.82750647 12.54634731 6.66216184 11.08692581 5.5 9.625 C4.8503125 8.81289062 4.200625 8.00078125 3.53125 7.1640625 C2 5 2 5 2 3 C1.34 3 0.68 3 0 3 C0 2.01 0 1.02 0 0 Z " fill="#F86163" transform="translate(143,125)"/>
<path d="M0 0 C1.65 0 3.3 0 5 0 C1.50640535 3.59634744 -2.11098131 6.83451967 -6 10 C-6.33 9.01 -6.66 8.02 -7 7 C-6.01 7 -5.02 7 -4 7 C-4 6.01 -4 5.02 -4 4 C-3.01 4 -2.02 4 -1 4 C-0.67 2.68 -0.34 1.36 0 0 Z " fill="#E66264" transform="translate(349,238)"/>
<path d="M0 0 C1.32 0 2.64 0 4 0 C4 0.99 4 1.98 4 3 C5.98 3 7.96 3 10 3 C10 4.98 10 6.96 10 9 C8.70391053 8.06862408 7.41328368 7.1296434 6.125 6.1875 C5.40570313 5.66542969 4.68640625 5.14335937 3.9453125 4.60546875 C2 3 2 3 0 0 Z " fill="#F15159" transform="translate(146,320)"/>
<path d="M0 0 C1.65 0 3.3 0 5 0 C5 0.99 5 1.98 5 3 C5.99 3 6.98 3 8 3 C8 3.99 8 4.98 8 6 C8.99 6 9.98 6 11 6 C11 6.99 11 7.98 11 9 C8.03469503 7.64199529 5.70868729 6.07571737 3.25 3.9375 C2.63640625 3.41027344 2.0228125 2.88304687 1.390625 2.33984375 C0.93171875 1.89769531 0.4728125 1.45554687 0 1 C0 0.67 0 0.34 0 0 Z " fill="#EE5159" transform="translate(164,336)"/>
<path d="M0 0 C0.99 0 1.98 0 3 0 C1.77782954 4.04256383 0.37245704 7.49288959 -2 11 C-2.33 11 -2.66 11 -3 11 C-3 8.69 -3 6.38 -3 4 C-2.01 4 -1.02 4 0 4 C0 2.68 0 1.36 0 0 Z " fill="#EA5D62" transform="translate(379,200)"/>
<path d="M0 0 C1.65 0 3.3 0 5 0 C4.09515208 1.15518918 3.1755794 2.29885406 2.25 3.4375 C1.73953125 4.07558594 1.2290625 4.71367187 0.703125 5.37109375 C-1.19667629 7.18810554 -2.43586908 7.60423197 -5 8 C-4.34 7.01 -3.68 6.02 -3 5 C-2.34 5 -1.68 5 -1 5 C-0.67 3.35 -0.34 1.7 0 0 Z " fill="#E65E5B" transform="translate(288,292)"/>
<path d="M0 0 C0.99 0 1.98 0 3 0 C3 0.99 3 1.98 3 3 C3.99 3 4.98 3 6 3 C6 5.31 6 7.62 6 10 C3.25722422 6.80009492 1.3697164 3.99500618 0 0 Z " fill="#F15251" transform="translate(24,204)"/>
<path d="M0 0 C0.33 0 0.66 0 1 0 C1.44539877 8.7595092 1.44539877 8.7595092 -2 13 C-2.66 13 -3.32 13 -4 13 C-3.52140759 11.39566191 -3.04210442 9.79153584 -2.5625 8.1875 C-2.29566406 7.29417969 -2.02882812 6.40085938 -1.75390625 5.48046875 C-1.19612127 3.64526945 -0.60655425 1.81966274 0 0 Z " fill="#F65B5B" transform="translate(158,172)"/>
<path d="M0 0 C2.31 0.33 4.62 0.66 7 1 C7 2.65 7 4.3 7 6 C3.73539027 4.19587357 2.11070205 3.16605307 0 0 Z " fill="#F25059" transform="translate(89,270)"/>
<path d="M0 0 C-1.269553 0.64834654 -2.54069706 1.29357815 -3.8125 1.9375 C-4.52019531 2.29714844 -5.22789062 2.65679687 -5.95703125 3.02734375 C-8 4 -8 4 -11 5 C-11.66 4.34 -12.32 3.68 -13 3 C-11.40084119 2.30093058 -9.79544955 1.61610532 -8.1875 0.9375 C-7.29417969 0.55464844 -6.40085938 0.17179687 -5.48046875 -0.22265625 C-3 -1 -3 -1 0 0 Z " fill="#F1515A" transform="translate(258,67)"/>
<path d="M0 0 C3.08089673 2.77280706 4.68775452 5.06326356 6 9 C5.01 9 4.02 9 3 9 C3 8.01 3 7.02 3 6 C2.01 6 1.02 6 0 6 C0 4.02 0 2.04 0 0 Z " fill="#E95163" transform="translate(370,103)"/>
<path d="M0 0 C1.98 0 3.96 0 6 0 C5.34 1.32 4.68 2.64 4 4 C2.68 4 1.36 4 0 4 C0 2.68 0 1.36 0 0 Z " fill="#EF5556" transform="translate(367,216)"/>
<path d="M0 0 C2.64465038 3.1254959 3.84414715 6.08788267 5 10 C4.34 10 3.68 10 3 10 C3 9.01 3 8.02 3 7 C2.01 7 1.02 7 0 7 C0 4.69 0 2.38 0 0 Z " fill="#E85862" transform="translate(376,112)"/>
<path d="M0 0 C0.33 1.32 0.66 2.64 1 4 C0.01 4.33 -0.98 4.66 -2 5 C-2 5.66 -2 6.32 -2 7 C-3.32 6.67 -4.64 6.34 -6 6 C-4.02 4.02 -2.04 2.04 0 0 Z " fill="#F45057" transform="translate(45,90)"/>
<path d="M0 0 C0.33 0.99 0.66 1.98 1 3 C0.01 3 -0.98 3 -2 3 C-2 3.99 -2 4.98 -2 6 C-3.65 6 -5.3 6 -7 6 C-2.25 1.125 -2.25 1.125 0 0 Z " fill="#F14E58" transform="translate(60,78)"/>
<path d="M0 0 C1.98 0 3.96 0 6 0 C5.67 1.98 5.34 3.96 5 6 C3.2925002 4.71937515 1.62626404 3.38232443 0 2 C0 1.34 0 0.68 0 0 Z " fill="#F84F55" transform="translate(72,254)"/>
<path d="M0 0 C0.66 0.33 1.32 0.66 2 1 C0.02 3.31 -1.96 5.62 -4 8 C-5 5 -5 5 -4 2 C-2.0625 0.75 -2.0625 0.75 0 0 Z " fill="#E65D5D" transform="translate(368,221)"/>
<path d="M0 0 C0.99 0 1.98 0 3 0 C2.67 1.65 2.34 3.3 2 5 C1.34 5 0.68 5 0 5 C0 5.99 0 6.98 0 8 C-0.66 7.67 -1.32 7.34 -2 7 C-1.34 4.69 -0.68 2.38 0 0 Z " fill="#FA6163" transform="translate(68,139)"/>
<path d="M0 0 C0.99 0 1.98 0 3 0 C3 0.99 3 1.98 3 3 C3.99 3 4.98 3 6 3 C6 3.99 6 4.98 6 6 C3.5625 5.25 3.5625 5.25 1 4 C0.1875 1.875 0.1875 1.875 0 0 Z " fill="#F55D5E" transform="translate(131,116)"/>
<path d="M0 0 C3.37503669 1.1858237 5.64722731 2.27573689 8 5 C6.35 5 4.7 5 3 5 C3 4.34 3 3.68 3 3 C2.01 2.67 1.02 2.34 0 2 C0 1.34 0 0.68 0 0 Z " fill="#EF555D" transform="translate(169,76)"/>
<path d="M0 0 C0.33 0.66 0.66 1.32 1 2 C0.67 2.99 0.34 3.98 0 5 C-1.98 5 -3.96 5 -6 5 C-2.25 1.125 -2.25 1.125 0 0 Z " fill="#EF4F52" transform="translate(233,76)"/>
<path d="M0 0 C1.65 0 3.3 0 5 0 C5 1.98 5 3.96 5 6 C3.31237149 4.3545622 1.6459651 2.68711423 0 1 C0 0.67 0 0.34 0 0 Z " fill="#F15257" transform="translate(31,216)"/>
<path d="M0 0 C-1.0975223 2.99324263 -1.67682892 3.84610901 -4.625 5.25 C-5.40875 5.4975 -6.1925 5.745 -7 6 C-7 5.34 -7 4.68 -7 4 C-2.52941176 0 -2.52941176 0 0 0 Z " fill="#FA6261" transform="translate(150,193)"/>
<path d="M0 0 C4.75 0.875 4.75 0.875 7 2 C6.67 3.32 6.34 4.64 6 6 C3.97945196 4.35830472 1.97956942 2.69088222 0 1 C0 0.67 0 0.34 0 0 Z " fill="#EF525B" transform="translate(124,301)"/>
<path d="M0 0 C0.6875 1.8125 0.6875 1.8125 1 4 C-0.4375 5.75 -0.4375 5.75 -2 7 C-2.99 6.67 -3.98 6.34 -5 6 C-3.35 4.02 -1.7 2.04 0 0 Z " fill="#F35153" transform="translate(35,102)"/>
<path d="M0 0 C3.26460973 1.80412643 4.88929795 2.83394693 7 6 C5.68 6 4.36 6 3 6 C3 5.01 3 4.02 3 3 C2.01 3 1.02 3 0 3 C0 2.01 0 1.02 0 0 Z " fill="#E7575B" transform="translate(351,84)"/>
<path d="M0 0 C0.66 0 1.32 0 2 0 C1.67 1.32 1.34 2.64 1 4 C-0.65 4.33 -2.3 4.66 -4 5 C-2.71937515 3.2925002 -1.38232443 1.62626404 0 0 Z " fill="#F44F58" transform="translate(220,85)"/>
</svg>
