<?xml version="1.0" encoding="UTF-8"?>
<svg version="1.1" xmlns="http://www.w3.org/2000/svg" width="654" height="654">
<path d="M0 0 C0.65865183 -0.00235223 1.31730366 -0.00470446 1.99591464 -0.00712797 C4.20651141 -0.01379342 6.41704907 -0.01336049 8.62765503 -0.01294994 C10.22725355 -0.0162501 11.82685124 -0.01997599 13.42644787 -0.02409142 C17.82526662 -0.03410233 22.22407172 -0.03782676 26.62290025 -0.04048073 C31.36612416 -0.0443865 36.1093373 -0.05396468 40.85255432 -0.0626936 C52.30928872 -0.08245064 63.76602399 -0.0925234 75.22277117 -0.10142139 C80.61948231 -0.10580566 86.01619247 -0.11117212 91.41290283 -0.11641026 C109.35557349 -0.13342202 127.29824354 -0.14791576 145.24092102 -0.155159 C149.89652507 -0.15706886 154.55212912 -0.15898919 159.20773315 -0.16094494 C160.36484476 -0.16142868 161.52195636 -0.16191242 162.71413195 -0.16241082 C181.45475577 -0.1707095 200.19531572 -0.19604395 218.93591166 -0.22852562 C238.1813752 -0.26161006 257.4268063 -0.27960903 276.67229843 -0.28280324 C287.47591868 -0.28496708 298.27944581 -0.29369737 309.08303833 -0.31926441 C318.28472776 -0.34099033 327.48630144 -0.3490125 336.68801361 -0.33929763 C341.38026679 -0.3347584 346.07228126 -0.33661725 350.76450157 -0.35605907 C355.06673466 -0.37373052 359.36855558 -0.37266092 363.67079329 -0.35716178 C365.22066803 -0.35479173 366.77057162 -0.35907774 368.32040238 -0.37099043 C382.84917934 -0.47567695 396.46914107 2.13262046 407.56466675 12.13422108 C414.27149006 19.14134991 419.45500982 28.35490166 419.48013783 38.25789642 C419.48459567 39.0760079 419.48905351 39.89411937 419.49364644 40.7370221 C419.4933699 42.07719768 419.4933699 42.07719768 419.49308777 43.44444752 C419.49676446 44.39802798 419.50044114 45.35160844 419.50422925 46.33408529 C419.51526659 49.53854678 419.51911023 52.74297584 419.5229187 55.9474535 C419.52918396 58.24242728 419.53583081 60.53740005 419.54283142 62.83237171 C419.56388954 70.38480388 419.5742443 77.93723627 419.584198 85.48968983 C419.58824671 88.09559419 419.59236367 90.70149846 419.59654808 93.30740261 C419.61342809 104.16170932 419.62805598 115.01601311 419.63529682 125.87033081 C419.63720641 128.68689125 419.63912677 131.50345168 419.64108276 134.32001209 C419.6415665 135.01996803 419.64205024 135.71992396 419.64254864 136.44109068 C419.65081427 147.73072001 419.67608717 159.02024217 419.70866344 170.30982491 C419.74192888 181.93451383 419.7594323 193.55914325 419.76294106 205.18387967 C419.76527751 211.69659021 419.77405127 218.20913193 419.79940224 224.72179699 C419.82293991 230.8687992 419.82681449 237.01552461 419.81664085 243.16256046 C419.81615135 245.39836462 419.82229496 247.63418359 419.8361969 249.86994457 C420.05312795 286.88139102 410.86782833 322.54961357 393.34591675 355.13422108 C393.00479858 355.78165272 392.66368042 356.42908436 392.31222534 357.09613514 C375.98990906 387.97701485 351.86895482 415.03370772 323.34591675 435.13422108 C322.19855056 435.97374952 321.05140593 436.81358088 319.9045105 437.65375233 C286.27935597 461.6875642 242.80286487 477.01388968 201.318573 477.37250233 C200.38042755 477.3823415 199.4422821 477.39218067 198.47570801 477.402318 C158.84750814 477.73234511 158.84750814 477.73234511 139.34591675 473.13422108 C138.32949097 472.89816151 137.31306519 472.66210194 136.26583862 472.41888905 C102.03771852 464.20096114 69.24099846 449.04798361 42.34591675 426.13422108 C41.23814561 425.2106819 40.13004807 424.28753414 39.021698 423.36468983 C27.68925381 413.86300207 17.4866668 403.80699074 8.34591675 392.13422108 C7.54411987 391.13777576 6.742323 390.14133045 5.91622925 389.11468983 C-20.14074275 356.43254527 -36.18818633 316.44172455 -41.65408325 275.13422108 C-41.73938797 274.48961933 -41.82469269 273.84501759 -41.9125824 273.18088245 C-42.88896882 264.81873096 -42.88390448 256.43162658 -42.9704895 248.02484608 C-42.99139728 246.2759624 -43.01253281 244.52708144 -43.03387451 242.77820301 C-43.09046626 237.98709515 -43.13993159 233.1959398 -43.18691635 228.40472889 C-43.21666967 225.37542276 -43.24765134 222.34613088 -43.27874756 219.31683826 C-43.64831395 182.7098117 -43.79113549 146.10200393 -43.83273846 109.49331164 C-43.83871442 104.55723619 -43.84956844 99.62118642 -43.86236572 94.6851244 C-43.87951985 87.96912613 -43.88517463 81.25320681 -43.88334274 74.53718281 C-43.88413764 72.05375551 -43.88824339 69.57032666 -43.89595413 67.0869112 C-44.01459673 25.8512012 -44.01459673 25.8512012 -29.65408325 11.13422108 C-20.93269666 3.92825272 -11.28539846 0.01721154 0 0 Z " fill="#FDD76A" transform="translate(141.65408325195313,96.86577892303467)"/>
<path d="M0 0 C1.67651255 -0.00298657 1.67651255 -0.00298657 3.38689405 -0.00603348 C5.22103007 -0.00166422 5.22103007 -0.00166422 7.09221935 0.00279331 C9.04648201 0.00151167 9.04648201 0.00151167 11.04022473 0.00020415 C14.65463957 -0.00203211 18.26902478 0.00196861 21.88343585 0.00698221 C25.78181655 0.01129896 29.68019557 0.00983941 33.578578 0.00907993 C40.33218628 0.00855548 47.0857849 0.01169412 53.83939075 0.01731777 C63.6039819 0.02544335 73.36856837 0.02804908 83.13316252 0.02930576 C98.97540836 0.03149461 114.81764904 0.03815019 130.65989208 0.04760838 C146.04954026 0.0567868 161.43918704 0.06386553 176.82883739 0.06811619 C177.77738837 0.06837891 178.72593935 0.06864164 179.70323429 0.06891232 C184.46181577 0.07021735 189.22039726 0.07148106 193.97897875 0.07272422 C233.45880177 0.08309164 272.93861905 0.10070544 312.418437 0.12304783 C311.758437 1.44304783 311.098437 2.76304783 310.418437 4.12304783 C309.098437 4.12304783 307.778437 4.12304783 306.418437 4.12304783 C306.418437 4.78304783 306.418437 5.44304783 306.418437 6.12304783 C305.758437 6.12304783 305.098437 6.12304783 304.418437 6.12304783 C304.418437 6.78304783 304.418437 7.44304783 304.418437 8.12304783 C303.758437 8.12304783 303.098437 8.12304783 302.418437 8.12304783 C302.418437 8.78304783 302.418437 9.44304783 302.418437 10.12304783 C301.758437 10.12304783 301.098437 10.12304783 300.418437 10.12304783 C300.418437 10.78304783 300.418437 11.44304783 300.418437 12.12304783 C299.758437 12.12304783 299.098437 12.12304783 298.418437 12.12304783 C298.418437 12.78304783 298.418437 13.44304783 298.418437 14.12304783 C297.758437 14.12304783 297.098437 14.12304783 296.418437 14.12304783 C296.418437 14.78304783 296.418437 15.44304783 296.418437 16.12304783 C295.758437 16.12304783 295.098437 16.12304783 294.418437 16.12304783 C294.418437 16.78304783 294.418437 17.44304783 294.418437 18.12304783 C293.758437 18.12304783 293.098437 18.12304783 292.418437 18.12304783 C292.418437 18.78304783 292.418437 19.44304783 292.418437 20.12304783 C291.758437 20.12304783 291.098437 20.12304783 290.418437 20.12304783 C290.418437 20.78304783 290.418437 21.44304783 290.418437 22.12304783 C289.758437 22.12304783 289.098437 22.12304783 288.418437 22.12304783 C288.418437 22.78304783 288.418437 23.44304783 288.418437 24.12304783 C287.758437 24.12304783 287.098437 24.12304783 286.418437 24.12304783 C286.418437 24.78304783 286.418437 25.44304783 286.418437 26.12304783 C285.758437 26.12304783 285.098437 26.12304783 284.418437 26.12304783 C284.418437 26.78304783 284.418437 27.44304783 284.418437 28.12304783 C283.758437 28.12304783 283.098437 28.12304783 282.418437 28.12304783 C282.418437 28.78304783 282.418437 29.44304783 282.418437 30.12304783 C281.758437 30.12304783 281.098437 30.12304783 280.418437 30.12304783 C280.294687 30.74179783 280.170937 31.36054783 280.043437 31.99804783 C279.418437 34.12304783 279.418437 34.12304783 277.418437 36.12304783 C276.428437 36.12304783 275.438437 36.12304783 274.418437 36.12304783 C274.418437 36.78304783 274.418437 37.44304783 274.418437 38.12304783 C273.758437 38.12304783 273.098437 38.12304783 272.418437 38.12304783 C272.418437 38.78304783 272.418437 39.44304783 272.418437 40.12304783 C271.758437 40.12304783 271.098437 40.12304783 270.418437 40.12304783 C270.418437 40.78304783 270.418437 41.44304783 270.418437 42.12304783 C269.758437 42.12304783 269.098437 42.12304783 268.418437 42.12304783 C268.418437 42.78304783 268.418437 43.44304783 268.418437 44.12304783 C267.758437 44.12304783 267.098437 44.12304783 266.418437 44.12304783 C266.418437 44.78304783 266.418437 45.44304783 266.418437 46.12304783 C265.758437 46.12304783 265.098437 46.12304783 264.418437 46.12304783 C264.418437 46.78304783 264.418437 47.44304783 264.418437 48.12304783 C263.758437 48.12304783 263.098437 48.12304783 262.418437 48.12304783 C262.088437 49.44304783 261.758437 50.76304783 261.418437 52.12304783 C260.428437 52.12304783 259.438437 52.12304783 258.418437 52.12304783 C258.418437 52.78304783 258.418437 53.44304783 258.418437 54.12304783 C257.758437 54.12304783 257.098437 54.12304783 256.418437 54.12304783 C256.418437 54.78304783 256.418437 55.44304783 256.418437 56.12304783 C255.758437 56.12304783 255.098437 56.12304783 254.418437 56.12304783 C254.418437 56.78304783 254.418437 57.44304783 254.418437 58.12304783 C253.758437 58.12304783 253.098437 58.12304783 252.418437 58.12304783 C252.418437 58.78304783 252.418437 59.44304783 252.418437 60.12304783 C251.758437 60.12304783 251.098437 60.12304783 250.418437 60.12304783 C250.418437 60.78304783 250.418437 61.44304783 250.418437 62.12304783 C249.758437 62.12304783 249.098437 62.12304783 248.418437 62.12304783 C248.418437 62.78304783 248.418437 63.44304783 248.418437 64.12304783 C247.758437 64.12304783 247.098437 64.12304783 246.418437 64.12304783 C246.088437 65.44304783 245.758437 66.76304783 245.418437 68.12304783 C244.428437 68.12304783 243.438437 68.12304783 242.418437 68.12304783 C242.418437 68.78304783 242.418437 69.44304783 242.418437 70.12304783 C241.758437 70.12304783 241.098437 70.12304783 240.418437 70.12304783 C240.418437 70.78304783 240.418437 71.44304783 240.418437 72.12304783 C239.758437 72.12304783 239.098437 72.12304783 238.418437 72.12304783 C238.418437 72.78304783 238.418437 73.44304783 238.418437 74.12304783 C237.758437 74.12304783 237.098437 74.12304783 236.418437 74.12304783 C236.418437 74.78304783 236.418437 75.44304783 236.418437 76.12304783 C235.758437 76.12304783 235.098437 76.12304783 234.418437 76.12304783 C234.418437 76.78304783 234.418437 77.44304783 234.418437 78.12304783 C233.758437 78.12304783 233.098437 78.12304783 232.418437 78.12304783 C232.418437 78.78304783 232.418437 79.44304783 232.418437 80.12304783 C231.758437 80.12304783 231.098437 80.12304783 230.418437 80.12304783 C230.418437 80.78304783 230.418437 81.44304783 230.418437 82.12304783 C229.758437 82.12304783 229.098437 82.12304783 228.418437 82.12304783 C228.418437 82.78304783 228.418437 83.44304783 228.418437 84.12304783 C227.758437 84.12304783 227.098437 84.12304783 226.418437 84.12304783 C226.418437 84.78304783 226.418437 85.44304783 226.418437 86.12304783 C225.758437 86.12304783 225.098437 86.12304783 224.418437 86.12304783 C224.418437 86.78304783 224.418437 87.44304783 224.418437 88.12304783 C223.758437 88.12304783 223.098437 88.12304783 222.418437 88.12304783 C222.418437 88.78304783 222.418437 89.44304783 222.418437 90.12304783 C221.758437 90.12304783 221.098437 90.12304783 220.418437 90.12304783 C220.418437 90.78304783 220.418437 91.44304783 220.418437 92.12304783 C219.758437 92.12304783 219.098437 92.12304783 218.418437 92.12304783 C218.418437 92.78304783 218.418437 93.44304783 218.418437 94.12304783 C217.758437 94.12304783 217.098437 94.12304783 216.418437 94.12304783 C216.418437 94.78304783 216.418437 95.44304783 216.418437 96.12304783 C215.758437 96.12304783 215.098437 96.12304783 214.418437 96.12304783 C214.418437 96.78304783 214.418437 97.44304783 214.418437 98.12304783 C213.758437 98.12304783 213.098437 98.12304783 212.418437 98.12304783 C212.418437 98.78304783 212.418437 99.44304783 212.418437 100.12304783 C211.758437 100.12304783 211.098437 100.12304783 210.418437 100.12304783 C210.418437 100.78304783 210.418437 101.44304783 210.418437 102.12304783 C209.758437 102.12304783 209.098437 102.12304783 208.418437 102.12304783 C208.356562 102.65929783 208.294687 103.19554783 208.230937 103.74804783 C206.32579414 109.31692697 201.50835457 113.03288907 197.1137495 116.68554783 C194.7410522 118.6974202 192.58834432 120.89603768 190.418437 123.12304783 C189.634687 123.88617283 188.850937 124.64929783 188.043437 125.43554783 C185.90044104 127.62956751 183.90989251 129.85787257 181.918437 132.18554783 C179.29556143 135.21718323 176.61247661 137.68549128 173.418437 140.12304783 C170.55677619 142.83795681 167.94397489 145.66265338 165.418437 148.68554783 C162.98855781 151.56908734 160.37340235 153.77422922 157.418437 156.12304783 C156.50271658 157.18962393 155.60722495 158.27384452 154.730937 159.37304783 C153.5862495 160.73429783 153.5862495 160.73429783 152.418437 162.12304783 C151.758437 162.12304783 151.098437 162.12304783 150.418437 162.12304783 C150.418437 162.78304783 150.418437 163.44304783 150.418437 164.12304783 C146.06549583 168.12304783 146.06549583 168.12304783 142.418437 168.12304783 C142.274062 168.74179783 142.129687 169.36054783 141.980937 169.99804783 C141.418437 172.12304783 141.418437 172.12304783 140.418437 174.12304783 C139.758437 174.12304783 139.098437 174.12304783 138.418437 174.12304783 C138.418437 174.78304783 138.418437 175.44304783 138.418437 176.12304783 C137.758437 176.12304783 137.098437 176.12304783 136.418437 176.12304783 C136.418437 176.78304783 136.418437 177.44304783 136.418437 178.12304783 C135.758437 178.12304783 135.098437 178.12304783 134.418437 178.12304783 C134.418437 178.78304783 134.418437 179.44304783 134.418437 180.12304783 C133.758437 180.12304783 133.098437 180.12304783 132.418437 180.12304783 C132.418437 180.78304783 132.418437 181.44304783 132.418437 182.12304783 C131.758437 182.12304783 131.098437 182.12304783 130.418437 182.12304783 C130.418437 182.78304783 130.418437 183.44304783 130.418437 184.12304783 C128.75177034 185.45638116 127.08510367 186.7897145 125.418437 188.12304783 C124.20434323 189.59274029 122.99119932 191.06342707 121.8012495 192.55273533 C120.29225499 194.26633927 118.67736909 195.66869272 116.918437 197.12304783 C113.62165205 199.85487397 111.10006922 202.7891267 108.418437 206.12304783 C106.230937 208.49804783 106.230937 208.49804783 104.418437 210.12304783 C103.758437 210.12304783 103.098437 210.12304783 102.418437 210.12304783 C102.418437 210.78304783 102.418437 211.44304783 102.418437 212.12304783 C101.758437 212.12304783 101.098437 212.12304783 100.418437 212.12304783 C100.418437 212.78304783 100.418437 213.44304783 100.418437 214.12304783 C99.758437 214.12304783 99.098437 214.12304783 98.418437 214.12304783 C98.418437 214.78304783 98.418437 215.44304783 98.418437 216.12304783 C97.758437 216.12304783 97.098437 216.12304783 96.418437 216.12304783 C96.418437 216.78304783 96.418437 217.44304783 96.418437 218.12304783 C95.758437 218.12304783 95.098437 218.12304783 94.418437 218.12304783 C94.418437 218.78304783 94.418437 219.44304783 94.418437 220.12304783 C93.758437 220.12304783 93.098437 220.12304783 92.418437 220.12304783 C92.418437 220.78304783 92.418437 221.44304783 92.418437 222.12304783 C91.758437 222.12304783 91.098437 222.12304783 90.418437 222.12304783 C90.418437 222.78304783 90.418437 223.44304783 90.418437 224.12304783 C89.758437 224.12304783 89.098437 224.12304783 88.418437 224.12304783 C88.418437 224.78304783 88.418437 225.44304783 88.418437 226.12304783 C87.758437 226.12304783 87.098437 226.12304783 86.418437 226.12304783 C86.418437 226.78304783 86.418437 227.44304783 86.418437 228.12304783 C85.758437 228.12304783 85.098437 228.12304783 84.418437 228.12304783 C84.418437 228.78304783 84.418437 229.44304783 84.418437 230.12304783 C83.758437 230.12304783 83.098437 230.12304783 82.418437 230.12304783 C82.418437 230.78304783 82.418437 231.44304783 82.418437 232.12304783 C81.758437 232.12304783 81.098437 232.12304783 80.418437 232.12304783 C80.418437 232.78304783 80.418437 233.44304783 80.418437 234.12304783 C79.758437 234.12304783 79.098437 234.12304783 78.418437 234.12304783 C78.418437 234.78304783 78.418437 235.44304783 78.418437 236.12304783 C77.758437 236.12304783 77.098437 236.12304783 76.418437 236.12304783 C76.418437 236.78304783 76.418437 237.44304783 76.418437 238.12304783 C75.758437 238.12304783 75.098437 238.12304783 74.418437 238.12304783 C74.418437 238.78304783 74.418437 239.44304783 74.418437 240.12304783 C73.758437 240.12304783 73.098437 240.12304783 72.418437 240.12304783 C72.418437 240.78304783 72.418437 241.44304783 72.418437 242.12304783 C71.758437 242.12304783 71.098437 242.12304783 70.418437 242.12304783 C70.418437 242.78304783 70.418437 243.44304783 70.418437 244.12304783 C69.758437 244.12304783 69.098437 244.12304783 68.418437 244.12304783 C68.418437 244.78304783 68.418437 245.44304783 68.418437 246.12304783 C67.758437 246.12304783 67.098437 246.12304783 66.418437 246.12304783 C66.418437 246.78304783 66.418437 247.44304783 66.418437 248.12304783 C65.758437 248.12304783 65.098437 248.12304783 64.418437 248.12304783 C64.418437 248.78304783 64.418437 249.44304783 64.418437 250.12304783 C63.758437 250.12304783 63.098437 250.12304783 62.418437 250.12304783 C62.418437 250.78304783 62.418437 251.44304783 62.418437 252.12304783 C61.758437 252.12304783 61.098437 252.12304783 60.418437 252.12304783 C60.418437 252.78304783 60.418437 253.44304783 60.418437 254.12304783 C59.758437 254.12304783 59.098437 254.12304783 58.418437 254.12304783 C58.418437 254.78304783 58.418437 255.44304783 58.418437 256.12304783 C57.758437 256.12304783 57.098437 256.12304783 56.418437 256.12304783 C56.418437 256.78304783 56.418437 257.44304783 56.418437 258.12304783 C55.758437 258.12304783 55.098437 258.12304783 54.418437 258.12304783 C54.418437 258.78304783 54.418437 259.44304783 54.418437 260.12304783 C53.758437 260.12304783 53.098437 260.12304783 52.418437 260.12304783 C52.418437 260.78304783 52.418437 261.44304783 52.418437 262.12304783 C51.758437 262.12304783 51.098437 262.12304783 50.418437 262.12304783 C50.418437 262.78304783 50.418437 263.44304783 50.418437 264.12304783 C49.758437 264.12304783 49.098437 264.12304783 48.418437 264.12304783 C48.418437 264.78304783 48.418437 265.44304783 48.418437 266.12304783 C47.758437 266.12304783 47.098437 266.12304783 46.418437 266.12304783 C46.418437 266.78304783 46.418437 267.44304783 46.418437 268.12304783 C45.758437 268.12304783 45.098437 268.12304783 44.418437 268.12304783 C44.418437 268.78304783 44.418437 269.44304783 44.418437 270.12304783 C43.758437 270.12304783 43.098437 270.12304783 42.418437 270.12304783 C42.418437 270.78304783 42.418437 271.44304783 42.418437 272.12304783 C41.758437 272.12304783 41.098437 272.12304783 40.418437 272.12304783 C40.418437 272.78304783 40.418437 273.44304783 40.418437 274.12304783 C39.758437 274.12304783 39.098437 274.12304783 38.418437 274.12304783 C38.418437 274.78304783 38.418437 275.44304783 38.418437 276.12304783 C37.758437 276.12304783 37.098437 276.12304783 36.418437 276.12304783 C36.418437 276.78304783 36.418437 277.44304783 36.418437 278.12304783 C35.758437 278.12304783 35.098437 278.12304783 34.418437 278.12304783 C34.418437 278.78304783 34.418437 279.44304783 34.418437 280.12304783 C33.758437 280.12304783 33.098437 280.12304783 32.418437 280.12304783 C32.418437 280.78304783 32.418437 281.44304783 32.418437 282.12304783 C31.758437 282.12304783 31.098437 282.12304783 30.418437 282.12304783 C30.418437 282.78304783 30.418437 283.44304783 30.418437 284.12304783 C29.758437 284.12304783 29.098437 284.12304783 28.418437 284.12304783 C28.418437 284.78304783 28.418437 285.44304783 28.418437 286.12304783 C27.758437 286.12304783 27.098437 286.12304783 26.418437 286.12304783 C26.418437 286.78304783 26.418437 287.44304783 26.418437 288.12304783 C25.758437 288.12304783 25.098437 288.12304783 24.418437 288.12304783 C24.418437 288.78304783 24.418437 289.44304783 24.418437 290.12304783 C23.758437 290.12304783 23.098437 290.12304783 22.418437 290.12304783 C22.418437 290.78304783 22.418437 291.44304783 22.418437 292.12304783 C21.758437 292.12304783 21.098437 292.12304783 20.418437 292.12304783 C20.418437 292.78304783 20.418437 293.44304783 20.418437 294.12304783 C19.758437 294.12304783 19.098437 294.12304783 18.418437 294.12304783 C18.418437 294.78304783 18.418437 295.44304783 18.418437 296.12304783 C17.758437 296.12304783 17.098437 296.12304783 16.418437 296.12304783 C16.418437 296.78304783 16.418437 297.44304783 16.418437 298.12304783 C15.758437 298.12304783 15.098437 298.12304783 14.418437 298.12304783 C14.418437 298.78304783 14.418437 299.44304783 14.418437 300.12304783 C13.758437 300.12304783 13.098437 300.12304783 12.418437 300.12304783 C12.418437 300.78304783 12.418437 301.44304783 12.418437 302.12304783 C11.758437 302.12304783 11.098437 302.12304783 10.418437 302.12304783 C10.418437 302.78304783 10.418437 303.44304783 10.418437 304.12304783 C9.758437 304.12304783 9.098437 304.12304783 8.418437 304.12304783 C8.418437 304.78304783 8.418437 305.44304783 8.418437 306.12304783 C7.758437 306.12304783 7.098437 306.12304783 6.418437 306.12304783 C6.418437 306.78304783 6.418437 307.44304783 6.418437 308.12304783 C5.758437 308.12304783 5.098437 308.12304783 4.418437 308.12304783 C4.418437 308.78304783 4.418437 309.44304783 4.418437 310.12304783 C3.758437 310.12304783 3.098437 310.12304783 2.418437 310.12304783 C2.418437 310.78304783 2.418437 311.44304783 2.418437 312.12304783 C1.758437 312.12304783 1.098437 312.12304783 0.418437 312.12304783 C0.418437 312.78304783 0.418437 313.44304783 0.418437 314.12304783 C-0.241563 314.12304783 -0.901563 314.12304783 -1.581563 314.12304783 C-1.581563 314.78304783 -1.581563 315.44304783 -1.581563 316.12304783 C-2.241563 316.12304783 -2.901563 316.12304783 -3.581563 316.12304783 C-3.581563 316.78304783 -3.581563 317.44304783 -3.581563 318.12304783 C-4.241563 318.12304783 -4.901563 318.12304783 -5.581563 318.12304783 C-5.581563 318.78304783 -5.581563 319.44304783 -5.581563 320.12304783 C-6.241563 320.12304783 -6.901563 320.12304783 -7.581563 320.12304783 C-7.581563 320.78304783 -7.581563 321.44304783 -7.581563 322.12304783 C-8.241563 322.12304783 -8.901563 322.12304783 -9.581563 322.12304783 C-9.581563 322.78304783 -9.581563 323.44304783 -9.581563 324.12304783 C-10.241563 324.12304783 -10.901563 324.12304783 -11.581563 324.12304783 C-11.581563 324.78304783 -11.581563 325.44304783 -11.581563 326.12304783 C-12.241563 326.12304783 -12.901563 326.12304783 -13.581563 326.12304783 C-13.581563 326.78304783 -13.581563 327.44304783 -13.581563 328.12304783 C-14.241563 328.12304783 -14.901563 328.12304783 -15.581563 328.12304783 C-15.581563 328.78304783 -15.581563 329.44304783 -15.581563 330.12304783 C-16.241563 330.12304783 -16.901563 330.12304783 -17.581563 330.12304783 C-17.581563 330.78304783 -17.581563 331.44304783 -17.581563 332.12304783 C-18.241563 332.12304783 -18.901563 332.12304783 -19.581563 332.12304783 C-19.581563 332.78304783 -19.581563 333.44304783 -19.581563 334.12304783 C-20.241563 334.12304783 -20.901563 334.12304783 -21.581563 334.12304783 C-21.581563 334.78304783 -21.581563 335.44304783 -21.581563 336.12304783 C-22.571563 335.79304783 -23.561563 335.46304783 -24.581563 335.12304783 C-25.86166675 332.31106637 -26.94174909 329.59341804 -27.956563 326.68554783 C-28.26182911 325.82735447 -28.56709522 324.96916111 -28.88161182 324.08496189 C-37.55494812 299.27799113 -41.62773284 274.25167798 -41.89796925 248.01367283 C-41.91887703 246.26478916 -41.94001256 244.51590819 -41.96135426 242.76702976 C-42.017946 237.9759219 -42.06741133 233.18476655 -42.1143961 228.39355564 C-42.14414941 225.36424951 -42.17513109 222.33495763 -42.2062273 219.30566502 C-42.57579369 182.69863845 -42.71861524 146.09083068 -42.7602182 109.4821384 C-42.76619417 104.54606294 -42.77704819 99.61001317 -42.78984547 94.67395115 C-42.8069996 87.95795288 -42.81265437 81.24203356 -42.81082249 74.52600956 C-42.81161739 72.04258226 -42.81572314 69.55915341 -42.82343388 67.07573795 C-42.94207647 25.84002795 -42.94207647 25.84002795 -28.581563 11.12304783 C-20.32103691 4.29786138 -10.76035919 -0.00423803 0 0 Z " fill="#FDC700" transform="translate(140.58156299591064,96.87695217132568)"/>
<path d="M0 0 C0.66 0 1.32 0 2 0 C2.09393101 21.86382069 2.16421599 43.72760756 2.20724869 65.59158993 C2.22777105 75.74610627 2.2556911 85.90049639 2.30175781 96.05493164 C2.34194504 104.91767283 2.36750757 113.7803225 2.37635398 122.6431523 C2.38151546 127.32496558 2.39342403 132.00651732 2.42292023 136.68824577 C2.67770453 178.8083418 -3.83341728 217.49723214 -24 255 C-24.34111816 255.64743164 -24.68223633 256.29486328 -25.03369141 256.96191406 C-41.35600769 287.84279377 -65.47696192 314.89948665 -94 335 C-95.14736619 335.83952845 -96.29451082 336.67935981 -97.44140625 337.51953125 C-131.06656078 361.55334312 -174.54305188 376.8796686 -216.02734375 377.23828125 C-216.9654892 377.24812042 -217.90363464 377.25795959 -218.87020874 377.26809692 C-258.49840861 377.59812404 -258.49840861 377.59812404 -278 373 C-279.01642578 372.76394043 -280.03285156 372.52788086 -281.08007812 372.28466797 C-302.28914324 367.19252246 -324.4901325 359.80004053 -343 348 C-343.33 347.34 -343.66 346.68 -344 346 C-343.34 346 -342.68 346 -342 346 C-342 345.34 -342 344.68 -342 344 C-341.34 344 -340.68 344 -340 344 C-340 343.34 -340 342.68 -340 342 C-339.34 342 -338.68 342 -338 342 C-338 341.34 -338 340.68 -338 340 C-337.34 340 -336.68 340 -336 340 C-336 339.34 -336 338.68 -336 338 C-335.34 338 -334.68 338 -334 338 C-334 337.34 -334 336.68 -334 336 C-333.34 336 -332.68 336 -332 336 C-332 335.34 -332 334.68 -332 334 C-331.34 334 -330.68 334 -330 334 C-330 333.34 -330 332.68 -330 332 C-329.34 332 -328.68 332 -328 332 C-328 331.34 -328 330.68 -328 330 C-327.34 330 -326.68 330 -326 330 C-326 329.34 -326 328.68 -326 328 C-325.34 328 -324.68 328 -324 328 C-324 327.34 -324 326.68 -324 326 C-323.34 326 -322.68 326 -322 326 C-322 325.34 -322 324.68 -322 324 C-321.34 324 -320.68 324 -320 324 C-320 323.34 -320 322.68 -320 322 C-319.34 322 -318.68 322 -318 322 C-318 321.34 -318 320.68 -318 320 C-317.34 320 -316.68 320 -316 320 C-316 319.34 -316 318.68 -316 318 C-315.34 318 -314.68 318 -314 318 C-314 317.34 -314 316.68 -314 316 C-313.34 316 -312.68 316 -312 316 C-312 315.34 -312 314.68 -312 314 C-311.34 314 -310.68 314 -310 314 C-310 313.34 -310 312.68 -310 312 C-309.34 312 -308.68 312 -308 312 C-308 311.34 -308 310.68 -308 310 C-307.34 310 -306.68 310 -306 310 C-306 309.34 -306 308.68 -306 308 C-305.34 308 -304.68 308 -304 308 C-304 307.34 -304 306.68 -304 306 C-303.34 306 -302.68 306 -302 306 C-302 305.34 -302 304.68 -302 304 C-301.34 304 -300.68 304 -300 304 C-300 303.34 -300 302.68 -300 302 C-299.34 302 -298.68 302 -298 302 C-298 301.34 -298 300.68 -298 300 C-297.34 300 -296.68 300 -296 300 C-296 299.34 -296 298.68 -296 298 C-295.34 298 -294.68 298 -294 298 C-294 297.34 -294 296.68 -294 296 C-293.34 296 -292.68 296 -292 296 C-292 295.34 -292 294.68 -292 294 C-291.34 294 -290.68 294 -290 294 C-290 293.34 -290 292.68 -290 292 C-289.34 292 -288.68 292 -288 292 C-288 291.34 -288 290.68 -288 290 C-287.34 290 -286.68 290 -286 290 C-286 289.34 -286 288.68 -286 288 C-285.34 288 -284.68 288 -284 288 C-284 287.34 -284 286.68 -284 286 C-283.34 286 -282.68 286 -282 286 C-282 285.34 -282 284.68 -282 284 C-281.34 284 -280.68 284 -280 284 C-280 283.34 -280 282.68 -280 282 C-279.34 282 -278.68 282 -278 282 C-278 281.34 -278 280.68 -278 280 C-277.34 280 -276.68 280 -276 280 C-276 279.34 -276 278.68 -276 278 C-275.34 278 -274.68 278 -274 278 C-274 277.34 -274 276.68 -274 276 C-273.34 276 -272.68 276 -272 276 C-272 275.34 -272 274.68 -272 274 C-271.34 274 -270.68 274 -270 274 C-270 273.34 -270 272.68 -270 272 C-269.34 272 -268.68 272 -268 272 C-268 271.34 -268 270.68 -268 270 C-267.34 270 -266.68 270 -266 270 C-266 269.34 -266 268.68 -266 268 C-265.34 268 -264.68 268 -264 268 C-264 267.34 -264 266.68 -264 266 C-263.34 266 -262.68 266 -262 266 C-262 265.34 -262 264.68 -262 264 C-261.34 264 -260.68 264 -260 264 C-260 263.34 -260 262.68 -260 262 C-259.34 262 -258.68 262 -258 262 C-258 261.34 -258 260.68 -258 260 C-257.34 260 -256.68 260 -256 260 C-256 259.34 -256 258.68 -256 258 C-255.34 258 -254.68 258 -254 258 C-254 257.34 -254 256.68 -254 256 C-253.34 256 -252.68 256 -252 256 C-252 255.34 -252 254.68 -252 254 C-251.34 254 -250.68 254 -250 254 C-250 253.34 -250 252.68 -250 252 C-249.34 252 -248.68 252 -248 252 C-248 251.34 -248 250.68 -248 250 C-247.34 250 -246.68 250 -246 250 C-246 249.34 -246 248.68 -246 248 C-245.34 248 -244.68 248 -244 248 C-244 247.34 -244 246.68 -244 246 C-243.34 246 -242.68 246 -242 246 C-242 245.34 -242 244.68 -242 244 C-241.34 244 -240.68 244 -240 244 C-240 243.34 -240 242.68 -240 242 C-239.34 242 -238.68 242 -238 242 C-238 241.34 -238 240.68 -238 240 C-237.34 240 -236.68 240 -236 240 C-236 239.34 -236 238.68 -236 238 C-235.34 238 -234.68 238 -234 238 C-234 237.34 -234 236.68 -234 236 C-233.34 236 -232.68 236 -232 236 C-232 235.34 -232 234.68 -232 234 C-231.34 234 -230.68 234 -230 234 C-230 233.34 -230 232.68 -230 232 C-229.34 232 -228.68 232 -228 232 C-228 231.34 -228 230.68 -228 230 C-227.34 230 -226.68 230 -226 230 C-226 229.34 -226 228.68 -226 228 C-225.34 228 -224.68 228 -224 228 C-224 227.34 -224 226.68 -224 226 C-223.34 226 -222.68 226 -222 226 C-222 225.34 -222 224.68 -222 224 C-221.34 224 -220.68 224 -220 224 C-220 223.34 -220 222.68 -220 222 C-219.34 222 -218.68 222 -218 222 C-218 221.34 -218 220.68 -218 220 C-217.34 220 -216.68 220 -216 220 C-216 219.34 -216 218.68 -216 218 C-215.34 218 -214.68 218 -214 218 C-214 217.34 -214 216.68 -214 216 C-213.34 216 -212.68 216 -212 216 C-212 215.34 -212 214.68 -212 214 C-211.34 214 -210.68 214 -210 214 C-210 213.34 -210 212.68 -210 212 C-209.34 212 -208.68 212 -208 212 C-207.7525 211.4225 -207.505 210.845 -207.25 210.25 C-205.81700012 207.67060021 -204.21575324 205.93878408 -202 204 C-201.34 204 -200.68 204 -200 204 C-200 203.34 -200 202.68 -200 202 C-199.34 202 -198.68 202 -198 202 C-198 201.34 -198 200.68 -198 200 C-197.34 200 -196.68 200 -196 200 C-196 199.34 -196 198.68 -196 198 C-195.34 198 -194.68 198 -194 198 C-194 197.34 -194 196.68 -194 196 C-193.34 196 -192.68 196 -192 196 C-192 195.34 -192 194.68 -192 194 C-191.34 194 -190.68 194 -190 194 C-190 193.34 -190 192.68 -190 192 C-189.34 192 -188.68 192 -188 192 C-188 191.34 -188 190.68 -188 190 C-187.34 190 -186.68 190 -186 190 C-186 189.34 -186 188.68 -186 188 C-185.34 188 -184.68 188 -184 188 C-184 187.34 -184 186.68 -184 186 C-183.34 186 -182.68 186 -182 186 C-182 185.34 -182 184.68 -182 184 C-181.34 184 -180.68 184 -180 184 C-180 183.34 -180 182.68 -180 182 C-179.34 182 -178.68 182 -178 182 C-178 181.34 -178 180.68 -178 180 C-177.34 180 -176.68 180 -176 180 C-176 179.34 -176 178.68 -176 178 C-175.34 178 -174.68 178 -174 178 C-174 177.34 -174 176.68 -174 176 C-173.34 176 -172.68 176 -172 176 C-172 175.34 -172 174.68 -172 174 C-171.34 174 -170.68 174 -170 174 C-170 173.34 -170 172.68 -170 172 C-169.34 172 -168.68 172 -168 172 C-168 171.34 -168 170.68 -168 170 C-167.34 170 -166.68 170 -166 170 C-166 169.34 -166 168.68 -166 168 C-165.34 168 -164.68 168 -164 168 C-164 167.34 -164 166.68 -164 166 C-163.34 166 -162.68 166 -162 166 C-162 165.34 -162 164.68 -162 164 C-161.34 164 -160.68 164 -160 164 C-160 163.34 -160 162.68 -160 162 C-159.34 162 -158.68 162 -158 162 C-158 161.34 -158 160.68 -158 160 C-157.34 160 -156.68 160 -156 160 C-156 159.34 -156 158.68 -156 158 C-155.34 158 -154.68 158 -154 158 C-154 157.34 -154 156.68 -154 156 C-153.34 156 -152.68 156 -152 156 C-152 155.34 -152 154.68 -152 154 C-151.34 154 -150.68 154 -150 154 C-150 153.34 -150 152.68 -150 152 C-149.34 152 -148.68 152 -148 152 C-148 151.34 -148 150.68 -148 150 C-147.34 150 -146.68 150 -146 150 C-146 149.34 -146 148.68 -146 148 C-145.34 148 -144.68 148 -144 148 C-144 147.34 -144 146.68 -144 146 C-143.34 146 -142.68 146 -142 146 C-141.34 144.68 -140.68 143.36 -140 142 C-139.34 142 -138.68 142 -138 142 C-138 141.34 -138 140.68 -138 140 C-137.34 140 -136.68 140 -136 140 C-136 139.34 -136 138.68 -136 138 C-135.34 138 -134.68 138 -134 138 C-134 137.34 -134 136.68 -134 136 C-133.34 136 -132.68 136 -132 136 C-132 135.34 -132 134.68 -132 134 C-131.34 134 -130.68 134 -130 134 C-130 133.34 -130 132.68 -130 132 C-129.34 132 -128.68 132 -128 132 C-128 131.34 -128 130.68 -128 130 C-127.34 130 -126.68 130 -126 130 C-126 129.34 -126 128.68 -126 128 C-125.34 128 -124.68 128 -124 128 C-124 127.34 -124 126.68 -124 126 C-123.34 126 -122.68 126 -122 126 C-122 125.34 -122 124.68 -122 124 C-121.34 124 -120.68 124 -120 124 C-120 123.34 -120 122.68 -120 122 C-119.34 122 -118.68 122 -118 122 C-118 121.34 -118 120.68 -118 120 C-117.34 120 -116.68 120 -116 120 C-116 119.34 -116 118.68 -116 118 C-115.34 118 -114.68 118 -114 118 C-114 117.34 -114 116.68 -114 116 C-113.34 116 -112.68 116 -112 116 C-112 115.34 -112 114.68 -112 114 C-111.34 114 -110.68 114 -110 114 C-110 113.34 -110 112.68 -110 112 C-109.34 112 -108.68 112 -108 112 C-108 111.34 -108 110.68 -108 110 C-107.34 110 -106.68 110 -106 110 C-106 109.34 -106 108.68 -106 108 C-105.34 108 -104.68 108 -104 108 C-104 107.34 -104 106.68 -104 106 C-103.34 106 -102.68 106 -102 106 C-102 105.34 -102 104.68 -102 104 C-101.34 104 -100.68 104 -100 104 C-100 103.34 -100 102.68 -100 102 C-99.34 102 -98.68 102 -98 102 C-98 101.34 -98 100.68 -98 100 C-97.34 100 -96.68 100 -96 100 C-96 99.34 -96 98.68 -96 98 C-95.34 98 -94.68 98 -94 98 C-94 97.34 -94 96.68 -94 96 C-93.34 96 -92.68 96 -92 96 C-92 95.34 -92 94.68 -92 94 C-91.34 94 -90.68 94 -90 94 C-90 93.34 -90 92.68 -90 92 C-89.34 92 -88.68 92 -88 92 C-88 91.34 -88 90.68 -88 90 C-87.34 90 -86.68 90 -86 90 C-86 89.34 -86 88.68 -86 88 C-85.34 88 -84.68 88 -84 88 C-84 87.34 -84 86.68 -84 86 C-83.34 86 -82.68 86 -82 86 C-82 85.34 -82 84.68 -82 84 C-81.34 84 -80.68 84 -80 84 C-80 83.34 -80 82.68 -80 82 C-79.34 82 -78.68 82 -78 82 C-78 81.34 -78 80.68 -78 80 C-77.34 80 -76.68 80 -76 80 C-76 79.34 -76 78.68 -76 78 C-75.34 78 -74.68 78 -74 78 C-74 77.34 -74 76.68 -74 76 C-73.34 76 -72.68 76 -72 76 C-72 75.34 -72 74.68 -72 74 C-71.34 74 -70.68 74 -70 74 C-70 73.34 -70 72.68 -70 72 C-69.34 72 -68.68 72 -68 72 C-68 71.34 -68 70.68 -68 70 C-67.34 70 -66.68 70 -66 70 C-66 69.34 -66 68.68 -66 68 C-65.34 68 -64.68 68 -64 68 C-64 67.34 -64 66.68 -64 66 C-63.34 66 -62.68 66 -62 66 C-62 65.34 -62 64.68 -62 64 C-61.34 64 -60.68 64 -60 64 C-60 63.34 -60 62.68 -60 62 C-59.34 62 -58.68 62 -58 62 C-58 61.34 -58 60.68 -58 60 C-57.34 60 -56.68 60 -56 60 C-56 59.34 -56 58.68 -56 58 C-55.34 58 -54.68 58 -54 58 C-54 57.34 -54 56.68 -54 56 C-53.34 56 -52.68 56 -52 56 C-52 55.34 -52 54.68 -52 54 C-51.34 54 -50.68 54 -50 54 C-50 53.34 -50 52.68 -50 52 C-49.34 52 -48.68 52 -48 52 C-48 51.34 -48 50.68 -48 50 C-47.34 50 -46.68 50 -46 50 C-46 49.34 -46 48.68 -46 48 C-45.34 48 -44.68 48 -44 48 C-44 47.34 -44 46.68 -44 46 C-43.34 46 -42.68 46 -42 46 C-42 45.34 -42 44.68 -42 44 C-41.34 44 -40.68 44 -40 44 C-40 43.34 -40 42.68 -40 42 C-39.34 42 -38.68 42 -38 42 C-38 41.34 -38 40.68 -38 40 C-37.34 40 -36.68 40 -36 40 C-36 39.34 -36 38.68 -36 38 C-35.34 38 -34.68 38 -34 38 C-34 37.34 -34 36.68 -34 36 C-33.34 36 -32.68 36 -32 36 C-32 35.34 -32 34.68 -32 34 C-31.34 34 -30.68 34 -30 34 C-30 33.34 -30 32.68 -30 32 C-29.34 32 -28.68 32 -28 32 C-28 31.34 -28 30.68 -28 30 C-27.34 30 -26.68 30 -26 30 C-26 29.34 -26 28.68 -26 28 C-25.34 28 -24.68 28 -24 28 C-24 27.34 -24 26.68 -24 26 C-23.34 26 -22.68 26 -22 26 C-22 25.34 -22 24.68 -22 24 C-21.34 24 -20.68 24 -20 24 C-20 23.34 -20 22.68 -20 22 C-19.34 22 -18.68 22 -18 22 C-18 21.34 -18 20.68 -18 20 C-17.34 20 -16.68 20 -16 20 C-16 19.34 -16 18.68 -16 18 C-15.34 18 -14.68 18 -14 18 C-14 17.34 -14 16.68 -14 16 C-13.34 16 -12.68 16 -12 16 C-12 15.34 -12 14.68 -12 14 C-11.34 14 -10.68 14 -10 14 C-10 13.34 -10 12.68 -10 12 C-9.34 12 -8.68 12 -8 12 C-8 11.34 -8 10.68 -8 10 C-7.34 10 -6.68 10 -6 10 C-5.896875 9.4225 -5.79375 8.845 -5.6875 8.25 C-4.89103535 5.64338842 -3.80934723 4.0264689 -2 2 C-1.34 2 -0.68 2 0 2 C0 1.34 0 0.68 0 0 Z " fill="#FDC701" transform="translate(559,197)"/>
<path d="M0 0 C96.36 0 192.72 0 292 0 C292 0.66 292 1.32 292 2 C291.34 2 290.68 2 290 2 C290 2.66 290 3.32 290 4 C289.34 4 288.68 4 288 4 C288 3.34 288 2.68 288 2 C192.96 2 97.92 2 0 2 C0 1.34 0 0.68 0 0 Z " fill="#FDC510" transform="translate(143,97)"/>
<path d="M0 0 C0.66 0 1.32 0 2 0 C1.67 1.32 1.34 2.64 1 4 C1.99 4 2.98 4 4 4 C4 4.66 4 5.32 4 6 C3.34 6 2.68 6 2 6 C2 6.66 2 7.32 2 8 C1.34 8 0.68 8 0 8 C0 8.66 0 9.32 0 10 C-0.66 10 -1.32 10 -2 10 C-2 10.66 -2 11.32 -2 12 C-2.66 12 -3.32 12 -4 12 C-4 11.01 -4 10.02 -4 9 C-5.32 8.67 -6.64 8.34 -8 8 C-8 7.34 -8 6.68 -8 6 C-6.68 6 -5.36 6 -4 6 C-4 5.34 -4 4.68 -4 4 C-3.34 4 -2.68 4 -2 4 C-2 3.34 -2 2.68 -2 2 C-1.34 2 -0.68 2 0 2 C0 1.34 0 0.68 0 0 Z " fill="#FDC713" transform="translate(231,311)"/>
<path d="M0 0 C1.32 0 2.64 0 4 0 C4 0.66 4 1.32 4 2 C5.32 2 6.64 2 8 2 C8 2.66 8 3.32 8 4 C4.04 4 0.08 4 -4 4 C-4 3.34 -4 2.68 -4 2 C-2.68 2 -1.36 2 0 2 C0 1.34 0 0.68 0 0 Z " fill="#FEC516" transform="translate(225,543)"/>
<path d="M0 0 C2.64 0 5.28 0 8 0 C8 0.66 8 1.32 8 2 C7.34 2 6.68 2 6 2 C6 2.99 6 3.98 6 5 C4.02 5.99 4.02 5.99 2 7 C2 6.01 2 5.02 2 4 C2.66 4 3.32 4 4 4 C4 3.34 4 2.68 4 2 C2.68 2 1.36 2 0 2 C0 1.34 0 0.68 0 0 Z " fill="#FBC519" transform="translate(447,535)"/>
<path d="M0 0 C2 3 2 3 1.625 6.1875 C1.41875 7.115625 1.2125 8.04375 1 9 C0.01 8.67 -0.98 8.34 -2 8 C-2 6.02 -2 4.04 -2 2 C-1.34 2 -0.68 2 0 2 C0 1.34 0 0.68 0 0 Z " fill="#FDC510" transform="translate(531,449)"/>
<path d="M0 0 C0.66 0 1.32 0 2 0 C2 0.66 2 1.32 2 2 C2.66 2 3.32 2 4 2 C4 3.32 4 4.64 4 6 C2.68 6 1.36 6 0 6 C0 5.34 0 4.68 0 4 C-0.66 4 -1.32 4 -2 4 C-2 3.34 -2 2.68 -2 2 C-1.34 2 -0.68 2 0 2 C0 1.34 0 0.68 0 0 Z " fill="#FCC717" transform="translate(273,485)"/>
<path d="M0 0 C1.32 0 2.64 0 4 0 C4 0.66 4 1.32 4 2 C4.66 2 5.32 2 6 2 C6 3.98 6 5.96 6 8 C5.34 8 4.68 8 4 8 C4 6.68 4 5.36 4 4 C3.34 4 2.68 4 2 4 C2 3.34 2 2.68 2 2 C1.34 2 0.68 2 0 2 C0 1.34 0 0.68 0 0 Z " fill="#FDC514" transform="translate(103,125)"/>
<path d="M0 0 C0.66 0 1.32 0 2 0 C2 0.66 2 1.32 2 2 C3.32 2 4.64 2 6 2 C6 1.34 6 0.68 6 0 C6.66 0 7.32 0 8 0 C8 0.99 8 1.98 8 3 C8.66 3.33 9.32 3.66 10 4 C3.375 4.125 3.375 4.125 0 3 C0 2.01 0 1.02 0 0 Z " fill="#FEC610" transform="translate(253,559)"/>
<path d="M0 0 C1.98 0 3.96 0 6 0 C6 0.66 6 1.32 6 2 C6.66 2 7.32 2 8 2 C7.67 2.99 7.34 3.98 7 5 C6.01 4.67 5.02 4.34 4 4 C4 3.34 4 2.68 4 2 C2.68 2 1.36 2 0 2 C0 1.34 0 0.68 0 0 Z " fill="#FFC415" transform="translate(239,551)"/>
<path d="M0 0 C1.32 0 2.64 0 4 0 C4.66 1.98 5.32 3.96 6 6 C5.34 6 4.68 6 4 6 C4 5.34 4 4.68 4 4 C2.68 4 1.36 4 0 4 C0 2.68 0 1.36 0 0 Z " fill="#FDC616" transform="translate(131,409)"/>
<path d="M0 0 C1.32 0 2.64 0 4 0 C4.66 1.98 5.32 3.96 6 6 C5.34 6 4.68 6 4 6 C4 5.34 4 4.68 4 4 C2.68 4 1.36 4 0 4 C0 2.68 0 1.36 0 0 Z " fill="#FDC617" transform="translate(163,377)"/>
<path d="M0 0 C1.32 0 2.64 0 4 0 C4 1.32 4 2.64 4 4 C4.66 4 5.32 4 6 4 C6 4.66 6 5.32 6 6 C4.02 5.34 2.04 4.68 0 4 C0 2.68 0 1.36 0 0 Z " fill="#FDC616" transform="translate(169,371)"/>
<path d="M0 0 C1.32 0 2.64 0 4 0 C4.66 1.98 5.32 3.96 6 6 C5.34 6 4.68 6 4 6 C4 5.34 4 4.68 4 4 C2.68 4 1.36 4 0 4 C0 2.68 0 1.36 0 0 Z " fill="#FEC614" transform="translate(195,345)"/>
<path d="M0 0 C0.66 0 1.32 0 2 0 C2 0.66 2 1.32 2 2 C2.66 2 3.32 2 4 2 C4 2.66 4 3.32 4 4 C3.34 4 2.68 4 2 4 C2 4.66 2 5.32 2 6 C1.34 6 0.68 6 0 6 C0 5.34 0 4.68 0 4 C-0.66 4 -1.32 4 -2 4 C-2 3.34 -2 2.68 -2 2 C-1.34 2 -0.68 2 0 2 C0 1.34 0 0.68 0 0 Z " fill="#FCC718" transform="translate(279,479)"/>
<path d="M0 0 C0.66 0 1.32 0 2 0 C2 0.66 2 1.32 2 2 C2.66 2 3.32 2 4 2 C4 2.66 4 3.32 4 4 C3.34 4 2.68 4 2 4 C2 4.66 2 5.32 2 6 C1.34 6 0.68 6 0 6 C0 5.34 0 4.68 0 4 C-0.66 4 -1.32 4 -2 4 C-2 3.34 -2 2.68 -2 2 C-1.34 2 -0.68 2 0 2 C0 1.34 0 0.68 0 0 Z " fill="#FCC712" transform="translate(295,463)"/>
<path d="M0 0 C0.66 0 1.32 0 2 0 C2 0.66 2 1.32 2 2 C2.66 2 3.32 2 4 2 C4 2.66 4 3.32 4 4 C3.34 4 2.68 4 2 4 C2 4.66 2 5.32 2 6 C1.34 6 0.68 6 0 6 C0 5.34 0 4.68 0 4 C-0.66 4 -1.32 4 -2 4 C-2 3.34 -2 2.68 -2 2 C-1.34 2 -0.68 2 0 2 C0 1.34 0 0.68 0 0 Z " fill="#FCC712" transform="translate(311,447)"/>
<path d="M0 0 C0.66 0 1.32 0 2 0 C2 0.66 2 1.32 2 2 C2.66 2 3.32 2 4 2 C4 2.66 4 3.32 4 4 C3.34 4 2.68 4 2 4 C2 4.66 2 5.32 2 6 C1.34 6 0.68 6 0 6 C0 5.34 0 4.68 0 4 C-0.66 4 -1.32 4 -2 4 C-2 3.34 -2 2.68 -2 2 C-1.34 2 -0.68 2 0 2 C0 1.34 0 0.68 0 0 Z " fill="#FCC711" transform="translate(327,431)"/>
<path d="M0 0 C0.66 0 1.32 0 2 0 C2 0.66 2 1.32 2 2 C2.66 2 3.32 2 4 2 C4 2.66 4 3.32 4 4 C3.34 4 2.68 4 2 4 C2 4.66 2 5.32 2 6 C1.34 6 0.68 6 0 6 C0 5.34 0 4.68 0 4 C-0.66 4 -1.32 4 -2 4 C-2 3.34 -2 2.68 -2 2 C-1.34 2 -0.68 2 0 2 C0 1.34 0 0.68 0 0 Z " fill="#FCC711" transform="translate(127,417)"/>
<path d="M0 0 C1.32 0 2.64 0 4 0 C4 0.66 4 1.32 4 2 C3.34 2 2.68 2 2 2 C2 2.66 2 3.32 2 4 C1.34 4 0.68 4 0 4 C0 4.66 0 5.32 0 6 C-0.66 6 -1.32 6 -2 6 C-2 4.68 -2 3.36 -2 2 C-1.34 2 -0.68 2 0 2 C0 1.34 0 0.68 0 0 Z " fill="#FFC515" transform="translate(263,277)"/>
<path d="M0 0 C1.32 0 2.64 0 4 0 C4 0.66 4 1.32 4 2 C3.34 2 2.68 2 2 2 C2 2.66 2 3.32 2 4 C1.34 4 0.68 4 0 4 C0 4.66 0 5.32 0 6 C-0.66 6 -1.32 6 -2 6 C-2 4.68 -2 3.36 -2 2 C-1.34 2 -0.68 2 0 2 C0 1.34 0 0.68 0 0 Z " fill="#FFC515" transform="translate(279,261)"/>
<path d="M0 0 C1.32 0 2.64 0 4 0 C4 0.66 4 1.32 4 2 C3.34 2 2.68 2 2 2 C2 2.66 2 3.32 2 4 C1.34 4 0.68 4 0 4 C0 4.66 0 5.32 0 6 C-0.66 6 -1.32 6 -2 6 C-2 4.68 -2 3.36 -2 2 C-1.34 2 -0.68 2 0 2 C0 1.34 0 0.68 0 0 Z " fill="#FFC515" transform="translate(295,245)"/>
<path d="M0 0 C1.32 0 2.64 0 4 0 C4 0.66 4 1.32 4 2 C3.34 2 2.68 2 2 2 C2 2.66 2 3.32 2 4 C1.34 4 0.68 4 0 4 C0 4.66 0 5.32 0 6 C-0.66 6 -1.32 6 -2 6 C-2 4.68 -2 3.36 -2 2 C-1.34 2 -0.68 2 0 2 C0 1.34 0 0.68 0 0 Z " fill="#FFC515" transform="translate(311,229)"/>
<path d="M0 0 C1.32 0 2.64 0 4 0 C4 0.66 4 1.32 4 2 C3.34 2 2.68 2 2 2 C2 2.66 2 3.32 2 4 C1.34 4 0.68 4 0 4 C0 4.66 0 5.32 0 6 C-0.66 6 -1.32 6 -2 6 C-2 4.68 -2 3.36 -2 2 C-1.34 2 -0.68 2 0 2 C0 1.34 0 0.68 0 0 Z " fill="#FFC515" transform="translate(327,213)"/>
<path d="M0 0 C1.32 0 2.64 0 4 0 C4 1.32 4 2.64 4 4 C3.34 4 2.68 4 2 4 C2 4.66 2 5.32 2 6 C1.34 6 0.68 6 0 6 C0 4.02 0 2.04 0 0 Z " fill="#FDD358" transform="translate(545,207)"/>
<path d="M0 0 C0.66 0 1.32 0 2 0 C2 1.32 2 2.64 2 4 C1.34 4 0.68 4 0 4 C0 4.66 0 5.32 0 6 C-1.32 6 -2.64 6 -4 6 C-4 5.34 -4 4.68 -4 4 C-3.34 4 -2.68 4 -2 4 C-2 3.34 -2 2.68 -2 2 C-1.34 2 -0.68 2 0 2 C0 1.34 0 0.68 0 0 Z " fill="#FCD04C" transform="translate(353,195)"/>
<path d="M0 0 C0.66 0 1.32 0 2 0 C2 1.32 2 2.64 2 4 C1.34 4 0.68 4 0 4 C0 4.66 0 5.32 0 6 C-1.32 6 -2.64 6 -4 6 C-4 5.34 -4 4.68 -4 4 C-3.34 4 -2.68 4 -2 4 C-2 3.34 -2 2.68 -2 2 C-1.34 2 -0.68 2 0 2 C0 1.34 0 0.68 0 0 Z " fill="#FCD04C" transform="translate(359,189)"/>
<path d="M0 0 C0.66 0 1.32 0 2 0 C2 1.32 2 2.64 2 4 C1.34 4 0.68 4 0 4 C0 4.66 0 5.32 0 6 C-1.32 6 -2.64 6 -4 6 C-4 5.34 -4 4.68 -4 4 C-3.34 4 -2.68 4 -2 4 C-2 3.34 -2 2.68 -2 2 C-1.34 2 -0.68 2 0 2 C0 1.34 0 0.68 0 0 Z " fill="#FCD04C" transform="translate(369,179)"/>
<path d="M0 0 C0.66 0 1.32 0 2 0 C2 1.32 2 2.64 2 4 C1.34 4 0.68 4 0 4 C0 4.66 0 5.32 0 6 C-1.32 6 -2.64 6 -4 6 C-4 5.34 -4 4.68 -4 4 C-3.34 4 -2.68 4 -2 4 C-2 3.34 -2 2.68 -2 2 C-1.34 2 -0.68 2 0 2 C0 1.34 0 0.68 0 0 Z " fill="#FCD04C" transform="translate(375,173)"/>
<path d="M0 0 C0.66 0 1.32 0 2 0 C2 1.32 2 2.64 2 4 C1.34 4 0.68 4 0 4 C0 4.66 0 5.32 0 6 C-1.32 6 -2.64 6 -4 6 C-4 5.34 -4 4.68 -4 4 C-3.34 4 -2.68 4 -2 4 C-2 3.34 -2 2.68 -2 2 C-1.34 2 -0.68 2 0 2 C0 1.34 0 0.68 0 0 Z " fill="#FCD14C" transform="translate(391,157)"/>
<path d="M0 0 C0.66 0 1.32 0 2 0 C2 1.32 2 2.64 2 4 C1.34 4 0.68 4 0 4 C0 4.66 0 5.32 0 6 C-1.32 6 -2.64 6 -4 6 C-4 5.34 -4 4.68 -4 4 C-3.34 4 -2.68 4 -2 4 C-2 3.34 -2 2.68 -2 2 C-1.34 2 -0.68 2 0 2 C0 1.34 0 0.68 0 0 Z " fill="#FDD150" transform="translate(439,109)"/>
<path d="M0 0 C0.66 0 1.32 0 2 0 C2 1.32 2 2.64 2 4 C0.02 4.66 -1.96 5.32 -4 6 C-4 5.34 -4 4.68 -4 4 C-3.34 4 -2.68 4 -2 4 C-2 3.34 -2 2.68 -2 2 C-1.34 2 -0.68 2 0 2 C0 1.34 0 0.68 0 0 Z " fill="#FEC514" transform="translate(485,497)"/>
<path d="M0 0 C0.33 0.99 0.66 1.98 1 3 C0.34 3 -0.32 3 -1 3 C-1 3.66 -1 4.32 -1 5 C-2.32 5 -3.64 5 -5 5 C-5 4.34 -5 3.68 -5 3 C-4.34 3 -3.68 3 -3 3 C-3 2.34 -3 1.68 -3 1 C-2.01 0.67 -1.02 0.34 0 0 Z " fill="#FDD250" transform="translate(386,164)"/>
<path d="M0 0 C0.33 0.99 0.66 1.98 1 3 C0.34 3 -0.32 3 -1 3 C-1 3.66 -1 4.32 -1 5 C-2.32 5 -3.64 5 -5 5 C-5 4.34 -5 3.68 -5 3 C-4.34 3 -3.68 3 -3 3 C-3 2.34 -3 1.68 -3 1 C-2.01 0.67 -1.02 0.34 0 0 Z " fill="#FDD350" transform="translate(402,148)"/>
<path d="M0 0 C2.0625 0.4375 2.0625 0.4375 4 1 C4 1.66 4 2.32 4 3 C2.68 3 1.36 3 0 3 C0 3.66 0 4.32 0 5 C-0.66 5 -1.32 5 -2 5 C-1.125 1.125 -1.125 1.125 0 0 Z " fill="#FEC513" transform="translate(115,106)"/>
</svg>
