<?xml version="1.0" encoding="UTF-8"?>
<svg version="1.1" xmlns="http://www.w3.org/2000/svg" width="534" height="534">
<path d="M0 0 C6.30826023 3.99357577 12.42460815 8.20386088 18.48046875 12.5703125 C19.20331055 13.08835449 19.92615234 13.60639648 20.67089844 14.14013672 C25.19242396 17.38079665 29.69840504 20.64239764 34.19824219 23.91308594 C37.95340995 26.63988084 41.71732953 29.35453536 45.48046875 32.0703125 C46.98051168 33.15358639 48.48051166 34.23691976 49.98046875 35.3203125 C51.09421875 36.1246875 51.09421875 36.1246875 52.23046875 36.9453125 C130.98046874 93.8203125 130.98046874 93.8203125 133.23144531 95.44604492 C134.72815576 96.52698441 136.22490043 97.60787651 137.72167969 98.6887207 C141.52229512 101.4332879 145.32227173 104.17873216 149.12109375 106.92578125 C155.89587617 111.82376584 162.67304977 116.71775338 169.48046875 121.5703125 C178.6234049 128.08770746 187.71439461 134.67709222 196.8125 141.25683594 C198.35620531 142.37310351 199.90006808 143.48915336 201.4440918 144.60498047 C202.96178523 145.70212778 204.47888077 146.80010264 205.99536133 147.89892578 C209.42359703 150.37966294 212.85960881 152.84482082 216.3359375 155.2578125 C241.12137412 172.48699722 241.12137412 172.48699722 244.48046875 186.5703125 C246.12574384 198.95609129 245.73004206 210.98201915 238.4375 221.5234375 C229.77583624 230.80041071 221.60525301 236.5377566 208.72265625 237.8515625 C198.43693503 238.20321109 190.02104373 235.21665504 181.203125 230.12890625 C177.67110928 228.10699194 174.03598933 226.33317663 170.37890625 224.55078125 C168.48046875 223.5703125 168.48046875 223.5703125 167.48046875 222.5703125 C167.37734375 223.3746875 167.27421875 224.1790625 167.16796875 225.0078125 C166.64753021 227.70463037 166.06366296 229.80899683 165.12594604 232.33848572 C162.87187896 239.01312211 161.73953178 245.9306384 160.46533203 252.84204102 C160.17800833 254.37414551 159.89009944 255.90614035 159.60165405 257.43803406 C158.98432161 260.72263982 158.3708086 264.0079273 157.7602272 267.29379463 C156.79156878 272.50489239 155.81249526 277.7140005 154.83175659 282.9228363 C152.39660838 295.8645442 149.97289852 308.80839071 147.55578613 321.753479 C145.67772674 331.81159839 143.79550868 341.8688959 141.89988887 351.92372268 C140.92726909 357.0852311 139.96337589 362.24826428 139.00631356 367.41267884 C138.40473665 370.64755328 137.79500673 373.88085388 137.18317032 377.11380196 C136.90452592 378.594847 136.62908261 380.07649915 136.35738373 381.55883408 C134.9446987 389.25579536 133.26261523 396.76868083 130.94772339 404.24546814 C130.74505674 404.90128768 130.5423901 405.55710721 130.33358204 406.23280007 C125.89104291 420.02693547 115.98886729 431.38073446 103.48046875 438.5703125 C89.55699977 445.58803949 76.11916505 445.86441514 60.87915039 445.82910156 C58.9068743 445.83181544 56.93459923 445.8353786 54.96232605 445.83972168 C49.6317377 445.84880127 44.30122719 445.84531959 38.97063756 445.83896351 C33.37621055 445.83387981 27.78178996 445.8386016 22.18736267 445.84173584 C12.79359752 445.84536889 3.39986388 445.84059405 -5.99389648 445.83105469 C-16.83263136 445.8201746 -27.67129096 445.82369517 -38.51002401 445.8347075 C-47.83775122 445.843803 -57.16545585 445.8450545 -66.49318606 445.83983016 C-72.05460725 445.83672249 -77.61599315 445.83626786 -83.17741203 445.84290314 C-88.40843516 445.84870884 -93.63936189 445.844621 -98.87037468 445.83311462 C-100.78267253 445.83048508 -102.69497859 445.83120372 -104.6072731 445.83563995 C-126.0306627 445.8807314 -143.24032977 442.94393369 -159.64453125 428.0078125 C-171.73858948 415.32618868 -175.38716289 398.56871115 -178.48046875 381.87011719 C-178.74977968 380.44740229 -179.01975845 379.02481368 -179.29034424 377.6023407 C-179.86643549 374.56623242 -180.43792031 371.52930846 -181.00567627 368.49163055 C-181.90681706 363.67056353 -182.81871797 358.851568 -183.73193359 354.03277588 C-185.17762111 346.39758102 -186.61642719 338.76110893 -188.05215263 331.12403512 C-190.61766999 317.47748084 -193.19133735 303.83246814 -195.77293587 290.18894696 C-196.67570928 285.41613067 -197.57422915 280.64253874 -198.46956825 275.86832261 C-201.66848586 251.40628249 -201.66848586 251.40628249 -209.51953125 228.5703125 C-209.84953125 227.9103125 -210.17953125 227.2503125 -210.51953125 226.5703125 C-210.51953125 227.5603125 -210.51953125 228.5503125 -210.51953125 229.5703125 C-211.35484375 229.71726562 -211.35484375 229.71726562 -212.20703125 229.8671875 C-216.30246139 230.66967043 -219.88602116 231.60106657 -223.58203125 233.5703125 C-233.31420049 238.69451949 -243.70467747 238.86651394 -254.20703125 236.0078125 C-260.34697094 233.91715203 -264.8516375 231.03684612 -269.51953125 226.5703125 C-270.15632813 225.961875 -270.793125 225.3534375 -271.44921875 224.7265625 C-277.38548196 218.51004652 -281.93965975 210.26838496 -282.51953125 201.5703125 C-282.62265625 200.3946875 -282.72578125 199.2190625 -282.83203125 198.0078125 C-282.6111373 186.45505905 -277.20081787 176.57197243 -269.44140625 168.375 C-262.5299105 161.81613159 -254.61256539 156.56908683 -246.80029297 151.16162109 C-243.02856286 148.53005003 -239.3054789 145.83206858 -235.58203125 143.1328125 C-234.83630859 142.59301758 -234.09058594 142.05322266 -233.32226562 141.49707031 C-231.80983991 140.40215747 -230.29763303 139.3069423 -228.78564453 138.21142578 C-225.03308325 135.49383077 -221.27609706 132.78236777 -217.51953125 130.0703125 C-216.01950979 128.98700888 -214.51950979 127.90367554 -213.01953125 126.8203125 C-168.01953125 94.3203125 -123.01953125 61.8203125 -78.01953125 29.3203125 C-76.90505615 28.5152124 -76.90505615 28.5152124 -75.76806641 27.69384766 C-74.27346437 26.61468332 -72.77834989 25.53622831 -71.28271484 24.45849609 C-67.44553651 21.69208041 -63.61904291 18.91251831 -59.80859375 16.109375 C-42.97780005 3.76294071 -21.66255295 -10.96546928 0 0 Z " fill="#FEC701" transform="translate(284.51953125,53.4296875)"/>
<path d="M0 0 C6.30826023 3.99357577 12.42460815 8.20386088 18.48046875 12.5703125 C19.20331055 13.08835449 19.92615234 13.60639648 20.67089844 14.14013672 C25.19242396 17.38079665 29.69840504 20.64239764 34.19824219 23.91308594 C37.95340995 26.63988084 41.71732953 29.35453536 45.48046875 32.0703125 C46.98051168 33.15358639 48.48051166 34.23691976 49.98046875 35.3203125 C51.09421875 36.1246875 51.09421875 36.1246875 52.23046875 36.9453125 C130.98046874 93.8203125 130.98046874 93.8203125 133.23144531 95.44604492 C134.72815576 96.52698441 136.22490043 97.60787651 137.72167969 98.6887207 C141.52229512 101.4332879 145.32227173 104.17873216 149.12109375 106.92578125 C155.89587617 111.82376584 162.67304977 116.71775338 169.48046875 121.5703125 C178.6234049 128.08770746 187.71439461 134.67709222 196.8125 141.25683594 C198.35620531 142.37310351 199.90006808 143.48915336 201.4440918 144.60498047 C202.96178523 145.70212778 204.47888077 146.80010264 205.99536133 147.89892578 C209.42359703 150.37966294 212.85960881 152.84482082 216.3359375 155.2578125 C241.12137412 172.48699722 241.12137412 172.48699722 244.48046875 186.5703125 C246.12574384 198.95609129 245.73004206 210.98201915 238.4375 221.5234375 C229.77583624 230.80041071 221.60525301 236.5377566 208.72265625 237.8515625 C198.43525703 238.20326846 190.01099747 235.2182545 181.1953125 230.12109375 C177.73818667 228.14630389 174.1726542 226.446004 170.57421875 224.74609375 C168.4749312 223.56720279 167.16192903 222.26578494 165.48046875 220.5703125 C164.49046875 220.2403125 163.50046875 219.9103125 162.48046875 219.5703125 C162.48046875 218.9103125 162.48046875 218.2503125 162.48046875 217.5703125 C161.16046875 217.5703125 159.84046875 217.5703125 158.48046875 217.5703125 C158.48046875 216.9103125 158.48046875 216.2503125 158.48046875 215.5703125 C157.82046875 215.5703125 157.16046875 215.5703125 156.48046875 215.5703125 C156.48046875 214.9103125 156.48046875 214.2503125 156.48046875 213.5703125 C155.82046875 213.5703125 155.16046875 213.5703125 154.48046875 213.5703125 C154.48046875 212.9103125 154.48046875 212.2503125 154.48046875 211.5703125 C152.50046875 210.9103125 150.52046875 210.2503125 148.48046875 209.5703125 C148.48046875 208.9103125 148.48046875 208.2503125 148.48046875 207.5703125 C147.82046875 207.5703125 147.16046875 207.5703125 146.48046875 207.5703125 C146.48046875 206.9103125 146.48046875 206.2503125 146.48046875 205.5703125 C145.82046875 205.5703125 145.16046875 205.5703125 144.48046875 205.5703125 C144.48046875 204.9103125 144.48046875 204.2503125 144.48046875 203.5703125 C143.16046875 203.5703125 141.84046875 203.5703125 140.48046875 203.5703125 C140.48046875 202.9103125 140.48046875 202.2503125 140.48046875 201.5703125 C139.82046875 201.5703125 139.16046875 201.5703125 138.48046875 201.5703125 C138.48046875 200.9103125 138.48046875 200.2503125 138.48046875 199.5703125 C137.16046875 199.5703125 135.84046875 199.5703125 134.48046875 199.5703125 C134.48046875 198.9103125 134.48046875 198.2503125 134.48046875 197.5703125 C133.82046875 197.5703125 133.16046875 197.5703125 132.48046875 197.5703125 C132.48046875 196.9103125 132.48046875 196.2503125 132.48046875 195.5703125 C130.50046875 194.9103125 128.52046875 194.2503125 126.48046875 193.5703125 C126.48046875 192.9103125 126.48046875 192.2503125 126.48046875 191.5703125 C125.82046875 191.5703125 125.16046875 191.5703125 124.48046875 191.5703125 C124.48046875 190.9103125 124.48046875 190.2503125 124.48046875 189.5703125 C123.82046875 189.5703125 123.16046875 189.5703125 122.48046875 189.5703125 C122.48046875 188.9103125 122.48046875 188.2503125 122.48046875 187.5703125 C121.16046875 187.5703125 119.84046875 187.5703125 118.48046875 187.5703125 C118.48046875 186.9103125 118.48046875 186.2503125 118.48046875 185.5703125 C116.50046875 184.9103125 114.52046875 184.2503125 112.48046875 183.5703125 C112.48046875 182.9103125 112.48046875 182.2503125 112.48046875 181.5703125 C111.82046875 181.5703125 111.16046875 181.5703125 110.48046875 181.5703125 C110.48046875 180.9103125 110.48046875 180.2503125 110.48046875 179.5703125 C109.82046875 179.5703125 109.16046875 179.5703125 108.48046875 179.5703125 C108.48046875 178.9103125 108.48046875 178.2503125 108.48046875 177.5703125 C107.16046875 177.5703125 105.84046875 177.5703125 104.48046875 177.5703125 C104.48046875 176.9103125 104.48046875 176.2503125 104.48046875 175.5703125 C103.82046875 175.5703125 103.16046875 175.5703125 102.48046875 175.5703125 C102.48046875 174.9103125 102.48046875 174.2503125 102.48046875 173.5703125 C101.16046875 173.5703125 99.84046875 173.5703125 98.48046875 173.5703125 C98.48046875 172.9103125 98.48046875 172.2503125 98.48046875 171.5703125 C97.82046875 171.5703125 97.16046875 171.5703125 96.48046875 171.5703125 C96.48046875 170.9103125 96.48046875 170.2503125 96.48046875 169.5703125 C95.16046875 169.5703125 93.84046875 169.5703125 92.48046875 169.5703125 C92.48046875 168.9103125 92.48046875 168.2503125 92.48046875 167.5703125 C91.82046875 167.5703125 91.16046875 167.5703125 90.48046875 167.5703125 C90.48046875 166.9103125 90.48046875 166.2503125 90.48046875 165.5703125 C89.82046875 165.5703125 89.16046875 165.5703125 88.48046875 165.5703125 C88.48046875 164.9103125 88.48046875 164.2503125 88.48046875 163.5703125 C87.16046875 163.5703125 85.84046875 163.5703125 84.48046875 163.5703125 C84.48046875 162.9103125 84.48046875 162.2503125 84.48046875 161.5703125 C83.82046875 161.5703125 83.16046875 161.5703125 82.48046875 161.5703125 C82.48046875 160.9103125 82.48046875 160.2503125 82.48046875 159.5703125 C80.50046875 158.9103125 78.52046875 158.2503125 76.48046875 157.5703125 C76.48046875 156.9103125 76.48046875 156.2503125 76.48046875 155.5703125 C75.82046875 155.5703125 75.16046875 155.5703125 74.48046875 155.5703125 C74.48046875 154.9103125 74.48046875 154.2503125 74.48046875 153.5703125 C72.50046875 152.9103125 70.52046875 152.2503125 68.48046875 151.5703125 C68.48046875 150.9103125 68.48046875 150.2503125 68.48046875 149.5703125 C66.50046875 148.9103125 64.52046875 148.2503125 62.48046875 147.5703125 C62.48046875 146.2503125 62.48046875 144.9303125 62.48046875 143.5703125 C61.16046875 143.5703125 59.84046875 143.5703125 58.48046875 143.5703125 C58.48046875 142.9103125 58.48046875 142.2503125 58.48046875 141.5703125 C57.82046875 141.5703125 57.16046875 141.5703125 56.48046875 141.5703125 C56.48046875 140.9103125 56.48046875 140.2503125 56.48046875 139.5703125 C54.83046875 139.2403125 53.18046875 138.9103125 51.48046875 138.5703125 C51.15046875 137.5803125 50.82046875 136.5903125 50.48046875 135.5703125 C49.16046875 135.5703125 47.84046875 135.5703125 46.48046875 135.5703125 C46.48046875 134.9103125 46.48046875 134.2503125 46.48046875 133.5703125 C44.50046875 132.9103125 42.52046875 132.2503125 40.48046875 131.5703125 C40.48046875 130.9103125 40.48046875 130.2503125 40.48046875 129.5703125 C39.82046875 129.5703125 39.16046875 129.5703125 38.48046875 129.5703125 C38.48046875 128.9103125 38.48046875 128.2503125 38.48046875 127.5703125 C37.16046875 127.5703125 35.84046875 127.5703125 34.48046875 127.5703125 C34.48046875 126.9103125 34.48046875 126.2503125 34.48046875 125.5703125 C33.82046875 125.5703125 33.16046875 125.5703125 32.48046875 125.5703125 C32.48046875 124.9103125 32.48046875 124.2503125 32.48046875 123.5703125 C30.50046875 122.9103125 28.52046875 122.2503125 26.48046875 121.5703125 C26.48046875 120.9103125 26.48046875 120.2503125 26.48046875 119.5703125 C25.82046875 119.5703125 25.16046875 119.5703125 24.48046875 119.5703125 C24.48046875 118.9103125 24.48046875 118.2503125 24.48046875 117.5703125 C22.50046875 116.9103125 20.52046875 116.2503125 18.48046875 115.5703125 C18.48046875 114.9103125 18.48046875 114.2503125 18.48046875 113.5703125 C17.16046875 112.9103125 15.84046875 112.2503125 14.48046875 111.5703125 C14.48046875 110.9103125 14.48046875 110.2503125 14.48046875 109.5703125 C13.16046875 109.5703125 11.84046875 109.5703125 10.48046875 109.5703125 C10.48046875 108.9103125 10.48046875 108.2503125 10.48046875 107.5703125 C9.16046875 107.5703125 7.84046875 107.5703125 6.48046875 107.5703125 C6.48046875 106.9103125 6.48046875 106.2503125 6.48046875 105.5703125 C5.82046875 105.5703125 5.16046875 105.5703125 4.48046875 105.5703125 C4.48046875 104.9103125 4.48046875 104.2503125 4.48046875 103.5703125 C3.16046875 102.9103125 1.84046875 102.2503125 0.48046875 101.5703125 C0.48046875 100.9103125 0.48046875 100.2503125 0.48046875 99.5703125 C-0.83953125 99.5703125 -2.15953125 99.5703125 -3.51953125 99.5703125 C-3.51953125 98.9103125 -3.51953125 98.2503125 -3.51953125 97.5703125 C-5.49953125 96.9103125 -7.47953125 96.2503125 -9.51953125 95.5703125 C-9.51953125 94.9103125 -9.51953125 94.2503125 -9.51953125 93.5703125 C-10.17953125 93.5703125 -10.83953125 93.5703125 -11.51953125 93.5703125 C-11.51953125 92.9103125 -11.51953125 92.2503125 -11.51953125 91.5703125 C-12.83953125 91.5703125 -14.15953125 91.5703125 -15.51953125 91.5703125 C-16.17953125 90.5803125 -16.83953125 89.5903125 -17.51953125 88.5703125 C-20.9066145 89.63482438 -22.56002512 90.61179403 -25.08203125 93.1953125 C-27.51953125 95.5703125 -27.51953125 95.5703125 -31.51953125 95.5703125 C-31.51953125 96.2303125 -31.51953125 96.8903125 -31.51953125 97.5703125 C-34.51953125 99.5703125 -34.51953125 99.5703125 -37.51953125 99.5703125 C-37.51953125 100.2303125 -37.51953125 100.8903125 -37.51953125 101.5703125 C-38.17953125 101.5703125 -38.83953125 101.5703125 -39.51953125 101.5703125 C-39.51953125 102.2303125 -39.51953125 102.8903125 -39.51953125 103.5703125 C-40.17953125 103.5703125 -40.83953125 103.5703125 -41.51953125 103.5703125 C-41.51953125 104.2303125 -41.51953125 104.8903125 -41.51953125 105.5703125 C-42.17953125 105.5703125 -42.83953125 105.5703125 -43.51953125 105.5703125 C-43.51953125 106.2303125 -43.51953125 106.8903125 -43.51953125 107.5703125 C-46.42553386 108.82696228 -48.31557709 109.5703125 -51.51953125 109.5703125 C-51.51953125 110.2303125 -51.51953125 110.8903125 -51.51953125 111.5703125 C-52.17953125 111.5703125 -52.83953125 111.5703125 -53.51953125 111.5703125 C-53.51953125 112.2303125 -53.51953125 112.8903125 -53.51953125 113.5703125 C-54.17953125 113.5703125 -54.83953125 113.5703125 -55.51953125 113.5703125 C-55.51953125 114.2303125 -55.51953125 114.8903125 -55.51953125 115.5703125 C-56.83953125 115.5703125 -58.15953125 115.5703125 -59.51953125 115.5703125 C-59.51953125 116.2303125 -59.51953125 116.8903125 -59.51953125 117.5703125 C-62.51953125 119.5703125 -62.51953125 119.5703125 -65.51953125 119.5703125 C-65.84953125 120.5603125 -66.17953125 121.5503125 -66.51953125 122.5703125 C-68.83203125 125.2578125 -68.83203125 125.2578125 -71.51953125 127.5703125 C-72.83953125 127.5703125 -74.15953125 127.5703125 -75.51953125 127.5703125 C-75.51953125 128.2303125 -75.51953125 128.8903125 -75.51953125 129.5703125 C-76.17953125 129.5703125 -76.83953125 129.5703125 -77.51953125 129.5703125 C-77.51953125 130.2303125 -77.51953125 130.8903125 -77.51953125 131.5703125 C-78.83953125 131.5703125 -80.15953125 131.5703125 -81.51953125 131.5703125 C-81.51953125 132.2303125 -81.51953125 132.8903125 -81.51953125 133.5703125 C-84.22996832 136.78268237 -86.63922569 138.10208878 -90.51953125 139.5703125 C-90.84953125 140.2303125 -91.17953125 140.8903125 -91.51953125 141.5703125 C-92.83953125 141.5703125 -94.15953125 141.5703125 -95.51953125 141.5703125 C-95.51953125 142.2303125 -95.51953125 142.8903125 -95.51953125 143.5703125 C-96.17953125 143.5703125 -96.83953125 143.5703125 -97.51953125 143.5703125 C-97.51953125 144.2303125 -97.51953125 144.8903125 -97.51953125 145.5703125 C-98.17953125 145.5703125 -98.83953125 145.5703125 -99.51953125 145.5703125 C-99.51953125 146.2303125 -99.51953125 146.8903125 -99.51953125 147.5703125 C-100.83953125 147.5703125 -102.15953125 147.5703125 -103.51953125 147.5703125 C-103.51953125 148.2303125 -103.51953125 148.8903125 -103.51953125 149.5703125 C-104.83953125 149.5703125 -106.15953125 149.5703125 -107.51953125 149.5703125 C-107.51953125 150.8903125 -107.51953125 152.2103125 -107.51953125 153.5703125 C-110.42553386 154.82696228 -112.31557709 155.5703125 -115.51953125 155.5703125 C-115.51953125 156.2303125 -115.51953125 156.8903125 -115.51953125 157.5703125 C-116.17953125 157.5703125 -116.83953125 157.5703125 -117.51953125 157.5703125 C-117.51953125 158.2303125 -117.51953125 158.8903125 -117.51953125 159.5703125 C-118.17953125 159.5703125 -118.83953125 159.5703125 -119.51953125 159.5703125 C-119.51953125 160.2303125 -119.51953125 160.8903125 -119.51953125 161.5703125 C-120.17953125 161.5703125 -120.83953125 161.5703125 -121.51953125 161.5703125 C-121.51953125 162.2303125 -121.51953125 162.8903125 -121.51953125 163.5703125 C-122.72609375 164.0034375 -122.72609375 164.0034375 -123.95703125 164.4453125 C-126.65217805 165.30293818 -126.65217805 165.30293818 -127.51953125 167.5703125 C-129.49842086 168.29725154 -131.49907683 168.96847501 -133.51953125 169.5703125 C-133.51953125 170.2303125 -133.51953125 170.8903125 -133.51953125 171.5703125 C-134.17953125 171.5703125 -134.83953125 171.5703125 -135.51953125 171.5703125 C-135.51953125 172.2303125 -135.51953125 172.8903125 -135.51953125 173.5703125 C-136.72609375 174.0034375 -136.72609375 174.0034375 -137.95703125 174.4453125 C-140.65217805 175.30293818 -140.65217805 175.30293818 -141.51953125 177.5703125 C-142.83953125 177.5703125 -144.15953125 177.5703125 -145.51953125 177.5703125 C-145.51953125 178.2303125 -145.51953125 178.8903125 -145.51953125 179.5703125 C-149.21798054 183.98000204 -153.88137545 186.48605177 -159.51953125 187.5703125 C-159.51953125 188.2303125 -159.51953125 188.8903125 -159.51953125 189.5703125 C-160.17953125 189.5703125 -160.83953125 189.5703125 -161.51953125 189.5703125 C-161.51953125 190.2303125 -161.51953125 190.8903125 -161.51953125 191.5703125 C-162.17953125 191.5703125 -162.83953125 191.5703125 -163.51953125 191.5703125 C-163.51953125 192.2303125 -163.51953125 192.8903125 -163.51953125 193.5703125 C-164.83953125 193.5703125 -166.15953125 193.5703125 -167.51953125 193.5703125 C-167.51953125 194.2303125 -167.51953125 194.8903125 -167.51953125 195.5703125 C-168.17953125 195.5703125 -168.83953125 195.5703125 -169.51953125 195.5703125 C-169.51953125 196.2303125 -169.51953125 196.8903125 -169.51953125 197.5703125 C-170.83953125 197.5703125 -172.15953125 197.5703125 -173.51953125 197.5703125 C-173.84953125 198.5603125 -174.17953125 199.5503125 -174.51953125 200.5703125 C-175.83203125 202.2578125 -175.83203125 202.2578125 -177.51953125 203.5703125 C-178.83953125 203.5703125 -180.15953125 203.5703125 -181.51953125 203.5703125 C-181.51953125 204.2303125 -181.51953125 204.8903125 -181.51953125 205.5703125 C-183.26953125 207.6953125 -183.26953125 207.6953125 -185.51953125 209.5703125 C-186.83953125 209.5703125 -188.15953125 209.5703125 -189.51953125 209.5703125 C-189.51953125 210.2303125 -189.51953125 210.8903125 -189.51953125 211.5703125 C-192.51953125 213.5703125 -192.51953125 213.5703125 -195.51953125 213.5703125 C-195.51953125 214.2303125 -195.51953125 214.8903125 -195.51953125 215.5703125 C-196.17953125 215.5703125 -196.83953125 215.5703125 -197.51953125 215.5703125 C-197.51953125 216.2303125 -197.51953125 216.8903125 -197.51953125 217.5703125 C-198.17953125 217.5703125 -198.83953125 217.5703125 -199.51953125 217.5703125 C-199.51953125 218.2303125 -199.51953125 218.8903125 -199.51953125 219.5703125 C-200.83953125 219.5703125 -202.15953125 219.5703125 -203.51953125 219.5703125 C-203.51953125 220.2303125 -203.51953125 220.8903125 -203.51953125 221.5703125 C-206.51953125 223.5703125 -206.51953125 223.5703125 -209.51953125 223.5703125 C-210.62789548 225.45347409 -210.62789548 225.45347409 -211.51953125 227.5703125 C-211.18953125 228.2303125 -210.85953125 228.8903125 -210.51953125 229.5703125 C-211.35484375 229.71726562 -211.35484375 229.71726562 -212.20703125 229.8671875 C-216.30246139 230.66967043 -219.88602116 231.60106657 -223.58203125 233.5703125 C-233.31420049 238.69451949 -243.70467747 238.86651394 -254.20703125 236.0078125 C-260.34697094 233.91715203 -264.8516375 231.03684612 -269.51953125 226.5703125 C-270.15632813 225.961875 -270.793125 225.3534375 -271.44921875 224.7265625 C-277.38548196 218.51004652 -281.93965975 210.26838496 -282.51953125 201.5703125 C-282.62265625 200.3946875 -282.72578125 199.2190625 -282.83203125 198.0078125 C-282.6111373 186.45505905 -277.20081787 176.57197243 -269.44140625 168.375 C-262.5299105 161.81613159 -254.61256539 156.56908683 -246.80029297 151.16162109 C-243.02856286 148.53005003 -239.3054789 145.83206858 -235.58203125 143.1328125 C-234.83630859 142.59301758 -234.09058594 142.05322266 -233.32226562 141.49707031 C-231.80983991 140.40215747 -230.29763303 139.3069423 -228.78564453 138.21142578 C-225.03308325 135.49383077 -221.27609706 132.78236777 -217.51953125 130.0703125 C-216.01950979 128.98700888 -214.51950979 127.90367554 -213.01953125 126.8203125 C-168.01953125 94.3203125 -123.01953125 61.8203125 -78.01953125 29.3203125 C-76.90505615 28.5152124 -76.90505615 28.5152124 -75.76806641 27.69384766 C-74.27346437 26.61468332 -72.77834989 25.53622831 -71.28271484 24.45849609 C-67.44553651 21.69208041 -63.61904291 18.91251831 -59.80859375 16.109375 C-42.97780005 3.76294071 -21.66255295 -10.96546928 0 0 Z " fill="#FE4B4A" transform="translate(284.51953125,53.4296875)"/>
<path d="M0 0 C5.96013401 4.30791999 10.27493509 9.51215126 14.609375 15.41015625 C15.33125 16.33828125 16.053125 17.26640625 16.796875 18.22265625 C25.34918477 33.26292516 26.86855482 50.4230997 23.92578125 67.33984375 C23.01572234 70.18708201 21.95857865 72.74526954 20.609375 75.41015625 C20.17367187 76.333125 19.73796875 77.25609375 19.2890625 78.20703125 C10.74938899 95.09971874 -2.82770192 105.63971093 -20.55078125 111.8515625 C-34.94270024 116.22108355 -52.16410679 113.56378177 -65.578125 107.41015625 C-80.93238982 99.17721335 -92.45986783 85.3324154 -98 68.85546875 C-99.70992147 62.97257649 -99.92760816 57.32066395 -99.890625 51.22265625 C-99.88490479 50.12421387 -99.87918457 49.02577148 -99.87329102 47.89404297 C-99.57459914 34.23467254 -95.5300981 23.44610852 -87.390625 12.41015625 C-86.94203125 11.77851563 -86.4934375 11.146875 -86.03125 10.49609375 C-65.02187253 -16.56892781 -26.80151294 -17.82388197 0 0 Z " fill="#944F4F" transform="translate(300.390625,239.58984375)"/>
<path d="M0 0 C0.82873123 -0.00540298 1.65746246 -0.01080597 2.51130676 -0.01637268 C5.2265797 -0.02878999 7.94077777 -0.01241759 10.65600586 0.00561523 C12.55594437 0.0054601 14.4558832 0.00396869 16.3558197 0.00120544 C20.32752563 -0.00017536 24.29886905 0.01232733 28.27050781 0.03515625 C33.35015881 0.06355921 38.42920885 0.06079397 43.50890446 0.04806614 C47.4286763 0.04109745 51.34831027 0.04891152 55.2680645 0.06132317 C57.14067493 0.06582473 59.01330022 0.06618584 60.88591194 0.06225777 C63.50627913 0.05933335 66.12582998 0.0759102 68.74609375 0.09765625 C69.51252197 0.0931546 70.2789502 0.08865295 71.06860352 0.08401489 C76.1951754 0.1543742 79.70758466 1.22787464 84.30834961 3.50170898 C85.06631836 3.82655273 85.82428711 4.15139648 86.60522461 4.48608398 C90.0039952 6.51287379 91.24455401 9.87832398 92.30834961 13.50170898 C93.7779339 25.46061969 93.7779339 25.46061969 90.05834961 30.62670898 C89.15084961 31.24545898 88.24334961 31.86420898 87.30834961 32.50170898 C86.62772461 33.22358398 85.94709961 33.94545898 85.24584961 34.68920898 C80.85657426 38.79530528 76.72004719 38.79886057 70.90307617 38.79223633 C70.0570282 38.79895355 69.21098022 38.80567078 68.33929443 38.81259155 C65.54246137 38.83158748 62.74586818 38.83549689 59.94897461 38.83764648 C58.00087384 38.84407452 56.05277404 38.85080288 54.10467529 38.8578186 C50.01922367 38.86979622 45.93385662 38.87349905 41.84838867 38.87231445 C36.62519342 38.87211152 31.4025438 38.89938546 26.17947769 38.93385887 C22.15417006 38.95615153 18.1289931 38.96015123 14.10363007 38.959095 C12.17879104 38.96144848 10.25394827 38.97025768 8.32917023 38.98575974 C5.62946482 39.00546269 2.93092734 38.99956447 0.23120117 38.98754883 C-0.95052673 39.00440735 -0.95052673 39.00440735 -2.15612793 39.02160645 C-8.47917683 38.9504698 -13.95403702 37.2044483 -18.53149414 32.68530273 C-19.07483398 31.82098633 -19.07483398 31.82098633 -19.62915039 30.93920898 C-20.00942383 30.36041992 -20.38969727 29.78163086 -20.78149414 29.18530273 C-23.4384476 24.270509 -23.27324274 18.93242194 -22.69165039 13.50170898 C-21.62893578 10.79619537 -20.39163848 8.89231724 -18.69165039 6.50170898 C-18.03165039 6.50170898 -17.37165039 6.50170898 -16.69165039 6.50170898 C-16.69165039 5.84170898 -16.69165039 5.18170898 -16.69165039 4.50170898 C-10.83960411 1.16894895 -6.68813221 -0.08458963 0 0 Z " fill="#C98C39" transform="translate(234.691650390625,393.498291015625)"/>
<path d="M0 0 C1.32 0.66 2.64 1.32 4 2 C4 2.66 4 3.32 4 4 C5.32 4 6.64 4 8 4 C8 4.66 8 5.32 8 6 C8.66 6 9.32 6 10 6 C10 6.66 10 7.32 10 8 C10.61875 8.144375 11.2375 8.28875 11.875 8.4375 C14 9 14 9 16 10 C16 10.66 16 11.32 16 12 C17.32 12 18.64 12 20 12 C22.25 13.875 22.25 13.875 24 16 C24 16.66 24 17.32 24 18 C24.66 18 25.32 18 26 18 C26 18.66 26 19.32 26 20 C27.32 20 28.64 20 30 20 C30 20.66 30 21.32 30 22 C31.32 22 32.64 22 34 22 C34.66 23.32 35.32 24.64 36 26 C34.68 26 33.36 26 32 26 C32 26.66 32 27.32 32 28 C31.34 28 30.68 28 30 28 C30 27.34 30 26.68 30 26 C28.02 26 26.04 26 24 26 C23.505 24.02 23.505 24.02 23 22 C22.01 22 21.02 22 20 22 C20 21.34 20 20.68 20 20 C19.34 20 18.68 20 18 20 C18 19.34 18 18.68 18 18 C17.34 18 16.68 18 16 18 C16 17.34 16 16.68 16 16 C15.34 16 14.68 16 14 16 C14 15.34 14 14.68 14 14 C13.34 14 12.68 14 12 14 C12 13.34 12 12.68 12 12 C11.34 12 10.68 12 10 12 C9.67 11.01 9.34 10.02 9 9 C8.01 8.67 7.02 8.34 6 8 C6 8.66 6 9.32 6 10 C4.68 10 3.36 10 2 10 C2 10.66 2 11.32 2 12 C2.66 12 3.32 12 4 12 C4 12.66 4 13.32 4 14 C3.34 14 2.68 14 2 14 C2 14.66 2 15.32 2 16 C1.34 16 0.68 16 0 16 C0 15.34 0 14.68 0 14 C-1.32 14 -2.64 14 -4 14 C-4 12.68 -4 11.36 -4 10 C-5.32 10 -6.64 10 -8 10 C-8 10.66 -8 11.32 -8 12 C-8.66 12 -9.32 12 -10 12 C-10 11.34 -10 10.68 -10 10 C-10.66 10 -11.32 10 -12 10 C-12 9.34 -12 8.68 -12 8 C-10.13671875 6.5625 -10.13671875 6.5625 -7.6875 5 C-6.88699219 4.484375 -6.08648437 3.96875 -5.26171875 3.4375 C-4.51535156 2.963125 -3.76898438 2.48875 -3 2 C-2.01 1.34 -1.02 0.68 0 0 Z " fill="#FCC40D" transform="translate(265,141)"/>
<path d="M0 0 C0.33 0.66 0.66 1.32 1 2 C0.34 2 -0.32 2 -1 2 C-1 2.66 -1 3.32 -1 4 C0.32 4 1.64 4 3 4 C3 4.66 3 5.32 3 6 C2.34 6 1.68 6 1 6 C1 6.66 1 7.32 1 8 C0.34 8 -0.32 8 -1 8 C-1 9.32 -1 10.64 -1 12 C-0.34 12 0.32 12 1 12 C1 12.66 1 13.32 1 14 C-0.32 14 -1.64 14 -3 14 C-3 13.34 -3 12.68 -3 12 C-3.66 12 -4.32 12 -5 12 C-5 12.66 -5 13.32 -5 14 C-5.66 14 -6.32 14 -7 14 C-7 14.66 -7 15.32 -7 16 C-8.32 16 -9.64 16 -11 16 C-11 15.34 -11 14.68 -11 14 C-12.32 14 -13.64 14 -15 14 C-15 14.66 -15 15.32 -15 16 C-15.66 16 -16.32 16 -17 16 C-17 14.68 -17 13.36 -17 12 C-16.34 12 -15.68 12 -15 12 C-15 11.34 -15 10.68 -15 10 C-13.68 10 -12.36 10 -11 10 C-11 9.34 -11 8.68 -11 8 C-10.34 8 -9.68 8 -9 8 C-9 7.34 -9 6.68 -9 6 C-8.34 6 -7.68 6 -7 6 C-7 5.34 -7 4.68 -7 4 C-4.69 2.68 -2.38 1.36 0 0 Z " fill="#FDC50E" transform="translate(132,237)"/>
<path d="M0 0 C1.32 0 2.64 0 4 0 C4 1.98 4 3.96 4 6 C2.68 6 1.36 6 0 6 C0 7.32 0 8.64 0 10 C-0.66 10 -1.32 10 -2 10 C-2 10.66 -2 11.32 -2 12 C-2.66 12 -3.32 12 -4 12 C-4 11.34 -4 10.68 -4 10 C-5.32 10 -6.64 10 -8 10 C-8 10.66 -8 11.32 -8 12 C-10.64 12 -13.28 12 -16 12 C-16 11.34 -16 10.68 -16 10 C-14.68 10 -13.36 10 -12 10 C-12 9.34 -12 8.68 -12 8 C-11.34 8 -10.68 8 -10 8 C-10 7.34 -10 6.68 -10 6 C-9.34 6 -8.68 6 -8 6 C-8 5.34 -8 4.68 -8 4 C-4.91190305 2.23537317 -3.76687864 2 0 2 C0 1.34 0 0.68 0 0 Z " fill="#FCC803" transform="translate(241,159)"/>
<path d="M0 0 C0.53625 0.226875 1.0725 0.45375 1.625 0.6875 C1.625 2.0075 1.625 3.3275 1.625 4.6875 C2.285 4.6875 2.945 4.6875 3.625 4.6875 C3.625 5.3475 3.625 6.0075 3.625 6.6875 C2.965 6.6875 2.305 6.6875 1.625 6.6875 C1.625 7.3475 1.625 8.0075 1.625 8.6875 C2.285 8.6875 2.945 8.6875 3.625 8.6875 C3.625 9.3475 3.625 10.0075 3.625 10.6875 C2.965 10.6875 2.305 10.6875 1.625 10.6875 C1.625 11.3475 1.625 12.0075 1.625 12.6875 C0.965 12.6875 0.305 12.6875 -0.375 12.6875 C-0.375 12.0275 -0.375 11.3675 -0.375 10.6875 C-1.035 10.6875 -1.695 10.6875 -2.375 10.6875 C-2.375 10.0275 -2.375 9.3675 -2.375 8.6875 C-4.025 9.3475 -5.675 10.0075 -7.375 10.6875 C-8.35108217 7.75925348 -8.45726668 5.73136724 -8.375 2.6875 C-2.95961538 -0.38942308 -2.95961538 -0.38942308 0 0 Z " fill="#FCC61A" transform="translate(83.375,274.3125)"/>
<path d="M0 0 C0.99 0 1.98 0 3 0 C3 0.66 3 1.32 3 2 C3.66 2 4.32 2 5 2 C5 1.34 5 0.68 5 0 C5.66 0 6.32 0 7 0 C7.66 1.32 8.32 2.64 9 4 C8.34 4 7.68 4 7 4 C7 4.66 7 5.32 7 6 C7.66 6 8.32 6 9 6 C9 6.66 9 7.32 9 8 C9.66 8 10.32 8 11 8 C11 8.66 11 9.32 11 10 C11.66 10 12.32 10 13 10 C13.66 11.32 14.32 12.64 15 14 C15.66 14 16.32 14 17 14 C17 13.34 17 12.68 17 12 C18.32 12 19.64 12 21 12 C21 11.34 21 10.68 21 10 C21.66 10 22.32 10 23 10 C23 11.32 23 12.64 23 14 C21.68 14 20.36 14 19 14 C19 17.63 19 21.26 19 25 C17 23 17 23 15.75 20.375 C13.27942445 15.61031857 10.20787296 11.11076744 6.3125 7.38671875 C5 6 5 6 5 4 C4.360625 3.71125 3.72125 3.4225 3.0625 3.125 C1 2 1 2 0 0 Z " fill="#F0B733" transform="translate(302,241)"/>
<path d="M0 0 C1.32 0 2.64 0 4 0 C4 0.66 4 1.32 4 2 C5.32 2.33 6.64 2.66 8 3 C6.68 3.33 5.36 3.66 4 4 C4 4.66 4 5.32 4 6 C3.34 6 2.68 6 2 6 C2 7.98 2 9.96 2 12 C2.66 12 3.32 12 4 12 C4 12.66 4 13.32 4 14 C2.68 14 1.36 14 0 14 C0 12.02 0 10.04 0 8 C-0.66 8 -1.32 8 -2 8 C-2 6.02 -2 4.04 -2 2 C-1.34 2 -0.68 2 0 2 C0 1.34 0 0.68 0 0 Z " fill="#FCC611" transform="translate(443,271)"/>
<path d="M0 0 C2.64 0 5.28 0 8 0 C8 0.66 8 1.32 8 2 C9.32 2 10.64 2 12 2 C12 2.66 12 3.32 12 4 C12.66 4 13.32 4 14 4 C14 4.66 14 5.32 14 6 C13.01 6 12.02 6 11 6 C11 6.66 11 7.32 11 8 C8.69 8 6.38 8 4 8 C4 7.34 4 6.68 4 6 C4.66 6 5.32 6 6 6 C6 5.34 6 4.68 6 4 C5.34 4 4.68 4 4 4 C4 3.34 4 2.68 4 2 C2.68 2 1.36 2 0 2 C0 1.34 0 0.68 0 0 Z " fill="#FBC210" transform="translate(395,239)"/>
<path d="M0 0 C0.33 0.66 0.66 1.32 1 2 C0.34 2 -0.32 2 -1 2 C-1 3.32 -1 4.64 -1 6 C-2.32 6 -3.64 6 -5 6 C-5 6.66 -5 7.32 -5 8 C-3.02 7.67 -1.04 7.34 1 7 C1 7.99 1 8.98 1 10 C-0.98 10 -2.96 10 -5 10 C-5 10.66 -5 11.32 -5 12 C-5.66 12 -6.32 12 -7 12 C-7 11.34 -7 10.68 -7 10 C-8.32 10 -9.64 10 -11 10 C-11 9.34 -11 8.68 -11 8 C-10.34 8 -9.68 8 -9 8 C-9 7.34 -9 6.68 -9 6 C-8.34 6 -7.68 6 -7 6 C-7 5.34 -7 4.68 -7 4 C-5.68 4 -4.36 4 -3 4 C-2.67 3.01 -2.34 2.02 -2 1 C-1.34 0.67 -0.68 0.34 0 0 Z " fill="#FDC115" transform="translate(196,191)"/>
<path d="M0 0 C4 0 4 0 7 1 C6.67 2.32 6.34 3.64 6 5 C5.34257812 4.93941406 4.68515625 4.87882813 4.0078125 4.81640625 C-5.31741542 3.99507859 -14.65273392 3.48813501 -24 3 C-24 2.67 -24 2.34 -24 2 C-16.08 2 -8.16 2 0 2 C0 1.34 0 0.68 0 0 Z " fill="#F7BE30" transform="translate(277,225)"/>
<path d="M0 0 C1.32 0 2.64 0 4 0 C4 0.66 4 1.32 4 2 C5.32 2 6.64 2 8 2 C8 3.65 8 5.3 8 7 C2.58609132 6.53328373 -1.20517932 5.75702189 -6 3 C-5.38125 2.87625 -4.7625 2.7525 -4.125 2.625 C-1.80879168 2.12802644 -1.80879168 2.12802644 0 0 Z " fill="#995544" transform="translate(239,343)"/>
<path d="M0 0 C0.804375 1.11375 0.804375 1.11375 1.625 2.25 C4.15264739 5.17674961 6.71827368 6.98621339 10 9 C8.68 9.33 7.36 9.66 6 10 C6 9.34 6 8.68 6 8 C5.34 8 4.68 8 4 8 C4 8.66 4 9.32 4 10 C2.68 10 1.36 10 0 10 C0 9.34 0 8.68 0 8 C-0.66 8 -1.32 8 -2 8 C-2 6.02 -2 4.04 -2 2 C-1.34 2 -0.68 2 0 2 C0 1.34 0 0.68 0 0 Z " fill="#FDC518" transform="translate(213,421)"/>
<path d="M0 0 C0.66 0.33 1.32 0.66 2 1 C1.01 2.485 1.01 2.485 0 4 C0.33 4.99 0.66 5.98 1 7 C-0.32 7 -1.64 7 -3 7 C-3 7.66 -3 8.32 -3 9 C-5.64 9 -8.28 9 -11 9 C-11 8.34 -11 7.68 -11 7 C-9.68 7 -8.36 7 -7 7 C-7 6.34 -7 5.68 -7 5 C-6.34 5 -5.68 5 -5 5 C-5 4.34 -5 3.68 -5 3 C-4.34 3 -3.68 3 -3 3 C-3 2.34 -3 1.68 -3 1 C-2.01 0.67 -1.02 0.34 0 0 Z " fill="#FAC315" transform="translate(236,162)"/>
<path d="M0 0 C0.66 0 1.32 0 2 0 C2 0.66 2 1.32 2 2 C4.64 2 7.28 2 10 2 C5.67612562 5.65866294 1.65076098 7 -4 7 C-4 5.35 -4 3.7 -4 2 C-3.01 2 -2.02 2 -1 2 C-0.67 1.34 -0.34 0.68 0 0 Z " fill="#985443" transform="translate(283,343)"/>
<path d="M0 0 C0 0.66 0 1.32 0 2 C-0.66 2 -1.32 2 -2 2 C-2 2.66 -2 3.32 -2 4 C-2.66 4 -3.32 4 -4 4 C-4 4.66 -4 5.32 -4 6 C-3.34 6 -2.68 6 -2 6 C-2 7.32 -2 8.64 -2 10 C-1.34 10 -0.68 10 0 10 C0 10.66 0 11.32 0 12 C-1.32 12 -2.64 12 -4 12 C-4 11.34 -4 10.68 -4 10 C-5.32 10 -6.64 10 -8 10 C-8 9.34 -8 8.68 -8 8 C-7.34 8 -6.68 8 -6 8 C-6 7.34 -6 6.68 -6 6 C-6.66 6 -7.32 6 -8 6 C-8 5.34 -8 4.68 -8 4 C-7.34 4 -6.68 4 -6 4 C-6 3.34 -6 2.68 -6 2 C-2.25 0 -2.25 0 0 0 Z " fill="#FCBC19" transform="translate(175,207)"/>
<path d="M0 0 C0.33 0.66 0.66 1.32 1 2 C0.34 2 -0.32 2 -1 2 C-1 2.66 -1 3.32 -1 4 C-1.66 4 -2.32 4 -3 4 C-3 4.66 -3 5.32 -3 6 C-2.195625 5.814375 -1.39125 5.62875 -0.5625 5.4375 C0.7059375 5.2209375 0.7059375 5.2209375 2 5 C3 6 3 6 3.09765625 7.84765625 C3.04882812 10.92382812 3.04882812 10.92382812 3 14 C1.68 14 0.36 14 -1 14 C-1 13.34 -1 12.68 -1 12 C-0.34 12 0.32 12 1 12 C1 11.34 1 10.68 1 10 C0.34 10 -0.32 10 -1 10 C-1.33 9.34 -1.66 8.68 -2 8 C-2.99 8 -3.98 8 -5 8 C-4.64950425 4.75791433 -4.43778819 3.38472296 -1.9375 1.1875 C-1.298125 0.795625 -0.65875 0.40375 0 0 Z " fill="#FFC613" transform="translate(218,175)"/>
<path d="M0 0 C0.66 0 1.32 0 2 0 C2 1.32 2 2.64 2 4 C0.68 4 -0.64 4 -2 4 C-2 7.63 -2 11.26 -2 15 C-4.26969744 12.73030256 -4.99131829 11.02604513 -6 8 C-6 6.68 -6 5.36 -6 4 C-5.34 4 -4.68 4 -4 4 C-4 3.34 -4 2.68 -4 2 C-2.68 2 -1.36 2 0 2 C0 1.34 0 0.68 0 0 Z " fill="#FBC41C" transform="translate(323,251)"/>
<path d="M0 0 C3.3 0 6.6 0 10 0 C10 0.66 10 1.32 10 2 C10.66 2 11.32 2 12 2 C12 2.66 12 3.32 12 4 C10.02 4 8.04 4 6 4 C6 4.66 6 5.32 6 6 C5.34 6 4.68 6 4 6 C4 5.34 4 4.68 4 4 C3.34 4 2.68 4 2 4 C2 3.34 2 2.68 2 2 C1.34 2 0.68 2 0 2 C0 1.34 0 0.68 0 0 Z " fill="#FCC50F" transform="translate(363,217)"/>
<path d="M0 0 C-0.33 1.32 -0.66 2.64 -1 4 C-2.32 4 -3.64 4 -5 4 C-5 5.32 -5 6.64 -5 8 C-6.32 8 -7.64 8 -9 8 C-9 7.34 -9 6.68 -9 6 C-9.66 6 -10.32 6 -11 6 C-11 5.34 -11 4.68 -11 4 C-9.68 4 -8.36 4 -7 4 C-7 3.34 -7 2.68 -7 2 C-4 0 -4 0 0 0 Z " fill="#FB5845" transform="translate(182,199)"/>
<path d="M0 0 C0.66 0 1.32 0 2 0 C2 0.66 2 1.32 2 2 C3.32 2 4.64 2 6 2 C6 2.66 6 3.32 6 4 C6.66 4 7.32 4 8 4 C7.49396008 6.16874252 7.00016187 7.99967627 6 10 C5.34 10 4.68 10 4 10 C3.34 8.02 2.68 6.04 2 4 C1.34 4 0.68 4 0 4 C0 2.68 0 1.36 0 0 Z " fill="#FBC015" transform="translate(423,255)"/>
<path d="M0 0 C0.66 0 1.32 0 2 0 C2 0.66 2 1.32 2 2 C3.32 2 4.64 2 6 2 C6 2.66 6 3.32 6 4 C7.32 4.33 8.64 4.66 10 5 C9.01 6.98 8.02 8.96 7 11 C6.67 10.01 6.34 9.02 6 8 C5.34 8 4.68 8 4 8 C4 6.68 4 5.36 4 4 C2.68 4 1.36 4 0 4 C0 2.68 0 1.36 0 0 Z " fill="#FAC21F" transform="translate(201,251)"/>
<path d="M0 0 C1.32 0 2.64 0 4 0 C4 1.32 4 2.64 4 4 C4.61875 4.12375 5.2375 4.2475 5.875 4.375 C8 5 8 5 10 7 C9.67 7.33 9.34 7.66 9 8 C2.60465116 7.30232558 2.60465116 7.30232558 0 6 C0 5.34 0 4.68 0 4 C0.66 4 1.32 4 2 4 C2 3.34 2 2.68 2 2 C1.34 2 0.68 2 0 2 C0 1.34 0 0.68 0 0 Z " fill="#FCB918" transform="translate(343,197)"/>
<path d="M0 0 C0.66 0 1.32 0 2 0 C2 0.66 2 1.32 2 2 C2.66 2 3.32 2 4 2 C4 2.99 4 3.98 4 5 C4.66 5.33 5.32 5.66 6 6 C4.68 6 3.36 6 2 6 C2 6.66 2 7.32 2 8 C0.02 8.99 0.02 8.99 -2 10 C-2 8.02 -2 6.04 -2 4 C-1.34 4 -0.68 4 0 4 C0 2.68 0 1.36 0 0 Z " fill="#FC5645" transform="translate(93,257)"/>
<path d="M0 0 C0.66 0 1.32 0 2 0 C2 3.3 2 6.6 2 10 C1.34 10 0.68 10 0 10 C0 9.34 0 8.68 0 8 C-0.66 8 -1.32 8 -2 8 C-2 6.68 -2 5.36 -2 4 C-2.66 4 -3.32 4 -4 4 C-4 3.34 -4 2.68 -4 2 C-3.01 2 -2.02 2 -1 2 C-0.67 1.34 -0.34 0.68 0 0 Z " fill="#CF9438" transform="translate(325,411)"/>
<path d="M0 0 C0.33 0.99 0.66 1.98 1 3 C-4.14285714 8.57142857 -4.14285714 8.57142857 -8 9 C-8 7.35 -8 5.7 -8 4 C-6.865625 3.71125 -5.73125 3.4225 -4.5625 3.125 C-3.386875 2.75375 -2.21125 2.3825 -1 2 C-0.67 1.34 -0.34 0.68 0 0 Z " fill="#CC8F2F" transform="translate(323,421)"/>
<path d="M0 0 C3.63 0.33 7.26 0.66 11 1 C10.34 2.32 9.68 3.64 9 5 C7.68 5 6.36 5 5 5 C5 4.34 5 3.68 5 3 C3.02 3 1.04 3 -1 3 C-0.67 2.01 -0.34 1.02 0 0 Z " fill="#FEC713" transform="translate(248,356)"/>
<path d="M0 0 C1.65 0 3.3 0 5 0 C5 1.32 5 2.64 5 4 C3.35 4 1.7 4 0 4 C0 5.32 0 6.64 0 8 C-0.66 8 -1.32 8 -2 8 C-2 6.02 -2 4.04 -2 2 C-1.34 2 -0.68 2 0 2 C0 1.34 0 0.68 0 0 Z " fill="#FCC715" transform="translate(443,287)"/>
<path d="M0 0 C0.66 0 1.32 0 2 0 C2 1.32 2 2.64 2 4 C2.66 4 3.32 4 4 4 C3.34 5.32 2.68 6.64 2 8 C0.68 7.34 -0.64 6.68 -2 6 C-2 4.68 -2 3.36 -2 2 C-1.34 2 -0.68 2 0 2 C0 1.34 0 0.68 0 0 Z " fill="#F95756" transform="translate(453,269)"/>
<path d="M0 0 C1.98 0 3.96 0 6 0 C6 0.66 6 1.32 6 2 C6.66 2 7.32 2 8 2 C8 2.66 8 3.32 8 4 C4.7 4 1.4 4 -2 4 C-2 3.34 -2 2.68 -2 2 C-1.34 2 -0.68 2 0 2 C0 1.34 0 0.68 0 0 Z " fill="#FAB815" transform="translate(335,193)"/>
<path d="M0 0 C0.33 0.66 0.66 1.32 1 2 C1.66 2.33 2.32 2.66 3 3 C3 3.99 3 4.98 3 6 C2.34 6 1.68 6 1 6 C1 7.32 1 8.64 1 10 C0.34 10 -0.32 10 -1 10 C-1 10.66 -1 11.32 -1 12 C-1.66 12 -2.32 12 -3 12 C-2.01 8.04 -1.02 4.08 0 0 Z " fill="#F6BF21" transform="translate(324,303)"/>
<path d="M0 0 C1.32 0 2.64 0 4 0 C4 0.66 4 1.32 4 2 C3.34 2 2.68 2 2 2 C2 2.66 2 3.32 2 4 C2.66 4 3.32 4 4 4 C4 4.66 4 5.32 4 6 C2.02 6 0.04 6 -2 6 C-2 5.34 -2 4.68 -2 4 C-2.99 3.67 -3.98 3.34 -5 3 C-4.01 2.67 -3.02 2.34 -2 2 C-1.34 2.33 -0.68 2.66 0 3 C0 2.01 0 1.02 0 0 Z " fill="#FA5445" transform="translate(333,183)"/>
<path d="M0 0 C1.32 0 2.64 0 4 0 C4.66 1.32 5.32 2.64 6 4 C4.68 4 3.36 4 2 4 C2 4.66 2 5.32 2 6 C1.34 6 0.68 6 0 6 C0 5.34 0 4.68 0 4 C-1.32 4 -2.64 4 -4 4 C-4 3.34 -4 2.68 -4 2 C-2.68 2 -1.36 2 0 2 C0 1.34 0 0.68 0 0 Z " fill="#FDBC1E" transform="translate(295,163)"/>
<path d="M0 0 C1.32 0.33 2.64 0.66 4 1 C2.52312468 2.16956591 1.04343707 3.33558146 -0.4375 4.5 C-1.67306641 5.47453125 -1.67306641 5.47453125 -2.93359375 6.46875 C-5 8 -5 8 -6 8 C-6 6.02 -6 4.04 -6 2 C-4.02 2 -2.04 2 0 2 C0 1.34 0 0.68 0 0 Z " fill="#F6BF25" transform="translate(223,239)"/>
<path d="M0 0 C0 0.66 0 1.32 0 2 C-1.98 2 -3.96 2 -6 2 C-6 2.66 -6 3.32 -6 4 C-7.32 4 -8.64 4 -10 4 C-10 2.68 -10 1.36 -10 0 C-2.25 -1.125 -2.25 -1.125 0 0 Z " fill="#FEC613" transform="translate(279,357)"/>
<path d="M0 0 C2.31 0 4.62 0 7 0 C7 1.32 7 2.64 7 4 C7.66 4 8.32 4 9 4 C9 4.66 9 5.32 9 6 C7.68 6 6.36 6 5 6 C5 5.34 5 4.68 5 4 C4.34 4 3.68 4 3 4 C3 3.34 3 2.68 3 2 C2.01 1.67 1.02 1.34 0 1 C0 0.67 0 0.34 0 0 Z " fill="#F86440" transform="translate(286,155)"/>
<path d="M0 0 C2.64 0 5.28 0 8 0 C8 0.66 8 1.32 8 2 C6.02 2 4.04 2 2 2 C2 2.66 2 3.32 2 4 C0.02 4 -1.96 4 -4 4 C-4 3.34 -4 2.68 -4 2 C-2.68 2 -1.36 2 0 2 C0 1.34 0 0.68 0 0 Z " fill="#FEC613" transform="translate(223,437)"/>
<path d="M0 0 C1.32 0 2.64 0 4 0 C4 0.66 4 1.32 4 2 C3.34 2 2.68 2 2 2 C2 3.32 2 4.64 2 6 C2.99 6 3.98 6 5 6 C5 7.65 5 9.3 5 11 C4.67 10.01 4.34 9.02 4 8 C2.68 8 1.36 8 0 8 C0 5.36 0 2.72 0 0 Z " fill="#FCC813" transform="translate(439,301)"/>
<path d="M0 0 C0.66 0 1.32 0 2 0 C2.33 1.98 2.66 3.96 3 6 C2.01 6.66 1.02 7.32 0 8 C0 7.34 0 6.68 0 6 C-0.66 6 -1.32 6 -2 6 C-2 4.68 -2 3.36 -2 2 C-1.34 2 -0.68 2 0 2 C0 1.34 0 0.68 0 0 Z " fill="#FEC618" transform="translate(401,473)"/>
<path d="M0 0 C0.33 0.66 0.66 1.32 1 2 C0.34 2 -0.32 2 -1 2 C-1 3.32 -1 4.64 -1 6 C-2.98 6 -4.96 6 -7 6 C-7 5.01 -7 4.02 -7 3 C-4.69 2.01 -2.38 1.02 0 0 Z " fill="#FEC61F" transform="translate(318,429)"/>
<path d="M0 0 C0.66 0 1.32 0 2 0 C2 1.32 2 2.64 2 4 C2.66 4 3.32 4 4 4 C4 5.98 4 7.96 4 10 C3.34 10 2.68 10 2 10 C0.39644899 6.49223216 -0.22036864 3.85645121 0 0 Z " fill="#FEC713" transform="translate(95,371)"/>
<path d="M0 0 C0.66 0 1.32 0 2 0 C2 0.66 2 1.32 2 2 C2.66 2 3.32 2 4 2 C3.67 4.31 3.34 6.62 3 9 C2.01 8.67 1.02 8.34 0 8 C0 5.36 0 2.72 0 0 Z " fill="#FCC71D" transform="translate(433,345)"/>
<path d="M0 0 C1.32 0 2.64 0 4 0 C4 0.66 4 1.32 4 2 C4.66 2 5.32 2 6 2 C6 2.66 6 3.32 6 4 C5.34 4 4.68 4 4 4 C4 4.66 4 5.32 4 6 C2.68 6 1.36 6 0 6 C0 5.34 0 4.68 0 4 C0.66 4 1.32 4 2 4 C2 3.34 2 2.68 2 2 C1.34 2 0.68 2 0 2 C0 1.34 0 0.68 0 0 Z " fill="#FDC614" transform="translate(143,483)"/>
<path d="M0 0 C1.32 0 2.64 0 4 0 C4 0.66 4 1.32 4 2 C4.66 2 5.32 2 6 2 C6 2.66 6 3.32 6 4 C6.66 4 7.32 4 8 4 C8 4.66 8 5.32 8 6 C6.68 6 5.36 6 4 6 C4 5.34 4 4.68 4 4 C3.34 4 2.68 4 2 4 C2 3.34 2 2.68 2 2 C1.34 2 0.68 2 0 2 C0 1.34 0 0.68 0 0 Z " fill="#F8753C" transform="translate(439,265)"/>
<path d="M0 0 C2.97 0.495 2.97 0.495 6 1 C6 1.66 6 2.32 6 3 C6.99 3.33 7.98 3.66 9 4 C8.67 4.66 8.34 5.32 8 6 C6.68 5.67 5.36 5.34 4 5 C4 4.34 4 3.68 4 3 C2.68 3 1.36 3 0 3 C0 2.01 0 1.02 0 0 Z " fill="#FA5A44" transform="translate(383,224)"/>
<path d="M0 0 C2.46278801 2.46278801 2.99771255 4.70676982 4 8 C3.34 8 2.68 8 2 8 C2 8.66 2 9.32 2 10 C1.34 10 0.68 10 0 10 C0 6.7 0 3.4 0 0 Z " fill="#F9C122" transform="translate(205,315)"/>
<path d="M0 0 C0.99 0 1.98 0 3 0 C3 0.66 3 1.32 3 2 C3.66 2 4.32 2 5 2 C5 1.34 5 0.68 5 0 C5.66 0 6.32 0 7 0 C7.66 1.32 8.32 2.64 9 4 C7.3125 4.8125 7.3125 4.8125 5 5 C2.25 2.5625 2.25 2.5625 0 0 Z " fill="#F7C020" transform="translate(302,241)"/>
<path d="M0 0 C1.98 0 3.96 0 6 0 C5.375 1.875 5.375 1.875 4 4 C0.875 5.25 0.875 5.25 -2 6 C-2 5.34 -2 4.68 -2 4 C-1.34 4 -0.68 4 0 4 C0 2.68 0 1.36 0 0 Z " fill="#F6653A" transform="translate(195,187)"/>
<path d="M0 0 C0.66 0 1.32 0 2 0 C2 0.66 2 1.32 2 2 C2.66 2 3.32 2 4 2 C4 2.66 4 3.32 4 4 C4.66 4 5.32 4 6 4 C6 4.99 6 5.98 6 7 C4.68 6.67 3.36 6.34 2 6 C2 5.34 2 4.68 2 4 C1.01 3.67 0.02 3.34 -1 3 C-0.67 2.01 -0.34 1.02 0 0 Z " fill="#F95441" transform="translate(321,177)"/>
<path d="M0 0 C0.33 0.66 0.66 1.32 1 2 C1.66 2 2.32 2 3 2 C3 3.32 3 4.64 3 6 C1.68 6 0.36 6 -1 6 C-1.33 6.66 -1.66 7.32 -2 8 C-1.125 2.25 -1.125 2.25 0 0 Z " fill="#F8BF29" transform="translate(320,315)"/>
<path d="M0 0 C0 0.99 0 1.98 0 3 C1.32 3 2.64 3 4 3 C4 3.66 4 4.32 4 5 C2.02 5 0.04 5 -2 5 C-2 4.34 -2 3.68 -2 3 C-2.99 2.67 -3.98 2.34 -5 2 C-2 0 -2 0 0 0 Z " fill="#FEC01E" transform="translate(113,252)"/>
<path d="M0 0 C0.99 0.33 1.98 0.66 3 1 C2.01 1.33 1.02 1.66 0 2 C0 2.66 0 3.32 0 4 C-0.66 4 -1.32 4 -2 4 C-2 4.66 -2 5.32 -2 6 C-3.65 6 -5.3 6 -7 6 C-4.74259377 3.66475218 -2.7194239 1.81294927 0 0 Z " fill="#FEB72F" transform="translate(265,141)"/>
<path d="M0 0 C3.3 0 6.6 0 10 0 C9.67 0.66 9.34 1.32 9 2 C5.65506316 2.99444068 3.31044803 3.10348268 0 2 C0 1.34 0 0.68 0 0 Z " fill="#FCC51E" transform="translate(217,393)"/>
<path d="M0 0 C0.33 0.66 0.66 1.32 1 2 C0.34 2 -0.32 2 -1 2 C-1 3.32 -1 4.64 -1 6 C-2.98 6 -4.96 6 -7 6 C-7 5.34 -7 4.68 -7 4 C-4.69 2.68 -2.38 1.36 0 0 Z " fill="#FBB526" transform="translate(132,237)"/>
<path d="M0 0 C1.4540625 0.0309375 1.4540625 0.0309375 2.9375 0.0625 C2.9375 1.3825 2.9375 2.7025 2.9375 4.0625 C1.6175 4.0625 0.2975 4.0625 -1.0625 4.0625 C-1.0625 3.4025 -1.0625 2.7425 -1.0625 2.0625 C-2.0525 1.7325 -3.0425 1.4025 -4.0625 1.0625 C-3.0625 0.0625 -3.0625 0.0625 0 0 Z " fill="#FDC11B" transform="translate(162.0625,216.9375)"/>
<path d="M0 0 C1.32 0 2.64 0 4 0 C4 0.66 4 1.32 4 2 C4.66 2 5.32 2 6 2 C6 2.66 6 3.32 6 4 C6.66 4 7.32 4 8 4 C8 4.66 8 5.32 8 6 C6.02 5.34 4.04 4.68 2 4 C2 3.34 2 2.68 2 2 C1.34 2 0.68 2 0 2 C0 1.34 0 0.68 0 0 Z " fill="#F7623C" transform="translate(309,171)"/>
<path d="M0 0 C1.32 0 2.64 0 4 0 C4 0.66 4 1.32 4 2 C3.34 2 2.68 2 2 2 C2 2.66 2 3.32 2 4 C1.34 4 0.68 4 0 4 C0 4.66 0 5.32 0 6 C-0.66 6 -1.32 6 -2 6 C-2 4.68 -2 3.36 -2 2 C-1.34 2 -0.68 2 0 2 C0 1.34 0 0.68 0 0 Z " fill="#FFC711" transform="translate(203,241)"/>
<path d="M0 0 C0 0.99 0 1.98 0 3 C-0.66 3 -1.32 3 -2 3 C-1.67 3.99 -1.34 4.98 -1 6 C-2.98 6 -4.96 6 -7 6 C-2.25 1.125 -2.25 1.125 0 0 Z " fill="#9A563D" transform="translate(230,237)"/>
<path d="M0 0 C0.66 0 1.32 0 2 0 C2 1.32 2 2.64 2 4 C1.34 4 0.68 4 0 4 C0 4.66 0 5.32 0 6 C-0.66 6 -1.32 6 -2 6 C-2 5.34 -2 4.68 -2 4 C-2.66 4 -3.32 4 -4 4 C-4 3.34 -4 2.68 -4 2 C-2.68 2 -1.36 2 0 2 C0 1.34 0 0.68 0 0 Z " fill="#FDC217" transform="translate(379,223)"/>
<path d="M0 0 C1.32 0 2.64 0 4 0 C4 0.66 4 1.32 4 2 C3.34 2 2.68 2 2 2 C2 2.66 2 3.32 2 4 C1.34 4 0.68 4 0 4 C0 4.66 0 5.32 0 6 C-0.66 6 -1.32 6 -2 6 C-1.125 1.125 -1.125 1.125 0 0 Z " fill="#F96843" transform="translate(163,211)"/>
<path d="M0 0 C1.98 0 3.96 0 6 0 C6 1.32 6 2.64 6 4 C4.68 4 3.36 4 2 4 C2 3.34 2 2.68 2 2 C1.34 2 0.68 2 0 2 C0 1.34 0 0.68 0 0 Z " fill="#FCC115" transform="translate(203,185)"/>
<path d="M0 0 C0.33 0.66 0.66 1.32 1 2 C0.34 2 -0.32 2 -1 2 C-1 2.66 -1 3.32 -1 4 C-1.66 4 -2.32 4 -3 4 C-3 4.66 -3 5.32 -3 6 C-2.34 6.33 -1.68 6.66 -1 7 C-2.32 7.33 -3.64 7.66 -5 8 C-4.64950425 4.75791433 -4.43778819 3.38472296 -1.9375 1.1875 C-1.298125 0.795625 -0.65875 0.40375 0 0 Z " fill="#FDBD1E" transform="translate(218,175)"/>
<path d="M0 0 C1.98 0 3.96 0 6 0 C6 0.66 6 1.32 6 2 C4.68 2 3.36 2 2 2 C2 2.66 2 3.32 2 4 C0.68 4 -0.64 4 -2 4 C-2 3.34 -2 2.68 -2 2 C-1.34 2 -0.68 2 0 2 C0 1.34 0 0.68 0 0 Z " fill="#FFC610" transform="translate(271,155)"/>
<path d="M0 0 C2.64 0 5.28 0 8 0 C8 0.66 8 1.32 8 2 C6.68 2 5.36 2 4 2 C4 2.66 4 3.32 4 4 C3.34 4 2.68 4 2 4 C2 3.34 2 2.68 2 2 C1.34 2 0.68 2 0 2 C0 1.34 0 0.68 0 0 Z " fill="#FCC019" transform="translate(253,149)"/>
<path d="M0 0 C0.66 0 1.32 0 2 0 C2 0.66 2 1.32 2 2 C2.66 2 3.32 2 4 2 C4 3.32 4 4.64 4 6 C3.34 6 2.68 6 2 6 C1.34 5.34 0.68 4.68 0 4 C-0.66 4 -1.32 4 -2 4 C-2 3.34 -2 2.68 -2 2 C-1.34 2 -0.68 2 0 2 C0 1.34 0 0.68 0 0 Z " fill="#FCC019" transform="translate(321,181)"/>
<path d="M0 0 C0.66 0 1.32 0 2 0 C2 0.66 2 1.32 2 2 C3.32 2.33 4.64 2.66 6 3 C5.01 3.495 5.01 3.495 4 4 C4 4.66 4 5.32 4 6 C3.34 6 2.68 6 2 6 C2 5.34 2 4.68 2 4 C1.34 4 0.68 4 0 4 C0 2.68 0 1.36 0 0 Z " fill="#FEBF18" transform="translate(301,167)"/>
<path d="M0 0 C0 1.98 0 3.96 0 6 C-1.9375 5.625 -1.9375 5.625 -4 5 C-4.33 4.34 -4.66 3.68 -5 3 C-1.125 0 -1.125 0 0 0 Z " fill="#F8C025" transform="translate(305,337)"/>
<path d="M0 0 C0.66 0.33 1.32 0.66 2 1 C0.1875 3 0.1875 3 -2 5 C-2.99 5 -3.98 5 -5 5 C-5 4.34 -5 3.68 -5 3 C-4.34 3 -3.68 3 -3 3 C-3 2.34 -3 1.68 -3 1 C-2.01 0.67 -1.02 0.34 0 0 Z " fill="#FBB31C" transform="translate(236,162)"/>
<path d="M0 0 C0 1.32 0 2.64 0 4 C-1.98 4 -3.96 4 -6 4 C-6 3.34 -6 2.68 -6 2 C-2.25 0 -2.25 0 0 0 Z " fill="#FBB820" transform="translate(253,151)"/>
</svg>
