<?xml version="1.0" encoding="UTF-8"?>
<svg version="1.1" xmlns="http://www.w3.org/2000/svg" width="512" height="512">
<path d="M0 0 C168.96 0 337.92 0 512 0 C512 168.96 512 337.92 512 512 C343.04 512 174.08 512 0 512 C0 343.04 0 174.08 0 0 Z " fill="#89E119" transform="translate(0,0)"/>
<path d="M0 0 C168.96 0 337.92 0 512 0 C512 168.96 512 337.92 512 512 C343.04 512 174.08 512 0 512 C0 343.04 0 174.08 0 0 Z M359.7421875 85.0078125 C357.68499601 87.36020635 355.59403085 89.68034966 353.5 92 C350.81016569 94.98062721 348.13689636 97.97245233 345.5 101 C342.10746907 104.89512811 338.64805799 108.72782763 335.1875 112.5625 C333.27445851 114.69417481 331.38112388 116.8401911 329.5 119 C326.10746907 122.89512811 322.64805799 126.72782763 319.1875 130.5625 C317.27445851 132.69417481 315.38112388 134.8401911 313.5 137 C310.8124232 140.08133805 308.10201545 143.14098275 305.375 146.1875 C304.66085937 146.98542969 303.94671875 147.78335938 303.2109375 148.60546875 C302.48132813 149.39566406 301.75171875 150.18585938 301 151 C299.82050781 152.28970703 299.82050781 152.28970703 298.6171875 153.60546875 C284.49138562 166.5295233 262.95053594 166.8643056 245.04589844 166.2265625 C233.41242313 165.36123186 220.14751138 160.2897191 211.3125 152.6875 C210.1678125 151.3571875 210.1678125 151.3571875 209 150 C207.54788709 148.55621661 206.08880399 147.11942886 204.625 145.6875 C201.31178526 142.37428526 198.18613115 138.97596871 195.13671875 135.421875 C192.19979251 132.09300065 189.16153759 128.86290587 186.125 125.625 C181.44922377 120.63652627 176.82288992 115.61301021 172.265625 110.515625 C169.0699394 106.96731202 165.82624735 103.46422274 162.58374023 99.95874023 C157.83028552 94.81964635 153.09916238 89.66040447 148.37207031 84.49707031 C146.96581209 82.96269746 145.5573956 81.43033128 144.1484375 79.8984375 C143.20305879 78.86985252 142.25774556 77.84120734 141.3125 76.8125 C140.85746094 76.31766113 140.40242187 75.82282227 139.93359375 75.31298828 C136.41418101 71.47606331 132.9684289 67.57895642 129.55859375 63.64453125 C127.24410358 61.20242508 126.10147223 61.01148742 122.6875 60.625 C117.97290298 61.10445054 117.04677182 62.46555155 114 66 C106.02394134 79.85702357 104.53699332 92.41210857 105 108 C101.97226258 105.66108569 99.27335918 103.36649177 96.8125 100.4375 C93.81511325 96.93834807 90.77449084 93.4827677 87.6875 90.0625 C86.84574219 89.12535156 86.00398438 88.18820313 85.13671875 87.22265625 C81.90775472 83.86382529 79.77019144 83.83237051 75.16796875 83.57421875 C71.89040272 84.21792091 70.36650835 85.66354255 68 88 C66.6197418 90.41903879 65.50133933 92.64034878 64.4375 95.1875 C64.13142822 95.88439941 63.82535645 96.58129883 63.51000977 97.29931641 C61.6510937 101.74030801 60.56337767 105.94788283 59.80102539 110.69018555 C58.74171052 117.05674619 57.69400666 121.24116812 52.3347168 125.1784668 C49.87293478 126.78394832 47.36532421 128.30334093 44.84277344 129.81103516 C39.68261055 133.14039303 35.35573251 137.70794779 31 142 C30.28328125 142.70382813 29.5665625 143.40765625 28.828125 144.1328125 C11.54036923 162.31953157 0.87070189 188.69821487 0.83886719 213.62866211 C0.83390228 214.5695871 0.82893738 215.51051208 0.82382202 216.47994995 C0.80927319 219.57908882 0.80240862 222.6781764 0.796875 225.77734375 C0.79404762 226.84317751 0.79122025 227.90901127 0.78830719 229.00714302 C0.77333973 234.65360891 0.76409633 240.30004944 0.75976562 245.9465332 C0.75430149 251.73932321 0.73030992 257.53187573 0.70179367 263.32459164 C0.68303397 267.81257267 0.67795453 272.30049819 0.67642975 276.78851509 C0.67342993 278.92164971 0.66549346 281.05478398 0.65224457 283.18787956 C0.45597524 317.2325036 10.22889209 345.39055756 33.8125 370.25 C46.26202037 382.22824515 62.34978529 392.2427958 79 397 C80.258125 397.37125 81.51625 397.7425 82.8125 398.125 C103.93504268 403.739762 128.04670502 402.90691684 149 397 C149.67369629 396.81808105 150.34739258 396.63616211 151.04150391 396.44873047 C176.03478367 389.54488449 196.51819346 373.2777381 211 352 C213.2661031 355.39915465 215.3072125 358.90292402 217.3671875 362.4296875 C224.07143876 372.98326963 234.80591675 380.25664587 247 383 C260.57852647 384.65124938 272.97126259 383.1900006 284.375 375.125 C285.60545073 374.10955434 286.81457676 373.06766597 288 372 C288.92232422 371.18015625 288.92232422 371.18015625 289.86328125 370.34375 C296.06289061 364.5025763 300.09307589 358.32112339 302 350 C302.66 350 303.32 350 304 350 C304.21914063 350.68707031 304.43828125 351.37414062 304.6640625 352.08203125 C306.35615407 355.77791546 308.73332906 358.64420814 311.375 361.6875 C311.90810791 362.30254395 312.44121582 362.91758789 312.99047852 363.55126953 C330.37662423 383.16208587 354.99211089 395.92150761 381 399 C386.25309527 399.29266504 391.49115623 399.34200382 396.75 399.3125 C397.45820892 399.31001251 398.16641785 399.30752502 398.89608765 399.30496216 C431.68976196 399.12668785 458.33994078 387.12001681 481.3840332 363.91674805 C485.86176399 359.28964843 489.63147813 354.49946029 493 349 C493.64324219 348.00097656 494.28648437 347.00195312 494.94921875 345.97265625 C499.03662437 339.30045318 502.1652862 332.55273194 504.8125 325.1875 C505.09029297 324.43098145 505.36808594 323.67446289 505.65429688 322.89501953 C510.75361734 307.95376244 511.45666975 292.88065019 511.3984375 277.25 C511.4004661 275.29719942 511.403384 273.34439959 511.40713501 271.39160156 C511.41152147 267.32739955 511.40524737 263.26339727 511.39111328 259.19921875 C511.37402378 254.03900238 511.38388493 248.87925445 511.40183067 243.71905518 C511.41276889 239.69511506 511.40917664 235.67128256 511.4014473 231.64733887 C511.39947289 229.74670351 511.40180515 227.84605776 511.40888596 225.94543457 C511.45270545 210.88548298 510.33305923 196.20791516 505.3125 181.875 C505.05831299 181.13620605 504.80412598 180.39741211 504.54223633 179.63623047 C500.06071581 167.1266045 493.44434229 156.25182693 485 146 C484.22914063 145.06414062 483.45828125 144.12828125 482.6640625 143.1640625 C475.77153866 135.20085534 467.75841316 127.66951491 458.1640625 123.08984375 C448.64733993 118.52152548 448.64733993 118.52152548 446.62890625 113.77734375 C446.16724408 111.38035204 445.78824841 108.96599355 445.4921875 106.54296875 C444.4509085 99.04741277 440.28956467 89.40206853 434.1875 84.5625 C430.781792 83.68674652 428.38719708 84.10863235 425 85 C422.57231121 87.17590605 422.57231121 87.17590605 420 90 C419.46624756 90.55743896 418.93249512 91.11487793 418.38256836 91.68920898 C416.63881088 93.51093028 414.9120482 95.3475974 413.1875 97.1875 C412.2912793 98.13012695 412.2912793 98.13012695 411.37695312 99.09179688 C410.53100586 99.99575195 410.53100586 99.99575195 409.66796875 100.91796875 C409.15516357 101.46219482 408.6423584 102.0064209 408.11401367 102.56713867 C406.7954028 103.96066094 406.7954028 103.96066094 407 106 C406.34 106 405.68 106 405 106 C405.05800781 105.030625 405.11601562 104.06125 405.17578125 103.0625 C405.73237883 89.46096769 402.81534085 75.45631566 395 64 C392.09330259 61.45663976 390.37591132 60.14414309 386.5390625 59.7421875 C376.8224339 60.72879902 365.87904278 77.93134302 359.7421875 85.0078125 Z " fill="#58CC02" transform="translate(0,0)"/>
<path d="M0 0 C6.56032659 6.56032659 6.51357778 21.25846326 6.53013611 29.9737854 C6.51965608 31.37055121 6.50828684 32.76731059 6.49609375 34.1640625 C6.49624945 35.65465363 6.49775017 37.14524515 6.50050354 38.63583374 C6.50187301 41.73006523 6.48957488 44.823825 6.46655273 47.91796875 C6.43812201 51.84212144 6.44093867 55.76549605 6.45364285 59.6897068 C6.46066551 62.75792854 6.45273738 65.82597692 6.44038582 68.89417648 C6.43593846 70.33954575 6.43547412 71.78493408 6.43945122 73.23030472 C6.45305806 82.51737868 6.31774559 92.20629635 3 101 C0.14233169 103.12025116 -2.5286393 103.45098743 -6 104 C-7.9665451 104.59438766 -9.92333872 105.22166498 -11.87109375 105.875 C-12.92707764 106.21474854 -13.98306152 106.55449707 -15.07104492 106.90454102 C-35.0124433 113.39355795 -54.43742375 121.1879506 -73.01025391 130.95800781 C-75.23167536 132.12132398 -77.4650078 133.2598883 -79.69921875 134.3984375 C-88.56278758 138.95221379 -96.97571412 143.72258336 -105.1171875 149.48046875 C-108 151 -108 151 -110.5 150.98046875 C-128.14901387 144.05874612 -141.47206064 126.72990659 -148.875 109.875 C-151.13639004 104.04997117 -152.6891051 98.10274722 -154 92 C-154.18949219 91.26265625 -154.37898438 90.5253125 -154.57421875 89.765625 C-155.2191023 85.57684013 -155.10351214 81.41806021 -155.0625 77.1875 C-155.05798828 76.30384766 -155.05347656 75.42019531 -155.04882812 74.50976562 C-155.03709866 72.33981441 -155.01916495 70.16989828 -155 68 C-154.38068604 67.83395264 -153.76137207 67.66790527 -153.12329102 67.49682617 C-150.26893888 66.72983044 -147.41572159 65.95869024 -144.5625 65.1875 C-143.58861328 64.92646484 -142.61472656 64.66542969 -141.61132812 64.39648438 C-135.665094 62.78563165 -129.82508902 61.00595103 -124 59 C-123.99589111 59.5983667 -123.99178223 60.1967334 -123.98754883 60.81323242 C-123.80409371 76.09577786 -123.26448163 90.36269865 -112 102 C-103.57548807 109.80586526 -94.75183429 112.69148703 -83.33203125 112.3203125 C-73.15020385 111.34152018 -64.60929491 106.37595278 -57.60546875 99.01953125 C-49.98487997 89.43353514 -49.85793152 79.43921554 -49.68359375 67.72265625 C-49.6524221 65.97292763 -49.6524221 65.97292763 -49.62062073 64.18785095 C-49.55549089 60.47945776 -49.49641083 56.77099668 -49.4375 53.0625 C-49.39427999 50.54100874 -49.3506646 48.01952423 -49.30664062 45.49804688 C-49.19984716 39.33210201 -49.0980143 33.16609033 -49 27 C-36.25588371 20.04104671 -23.50674917 13.09262495 -10.72070312 6.2109375 C-9.74681641 5.685 -8.77292969 5.1590625 -7.76953125 4.6171875 C-6.49493042 3.93052002 -6.49493042 3.93052002 -5.19458008 3.22998047 C-3.41592112 2.23310831 -1.69652214 1.13101476 0 0 Z " fill="#FDFEFD" transform="translate(471,202)"/>
<path d="M0 0 C4.10205204 0.9356068 7.75445041 2.61948212 11.5546875 4.38671875 C12.66168503 4.89595634 12.66168503 4.89595634 13.79104614 5.41548157 C16.15387872 6.50290336 18.51457525 7.59486266 20.875 8.6875 C23.95464486 10.11043503 27.03539047 11.53095102 30.1171875 12.94921875 C30.8667572 13.29459686 31.6163269 13.63997498 32.38861084 13.99581909 C38.3709537 16.74022885 44.40531765 19.34225592 50.47705078 21.88208008 C53 23 53 23 54 24 C54.09646328 25.46585423 54.1251557 26.93624889 54.12597656 28.40527344 C54.13168671 29.81374542 54.13168671 29.81374542 54.13751221 31.25067139 C54.13853943 32.27654358 54.13956665 33.30241577 54.140625 34.359375 C54.15897659 36.52995821 54.17854901 38.70053138 54.19921875 40.87109375 C54.22800686 44.29395165 54.24999513 47.71617398 54.25048828 51.13916016 C54.25514174 74.43178716 54.25514174 74.43178716 66 94 C74.34078906 101.72829051 83.20524385 104.73558561 94.52734375 104.390625 C105.66155476 103.13818282 113.94555416 97.86651956 121.16796875 89.51171875 C125.74178829 83.24100241 127.98790391 75.71196565 128.31640625 68.015625 C128.35830078 67.08105469 128.40019531 66.14648438 128.44335938 65.18359375 C128.48267578 64.21550781 128.52199219 63.24742187 128.5625 62.25 C128.62727539 60.77466797 128.62727539 60.77466797 128.69335938 59.26953125 C128.79922052 56.84648725 128.90130171 54.4233446 129 52 C135.63762821 53.39099838 142.08058342 55.13714884 148.5625 57.125 C149.47580078 57.40214844 150.38910156 57.67929687 151.33007812 57.96484375 C153.55430717 58.64026409 155.77756953 59.31868967 158 60 C158.4531103 85.70142302 153.93808758 107.93193329 135.83886719 127.33422852 C129.15581576 134.16143639 120.89572895 140.44635371 112 144 C106.25913657 144.02349603 102.38561641 140.91202946 97.8125 137.8125 C75.39759715 123.20102491 50.62922077 111.18378443 25.1015625 103.12109375 C24.34547699 102.88002396 23.58939148 102.63895416 22.81039429 102.39057922 C19.08066 101.20565282 15.34571842 100.05700679 11.58740234 98.96606445 C10.22467086 98.54594013 8.86219044 98.12500029 7.5 97.703125 C6.2934375 97.34895508 5.086875 96.99478516 3.84375 96.62988281 C1 95 1 95 -0.34375 91.83105469 C-1.45132044 85.3652826 -2.12504809 79.17065223 -2.14526367 72.609375 C-2.14862228 71.91880005 -2.1519809 71.2282251 -2.15544128 70.51672363 C-2.16484743 68.2611302 -2.16688881 66.00561175 -2.16796875 63.75 C-2.17118739 62.16634085 -2.17455191 60.58268199 -2.17805481 58.99902344 C-2.1840194 55.6907482 -2.18589735 52.38249898 -2.18530273 49.07421875 C-2.185201 44.85122886 -2.19887635 40.62840668 -2.21607494 36.40545654 C-2.22723113 33.13850142 -2.22922087 29.87158647 -2.22869301 26.60461426 C-2.22986678 25.04821187 -2.23425439 23.49180823 -2.24202538 21.9354248 C-2.30967674 6.99368056 -2.30967674 6.99368056 0 0 Z " fill="#FEFEFD" transform="translate(33,210)"/>
<path d="M0 0 C1.28003906 0.40025391 1.28003906 0.40025391 2.5859375 0.80859375 C18.11583131 6.3199914 28.60458706 18.1560607 35.58984375 32.60546875 C38.12310142 38.70353223 39.25097805 43.82365233 39.125 50.4375 C39.10695313 51.67371094 39.08890625 52.90992188 39.0703125 54.18359375 C39.04710937 55.11300781 39.02390625 56.04242188 39 57 C37.9171875 55.88625 37.9171875 55.88625 36.8125 54.75 C34.31407427 52.30709485 31.76356798 50.1318953 29 48 C29.06380859 49.51980469 29.06380859 49.51980469 29.12890625 51.0703125 C28.78845581 61.44889263 23.90040186 70.49825593 17 78 C16.50113281 78.61230469 16.00226563 79.22460938 15.48828125 79.85546875 C9.55511934 86.62555023 -1.01370105 92.35334784 -10.08374023 93.19287109 C-27.08569888 93.8085461 -38.71026044 91.30976436 -51.625 79.625 C-57.25352366 73.40400017 -60.71147428 68.13698033 -63 60 C-67.29 59.34 -71.58 58.68 -76 58 C-76.51842827 41.44869742 -74.69286599 30.14395858 -63.51953125 17.10546875 C-46.77608512 -0.55608842 -23.31512949 -7.41845029 0 0 Z " fill="#FEC200" transform="translate(275,290)"/>
<path d="M0 0 C0.05091656 7.38318928 0.08582432 14.76633287 0.10986328 22.1496582 C0.11989011 24.65879 0.13351495 27.1679102 0.15087891 29.67700195 C0.17527318 33.29381176 0.18651661 36.91046638 0.1953125 40.52734375 C0.20563507 41.64020248 0.21595764 42.75306122 0.22659302 43.89964294 C0.22841773 56.70866555 -2.28515959 66.24997595 -11.1875 75.75 C-20.04716168 84.21031132 -29.31979378 86.46974375 -41.30078125 86.33203125 C-50.61020149 85.49644443 -58.06190475 81.13484448 -64.734375 74.7421875 C-70.77203698 67.43453455 -75.15326111 58.36091134 -75.09765625 48.796875 C-75.09443359 47.8171875 -75.09121094 46.8375 -75.08789062 45.828125 C-75.07951172 44.81234375 -75.07113281 43.7965625 -75.0625 42.75 C-75.05798828 41.71875 -75.05347656 40.6875 -75.04882812 39.625 C-75.03706088 37.08327427 -75.02062011 34.54166681 -75 32 C-72.96995667 31.18798267 -70.93988087 30.37604641 -68.90966797 29.56445312 C-67.10086291 28.84053261 -65.29261452 28.11521996 -63.48486328 27.38867188 C-59.13937114 25.6441913 -54.79212731 23.91124198 -50.4140625 22.25 C-37.3568614 17.24400812 -24.77568894 11.30070259 -12.16162109 5.28320312 C-11.43205704 4.93555908 -10.70249298 4.58791504 -9.95082092 4.22973633 C-8.56168875 3.56690809 -7.17349896 2.90210042 -5.78636169 2.23510742 C-1.10971706 0 -1.10971706 0 0 0 Z " fill="#132531" transform="translate(422,229)"/>
<path d="M0 0 C4.81863853 1.57490772 9.60277432 3.16257587 14.29296875 5.09375 C15.23841553 5.47909912 16.1838623 5.86444824 17.15795898 6.26147461 C18.15770752 6.67018799 19.15745605 7.07890137 20.1875 7.5 C30.0435477 11.48467742 39.9584182 15.27507602 49.9375 18.9375 C50.56884857 19.17033691 51.20019714 19.40317383 51.85067749 19.64306641 C58.58212889 22.12213276 65.29958021 24.48886314 72.20922852 26.42407227 C74 27 74 27 75 28 C76.24824373 41.05232514 75.92662371 54.23802646 68.25 65.3125 C62.15615432 72.64034943 56.06435819 77.00538078 47 80 C46.01 80.33 45.02 80.66 44 81 C31.66436692 82.1497927 22.25181131 79.8401063 12.625 71.9375 C7.5340078 67.0429448 4.60063244 61.51036702 2 55 C1.65018066 54.18345947 1.30036133 53.36691895 0.93994141 52.52563477 C-0.38487475 47.5563698 -0.24608743 42.81506019 -0.1953125 37.6953125 C-0.1924826 36.61619598 -0.18965271 35.53707947 -0.18673706 34.42526245 C-0.1755766 30.99172701 -0.1504793 27.55845609 -0.125 24.125 C-0.11496487 21.79167044 -0.10583995 19.45833678 -0.09765625 17.125 C-0.07565079 11.416577 -0.04221427 5.70830741 0 0 Z " fill="#132532" transform="translate(87,234)"/>
<path d="M0 0 C0.96163272 9.61632721 -2.57731714 19.29450499 -8.375 26.9375 C-9.56382188 28.30882758 -10.77133079 29.66425722 -12 31 C-12.49886719 31.61230469 -12.99773437 32.22460938 -13.51171875 32.85546875 C-19.44488066 39.62555023 -30.01370105 45.35334784 -39.08374023 46.19287109 C-56.08569888 46.8085461 -67.71026044 44.30976436 -80.625 32.625 C-86.28445433 26.36981364 -89.53357452 21.08258694 -92 13 C-87.97897719 13.769847 -83.95819964 14.54096702 -79.9375 15.3125 C-78.16040649 15.65317505 -78.16040649 15.65317505 -76.34741211 16.00073242 C-68.77398138 17.45602723 -61.2107982 18.9504541 -53.66015625 20.51953125 C-50.9584944 21.08887042 -50.9584944 21.08887042 -48 21 C-46.47217763 18.93703921 -46.47217763 18.93703921 -45.125 16.3125 C-40.3852645 8.05281387 -32.72308491 0.55835639 -23.47265625 -2.53125 C-15.30450486 -4.07971472 -7.2791892 -4.23312849 0 0 Z " fill="#F39000" transform="translate(304,337)"/>
<path d="M0 0 C1.05622559 0.00906372 1.05622559 0.00906372 2.13378906 0.01831055 C8.42365292 0.13782086 13.94708524 0.71080299 19.6875 3.4375 C22.03416202 6.27304995 22.12506212 8.62860309 22.1875 12.25 C20.82321607 15.17346557 19.45999091 16.97750909 17.1875 19.25 C15.09375 19.26171875 15.09375 19.26171875 12.6875 18.9375 C11.8934375 18.83824219 11.099375 18.73898437 10.28125 18.63671875 C8.1875 18.25 8.1875 18.25 6.1875 17.25 C4.41979673 17.12759865 2.64689538 17.07448847 0.875 17.0625 C-0.54232422 17.04123047 -0.54232422 17.04123047 -1.98828125 17.01953125 C-4.96921947 17.262789 -7.06612308 18.12073317 -9.8125 19.25 C-13.5 19.0625 -13.5 19.0625 -16.8125 18.25 C-19.26827958 14.56633063 -19.6228156 11.52712976 -18.8125 7.25 C-13.96997549 0.69834919 -7.73198055 -0.10580411 0 0 Z " fill="#FFDD00" transform="translate(253.8125,294.75)"/>
</svg>
