<?xml version="1.0" encoding="UTF-8"?>
<svg version="1.1" xmlns="http://www.w3.org/2000/svg" width="400" height="400">
<path d="M0 0 C2.31228282 1.46206199 4.07873786 2.95713575 5.9609375 4.9375 C6.82912109 5.7728125 6.82912109 5.7728125 7.71484375 6.625 C16.08480863 15.9832258 15.70179576 32.14596858 16.85319519 44.10004807 C17.12354529 46.90182654 17.40451291 49.70237125 17.68811035 52.50283813 C18.49122343 60.45376098 19.27401068 68.40666279 20.05419922 76.35986328 C20.53491177 81.25283385 21.02617314 86.14465888 21.52348328 91.03596878 C21.79933225 93.78261497 22.06270057 96.5302762 22.32580566 99.27816772 C22.49712645 100.97115825 22.66908967 102.66408394 22.84179688 104.35693359 C22.91045456 105.11034027 22.97911224 105.86374695 23.04985046 106.63998413 C23.59791988 111.82473474 24.82657249 116.1638408 26.9609375 120.9375 C32.60233685 125.34561051 39.45069519 126.68785296 46.2890625 128.46875 C47.47385193 128.78654419 48.65864136 129.10433838 49.8793335 129.4317627 C53.65412023 130.44300045 57.43220488 131.44111777 61.2109375 132.4375 C64.97489469 133.43558846 68.73801374 134.43660331 72.49969482 135.4432373 C74.83457018 136.06750083 77.17080376 136.68671489 79.50860596 137.29992676 C99.46478349 142.61615369 99.46478349 142.61615369 105.4609375 148.3125 C106.255 149.04210937 107.0490625 149.77171875 107.8671875 150.5234375 C113.28973198 156.77555035 113.73798897 162.86035925 113.41015625 170.86328125 C112.34764828 183.47656082 102.0060142 193.96765372 94.65478516 203.68212891 C92.34975786 206.75129036 90.11599041 209.86733231 87.8984375 213 C84.17155412 218.24603934 80.41835557 223.47228869 76.6484375 228.6875 C76.10050537 229.44554932 75.55257324 230.20359863 74.98803711 230.98461914 C73.87021297 232.53083097 72.75229246 234.07697313 71.63427734 235.62304688 C68.90830611 239.39343019 66.18472216 243.16553694 63.4609375 246.9375 C62.37761606 248.43750859 61.29428271 249.93750858 60.2109375 251.4375 C59.6746875 252.18 59.1384375 252.9225 58.5859375 253.6875 C53.7109375 260.4375 53.7109375 260.4375 52.08520508 262.68847656 C51.00426559 264.18518701 49.92337349 265.68193168 48.8425293 267.17871094 C46.0979621 270.97932637 43.35251784 274.77930298 40.60546875 278.578125 C35.70748416 285.35290742 30.81349662 292.13008102 25.9609375 298.9375 C21.11276476 305.73876555 16.22370989 312.51014958 11.328125 319.27734375 C9.07689637 322.38995185 6.83260552 325.50738747 4.59375 328.62890625 C1.89747055 332.38601695 -0.81126311 336.1337293 -3.53417969 339.87158203 C-4.50863264 341.20932066 -5.4807905 342.54873539 -6.45019531 343.89013672 C-18.84903636 360.97787959 -18.84903636 360.97787959 -29.0390625 362.9375 C-37.49618569 363.83484011 -44.03251188 362.94391074 -51.0390625 357.9375 C-60.42469412 349.63210145 -61.57715319 339.8184532 -62.7578125 327.88671875 C-62.90232575 326.50541847 -63.04781408 325.12421989 -63.19421387 323.74311829 C-63.57720017 320.10648102 -63.94761342 316.46867381 -64.31512451 312.83044434 C-64.68090943 309.2280262 -65.05747711 305.62674218 -65.43359375 302.02539062 C-65.5818285 300.60271631 -65.73002195 299.18003769 -65.87817383 297.75735474 C-65.95121735 297.05609592 -66.02426086 296.35483711 -66.09951782 295.63232803 C-66.46535011 292.11871372 -66.83052798 288.60503183 -67.1953125 285.09130859 C-67.2662764 284.40884504 -67.3372403 283.72638149 -67.41035461 283.02323723 C-67.75740569 279.67958415 -68.09953162 276.33557347 -68.43554688 272.99078369 C-68.80530272 269.31193588 -69.18671499 265.63445764 -69.5703125 261.95703125 C-69.67476685 260.88297531 -69.77922119 259.80891937 -69.88684082 258.70231628 C-70.19921434 255.76460472 -70.586314 252.85667567 -71.0390625 249.9375 C-71.2410022 248.55623428 -71.2410022 248.55623428 -71.44702148 247.14706421 C-72.258477 243.301646 -72.95258177 240.7955374 -76.10095215 238.30914307 C-81.80804499 235.29324862 -87.98805077 233.58621598 -94.2265625 232.03515625 C-95.16854492 231.79010849 -96.11052734 231.54506073 -97.08105469 231.29258728 C-100.06444213 230.51778492 -103.05129796 229.75773123 -106.0390625 229 C-128.49271158 223.2636528 -128.49271158 223.2636528 -139.171875 219.74609375 C-139.90092041 219.50850845 -140.62996582 219.27092316 -141.38110352 219.02613831 C-149.45726034 216.28696551 -154.93315437 212.51763808 -159.0390625 204.9375 C-162.10738611 198.18718806 -161.91470119 190.96945439 -159.8515625 183.9375 C-156.64005539 175.8974241 -150.97955802 169.16006283 -145.80908203 162.30029297 C-142.99996744 158.55041559 -140.27241999 154.74274608 -137.5390625 150.9375 C-136.45748374 149.4384755 -135.37545141 147.93977816 -134.29296875 146.44140625 C-133.75687988 145.69906738 -133.22079102 144.95672852 -132.66845703 144.19189453 C-131.03187101 141.92755001 -129.39315085 139.66476419 -127.75390625 137.40234375 C-122.47325828 130.11002036 -117.2195491 122.8013988 -112.0390625 115.4375 C-106.32114259 107.30965666 -100.51082155 99.25083956 -94.68017578 91.20361328 C-91.96258077 87.451052 -89.25111777 83.69406581 -86.5390625 79.9375 C-85.45575888 78.43747854 -84.37242554 76.93747854 -83.2890625 75.4375 C-82.7528125 74.695 -82.2165625 73.9525 -81.6640625 73.1875 C-75.70572917 64.9375 -69.74739583 56.6875 -63.7890625 48.4375 C-63.25240967 47.69435547 -62.71575684 46.95121094 -62.1628418 46.18554688 C-61.08391049 44.69181669 -60.00464834 43.19832543 -58.92504883 41.70507812 C-56.14654588 37.86108372 -53.37463655 34.01258497 -50.61328125 30.15625 C-23.18547271 -8.10597503 -23.18547271 -8.10597503 0 0 Z " fill="#FED801" transform="translate(224.0390625,19.0625)"/>
<path d="M0 0 C0.77923828 0.23847656 1.55847656 0.47695312 2.36132812 0.72265625 C4.26440376 1.30642178 6.16384922 1.90199976 8.0625 2.5 C8.0625 3.16 8.0625 3.82 8.0625 4.5 C9.361875 4.438125 10.66125 4.37625 12 4.3125 C16.25016422 4.3125 19.43273241 5.15563513 23.37890625 6.6328125 C29.1118666 8.48538484 35.14462159 9.40063128 41.0625 10.5 C41.0625 11.16 41.0625 11.82 41.0625 12.5 C41.7225 12.5 42.3825 12.5 43.0625 12.5 C43.0625 15.47 43.0625 18.44 43.0625 21.5 C42.4025 21.5 41.7425 21.5 41.0625 21.5 C41.0625 22.16 41.0625 22.82 41.0625 23.5 C39.0825 24.16 37.1025 24.82 35.0625 25.5 C35.0625 26.16 35.0625 26.82 35.0625 27.5 C33.6703125 27.8403125 33.6703125 27.8403125 32.25 28.1875 C27.74808568 29.45135709 23.62810781 31.46730993 19.41796875 33.4765625 C17.0625 34.5 17.0625 34.5 15.0625 34.5 C15.0625 35.16 15.0625 35.82 15.0625 36.5 C11.41456816 37.77253436 7.8688457 38.82829194 4.0625 39.5 C4.0625 40.16 4.0625 40.82 4.0625 41.5 C3.4025 41.5 2.7425 41.5 2.0625 41.5 C2.0625 42.16 2.0625 42.82 2.0625 43.5 C1.48242188 43.56058594 0.90234375 43.62117188 0.3046875 43.68359375 C-0.47648437 43.76738281 -1.25765625 43.85117188 -2.0625 43.9375 C-2.88363281 44.02515625 -3.70476562 44.1128125 -4.55078125 44.203125 C-7.10454908 44.48813897 -7.10454908 44.48813897 -10.25 45.1875 C-13.39662457 45.55338658 -14.37293277 45.31026377 -16.9375 43.5 C-20.81076978 34.31995975 -20.30680179 23.9624905 -20.125 14.1875 C-20.10990284 12.7532695 -20.09622346 11.31902336 -20.08398438 9.88476562 C-20.05143 6.42284361 -19.99993621 2.96152763 -19.9375 -0.5 C-13.17145357 -4.19173842 -6.92952995 -2.19702321 0 0 Z " fill="#FEEE8C" transform="translate(272.9375,165.5)"/>
<path d="M0 0 C2.41413702 1.98304112 3.85618086 3.69074992 4.20532227 6.86914062 C4.26030884 8.00125977 4.26030884 8.00125977 4.31640625 9.15625 C4.35846191 10.00590332 4.40051758 10.85555664 4.44384766 11.73095703 C4.48300293 12.64474121 4.5221582 13.55852539 4.5625 14.5 C4.6042334 15.43312012 4.6459668 16.36624023 4.68896484 17.32763672 C4.94892723 23.59326074 5.10360402 29.85403188 5.125 36.125 C5.13188843 37.25131836 5.13188843 37.25131836 5.13891602 38.40039062 C5.12982759 41.5384412 4.99987253 44.00038241 4 47 C-0.90209317 48.13879395 -4.49936532 47.71241384 -9.375 46.5625 C-10.62023437 46.27503906 -11.86546875 45.98757812 -13.1484375 45.69140625 C-14.08945313 45.46324219 -15.03046875 45.23507813 -16 45 C-16 44.34 -16 43.68 -16 43 C-16.9075 42.896875 -17.815 42.79375 -18.75 42.6875 C-23.30451772 42.04875666 -27.69701114 40.8366729 -32.14453125 39.6875 C-35.11790454 38.92059616 -35.11790454 38.92059616 -38.6875 38.5 C-45.60993144 37.45510469 -52.32774698 35.13601783 -58 31 C-59.14266554 27.77365023 -59.26300633 25.97312341 -58.375 22.6875 C-56.49642216 20.38197265 -54.88544805 20.30373137 -52 20 C-52 19.34 -52 18.68 -52 18 C-50.91203125 17.63648438 -49.8240625 17.27296875 -48.703125 16.8984375 C-40.85465699 14.23028114 -33.41194888 11.38488714 -26.05859375 7.51953125 C-6.81038628 -2.04311588 -6.81038628 -2.04311588 0 0 Z " fill="#F7C205" transform="translate(144,185)"/>
<path d="M0 0 C4.75 0.875 4.75 0.875 7 2 C5.59422879 5.01527738 3.93873852 7.5947941 1.9375 10.25 C1.41027344 10.95640625 0.88304687 11.6628125 0.33984375 12.390625 C-0.32337891 13.18726563 -0.32337891 13.18726563 -1 14 C-1.33 14 -1.66 14 -2 14 C-2 11.69 -2 9.38 -2 7 C-1.34 7 -0.68 7 0 7 C0 6.34 0 5.68 0 5 C-1.32 5 -2.64 5 -4 5 C-4 4.01 -4 3.02 -4 2 C-2.68 2 -1.36 2 0 2 C0 1.34 0 0.68 0 0 Z " fill="#FDD90D" transform="translate(216,352)"/>
<path d="M0 0 C-1.41225926 0.67595315 -2.83002905 1.34040059 -4.25 2 C-5.43335938 2.556875 -5.43335938 2.556875 -6.640625 3.125 C-9 4 -9 4 -13 4 C-13 4.66 -13 5.32 -13 6 C-14.65 6.33 -16.3 6.66 -18 7 C-19.0812391 13.06050614 -19.0812391 13.06050614 -18 19 C-18.99 18.67 -19.98 18.34 -21 18 C-21.73046875 16.15234375 -21.73046875 16.15234375 -22.1875 13.9375 C-22.34605469 13.20402344 -22.50460938 12.47054687 -22.66796875 11.71484375 C-22.77753906 11.14894531 -22.88710937 10.58304688 -23 10 C-22.34 10 -21.68 10 -21 10 C-21 9.34 -21 8.68 -21 8 C-20.34 8 -19.68 8 -19 8 C-19 7.01 -19 6.02 -19 5 C-17.68 5 -16.36 5 -15 5 C-15 4.34 -15 3.68 -15 3 C-13.68 3 -12.36 3 -11 3 C-11 2.34 -11 1.68 -11 1 C-4.03571429 -1.27678571 -4.03571429 -1.27678571 0 0 Z " fill="#FED412" transform="translate(105,199)"/>
<path d="M0 0 C2.97 0 5.94 0 9 0 C9 0.66 9 1.32 9 2 C10.98 2 12.96 2 15 2 C15 2.66 15 3.32 15 4 C17.31 4 19.62 4 22 4 C22 4.99 22 5.98 22 7 C20.35 7 18.7 7 17 7 C17 6.34 17 5.68 17 5 C15.8553125 4.8453125 15.8553125 4.8453125 14.6875 4.6875 C9.70559136 3.75866958 4.87362005 2.37883557 0 1 C0 0.67 0 0.34 0 0 Z " fill="#FBDD36" transform="translate(264,163)"/>
<path d="M0 0 C0.99 0 1.98 0 3 0 C3 0.66 3 1.32 3 2 C2.34 2 1.68 2 1 2 C1 3.32 1 4.64 1 6 C1.66 6 2.32 6 3 6 C1.6062718 10.43458973 -0.60582235 12.87378374 -4 16 C-4 14.35 -4 12.7 -4 11 C-3.34 11 -2.68 11 -2 11 C-2 10.34 -2 9.68 -2 9 C-1.34 9 -0.68 9 0 9 C0 8.34 0 7.68 0 7 C-0.66 7 -1.32 7 -2 7 C-2 5.35 -2 3.7 -2 2 C-1.34 2 -0.68 2 0 2 C0 1.34 0 0.68 0 0 Z " fill="#FDD813" transform="translate(281,263)"/>
<path d="M0 0 C-2.22791998 1.12752649 -4.45725887 2.25208139 -6.6875 3.375 C-7.31333984 3.69210938 -7.93917969 4.00921875 -8.58398438 4.3359375 C-18.48996401 9.3148592 -18.48996401 9.3148592 -24 9 C-22.68 8.67 -21.36 8.34 -20 8 C-20 7.01 -20 6.02 -20 5 C-18.02 5 -16.04 5 -14 5 C-14 4.34 -14 3.68 -14 3 C-12.23358317 2.3012307 -10.46167336 1.61633417 -8.6875 0.9375 C-7.20830078 0.36322266 -7.20830078 0.36322266 -5.69921875 -0.22265625 C-3 -1 -3 -1 0 0 Z " fill="#FED513" transform="translate(130,188)"/>
<path d="M0 0 C2.33264693 3.74785113 2.61538116 7.70765915 3.0625 12 C3.67577944 18.06313756 3.67577944 18.06313756 5 24 C4.34 24 3.68 24 3 24 C0.82576642 15.85956596 -0.45636453 8.4342927 0 0 Z " fill="#FCE86D" transform="translate(253,185)"/>
<path d="M0 0 C1.65 0.33 3.3 0.66 5 1 C5 1.66 5 2.32 5 3 C2 5 2 5 -2 5 C-2 5.66 -2 6.32 -2 7 C-2.66 7 -3.32 7 -4 7 C-4 7.66 -4 8.32 -4 9 C-5.65 8.67 -7.3 8.34 -9 8 C-8.01 7.67 -7.02 7.34 -6 7 C-6 6.34 -6 5.68 -6 5 C-5.34 5 -4.68 5 -4 5 C-4 4.34 -4 3.68 -4 3 C-2.68 3 -1.36 3 0 3 C0 2.01 0 1.02 0 0 Z " fill="#FDD817" transform="translate(314,167)"/>
<path d="M0 0 C3.63 0.66 7.26 1.32 11 2 C11 2.33 11 2.66 11 3 C8.69 3 6.38 3 4 3 C4 3.66 4 4.32 4 5 C1.03 5 -1.94 5 -5 5 C-5 4.01 -5 3.02 -5 2 C-3.35 2 -1.7 2 0 2 C0 1.34 0 0.68 0 0 Z " fill="#FED714" transform="translate(284,152)"/>
<path d="M0 0 C0 0.99 0 1.98 0 3 C1.32 3.33 2.64 3.66 4 4 C3.19152271 5.16945792 2.37810888 6.33550461 1.5625 7.5 C1.11003906 8.1496875 0.65757812 8.799375 0.19140625 9.46875 C-0.20175781 9.9740625 -0.59492188 10.479375 -1 11 C-1.33 11 -1.66 11 -2 11 C-2 9.02 -2 7.04 -2 5 C-2.66 5 -3.32 5 -4 5 C-4 3.68 -4 2.36 -4 1 C-2 0 -2 0 0 0 Z " fill="#FCD915" transform="translate(316,217)"/>
<path d="M0 0 C0.66 0 1.32 0 2 0 C2 0.66 2 1.32 2 2 C2.99 2 3.98 2 5 2 C5 3.65 5 5.3 5 7 C4.01 7 3.02 7 2 7 C1.67 8.32 1.34 9.64 1 11 C0.54625 10.21625 0.0925 9.4325 -0.375 8.625 C-1.88428742 5.96301969 -1.88428742 5.96301969 -4 4 C-1.03 4.495 -1.03 4.495 2 5 C2 4.34 2 3.68 2 3 C1.34 3 0.68 3 0 3 C0 2.01 0 1.02 0 0 Z " fill="#FCDB2A" transform="translate(151,252)"/>
<path d="M0 0 C-0.66 0.66 -1.32 1.32 -2 2 C-3.32 2 -4.64 2 -6 2 C-6 2.66 -6 3.32 -6 4 C-6.66 4 -7.32 4 -8 4 C-8 4.66 -8 5.32 -8 6 C-9.98 6 -11.96 6 -14 6 C-14 5.34 -14 4.68 -14 4 C-13.34 4 -12.68 4 -12 4 C-11.67 3.01 -11.34 2.02 -11 1 C-9.00390625 0.234375 -9.00390625 0.234375 -6.5625 -0.25 C-5.75941406 -0.42015625 -4.95632813 -0.5903125 -4.12890625 -0.765625 C-2 -1 -2 -1 0 0 Z " fill="#FDE866" transform="translate(283,203)"/>
<path d="M0 0 C0.66 0 1.32 0 2 0 C2 0.66 2 1.32 2 2 C2.99 2.33 3.98 2.66 5 3 C3.85793642 4.50287218 2.71125043 6.00223284 1.5625 7.5 C0.92441406 8.3353125 0.28632813 9.170625 -0.37109375 10.03125 C-0.90863281 10.6809375 -1.44617188 11.330625 -2 12 C-2.33 12 -2.66 12 -3 12 C-3 10.02 -3 8.04 -3 6 C-1.68 6 -0.36 6 1 6 C0.67 4.02 0.34 2.04 0 0 Z " fill="#FCD91D" transform="translate(295,246)"/>
<path d="M0 0 C0.66 0 1.32 0 2 0 C2 1.32 2 2.64 2 4 C1.34 4 0.68 4 0 4 C0 5.65 0 7.3 0 9 C-0.66 9 -1.32 9 -2 9 C-2 8.34 -2 7.68 -2 7 C-2.99 6.67 -3.98 6.34 -5 6 C-4.67 4.68 -4.34 3.36 -4 2 C-2.68 2 -1.36 2 0 2 C0 1.34 0 0.68 0 0 Z " fill="#FED714" transform="translate(325,187)"/>
<path d="M0 0 C0.99 0 1.98 0 3 0 C3.33 0.99 3.66 1.98 4 3 C1.625 6.1875 1.625 6.1875 -1 9 C-1.33 9 -1.66 9 -2 9 C-2 6.69 -2 4.38 -2 2 C-1.34 2 -0.68 2 0 2 C0 1.34 0 0.68 0 0 Z " fill="#FAD91F" transform="translate(216,357)"/>
<path d="M0 0 C0.99 0.33 1.98 0.66 3 1 C3 2.32 3 3.64 3 5 C3.66 5 4.32 5 5 5 C5 5.66 5 6.32 5 7 C4.01 7 3.02 7 2 7 C2 7.66 2 8.32 2 9 C1.34 9 0.68 9 0 9 C0 6.03 0 3.06 0 0 Z " fill="#FCDC26" transform="translate(316,178)"/>
<path d="M0 0 C1.79158489 -0.02696365 3.58328473 -0.04637917 5.375 -0.0625 C6.37273437 -0.07410156 7.37046875 -0.08570313 8.3984375 -0.09765625 C11 0 11 0 13 1 C13 1.99 13 2.98 13 4 C8.51474352 3.343621 4.33085971 2.29925791 0 1 C0 0.67 0 0.34 0 0 Z " fill="#FBDB25" transform="translate(290,170)"/>
<path d="M0 0 C0.66 0.33 1.32 0.66 2 1 C0.02 3.31 -1.96 5.62 -4 8 C-4.99 7.67 -5.98 7.34 -7 7 C-7 5.68 -7 4.36 -7 3 C-4.525 3.495 -4.525 3.495 -2 4 C-2 3.01 -2 2.02 -2 1 C-1.34 0.67 -0.68 0.34 0 0 Z " fill="#FCD819" transform="translate(212,367)"/>
<path d="M0 0 C0.66 0 1.32 0 2 0 C2.25 5.625 2.25 5.625 0 9 C-0.99 9 -1.98 9 -3 9 C-2.67 8.01 -2.34 7.02 -2 6 C-1.34 6 -0.68 6 0 6 C0 5.34 0 4.68 0 4 C-0.99 4 -1.98 4 -3 4 C-3 3.34 -3 2.68 -3 2 C-2.01 2 -1.02 2 0 2 C0 1.34 0 0.68 0 0 Z " fill="#FED712" transform="translate(108,148)"/>
<path d="M0 0 C3.33333333 0.66666667 6.66666667 1.33333333 10 2 C11.40185547 2.28037109 11.40185547 2.28037109 12.83203125 2.56640625 C13.54746094 2.70949219 14.26289062 2.85257813 15 3 C15 3.33 15 3.66 15 4 C11.37 4 7.74 4 4 4 C4 3.34 4 2.68 4 2 C2.68 2 1.36 2 0 2 C0 1.34 0 0.68 0 0 Z " fill="#FED514" transform="translate(101,222)"/>
<path d="M0 0 C1.32 0 2.64 0 4 0 C4 0.99 4 1.98 4 3 C6.97 3.495 6.97 3.495 10 4 C9.34 4.66 8.68 5.32 8 6 C4.875 5.625 4.875 5.625 2 5 C2 4.01 2 3.02 2 2 C1.34 2 0.68 2 0 2 C0 1.34 0 0.68 0 0 Z " fill="#FCD816" transform="translate(256,291)"/>
<path d="M0 0 C0.66 0 1.32 0 2 0 C2 0.66 2 1.32 2 2 C3.32 2.33 4.64 2.66 6 3 C4.68 4.32 3.36 5.64 2 7 C1.34 6.67 0.68 6.34 0 6 C0 4.02 0 2.04 0 0 Z " fill="#FCD61A" transform="translate(264,287)"/>
<path d="M0 0 C0.66 0 1.32 0 2 0 C2 1.65 2 3.3 2 5 C-0.70879335 6.35439668 -3.00933268 6.06501451 -6 6 C-6 5.34 -6 4.68 -6 4 C-4.02 3.34 -2.04 2.68 0 2 C0 1.34 0 0.68 0 0 Z " fill="#FCDB28" transform="translate(314,187)"/>
<path d="M0 0 C0.99 0.33 1.98 0.66 3 1 C3 3.31 3 5.62 3 8 C1.35 8 -0.3 8 -2 8 C-2 7.34 -2 6.68 -2 6 C-1.34 6 -0.68 6 0 6 C-0.2784375 4.7934375 -0.2784375 4.7934375 -0.5625 3.5625 C-0.706875 2.716875 -0.85125 1.87125 -1 1 C-0.67 0.67 -0.34 0.34 0 0 Z " fill="#FED715" transform="translate(144,90)"/>
<path d="M0 0 C1.98 0 3.96 0 6 0 C6 0.99 6 1.98 6 3 C4.02 3.66 2.04 4.32 0 5 C0 3.35 0 1.7 0 0 Z " fill="#FED813" transform="translate(197,376)"/>
<path d="M0 0 C1.65 0 3.3 0 5 0 C5.66 1.65 6.32 3.3 7 5 C6.01 4.67 5.02 4.34 4 4 C4 3.34 4 2.68 4 2 C3.34 2 2.68 2 2 2 C2 2.99 2 3.98 2 5 C1.34 5 0.68 5 0 5 C0 3.35 0 1.7 0 0 Z " fill="#FDD914" transform="translate(227,26)"/>
<path d="M0 0 C1.65 0 3.3 0 5 0 C3.70700306 2.88437779 2.34058637 4.87219421 0 7 C0 4.69 0 2.38 0 0 Z " fill="#FCDA24" transform="translate(249,311)"/>
<path d="M0 0 C0.99 0 1.98 0 3 0 C3 2.31 3 4.62 3 7 C2.01 7 1.02 7 0 7 C0 4.69 0 2.38 0 0 Z " fill="#FED713" transform="translate(292,239)"/>
<path d="M0 0 C2.64 0.33 5.28 0.66 8 1 C7.67 1.99 7.34 2.98 7 4 C5.68 4 4.36 4 3 4 C3 3.34 3 2.68 3 2 C2.01 2 1.02 2 0 2 C0 1.34 0 0.68 0 0 Z " fill="#FED711" transform="translate(268,148)"/>
<path d="M0 0 C0.99 0 1.98 0 3 0 C3 0.66 3 1.32 3 2 C3.66 2 4.32 2 5 2 C5 2.66 5 3.32 5 4 C5.66 4 6.32 4 7 4 C7 4.66 7 5.32 7 6 C5.68 6 4.36 6 3 6 C2.67 4.68 2.34 3.36 2 2 C1.34 2 0.68 2 0 2 C0 1.34 0 0.68 0 0 Z " fill="#FED713" transform="translate(253,283)"/>
<path d="M0 0 C1.98 0 3.96 0 6 0 C5.34 1.32 4.68 2.64 4 4 C2.35 3.67 0.7 3.34 -1 3 C-0.67 2.01 -0.34 1.02 0 0 Z " fill="#FCD814" transform="translate(97,239)"/>
<path d="M0 0 C0.99 0 1.98 0 3 0 C3 0.66 3 1.32 3 2 C3.66 2 4.32 2 5 2 C5 2.99 5 3.98 5 5 C3.35 4.67 1.7 4.34 0 4 C0 2.68 0 1.36 0 0 Z " fill="#FFD712" transform="translate(92,165)"/>
<path d="M0 0 C2.31 0 4.62 0 7 0 C6.67 0.99 6.34 1.98 6 3 C4.02 3 2.04 3 0 3 C0 2.01 0 1.02 0 0 Z " fill="#FED713" transform="translate(253,152)"/>
<path d="M0 0 C0.66 0 1.32 0 2 0 C2 0.66 2 1.32 2 2 C2.66 2 3.32 2 4 2 C4 2.66 4 3.32 4 4 C3.34 4 2.68 4 2 4 C2 4.99 2 5.98 2 7 C1.34 7 0.68 7 0 7 C0 4.69 0 2.38 0 0 Z " fill="#FED714" transform="translate(223,337)"/>
<path d="M0 0 C0.99 0 1.98 0 3 0 C1.70700306 2.88437779 0.34058637 4.87219421 -2 7 C-2 5.35 -2 3.7 -2 2 C-1.34 2 -0.68 2 0 2 C0 1.34 0 0.68 0 0 Z " fill="#FBD62B" transform="translate(279,272)"/>
<path d="M0 0 C0 0.66 0 1.32 0 2 C-0.66 2 -1.32 2 -2 2 C-2 2.66 -2 3.32 -2 4 C-3.98 4 -5.96 4 -8 4 C-8 3.34 -8 2.68 -8 2 C-2.25 0 -2.25 0 0 0 Z " fill="#FBDE3F" transform="translate(277,205)"/>
<path d="M0 0 C0.99 0.33 1.98 0.66 3 1 C1.515 3.475 1.515 3.475 0 6 C-0.33 5.34 -0.66 4.68 -1 4 C-1.66 4 -2.32 4 -3 4 C-3 3.34 -3 2.68 -3 2 C-2.01 1.34 -1.02 0.68 0 0 Z " fill="#FCD81E" transform="translate(332,198)"/>
<path d="M0 0 C2.31 0 4.62 0 7 0 C5.75 1.5 5.75 1.5 4 3 C2.68 3 1.36 3 0 3 C0 2.01 0 1.02 0 0 Z " fill="#FDD815" transform="translate(136,250)"/>
<path d="M0 0 C0.33 0 0.66 0 1 0 C1 2.31 1 4.62 1 7 C0.01 7 -0.98 7 -2 7 C-1.125 1.125 -1.125 1.125 0 0 Z " fill="#FED610" transform="translate(131,108)"/>
</svg>
