<?xml version="1.0" encoding="UTF-8"?>
<svg version="1.1" xmlns="http://www.w3.org/2000/svg" width="526" height="526">
<path d="M0 0 C1.38906143 0.00306373 2.77812594 0.00493518 4.16719055 0.00567627 C7.0644627 0.010256 9.96145329 0.02459407 12.85864258 0.046875 C16.56399623 0.0752349 20.2691298 0.08609749 23.97458172 0.0905571 C27.52474914 0.09572046 31.07486193 0.11024928 34.625 0.125 C35.63322091 0.12782108 35.63322091 0.12782108 36.66180992 0.13069916 C38.57103389 0.1376049 40.4802256 0.15214125 42.3894043 0.16699219 C43.47335983 0.17382019 44.55731537 0.18064819 45.67411804 0.18768311 C48.42624158 0.31918769 50.93376595 0.70625479 53.61328125 1.328125 C53.61328125 1.988125 53.61328125 2.648125 53.61328125 3.328125 C54.27328125 3.328125 54.93328125 3.328125 55.61328125 3.328125 C55.61328125 3.988125 55.61328125 4.648125 55.61328125 5.328125 C56.27328125 5.328125 56.93328125 5.328125 57.61328125 5.328125 C57.61328125 5.988125 57.61328125 6.648125 57.61328125 7.328125 C58.27328125 7.328125 58.93328125 7.328125 59.61328125 7.328125 C59.61328125 7.988125 59.61328125 8.648125 59.61328125 9.328125 C60.27328125 9.328125 60.93328125 9.328125 61.61328125 9.328125 C63.61328125 15.328125 63.61328125 15.328125 63.61328125 39.328125 C158.32328125 39.328125 253.03328125 39.328125 350.61328125 39.328125 C350.61328125 32.068125 350.61328125 24.808125 350.61328125 17.328125 C350.94328125 15.348125 351.27328125 13.368125 351.61328125 11.328125 C352.27328125 11.328125 352.93328125 11.328125 353.61328125 11.328125 C353.61328125 10.008125 353.61328125 8.688125 353.61328125 7.328125 C354.27328125 7.328125 354.93328125 7.328125 355.61328125 7.328125 C355.61328125 6.668125 355.61328125 6.008125 355.61328125 5.328125 C356.27328125 5.328125 356.93328125 5.328125 357.61328125 5.328125 C357.61328125 4.668125 357.61328125 4.008125 357.61328125 3.328125 C365.00240516 -0.19743133 371.93525517 -0.07812744 380 0 C381.38906143 0.00306373 382.77812594 0.00493518 384.16719055 0.00567627 C387.0644627 0.010256 389.96145329 0.02459407 392.85864258 0.046875 C396.56399623 0.0752349 400.2691298 0.08609749 403.97458172 0.0905571 C407.52474914 0.09572046 411.07486193 0.11024928 414.625 0.125 C415.63322091 0.12782108 415.63322091 0.12782108 416.66180992 0.13069916 C418.57103389 0.1376049 420.4802256 0.15214125 422.3894043 0.16699219 C423.47335983 0.17382019 424.55731537 0.18064819 425.67411804 0.18768311 C428.42624158 0.31918769 430.93376595 0.70625479 433.61328125 1.328125 C433.61328125 1.988125 433.61328125 2.648125 433.61328125 3.328125 C434.27328125 3.328125 434.93328125 3.328125 435.61328125 3.328125 C435.61328125 3.988125 435.61328125 4.648125 435.61328125 5.328125 C436.27328125 5.328125 436.93328125 5.328125 437.61328125 5.328125 C437.61328125 5.988125 437.61328125 6.648125 437.61328125 7.328125 C438.27328125 7.328125 438.93328125 7.328125 439.61328125 7.328125 C439.61328125 7.988125 439.61328125 8.648125 439.61328125 9.328125 C440.27328125 9.328125 440.93328125 9.328125 441.61328125 9.328125 C442.59316323 13.420237 442.73858207 17.2423021 442.73912239 21.44463444 C442.74057583 22.1532571 442.74202927 22.86187976 442.74352676 23.59197584 C442.7471835 25.97247666 442.74370183 28.35291332 442.74026489 30.7334137 C442.74141683 32.45492029 442.74300485 34.17642664 442.74499214 35.89793247 C442.74917535 40.6333762 442.74709929 45.36879983 442.74400592 50.10424364 C442.74174798 55.20925749 442.7452334 60.31426784 442.74798584 65.41928101 C442.75243818 75.42165343 442.75146947 85.42401835 442.7485732 95.42639107 C442.7463172 103.553146 442.7460075 111.67989883 442.74709702 119.80665398 C442.74725025 120.96214727 442.74740348 122.11764057 442.74756136 123.30814881 C442.74788107 125.65530722 442.74820529 128.00246562 442.74853395 130.34962403 C442.75138714 152.37125718 442.74810417 174.39288618 442.74273358 196.41451865 C442.7382651 215.32281595 442.73904216 234.23110711 442.74365234 253.1394043 C442.74899992 275.08239736 442.75111309 297.02538677 442.74804008 318.96838039 C442.74772152 321.30672419 442.74740715 323.64506799 442.74709702 325.98341179 C442.74694274 327.13400798 442.74678846 328.28460418 442.74662951 329.47006692 C442.74576495 337.59048926 442.74722592 345.71090928 442.74957657 353.83133125 C442.75237677 363.72238659 442.75163161 373.61343399 442.74629582 383.50448842 C442.74366189 388.55401258 442.74264859 393.60352349 442.74594498 398.65304756 C442.74891418 403.27110542 442.74730461 407.88913768 442.74196742 412.5071932 C442.74084593 414.18206993 442.74142854 415.85694881 442.74384321 417.53182418 C442.74686416 419.80039953 442.74378497 422.06888607 442.73912239 424.3374567 C442.73896004 425.59997448 442.73879769 426.86249226 442.73863041 428.16326815 C442.63576291 430.76050065 442.38855463 432.86575799 441.61328125 435.328125 C440.95328125 435.328125 440.29328125 435.328125 439.61328125 435.328125 C439.44828125 436.05 439.28328125 436.771875 439.11328125 437.515625 C436.85315103 441.75336917 434.01171718 443.68531509 429.61328125 445.328125 C423.64953763 446.06982174 417.72076859 445.98194862 411.71936035 445.92939758 C409.87279119 445.93157886 408.02622354 445.93595841 406.17966413 445.94234341 C401.1124382 445.95351533 396.04574139 445.93353513 390.97858286 445.90845311 C385.51173338 445.88685522 380.04491359 445.89416807 374.57803345 445.89796448 C365.10863682 445.90058588 355.63941249 445.88490208 346.1700592 445.85677528 C332.47900327 445.81613526 318.78803062 445.80311753 305.09692091 445.79683533 C282.88390505 445.78589295 260.67097254 445.7526632 238.45800781 445.70532227 C216.8805387 445.65938885 195.30309416 445.62397631 173.72558594 445.6027832 C172.72764085 445.60179676 172.72764085 445.60179676 171.70953525 445.60079038 C164.36528808 445.59354352 157.02104066 445.58658434 149.6767931 445.57974303 C94.32222573 445.52791179 38.96775789 445.43984798 -16.38671875 445.328125 C-16.38671875 444.668125 -16.38671875 444.008125 -16.38671875 443.328125 C-17.70671875 443.328125 -19.02671875 443.328125 -20.38671875 443.328125 C-20.38671875 442.668125 -20.38671875 442.008125 -20.38671875 441.328125 C-21.04671875 441.328125 -21.70671875 441.328125 -22.38671875 441.328125 C-22.38671875 440.668125 -22.38671875 440.008125 -22.38671875 439.328125 C-23.04671875 439.328125 -23.70671875 439.328125 -24.38671875 439.328125 C-24.38671875 438.668125 -24.38671875 438.008125 -24.38671875 437.328125 C-25.04671875 437.328125 -25.70671875 437.328125 -26.38671875 437.328125 C-28.38886375 433.98647134 -28.64427861 431.4362529 -28.66519165 427.56793213 C-28.67635576 426.38571138 -28.68751987 425.20349064 -28.69902229 423.98544502 C-28.70118185 422.68603918 -28.70334141 421.38663334 -28.70556641 420.04785156 C-28.7148758 418.65512966 -28.72504099 417.26241326 -28.73599052 415.86970329 C-28.76348762 412.04425953 -28.77852276 408.21885302 -28.79141045 404.39333582 C-28.80728486 400.28601774 -28.83428025 396.17877045 -28.85974121 392.07150269 C-28.90755059 384.04436473 -28.94416471 376.01721215 -28.97664046 367.98999894 C-29.00330356 361.43860457 -29.03401533 354.8872403 -29.06732178 348.33587646 C-29.48505182 265.7949814 -29.85887111 183.24131164 -28.38671875 11.328125 C-27.72671875 11.328125 -27.06671875 11.328125 -26.38671875 11.328125 C-25.72671875 9.348125 -25.06671875 7.368125 -24.38671875 5.328125 C-23.72671875 5.328125 -23.06671875 5.328125 -22.38671875 5.328125 C-22.38671875 4.668125 -22.38671875 4.008125 -22.38671875 3.328125 C-14.99759484 -0.19743133 -8.06474483 -0.07812744 0 0 Z " fill="#FEC702" transform="translate(56.38671875,43.671875)"/>
<path d="M0 0 C1.38906143 0.00306373 2.77812594 0.00493518 4.16719055 0.00567627 C7.0644627 0.010256 9.96145329 0.02459407 12.85864258 0.046875 C16.56399623 0.0752349 20.2691298 0.08609749 23.97458172 0.0905571 C27.52474914 0.09572046 31.07486193 0.11024928 34.625 0.125 C35.63322091 0.12782108 35.63322091 0.12782108 36.66180992 0.13069916 C38.57103389 0.1376049 40.4802256 0.15214125 42.3894043 0.16699219 C43.47335983 0.17382019 44.55731537 0.18064819 45.67411804 0.18768311 C48.42624158 0.31918769 50.93376595 0.70625479 53.61328125 1.328125 C53.61328125 1.988125 53.61328125 2.648125 53.61328125 3.328125 C54.27328125 3.328125 54.93328125 3.328125 55.61328125 3.328125 C55.61328125 3.988125 55.61328125 4.648125 55.61328125 5.328125 C56.27328125 5.328125 56.93328125 5.328125 57.61328125 5.328125 C57.61328125 5.988125 57.61328125 6.648125 57.61328125 7.328125 C58.27328125 7.328125 58.93328125 7.328125 59.61328125 7.328125 C59.61328125 7.988125 59.61328125 8.648125 59.61328125 9.328125 C60.27328125 9.328125 60.93328125 9.328125 61.61328125 9.328125 C62.59316323 13.420237 62.73858207 17.2423021 62.73912239 21.44463444 C62.74057583 22.1532571 62.74202927 22.86187976 62.74352676 23.59197584 C62.7471835 25.97247666 62.74370183 28.35291332 62.74026489 30.7334137 C62.74141683 32.45492029 62.74300485 34.17642664 62.74499214 35.89793247 C62.74917535 40.6333762 62.74709929 45.36879983 62.74400592 50.10424364 C62.74174798 55.20925749 62.7452334 60.31426784 62.74798584 65.41928101 C62.75243818 75.42165343 62.75146947 85.42401835 62.7485732 95.42639107 C62.7463172 103.553146 62.7460075 111.67989883 62.74709702 119.80665398 C62.74725025 120.96214727 62.74740348 122.11764057 62.74756136 123.30814881 C62.74788107 125.65530722 62.74820529 128.00246562 62.74853395 130.34962403 C62.75138714 152.37125718 62.74810417 174.39288618 62.74273358 196.41451865 C62.7382651 215.32281595 62.73904216 234.23110711 62.74365234 253.1394043 C62.74899992 275.08239736 62.75111309 297.02538677 62.74804008 318.96838039 C62.74772152 321.30672419 62.74740715 323.64506799 62.74709702 325.98341179 C62.74694274 327.13400798 62.74678846 328.28460418 62.74662951 329.47006692 C62.74576495 337.59048926 62.74722592 345.71090928 62.74957657 353.83133125 C62.75237677 363.72238659 62.75163161 373.61343399 62.74629582 383.50448842 C62.74366189 388.55401258 62.74264859 393.60352349 62.74594498 398.65304756 C62.74891418 403.27110542 62.74730461 407.88913768 62.74196742 412.5071932 C62.74084593 414.18206993 62.74142854 415.85694881 62.74384321 417.53182418 C62.74686416 419.80039953 62.74378497 422.06888607 62.73912239 424.3374567 C62.73896004 425.59997448 62.73879769 426.86249226 62.73863041 428.16326815 C62.63576291 430.76050065 62.38855463 432.86575799 61.61328125 435.328125 C60.95328125 435.328125 60.29328125 435.328125 59.61328125 435.328125 C59.44828125 436.05 59.28328125 436.771875 59.11328125 437.515625 C56.82999077 441.79679464 54.14420205 443.61195293 49.61328125 445.328125 C43.86378675 446.06560282 38.15286134 445.98211863 32.36474609 445.92939758 C30.58829839 445.93157902 28.81185226 445.93595886 27.0354147 445.94234341 C22.1620075 445.95351223 17.28915076 445.93353951 12.41581368 445.90845311 C7.15755516 445.88685068 1.8993274 445.89416839 -3.35896301 445.89796448 C-12.46658679 445.90058559 -21.5740314 445.8849048 -30.68161011 445.85677528 C-43.8495919 445.81613136 -57.0174871 445.80311713 -70.18552482 445.79683533 C-91.55000185 445.78589356 -112.9143834 445.7526225 -134.27880859 445.70532227 C-155.03173342 445.65942367 -175.78463231 445.6240332 -196.53759766 445.6027832 C-198.45657663 445.60081278 -198.45657663 445.60081278 -200.41432285 445.59880254 C-206.83232418 445.59227733 -213.2503257 445.5859588 -219.66832733 445.57974303 C-272.90785713 445.52791369 -326.14728328 445.43985154 -379.38671875 445.328125 C-378.45081371 444.2226061 -377.51292017 443.11877047 -376.57421875 442.015625 C-376.05214844 441.40074219 -375.53007812 440.78585937 -374.9921875 440.15234375 C-372.04940855 436.80860222 -372.04940855 436.80860222 -370.38671875 435.328125 C-369.72671875 435.328125 -369.06671875 435.328125 -368.38671875 435.328125 C-368.38671875 434.668125 -368.38671875 434.008125 -368.38671875 433.328125 C-367.72671875 433.328125 -367.06671875 433.328125 -366.38671875 433.328125 C-366.38671875 432.668125 -366.38671875 432.008125 -366.38671875 431.328125 C-365.72671875 431.328125 -365.06671875 431.328125 -364.38671875 431.328125 C-364.38671875 430.668125 -364.38671875 430.008125 -364.38671875 429.328125 C-363.72671875 429.328125 -363.06671875 429.328125 -362.38671875 429.328125 C-362.38671875 428.668125 -362.38671875 428.008125 -362.38671875 427.328125 C-361.72671875 427.328125 -361.06671875 427.328125 -360.38671875 427.328125 C-360.38671875 426.668125 -360.38671875 426.008125 -360.38671875 425.328125 C-359.72671875 425.328125 -359.06671875 425.328125 -358.38671875 425.328125 C-358.38671875 424.668125 -358.38671875 424.008125 -358.38671875 423.328125 C-356.51171875 421.203125 -356.51171875 421.203125 -354.38671875 419.328125 C-353.72671875 419.328125 -353.06671875 419.328125 -352.38671875 419.328125 C-352.38671875 418.668125 -352.38671875 418.008125 -352.38671875 417.328125 C-350.72265646 416.32379714 -349.05544119 415.32469071 -347.38671875 414.328125 C-345.78278175 412.80819125 -344.21986475 411.24388675 -342.69921875 409.640625 C-341.29984168 408.16598731 -339.87009089 406.71823995 -338.38671875 405.328125 C-337.72671875 405.328125 -337.06671875 405.328125 -336.38671875 405.328125 C-336.38671875 404.668125 -336.38671875 404.008125 -336.38671875 403.328125 C-335.72671875 403.328125 -335.06671875 403.328125 -334.38671875 403.328125 C-334.38671875 402.668125 -334.38671875 402.008125 -334.38671875 401.328125 C-333.72671875 401.328125 -333.06671875 401.328125 -332.38671875 401.328125 C-332.38671875 400.668125 -332.38671875 400.008125 -332.38671875 399.328125 C-331.72671875 399.328125 -331.06671875 399.328125 -330.38671875 399.328125 C-330.38671875 398.668125 -330.38671875 398.008125 -330.38671875 397.328125 C-329.72671875 397.328125 -329.06671875 397.328125 -328.38671875 397.328125 C-328.38671875 396.668125 -328.38671875 396.008125 -328.38671875 395.328125 C-327.72671875 395.328125 -327.06671875 395.328125 -326.38671875 395.328125 C-326.38671875 394.668125 -326.38671875 394.008125 -326.38671875 393.328125 C-325.72671875 393.328125 -325.06671875 393.328125 -324.38671875 393.328125 C-324.38671875 392.668125 -324.38671875 392.008125 -324.38671875 391.328125 C-323.72671875 391.328125 -323.06671875 391.328125 -322.38671875 391.328125 C-322.38671875 390.668125 -322.38671875 390.008125 -322.38671875 389.328125 C-321.72671875 389.328125 -321.06671875 389.328125 -320.38671875 389.328125 C-320.38671875 388.668125 -320.38671875 388.008125 -320.38671875 387.328125 C-319.06671875 387.328125 -317.74671875 387.328125 -316.38671875 387.328125 C-316.38671875 384.688125 -316.38671875 382.048125 -316.38671875 379.328125 C-221.67671875 379.328125 -126.96671875 379.328125 -29.38671875 379.328125 C-29.38671875 340.718125 -29.38671875 302.108125 -29.38671875 262.328125 C-49.51671875 262.328125 -69.64671875 262.328125 -90.38671875 262.328125 C-90.38671875 226.688125 -90.38671875 191.048125 -90.38671875 154.328125 C-90.05671875 154.328125 -89.72671875 154.328125 -89.38671875 154.328125 C-89.38671875 163.898125 -89.38671875 173.468125 -89.38671875 183.328125 C-69.58671875 183.328125 -49.78671875 183.328125 -29.38671875 183.328125 C-29.39457397 175.83230713 -29.39457397 175.83230713 -29.40258789 168.18505859 C-29.41914176 151.69266153 -29.4302481 135.20026414 -29.43853092 118.70786095 C-29.44368734 108.70644075 -29.4507176 98.70502843 -29.4621582 88.70361328 C-29.472125 79.98645098 -29.47857694 71.26929437 -29.48080724 62.55212653 C-29.48211095 57.93642002 -29.48517537 53.32072982 -29.49244881 48.70502853 C-29.49924047 44.35981652 -29.50132929 40.01462752 -29.49982643 35.66941071 C-29.50010134 34.07549794 -29.50208779 32.48158441 -29.50592422 30.88767624 C-29.51091061 28.70897403 -29.50969881 26.53035833 -29.50697327 24.35165405 C-29.50835596 22.52373857 -29.50835596 22.52373857 -29.50976658 20.65889549 C-29.39165564 17.4617612 -28.99022628 14.46650161 -28.38671875 11.328125 C-27.72671875 11.328125 -27.06671875 11.328125 -26.38671875 11.328125 C-26.38671875 10.008125 -26.38671875 8.688125 -26.38671875 7.328125 C-25.72671875 7.328125 -25.06671875 7.328125 -24.38671875 7.328125 C-24.38671875 6.668125 -24.38671875 6.008125 -24.38671875 5.328125 C-23.72671875 5.328125 -23.06671875 5.328125 -22.38671875 5.328125 C-22.38671875 4.668125 -22.38671875 4.008125 -22.38671875 3.328125 C-14.99759484 -0.19743133 -8.06474483 -0.07812744 0 0 Z " fill="#FAE36D" transform="translate(436.38671875,43.671875)"/>
<path d="M0 0 C94.71 0 189.42 0 287 0 C287 47.52 287 95.04 287 144 C267.2 144 247.4 144 227 144 C226.67 134.43 226.34 124.86 226 115 C222.74532734 105.23598202 220.12030248 98.16066338 211.02734375 92.97265625 C206.92807971 91.00595732 203.61110917 89.7510834 199.02424622 89.72584534 C197.5589296 89.71088264 197.5589296 89.71088264 196.06401062 89.69561768 C194.47348625 89.69462067 194.47348625 89.69462067 192.85083008 89.69360352 C191.72499512 89.68528 190.59916016 89.67695648 189.43920898 89.66838074 C185.7159479 89.6442793 181.99286209 89.63550753 178.26953125 89.62890625 C175.67746427 89.61993881 173.08539782 89.61081694 170.49333191 89.60154724 C165.05698032 89.58505341 159.62069912 89.57732372 154.18432617 89.57446289 C147.92046032 89.57083348 141.65708621 89.54097774 135.39337045 89.49905831 C129.34866179 89.46003689 123.30422339 89.44886743 117.25937462 89.44773674 C114.69702174 89.44353969 112.13466825 89.43112628 109.57239723 89.41021919 C105.97988243 89.38324361 102.38870831 89.38815061 98.79614258 89.40063477 C97.74591415 89.38580048 96.69568573 89.37096619 95.6136322 89.35568237 C87.55726628 89.43505806 80.93052952 91.42260219 74.87810993 96.93125248 C62.0736829 110.21508568 65.5825127 125.35959354 65 144 C43.55 144 22.1 144 0 144 C0 96.48 0 48.96 0 0 Z " fill="#AA5729" transform="translate(120,83)"/>
<path d="M0 0 C21.45 0 42.9 0 65 0 C65.495 11.88 65.495 11.88 66 24 C69.00849661 34.30182172 73.19949581 39.79226359 82.42910767 45.06040955 C87.70444817 47.65738127 92.70183091 47.56943482 98.48974609 47.53344727 C99.61601913 47.54206284 100.74229218 47.55067841 101.9026947 47.55955505 C105.60984565 47.58217743 109.31623828 47.57548183 113.0234375 47.56640625 C115.6112185 47.57164386 118.19899759 47.57792085 120.78677368 47.58518982 C126.20528165 47.59558757 131.6235024 47.59137348 137.04199219 47.57641602 C143.28381207 47.55950728 149.52493193 47.57532016 155.76667535 47.6076389 C161.79702011 47.63766709 167.8270114 47.6394962 173.85744095 47.6301403 C176.41140274 47.62932242 178.96537927 47.63615454 181.51929855 47.65091133 C185.09719941 47.6684147 188.67362223 47.65376333 192.25146484 47.63110352 C193.81973778 47.64864182 193.81973778 47.64864182 195.41969299 47.66653442 C204.42402666 47.55105124 212.53974679 44.46025321 219 38 C227.79669484 26.12070269 225.34931936 16.26701599 226 0 C246.13 0 266.26 0 287 0 C287 38.61 287 77.22 287 117 C192.29 117 97.58 117 0 117 C0 78.39 0 39.78 0 0 Z " fill="#AA5729" transform="translate(120,306)"/>
<path d="M0 0 C1.38906143 0.00306373 2.77812594 0.00493518 4.16719055 0.00567627 C7.0644627 0.010256 9.96145329 0.02459407 12.85864258 0.046875 C16.56399623 0.0752349 20.2691298 0.08609749 23.97458172 0.0905571 C27.52474914 0.09572046 31.07486193 0.11024928 34.625 0.125 C35.63322091 0.12782108 35.63322091 0.12782108 36.66180992 0.13069916 C38.57103389 0.1376049 40.4802256 0.15214125 42.3894043 0.16699219 C43.47335983 0.17382019 44.55731537 0.18064819 45.67411804 0.18768311 C48.42624158 0.31918769 50.93376595 0.70625479 53.61328125 1.328125 C53.61328125 1.988125 53.61328125 2.648125 53.61328125 3.328125 C54.27328125 3.328125 54.93328125 3.328125 55.61328125 3.328125 C55.61328125 3.988125 55.61328125 4.648125 55.61328125 5.328125 C56.27328125 5.328125 56.93328125 5.328125 57.61328125 5.328125 C57.61328125 5.988125 57.61328125 6.648125 57.61328125 7.328125 C58.27328125 7.328125 58.93328125 7.328125 59.61328125 7.328125 C59.61328125 7.988125 59.61328125 8.648125 59.61328125 9.328125 C60.27328125 9.328125 60.93328125 9.328125 61.61328125 9.328125 C63.34647256 13.83693045 63.86755386 17.58102138 63.88070679 22.40066528 C63.8852379 23.08900637 63.88976901 23.77734745 63.89443743 24.48654735 C63.90704213 26.78032614 63.90546368 29.07386631 63.90380859 31.36767578 C63.90979605 33.01722517 63.91660209 34.66677177 63.92416382 36.3163147 C63.94180247 40.78717481 63.94651811 45.25795834 63.94779539 49.72884989 C63.94921801 52.52197851 63.95348955 55.31508772 63.95878983 58.10821152 C63.97727839 67.85161322 63.98546133 77.59496024 63.98388672 87.33837891 C63.98268351 96.42371095 64.00382393 105.50880612 64.03537405 114.59407818 C64.06150146 122.39548236 64.0722556 130.19680895 64.0709759 137.99825656 C64.07046551 142.65748295 64.07619214 147.31649847 64.097332 151.9756813 C64.1166566 156.35392459 64.11687879 160.73175443 64.10229874 165.11001205 C64.10020278 166.71767529 64.10495819 168.32536404 64.11701965 169.9329834 C64.13240723 172.12566278 64.1232094 174.31690463 64.10775757 176.509552 C64.1088471 177.73696169 64.10993664 178.96437138 64.11105919 180.2289753 C63.52037559 183.90655272 62.55740265 185.11543975 59.61328125 187.328125 C58.95328125 187.328125 58.29328125 187.328125 57.61328125 187.328125 C57.61328125 187.988125 57.61328125 188.648125 57.61328125 189.328125 C56.95328125 189.328125 56.29328125 189.328125 55.61328125 189.328125 C55.61328125 189.988125 55.61328125 190.648125 55.61328125 191.328125 C53.63328125 191.988125 51.65328125 192.648125 49.61328125 193.328125 C49.61328125 193.988125 49.61328125 194.648125 49.61328125 195.328125 C48.95328125 195.328125 48.29328125 195.328125 47.61328125 195.328125 C46.95328125 196.648125 46.29328125 197.968125 45.61328125 199.328125 C44.95328125 199.328125 44.29328125 199.328125 43.61328125 199.328125 C43.61328125 199.988125 43.61328125 200.648125 43.61328125 201.328125 C42.95328125 201.328125 42.29328125 201.328125 41.61328125 201.328125 C41.61328125 201.988125 41.61328125 202.648125 41.61328125 203.328125 C40.95328125 203.328125 40.29328125 203.328125 39.61328125 203.328125 C39.61328125 203.988125 39.61328125 204.648125 39.61328125 205.328125 C38.95328125 205.328125 38.29328125 205.328125 37.61328125 205.328125 C37.61328125 205.988125 37.61328125 206.648125 37.61328125 207.328125 C36.95328125 207.328125 36.29328125 207.328125 35.61328125 207.328125 C35.61328125 207.988125 35.61328125 208.648125 35.61328125 209.328125 C34.95328125 209.328125 34.29328125 209.328125 33.61328125 209.328125 C33.61328125 209.988125 33.61328125 210.648125 33.61328125 211.328125 C30.61328125 213.328125 30.61328125 213.328125 27.61328125 213.328125 C27.24203125 214.25625 27.24203125 214.25625 26.86328125 215.203125 C25.40699486 217.67881187 24.23515619 218.27937502 21.61328125 219.328125 C21.61328125 219.988125 21.61328125 220.648125 21.61328125 221.328125 C20.95328125 221.328125 20.29328125 221.328125 19.61328125 221.328125 C19.61328125 221.988125 19.61328125 222.648125 19.61328125 223.328125 C18.95328125 223.328125 18.29328125 223.328125 17.61328125 223.328125 C17.61328125 223.988125 17.61328125 224.648125 17.61328125 225.328125 C16.95328125 225.328125 16.29328125 225.328125 15.61328125 225.328125 C15.61328125 225.988125 15.61328125 226.648125 15.61328125 227.328125 C14.95328125 227.328125 14.29328125 227.328125 13.61328125 227.328125 C13.61328125 227.988125 13.61328125 228.648125 13.61328125 229.328125 C12.95328125 229.328125 12.29328125 229.328125 11.61328125 229.328125 C11.61328125 229.988125 11.61328125 230.648125 11.61328125 231.328125 C10.95328125 231.328125 10.29328125 231.328125 9.61328125 231.328125 C9.61328125 231.988125 9.61328125 232.648125 9.61328125 233.328125 C8.95328125 233.328125 8.29328125 233.328125 7.61328125 233.328125 C7.61328125 233.988125 7.61328125 234.648125 7.61328125 235.328125 C6.95328125 235.328125 6.29328125 235.328125 5.61328125 235.328125 C5.61328125 235.988125 5.61328125 236.648125 5.61328125 237.328125 C4.95328125 237.328125 4.29328125 237.328125 3.61328125 237.328125 C3.61328125 237.988125 3.61328125 238.648125 3.61328125 239.328125 C2.95328125 239.328125 2.29328125 239.328125 1.61328125 239.328125 C1.61328125 239.988125 1.61328125 240.648125 1.61328125 241.328125 C0.95328125 241.328125 0.29328125 241.328125 -0.38671875 241.328125 C-0.38671875 241.988125 -0.38671875 242.648125 -0.38671875 243.328125 C-1.70671875 243.328125 -3.02671875 243.328125 -4.38671875 243.328125 C-4.63421875 243.946875 -4.88171875 244.565625 -5.13671875 245.203125 C-6.59300514 247.67881187 -7.76484381 248.27937502 -10.38671875 249.328125 C-10.38671875 249.988125 -10.38671875 250.648125 -10.38671875 251.328125 C-11.04671875 251.328125 -11.70671875 251.328125 -12.38671875 251.328125 C-12.38671875 251.988125 -12.38671875 252.648125 -12.38671875 253.328125 C-13.04671875 253.328125 -13.70671875 253.328125 -14.38671875 253.328125 C-14.38671875 253.988125 -14.38671875 254.648125 -14.38671875 255.328125 C-15.04671875 255.328125 -15.70671875 255.328125 -16.38671875 255.328125 C-16.38671875 255.988125 -16.38671875 256.648125 -16.38671875 257.328125 C-17.04671875 257.328125 -17.70671875 257.328125 -18.38671875 257.328125 C-18.38671875 257.988125 -18.38671875 258.648125 -18.38671875 259.328125 C-19.04671875 259.328125 -19.70671875 259.328125 -20.38671875 259.328125 C-20.38671875 259.988125 -20.38671875 260.648125 -20.38671875 261.328125 C-21.84765625 262.8359375 -21.84765625 262.8359375 -23.76171875 264.453125 C-24.38820313 264.99195313 -25.0146875 265.53078125 -25.66015625 266.0859375 C-27.38671875 267.328125 -27.38671875 267.328125 -29.38671875 267.328125 C-29.41778033 244.16146447 -29.43784216 220.99480327 -29.44921875 197.828125 C-29.44965305 196.96911465 -29.45008736 196.11010429 -29.45053482 195.22506332 C-29.47372083 148.09011091 -29.39327611 100.96077708 -28.88671875 53.828125 C-28.87476093 52.71462677 -28.86280312 51.60112854 -28.85048294 50.45388794 C-28.70926329 37.41179767 -28.555965 24.36988152 -28.38671875 11.328125 C-27.72671875 11.328125 -27.06671875 11.328125 -26.38671875 11.328125 C-25.72671875 9.348125 -25.06671875 7.368125 -24.38671875 5.328125 C-23.72671875 5.328125 -23.06671875 5.328125 -22.38671875 5.328125 C-22.38671875 4.668125 -22.38671875 4.008125 -22.38671875 3.328125 C-14.99759484 -0.19743133 -8.06474483 -0.07812744 0 0 Z " fill="#FAE36D" transform="translate(56.38671875,43.671875)"/>
<path d="M0 0 C0.66 0 1.32 0 2 0 C2 39.6 2 79.2 2 120 C1.34 120 0.68 120 0 120 C-0.165 120.721875 -0.33 121.44375 -0.5 122.1875 C-2.72406162 126.35761553 -5.67537941 128.18393833 -10 130 C-14.22900433 130.68562756 -18.38197494 130.6334338 -22.65820312 130.56762695 C-24.53264099 130.56872215 -24.53264099 130.56872215 -26.44494629 130.56983948 C-29.84992706 130.56696541 -33.25336703 130.54200083 -36.65807533 130.50696969 C-40.2241112 130.47558101 -43.79017054 130.47276566 -47.35632324 130.46684265 C-54.09945287 130.45134068 -60.84217417 130.41036237 -67.58512449 130.3600952 C-75.2658799 130.30408745 -82.94665545 130.27668664 -90.62756443 130.25161803 C-106.41861225 130.19944266 -122.20925334 130.11157231 -138 130 C-138 129.34 -138 128.68 -138 128 C-135 126 -135 126 -132 126 C-132 125.34 -132 124.68 -132 124 C-131.34 124 -130.68 124 -130 124 C-130 123.34 -130 122.68 -130 122 C-129.34 122 -128.68 122 -128 122 C-127.34 120.68 -126.68 119.36 -126 118 C-125.34 118 -124.68 118 -124 118 C-124 117.34 -124 116.68 -124 116 C-123.34 116 -122.68 116 -122 116 C-122 115.34 -122 114.68 -122 114 C-121.34 114 -120.68 114 -120 114 C-120 113.34 -120 112.68 -120 112 C-119.34 112 -118.68 112 -118 112 C-118 111.34 -118 110.68 -118 110 C-117.34 110 -116.68 110 -116 110 C-116 109.34 -116 108.68 -116 108 C-115.34 108 -114.68 108 -114 108 C-114 107.34 -114 106.68 -114 106 C-113.34 106 -112.68 106 -112 106 C-112 105.34 -112 104.68 -112 104 C-110.68 104 -109.36 104 -108 104 C-108 103.34 -108 102.68 -108 102 C-107.34 102 -106.68 102 -106 102 C-106 101.34 -106 100.68 -106 100 C-105.34 100 -104.68 100 -104 100 C-104 99.34 -104 98.68 -104 98 C-103.34 98 -102.68 98 -102 98 C-102 97.34 -102 96.68 -102 96 C-101.34 96 -100.68 96 -100 96 C-100 95.34 -100 94.68 -100 94 C-99.34 94 -98.68 94 -98 94 C-98 93.34 -98 92.68 -98 92 C-97.34 92 -96.68 92 -96 92 C-96 91.34 -96 90.68 -96 90 C-95.34 90 -94.68 90 -94 90 C-94 89.34 -94 88.68 -94 88 C-93.34 88 -92.68 88 -92 88 C-92 87.34 -92 86.68 -92 86 C-91.34 86 -90.68 86 -90 86 C-90 85.34 -90 84.68 -90 84 C-89.34 84 -88.68 84 -88 84 C-88 83.34 -88 82.68 -88 82 C-87.34 82 -86.68 82 -86 82 C-86 81.34 -86 80.68 -86 80 C-85.34 80 -84.68 80 -84 80 C-84 79.34 -84 78.68 -84 78 C-83.34 78 -82.68 78 -82 78 C-82 77.34 -82 76.68 -82 76 C-80.125 73.875 -80.125 73.875 -78 72 C-77.34 72 -76.68 72 -76 72 C-76 71.34 -76 70.68 -76 70 C-75.34 70 -74.68 70 -74 70 C-74 69.34 -74 68.68 -74 68 C-72.68 68 -71.36 68 -70 68 C-70 67.34 -70 66.68 -70 66 C-69.34 66 -68.68 66 -68 66 C-68 65.34 -68 64.68 -68 64 C-67.34 64 -66.68 64 -66 64 C-66 63.34 -66 62.68 -66 62 C-65.34 62 -64.68 62 -64 62 C-64 61.34 -64 60.68 -64 60 C-63.34 60 -62.68 60 -62 60 C-62 59.34 -62 58.68 -62 58 C-61.34 58 -60.68 58 -60 58 C-60 57.34 -60 56.68 -60 56 C-59.34 56 -58.68 56 -58 56 C-58 55.34 -58 54.68 -58 54 C-57.34 54 -56.68 54 -56 54 C-56 53.34 -56 52.68 -56 52 C-55.34 52 -54.68 52 -54 52 C-54 51.34 -54 50.68 -54 50 C-53.34 50 -52.68 50 -52 50 C-52 49.34 -52 48.68 -52 48 C-51.34 48 -50.68 48 -50 48 C-50 47.34 -50 46.68 -50 46 C-48.68 46 -47.36 46 -46 46 C-46 44.68 -46 43.36 -46 42 C-45.34 42 -44.68 42 -44 42 C-44 41.34 -44 40.68 -44 40 C-42.68 40 -41.36 40 -40 40 C-40 39.34 -40 38.68 -40 38 C-39.34 38 -38.68 38 -38 38 C-38 37.34 -38 36.68 -38 36 C-37.34 36 -36.68 36 -36 36 C-36 35.34 -36 34.68 -36 34 C-35.34 34 -34.68 34 -34 34 C-34 33.34 -34 32.68 -34 32 C-33.34 32 -32.68 32 -32 32 C-32 31.34 -32 30.68 -32 30 C-31.34 30 -30.68 30 -30 30 C-30 29.34 -30 28.68 -30 28 C-28.3603279 26.63360658 -26.68889872 25.3050581 -25 24 C-23.948125 22.88625 -23.948125 22.88625 -22.875 21.75 C-21 20 -21 20 -18 20 C-18 19.34 -18 18.68 -18 18 C-17.34 18 -16.68 18 -16 18 C-16 17.34 -16 16.68 -16 16 C-15.34 16 -14.68 16 -14 16 C-14 15.34 -14 14.68 -14 14 C-13.34 14 -12.68 14 -12 14 C-11.62875 13.071875 -11.62875 13.071875 -11.25 12.125 C-9.79371361 9.64931313 -8.62187494 9.04874998 -6 8 C-6 7.34 -6 6.68 -6 6 C-5.34 6 -4.68 6 -4 6 C-4 5.34 -4 4.68 -4 4 C-3.34 4 -2.68 4 -2 4 C-2 3.34 -2 2.68 -2 2 C-1.34 2 -0.68 2 0 2 C0 1.34 0 0.68 0 0 Z " fill="#FEC801" transform="translate(496,359)"/>
<path d="M0 0 C1.96875 1.1171875 1.96875 1.1171875 3.8125 2.375 C4.5034375 2.81070313 5.194375 3.24640625 5.90625 3.6953125 C13.81670208 9.09685254 19.71695195 16.95095342 21.8125 26.375 C22.12249196 29.4190781 22.22065504 32.44125661 22.25 35.5 C22.26015137 36.25200684 22.27030273 37.00401367 22.28076172 37.77880859 C22.17257811 44.73455729 20.17009032 50.68805416 16.4375 56.5625 C16.01597656 57.22894531 15.59445312 57.89539063 15.16015625 58.58203125 C13.8125 60.375 13.8125 60.375 10.875 62.75 C8.5747247 65.08392153 8.5747247 65.08392153 8.92114258 67.39038086 C10.69474814 75.29039982 13.01065558 82.99036955 15.421875 90.71679688 C17.52702322 97.68236084 18.89310328 102.89305611 16.6875 110 C14.23735552 114.41026006 11.38624883 117.08812558 6.8125 119.375 C3.74764732 119.49885518 0.70647942 119.56347776 -2.359375 119.578125 C-3.27454895 119.58382507 -4.1897229 119.58952515 -5.13262939 119.59539795 C-7.07278281 119.60485526 -9.01295235 119.61138483 -10.953125 119.61523438 C-13.91174688 119.62491573 -16.86966697 119.65592206 -19.828125 119.6875 C-21.71353754 119.69403252 -23.59895506 119.69928201 -25.484375 119.703125 C-26.36583191 119.7154718 -27.24728882 119.7278186 -28.15545654 119.74053955 C-33.25666558 119.72218234 -36.77631631 119.22470274 -41.1875 116.375 C-45.85444926 111.20351568 -46.47666627 108.10183663 -46.40625 101.2890625 C-46.15057009 97.88304085 -45.32218299 95.19275649 -44.109375 92.0234375 C-42.88726165 88.51245085 -42.05040747 84.92406531 -41.1875 81.3125 C-39.86210706 75.83128925 -38.35835934 70.58506243 -36.1875 65.375 C-36.77402344 65.14039063 -37.36054688 64.90578125 -37.96484375 64.6640625 C-45.1295085 60.50880878 -48.49080797 51.06673993 -50.73828125 43.52734375 C-52.96032365 32.88086234 -50.56273426 23.4271442 -45.375 14.125 C-34.37796988 0.30016213 -17.37192604 -7.11766414 0 0 Z " fill="#CD7903" transform="translate(279.1875,204.625)"/>
<path d="M0 0 C1.38906143 0.00306373 2.77812594 0.00493518 4.16719055 0.00567627 C7.0644627 0.010256 9.96145329 0.02459407 12.85864258 0.046875 C16.56399623 0.0752349 20.2691298 0.08609749 23.97458172 0.0905571 C27.52474914 0.09572046 31.07486193 0.11024928 34.625 0.125 C35.63322091 0.12782108 35.63322091 0.12782108 36.66180992 0.13069916 C38.57103389 0.1376049 40.4802256 0.15214125 42.3894043 0.16699219 C43.47335983 0.17382019 44.55731537 0.18064819 45.67411804 0.18768311 C48.42624158 0.31918769 50.93376595 0.70625479 53.61328125 1.328125 C53.61328125 1.988125 53.61328125 2.648125 53.61328125 3.328125 C54.27328125 3.328125 54.93328125 3.328125 55.61328125 3.328125 C55.61328125 3.988125 55.61328125 4.648125 55.61328125 5.328125 C56.27328125 5.328125 56.93328125 5.328125 57.61328125 5.328125 C57.61328125 5.988125 57.61328125 6.648125 57.61328125 7.328125 C58.27328125 7.328125 58.93328125 7.328125 59.61328125 7.328125 C59.61328125 7.988125 59.61328125 8.648125 59.61328125 9.328125 C60.27328125 9.328125 60.93328125 9.328125 61.61328125 9.328125 C61.61328125 17.908125 61.61328125 26.488125 61.61328125 35.328125 C60.95328125 35.328125 60.29328125 35.328125 59.61328125 35.328125 C59.61328125 35.988125 59.61328125 36.648125 59.61328125 37.328125 C56.61328125 39.328125 56.61328125 39.328125 53.61328125 39.328125 C53.61328125 39.988125 53.61328125 40.648125 53.61328125 41.328125 C52.95328125 41.328125 52.29328125 41.328125 51.61328125 41.328125 C51.61328125 41.988125 51.61328125 42.648125 51.61328125 43.328125 C50.95328125 43.328125 50.29328125 43.328125 49.61328125 43.328125 C49.24203125 44.194375 49.24203125 44.194375 48.86328125 45.078125 C47.43028137 47.65752479 45.82903449 49.38934092 43.61328125 51.328125 C42.95328125 51.328125 42.29328125 51.328125 41.61328125 51.328125 C41.61328125 51.988125 41.61328125 52.648125 41.61328125 53.328125 C40.95328125 53.328125 40.29328125 53.328125 39.61328125 53.328125 C39.61328125 53.988125 39.61328125 54.648125 39.61328125 55.328125 C38.95328125 55.328125 38.29328125 55.328125 37.61328125 55.328125 C37.61328125 55.988125 37.61328125 56.648125 37.61328125 57.328125 C36.95328125 57.328125 36.29328125 57.328125 35.61328125 57.328125 C35.61328125 57.988125 35.61328125 58.648125 35.61328125 59.328125 C34.95328125 59.328125 34.29328125 59.328125 33.61328125 59.328125 C33.61328125 59.988125 33.61328125 60.648125 33.61328125 61.328125 C32.95328125 61.328125 32.29328125 61.328125 31.61328125 61.328125 C31.61328125 61.988125 31.61328125 62.648125 31.61328125 63.328125 C27.26034007 67.328125 27.26034007 67.328125 23.61328125 67.328125 C23.61328125 67.988125 23.61328125 68.648125 23.61328125 69.328125 C22.95328125 69.328125 22.29328125 69.328125 21.61328125 69.328125 C21.61328125 69.988125 21.61328125 70.648125 21.61328125 71.328125 C20.95328125 71.328125 20.29328125 71.328125 19.61328125 71.328125 C19.61328125 71.988125 19.61328125 72.648125 19.61328125 73.328125 C18.95328125 73.328125 18.29328125 73.328125 17.61328125 73.328125 C17.61328125 73.988125 17.61328125 74.648125 17.61328125 75.328125 C16.95328125 75.328125 16.29328125 75.328125 15.61328125 75.328125 C15.24203125 76.25625 15.24203125 76.25625 14.86328125 77.203125 C13.40699486 79.67881187 12.23515619 80.27937502 9.61328125 81.328125 C9.61328125 81.988125 9.61328125 82.648125 9.61328125 83.328125 C8.95328125 83.328125 8.29328125 83.328125 7.61328125 83.328125 C7.61328125 83.988125 7.61328125 84.648125 7.61328125 85.328125 C6.109375 86.80859375 6.109375 86.80859375 4.05078125 88.515625 C1.26484607 90.87974605 -1.39472453 93.27807409 -3.94921875 95.890625 C-7.2344845 99.22110083 -10.58276893 102.58807671 -14.38671875 105.328125 C-15.04671875 105.328125 -15.70671875 105.328125 -16.38671875 105.328125 C-16.38671875 105.988125 -16.38671875 106.648125 -16.38671875 107.328125 C-17.04671875 107.328125 -17.70671875 107.328125 -18.38671875 107.328125 C-18.38671875 107.988125 -18.38671875 108.648125 -18.38671875 109.328125 C-19.04671875 109.328125 -19.70671875 109.328125 -20.38671875 109.328125 C-20.38671875 109.988125 -20.38671875 110.648125 -20.38671875 111.328125 C-21.04671875 111.328125 -21.70671875 111.328125 -22.38671875 111.328125 C-22.38671875 111.988125 -22.38671875 112.648125 -22.38671875 113.328125 C-23.04671875 113.328125 -23.70671875 113.328125 -24.38671875 113.328125 C-24.38671875 113.988125 -24.38671875 114.648125 -24.38671875 115.328125 C-25.70671875 115.328125 -27.02671875 115.328125 -28.38671875 115.328125 C-28.38671875 81.008125 -28.38671875 46.688125 -28.38671875 11.328125 C-27.72671875 11.328125 -27.06671875 11.328125 -26.38671875 11.328125 C-26.38671875 10.008125 -26.38671875 8.688125 -26.38671875 7.328125 C-25.72671875 7.328125 -25.06671875 7.328125 -24.38671875 7.328125 C-24.38671875 6.668125 -24.38671875 6.008125 -24.38671875 5.328125 C-23.72671875 5.328125 -23.06671875 5.328125 -22.38671875 5.328125 C-22.38671875 4.668125 -22.38671875 4.008125 -22.38671875 3.328125 C-14.99759484 -0.19743133 -8.06474483 -0.07812744 0 0 Z " fill="#FEC802" transform="translate(436.38671875,43.671875)"/>
<path d="M0 0 C1.38906143 0.00306373 2.77812594 0.00493518 4.16719055 0.00567627 C7.0644627 0.010256 9.96145329 0.02459407 12.85864258 0.046875 C16.56399623 0.0752349 20.2691298 0.08609749 23.97458172 0.0905571 C27.52474914 0.09572046 31.07486193 0.11024928 34.625 0.125 C35.63322091 0.12782108 35.63322091 0.12782108 36.66180992 0.13069916 C38.57103389 0.1376049 40.4802256 0.15214125 42.3894043 0.16699219 C43.47335983 0.17382019 44.55731537 0.18064819 45.67411804 0.18768311 C48.42624158 0.31918769 50.93376595 0.70625479 53.61328125 1.328125 C53.61328125 1.988125 53.61328125 2.648125 53.61328125 3.328125 C54.27328125 3.328125 54.93328125 3.328125 55.61328125 3.328125 C55.61328125 3.988125 55.61328125 4.648125 55.61328125 5.328125 C56.27328125 5.328125 56.93328125 5.328125 57.61328125 5.328125 C57.61328125 5.988125 57.61328125 6.648125 57.61328125 7.328125 C58.27328125 7.328125 58.93328125 7.328125 59.61328125 7.328125 C59.61328125 7.988125 59.61328125 8.648125 59.61328125 9.328125 C60.27328125 9.328125 60.93328125 9.328125 61.61328125 9.328125 C61.61328125 16.588125 61.61328125 23.848125 61.61328125 31.328125 C60.95328125 31.328125 60.29328125 31.328125 59.61328125 31.328125 C59.28328125 32.648125 58.95328125 33.968125 58.61328125 35.328125 C57.62328125 35.328125 56.63328125 35.328125 55.61328125 35.328125 C55.61328125 35.988125 55.61328125 36.648125 55.61328125 37.328125 C54.95328125 37.328125 54.29328125 37.328125 53.61328125 37.328125 C53.61328125 37.988125 53.61328125 38.648125 53.61328125 39.328125 C52.95328125 39.328125 52.29328125 39.328125 51.61328125 39.328125 C51.61328125 39.988125 51.61328125 40.648125 51.61328125 41.328125 C50.95328125 41.328125 50.29328125 41.328125 49.61328125 41.328125 C49.61328125 41.988125 49.61328125 42.648125 49.61328125 43.328125 C48.95328125 43.328125 48.29328125 43.328125 47.61328125 43.328125 C47.61328125 43.988125 47.61328125 44.648125 47.61328125 45.328125 C46.1875 46.8359375 46.1875 46.8359375 44.30078125 48.453125 C43.68589844 48.99195313 43.07101563 49.53078125 42.4375 50.0859375 C40.61328125 51.328125 40.61328125 51.328125 37.61328125 51.328125 C37.61328125 51.988125 37.61328125 52.648125 37.61328125 53.328125 C36.95328125 53.328125 36.29328125 53.328125 35.61328125 53.328125 C35.61328125 53.988125 35.61328125 54.648125 35.61328125 55.328125 C34.95328125 55.328125 34.29328125 55.328125 33.61328125 55.328125 C33.61328125 55.988125 33.61328125 56.648125 33.61328125 57.328125 C32.95328125 57.328125 32.29328125 57.328125 31.61328125 57.328125 C31.61328125 57.988125 31.61328125 58.648125 31.61328125 59.328125 C30.95328125 59.328125 30.29328125 59.328125 29.61328125 59.328125 C29.61328125 59.988125 29.61328125 60.648125 29.61328125 61.328125 C28.95328125 61.328125 28.29328125 61.328125 27.61328125 61.328125 C27.36578125 61.946875 27.11828125 62.565625 26.86328125 63.203125 C25.40699486 65.67881187 24.23515619 66.27937502 21.61328125 67.328125 C21.61328125 67.988125 21.61328125 68.648125 21.61328125 69.328125 C20.95328125 69.328125 20.29328125 69.328125 19.61328125 69.328125 C19.61328125 69.988125 19.61328125 70.648125 19.61328125 71.328125 C18.95328125 71.328125 18.29328125 71.328125 17.61328125 71.328125 C17.61328125 71.988125 17.61328125 72.648125 17.61328125 73.328125 C16.80890625 73.8025 16.00453125 74.276875 15.17578125 74.765625 C12.32147365 76.12796172 12.32147365 76.12796172 11.61328125 79.328125 C8.96837384 81.13779849 6.65911012 82.31284871 3.61328125 83.328125 C3.30390625 83.9675 2.99453125 84.606875 2.67578125 85.265625 C1.37904745 87.78281415 0.19110755 88.29699448 -2.38671875 89.328125 C-2.38671875 89.988125 -2.38671875 90.648125 -2.38671875 91.328125 C-3.04671875 91.328125 -3.70671875 91.328125 -4.38671875 91.328125 C-4.38671875 91.988125 -4.38671875 92.648125 -4.38671875 93.328125 C-5.9609375 94.87890625 -5.9609375 94.87890625 -8.07421875 96.640625 C-10.58100183 98.75766089 -12.9631424 100.86492954 -15.19921875 103.265625 C-17.38671875 105.328125 -17.38671875 105.328125 -20.38671875 105.328125 C-20.38671875 105.988125 -20.38671875 106.648125 -20.38671875 107.328125 C-21.04671875 107.328125 -21.70671875 107.328125 -22.38671875 107.328125 C-22.38671875 107.988125 -22.38671875 108.648125 -22.38671875 109.328125 C-23.04671875 109.328125 -23.70671875 109.328125 -24.38671875 109.328125 C-24.38671875 109.988125 -24.38671875 110.648125 -24.38671875 111.328125 C-25.04671875 111.328125 -25.70671875 111.328125 -26.38671875 111.328125 C-26.38671875 111.988125 -26.38671875 112.648125 -26.38671875 113.328125 C-27.04671875 113.328125 -27.70671875 113.328125 -28.38671875 113.328125 C-28.38671875 79.668125 -28.38671875 46.008125 -28.38671875 11.328125 C-27.72671875 11.328125 -27.06671875 11.328125 -26.38671875 11.328125 C-25.72671875 9.348125 -25.06671875 7.368125 -24.38671875 5.328125 C-23.72671875 5.328125 -23.06671875 5.328125 -22.38671875 5.328125 C-22.38671875 4.668125 -22.38671875 4.008125 -22.38671875 3.328125 C-14.99759484 -0.19743133 -8.06474483 -0.07812744 0 0 Z " fill="#FEC802" transform="translate(56.38671875,43.671875)"/>
<path d="M0 0 C94.71 0 189.42 0 287 0 C287 0.33 287 0.66 287 1 C286.40519516 1.00059709 285.81039032 1.00119418 285.19756109 1.00180936 C249.95829186 1.03768964 214.71911552 1.09430751 179.47992643 1.17792095 C175.25037122 1.18793862 171.02081563 1.19778271 166.79125977 1.20751953 C165.52819705 1.21043159 165.52819705 1.21043159 164.23961791 1.21340248 C150.59862886 1.24443842 136.95765664 1.26140757 123.31663892 1.27319422 C109.32362313 1.28559754 95.33069579 1.31308035 81.33773583 1.35461307 C72.70067673 1.37977202 64.06376428 1.39311554 55.42666801 1.39142957 C49.50691797 1.39139986 43.58731752 1.4059942 37.66762576 1.43216428 C34.25028818 1.44683759 30.83325736 1.45499009 27.41589355 1.44580269 C23.71262584 1.43920447 20.01025998 1.4569848 16.30708313 1.48101807 C15.22439992 1.47325765 14.14171671 1.46549723 13.02622491 1.45750165 C7.08481034 1.50889349 7.08481034 1.50889349 1.7933073 4.03243637 C1.20151589 4.68173237 0.60972448 5.33102837 0 6 C0 4.02 0 2.04 0 0 Z " fill="#ECCE60" transform="translate(120,423)"/>
<path d="M0 0 C20.79 0 41.58 0 63 0 C62.01 0.33 61.02 0.66 60 1 C60 1.66 60 2.32 60 3 C42.84 3 25.68 3 8 3 C8 2.34 8 1.68 8 1 C5.36 1 2.72 1 0 1 C0 0.67 0 0.34 0 0 Z " fill="#F7C72D" transform="translate(42,44)"/>
<path d="M0 0 C1.32 0 2.64 0 4 0 C4 1.32 4 2.64 4 4 C5.32 4 6.64 4 8 4 C8 2.68 8 1.36 8 0 C9.32 0 10.64 0 12 0 C12 5.28 12 10.56 12 16 C11.34 16 10.68 16 10 16 C9.7525 16.763125 9.505 17.52625 9.25 18.3125 C7.87869328 21.26080945 6.7648921 22.35834532 4 24 C3.34 24 2.68 24 2 24 C2 23.34 2 22.68 2 22 C2.66 22 3.32 22 4 22 C4 19.36 4 16.72 4 14 C5.32 14 6.64 14 8 14 C8.66 11.36 9.32 8.72 10 6 C9.34 6 8.68 6 8 6 C8 6.66 8 7.32 8 8 C7.34 8 6.68 8 6 8 C6 8.66 6 9.32 6 10 C5.34 10 4.68 10 4 10 C4 10.66 4 11.32 4 12 C3.34 12 2.68 12 2 12 C2 10.68 2 9.36 2 8 C1.34 8 0.68 8 0 8 C0 7.34 0 6.68 0 6 C-0.66 6 -1.32 6 -2 6 C-2 4.68 -2 3.36 -2 2 C-1.34 2 -0.68 2 0 2 C0 1.34 0 0.68 0 0 Z " fill="#FEC70C" transform="translate(486,463)"/>
<path d="M0 0 C20.79 0 41.58 0 63 0 C63 0.33 63 0.66 63 1 C57.39 1 51.78 1 46 1 C46 1.66 46 2.32 46 3 C35.44 3 24.88 3 14 3 C14 2.34 14 1.68 14 1 C9.38 1 4.76 1 0 1 C0 0.67 0 0.34 0 0 Z " fill="#F4C838" transform="translate(422,44)"/>
<path d="M0 0 C1.10537109 0.65194336 2.21074219 1.30388672 3.34960938 1.97558594 C8.39883314 4.488011 12.85252531 4.51509624 18.40625 4.390625 C19.85420959 4.38213531 19.85420959 4.38213531 21.3314209 4.37347412 C24.38813717 4.35123963 27.44364328 4.30106775 30.5 4.25 C32.5833163 4.22991828 34.66665113 4.21167045 36.75 4.1953125 C41.8337934 4.15141725 46.91669215 4.08248003 52 4 C52 4.66 52 5.32 52 6 C53.32 6 54.64 6 56 6 C56 6.66 56 7.32 56 8 C55.34 8 54.68 8 54 8 C54 8.66 54 9.32 54 10 C49.38 10 44.76 10 40 10 C40 8.68 40 7.36 40 6 C28.12 6 16.24 6 4 6 C4 5.34 4 4.68 4 4 C2.68 4 1.36 4 0 4 C0 2.68 0 1.36 0 0 Z " fill="#FEC70C" transform="translate(236,319)"/>
<path d="M0 0 C1.32 0 2.64 0 4 0 C4 0.66 4 1.32 4 2 C4.66 2 5.32 2 6 2 C6 2.66 6 3.32 6 4 C6.66 4 7.32 4 8 4 C8 4.66 8 5.32 8 6 C8.66 6 9.32 6 10 6 C10 6.66 10 7.32 10 8 C10.66 8 11.32 8 12 8 C12 9.32 12 10.64 12 12 C10.68 12 9.36 12 8 12 C8 12.66 8 13.32 8 14 C6.68 14 5.36 14 4 14 C4 13.34 4 12.68 4 12 C2.68 12 1.36 12 0 12 C0 10.68 0 9.36 0 8 C-0.66 8 -1.32 8 -2 8 C-2 6.68 -2 5.36 -2 4 C-1.34 4 -0.68 4 0 4 C0 2.68 0 1.36 0 0 Z " fill="#FCC913" transform="translate(106,45)"/>
<path d="M0 0 C0.33 0 0.66 0 1 0 C1.58557356 6.41834545 -2.14486596 10.21931186 -6 15 C-8.625 17.6875 -8.625 17.6875 -11 19 C-13.8125 18.75 -13.8125 18.75 -16 18 C-16 17.34 -16 16.68 -16 16 C-15.34 16 -14.68 16 -14 16 C-14 15.34 -14 14.68 -14 14 C-13.34 14 -12.68 14 -12 14 C-12 13.34 -12 12.68 -12 12 C-11.34 12 -10.68 12 -10 12 C-10 11.34 -10 10.68 -10 10 C-8.68 10 -7.36 10 -6 10 C-6 9.34 -6 8.68 -6 8 C-6.66 8 -7.32 8 -8 8 C-8 7.34 -8 6.68 -8 6 C-7.34 6 -6.68 6 -6 6 C-6 5.34 -6 4.68 -6 4 C-3 3 -3 3 0 4 C0 2.68 0 1.36 0 0 Z " fill="#FCC312" transform="translate(344,331)"/>
<path d="M0 0 C2.64 0 5.28 0 8 0 C8 0.66 8 1.32 8 2 C7.34 2 6.68 2 6 2 C7.84188612 4.05270463 7.84188612 4.05270463 10 5 C8.42702086 6.86562642 7.54489783 7.90238443 5.09887695 8.34057617 C4.40238037 8.32486572 3.70588379 8.30915527 2.98828125 8.29296875 C2.23095703 8.28330078 1.47363281 8.27363281 0.69335938 8.26367188 C-0.48516602 8.2259668 -0.48516602 8.2259668 -1.6875 8.1875 C-2.88342773 8.16719727 -2.88342773 8.16719727 -4.10351562 8.14648438 C-6.06929967 8.11117089 -8.03473582 8.05736447 -10 8 C-10 7.34 -10 6.68 -10 6 C-9.34 6 -8.68 6 -8 6 C-8 5.34 -8 4.68 -8 4 C-5.36 4 -2.72 4 0 4 C0 2.68 0 1.36 0 0 Z " fill="#FCCA19" transform="translate(50,481)"/>
<path d="M0 0 C4.62 0 9.24 0 14 0 C14 0.66 14 1.32 14 2 C14.66 2 15.32 2 16 2 C16 2.66 16 3.32 16 4 C16.66 4 17.32 4 18 4 C18 4.66 18 5.32 18 6 C18.66 6.33 19.32 6.66 20 7 C17.703463 8.1482685 16.41686833 8.11561175 13.8671875 8.09765625 C13.06152344 8.09443359 12.25585938 8.09121094 11.42578125 8.08789062 C10.58402344 8.07951172 9.74226563 8.07113281 8.875 8.0625 C8.02550781 8.05798828 7.17601562 8.05347656 6.30078125 8.04882812 C4.20049091 8.03702874 2.1002367 8.01909306 0 8 C0 7.34 0 6.68 0 6 C3.96 6 7.92 6 12 6 C12 4.68 12 3.36 12 2 C8.04 2 4.08 2 0 2 C0 1.34 0 0.68 0 0 Z " fill="#FCC91C" transform="translate(468,481)"/>
<path d="M0 0 C4.78908556 1.59636185 6.6914169 5.66792991 9 10 C9.69323868 12.44855456 9.89102326 14.43904668 10 17 C9.01 16.67 8.02 16.34 7 16 C7.33 14.35 7.66 12.7 8 11 C7.38125 11.185625 6.7625 11.37125 6.125 11.5625 C4 12 4 12 2 11 C2 10.34 2 9.68 2 9 C1.34 9 0.68 9 0 9 C0 8.34 0 7.68 0 7 C0.66 7 1.32 7 2 7 C2 6.34 2 5.68 2 5 C0.68 5 -0.64 5 -2 5 C-2 4.34 -2 3.68 -2 3 C-1.34 3 -0.68 3 0 3 C0 2.01 0 1.02 0 0 Z " fill="#FDC411" transform="translate(336,180)"/>
<path d="M0 0 C0.66 0 1.32 0 2 0 C2 0.66 2 1.32 2 2 C2.66 2 3.32 2 4 2 C4 1.34 4 0.68 4 0 C4.99 0.33 5.98 0.66 7 1 C6.46890625 1.4846875 5.9378125 1.969375 5.390625 2.46875 C0.61847521 6.99706732 -2.4077986 10.95153007 -5 17 C-5.33 17 -5.66 17 -6 17 C-6 15.35 -6 13.7 -6 12 C-5.34 12 -4.68 12 -4 12 C-4.66 10.02 -5.32 8.04 -6 6 C-5.34 6 -4.68 6 -4 6 C-4 5.34 -4 4.68 -4 4 C-3.34 4 -2.68 4 -2 4 C-2 3.34 -2 2.68 -2 2 C-1.34 2 -0.68 2 0 2 C0 1.34 0 0.68 0 0 Z " fill="#FDC314" transform="translate(236,209)"/>
<path d="M0 0 C1.11439453 0.64743164 2.22878906 1.29486328 3.37695312 1.96191406 C8.26854533 4.39697475 12.57595742 4.60182346 17.96875 4.609375 C19.35012146 4.63417938 19.35012146 4.63417938 20.75939941 4.65948486 C23.6730026 4.70769628 26.5860849 4.72927583 29.5 4.75 C31.487005 4.77818217 33.47398601 4.80811272 35.4609375 4.83984375 C40.30724873 4.91344789 45.15327534 4.96318622 50 5 C50 5.33 50 5.66 50 6 C34.82 6 19.64 6 4 6 C4 5.34 4 4.68 4 4 C2.68 4 1.36 4 0 4 C0 2.68 0 1.36 0 0 Z " fill="#FEC22E" transform="translate(236,319)"/>
<path d="M0 0 C0.66 0 1.32 0 2 0 C2 0.66 2 1.32 2 2 C3.32 2.33 4.64 2.66 6 3 C3.03 5.97 0.06 8.94 -3 12 C-3.33 10.68 -3.66 9.36 -4 8 C-4.66 8 -5.32 8 -6 8 C-6 7.34 -6 6.68 -6 6 C-5.34 6 -4.68 6 -4 6 C-4 5.34 -4 4.68 -4 4 C-3.34 4 -2.68 4 -2 4 C-2 3.34 -2 2.68 -2 2 C-1.34 2 -0.68 2 0 2 C0 1.34 0 0.68 0 0 Z " fill="#FBC915" transform="translate(90,449)"/>
<path d="M0 0 C1.32 0 2.64 0 4 0 C3.67 1.32 3.34 2.64 3 4 C3.99 4 4.98 4 6 4 C6 3.34 6 2.68 6 2 C6.99 2.33 7.98 2.66 9 3 C7.625 4.5 7.625 4.5 6 6 C5.34 6 4.68 6 4 6 C4 6.66 4 7.32 4 8 C3.34 8 2.68 8 2 8 C2 8.66 2 9.32 2 10 C1.34 10 0.68 10 0 10 C0 9.34 0 8.68 0 8 C-1.32 8 -2.64 8 -4 8 C-4 6.68 -4 5.36 -4 4 C-2.02 4 -0.04 4 2 4 C2 3.34 2 2.68 2 2 C1.34 2 0.68 2 0 2 C0 1.34 0 0.68 0 0 Z " fill="#FCC812" transform="translate(50,127)"/>
<path d="M0 0 C0 1.32 0 2.64 0 4 C-0.66 4 -1.32 4 -2 4 C-2 4.66 -2 5.32 -2 6 C-2.66 6 -3.32 6 -4 6 C-4 6.66 -4 7.32 -4 8 C-4.66 8 -5.32 8 -6 8 C-6 8.66 -6 9.32 -6 10 C-6.66 10 -7.32 10 -8 10 C-8 10.66 -8 11.32 -8 12 C-8.66 12 -9.32 12 -10 12 C-10 12.66 -10 13.32 -10 14 C-10.66 14 -11.32 14 -12 14 C-12 14.66 -12 15.32 -12 16 C-12.66 16 -13.32 16 -14 16 C-14 14.68 -14 13.36 -14 12 C-13.34 12 -12.68 12 -12 12 C-12 11.34 -12 10.68 -12 10 C-11.34 10 -10.68 10 -10 10 C-10 9.34 -10 8.68 -10 8 C-9.34 8 -8.68 8 -8 8 C-8 7.34 -8 6.68 -8 6 C-7.34 6 -6.68 6 -6 6 C-6 5.34 -6 4.68 -6 4 C-2.47058824 0 -2.47058824 0 0 0 Z " fill="#FCC914" transform="translate(420,431)"/>
<path d="M0 0 C0.66 0 1.32 0 2 0 C2 1.32 2 2.64 2 4 C1.34 4 0.68 4 0 4 C-0.2475 4.763125 -0.495 5.52625 -0.75 6.3125 C-2.12130672 9.26080945 -3.2351079 10.35834532 -6 12 C-6.66 12 -7.32 12 -8 12 C-8 11.34 -8 10.68 -8 10 C-7.34 10 -6.68 10 -6 10 C-6 7.36 -6 4.72 -6 2 C-4.02 2 -2.04 2 0 2 C0 1.34 0 0.68 0 0 Z " fill="#F9CE35" transform="translate(496,475)"/>
<path d="M0 0 C0.33 1.32 0.66 2.64 1 4 C0.34 4 -0.32 4 -1 4 C-1 4.66 -1 5.32 -1 6 C-1.66 6 -2.32 6 -3 6 C-3 6.66 -3 7.32 -3 8 C-3.66 8 -4.32 8 -5 8 C-5 8.66 -5 9.32 -5 10 C-4.34 10 -3.68 10 -3 10 C-3 11.32 -3 12.64 -3 14 C-3.66 14 -4.32 14 -5 14 C-5 15.65 -5 17.3 -5 19 C-7.44034832 15.33947751 -8.07353558 13.41213477 -8 9 C-6.39872099 6.87777156 -4.6673847 5.22439665 -2.6640625 3.48046875 C-0.88757878 2.0843117 -0.88757878 2.0843117 0 0 Z " fill="#FBBB24" transform="translate(295,261)"/>
<path d="M0 0 C3.3 0 6.6 0 10 0 C10 0.66 10 1.32 10 2 C9.34 2 8.68 2 8 2 C8 3.32 8 4.64 8 6 C6.68 6 5.36 6 4 6 C4 5.34 4 4.68 4 4 C3.34 4 2.68 4 2 4 C2 3.34 2 2.68 2 2 C1.34 2 0.68 2 0 2 C0 1.34 0 0.68 0 0 Z " fill="#FACD2C" transform="translate(32,481)"/>
<path d="M0 0 C3.70653731 1.23551244 4.64915435 2.96665078 7 6 C7.66 6.33 8.32 6.66 9 7 C8.34 9.64 7.68 12.28 7 15 C6.67 15 6.34 15 6 15 C6 13.35 6 11.7 6 10 C5.34 10 4.68 10 4 10 C4 8.68 4 7.36 4 6 C3.34 6 2.68 6 2 6 C2 5.34 2 4.68 2 4 C1.34 3.67 0.68 3.34 0 3 C0 2.01 0 1.02 0 0 Z " fill="#FCC112" transform="translate(234,263)"/>
<path d="M0 0 C0.66 0 1.32 0 2 0 C2 1.98 2 3.96 2 6 C1.34 6 0.68 6 0 6 C0 6.66 0 7.32 0 8 C-0.66 8 -1.32 8 -2 8 C-2 8.66 -2 9.32 -2 10 C-2.66 10 -3.32 10 -4 10 C-5 7 -5 7 -4 4 C-3.34 4 -2.68 4 -2 4 C-2 3.34 -2 2.68 -2 2 C-1.34 2 -0.68 2 0 2 C0 1.34 0 0.68 0 0 Z " fill="#FDC811" transform="translate(66,275)"/>
<path d="M0 0 C0.66 0 1.32 0 2 0 C2 1.98 2 3.96 2 6 C2.66 6 3.32 6 4 6 C4 6.66 4 7.32 4 8 C2.02 8 0.04 8 -2 8 C-2 7.34 -2 6.68 -2 6 C-2.66 6 -3.32 6 -4 6 C-4 5.34 -4 4.68 -4 4 C-3.34 4 -2.68 4 -2 4 C-2 3.34 -2 2.68 -2 2 C-1.34 2 -0.68 2 0 2 C0 1.34 0 0.68 0 0 Z " fill="#FCCA18" transform="translate(446,405)"/>
<path d="M0 0 C2.625 0.375 2.625 0.375 5 1 C5 2.32 5 3.64 5 5 C4.34 5 3.68 5 3 5 C3 5.66 3 6.32 3 7 C2.34 7 1.68 7 1 7 C1 7.66 1 8.32 1 9 C0.34 9 -0.32 9 -1 9 C-1 7.68 -1 6.36 -1 5 C-0.34 5 0.32 5 1 5 C1 4.34 1 3.68 1 3 C0.01 2.67 -0.98 2.34 -2 2 C-1.34 1.34 -0.68 0.68 0 0 Z " fill="#FCC712" transform="translate(31,308)"/>
<path d="M0 0 C1.32 0 2.64 0 4 0 C4 0.66 4 1.32 4 2 C3.34 2 2.68 2 2 2 C2 2.66 2 3.32 2 4 C1.34 4 0.68 4 0 4 C0 4.66 0 5.32 0 6 C-0.66 6 -1.32 6 -2 6 C-2 6.66 -2 7.32 -2 8 C-2.66 8 -3.32 8 -4 8 C-4 6.35 -4 4.7 -4 3 C-2.68 2.67 -1.36 2.34 0 2 C0 1.34 0 0.68 0 0 Z " fill="#FBE060" transform="translate(460,389)"/>
<path d="M0 0 C2.17854707 3.2678206 3.49760034 6.38058265 5 10 C3.35 10 1.7 10 0 10 C0 8.68 0 7.36 0 6 C-0.66 6 -1.32 6 -2 6 C-2 5.34 -2 4.68 -2 4 C-1.34 4 -0.68 4 0 4 C0 2.68 0 1.36 0 0 Z " fill="#AE611E" transform="translate(186,333)"/>
<path d="M0 0 C0.66 0 1.32 0 2 0 C2 2.64 2 5.28 2 8 C1.01 8 0.02 8 -1 8 C-1.33 8.99 -1.66 9.98 -2 11 C-2.33 11 -2.66 11 -3 11 C-2.67 8.69 -2.34 6.38 -2 4 C-1.34 4 -0.68 4 0 4 C0 2.68 0 1.36 0 0 Z " fill="#FDC516" transform="translate(298,291)"/>
<path d="M0 0 C1.32 0 2.64 0 4 0 C4 0.66 4 1.32 4 2 C5.32 2.33 6.64 2.66 8 3 C6.71937515 4.7074998 5.38232443 6.37373596 4 8 C3.34 8 2.68 8 2 8 C2 7.34 2 6.68 2 6 C2.66 6 3.32 6 4 6 C4 5.34 4 4.68 4 4 C3.34 4 2.68 4 2 4 C2 3.34 2 2.68 2 2 C1.34 2 0.68 2 0 2 C0 1.34 0 0.68 0 0 Z " fill="#FCC914" transform="translate(444,117)"/>
<path d="M0 0 C0.66 0 1.32 0 2 0 C2 1.98 2 3.96 2 6 C1.34 6 0.68 6 0 6 C0 6.66 0 7.32 0 8 C-0.66 8 -1.32 8 -2 8 C-2 7.34 -2 6.68 -2 6 C-2.66 6 -3.32 6 -4 6 C-4 5.34 -4 4.68 -4 4 C-3.34 4 -2.68 4 -2 4 C-2 3.34 -2 2.68 -2 2 C-1.34 2 -0.68 2 0 2 C0 1.34 0 0.68 0 0 Z " fill="#FCCD33" transform="translate(496,53)"/>
<path d="M0 0 C1.32 0 2.64 0 4 0 C4 1.65 4 3.3 4 5 C2.68 5.33 1.36 5.66 0 6 C0 5.34 0 4.68 0 4 C-0.66 4 -1.32 4 -2 4 C-2 3.34 -2 2.68 -2 2 C-1.34 2 -0.68 2 0 2 C0 1.34 0 0.68 0 0 Z " fill="#FCCC1A" transform="translate(452,399)"/>
<path d="M0 0 C1.98 0 3.96 0 6 0 C6 1.32 6 2.64 6 4 C3.36 4 0.72 4 -2 4 C-1.34 2.68 -0.68 1.36 0 0 Z " fill="#FCCA16" transform="translate(52,287)"/>
<path d="M0 0 C0 0.66 0 1.32 0 2 C-0.66 2 -1.32 2 -2 2 C-2 2.66 -2 3.32 -2 4 C-2.66 4 -3.32 4 -4 4 C-4 4.66 -4 5.32 -4 6 C-4.66 6 -5.32 6 -6 6 C-6 6.66 -6 7.32 -6 8 C-6.66 8 -7.32 8 -8 8 C-8 6.68 -8 5.36 -8 4 C-7.34 4 -6.68 4 -6 4 C-6 3.34 -6 2.68 -6 2 C-3 0 -3 0 0 0 Z " fill="#FCCA12" transform="translate(112,79)"/>
<path d="M0 0 C1.32 0 2.64 0 4 0 C4 0.66 4 1.32 4 2 C4.66 2 5.32 2 6 2 C6 2.66 6 3.32 6 4 C-0.0546875 4.1953125 -0.0546875 4.1953125 -2 4 C-2.66 3.34 -3.32 2.68 -4 2 C-2.68 2 -1.36 2 0 2 C0 1.34 0 0.68 0 0 Z " fill="#FBC116" transform="translate(206,349)"/>
<path d="M0 0 C2.7972908 2.06756277 3.02692273 3.14440371 3.6875 6.6875 C3.790625 7.780625 3.89375 8.87375 4 10 C3.01 9.67 2.02 9.34 1 9 C1.33 7.35 1.66 5.7 2 4 C1.38125 4.185625 0.7625 4.37125 0.125 4.5625 C-2 5 -2 5 -4 4 C-4 3.34 -4 2.68 -4 2 C-2.68 2 -1.36 2 0 2 C0 1.34 0 0.68 0 0 Z " fill="#F7BC20" transform="translate(342,187)"/>
<path d="M0 0 C1.32 0 2.64 0 4 0 C4 0.66 4 1.32 4 2 C5.32 2.33 6.64 2.66 8 3 C6.68 3.99 5.36 4.98 4 6 C4 5.34 4 4.68 4 4 C2.68 4 1.36 4 0 4 C0 2.68 0 1.36 0 0 Z " fill="#FBC815" transform="translate(40,137)"/>
<path d="M0 0 C1.32 0 2.64 0 4 0 C4 1.32 4 2.64 4 4 C3.34 4 2.68 4 2 4 C1.67 5.32 1.34 6.64 1 8 C-0.42944945 5.64561267 -1.08661261 4.51967567 -0.625 1.75 C-0.41875 1.1725 -0.2125 0.595 0 0 Z " fill="#FDC414" transform="translate(294,211)"/>
<path d="M0 0 C0.66 0 1.32 0 2 0 C2 0.66 2 1.32 2 2 C2.66 2 3.32 2 4 2 C4 2.66 4 3.32 4 4 C4.66 4 5.32 4 6 4 C6 4.66 6 5.32 6 6 C4.68 6 3.36 6 2 6 C2 5.34 2 4.68 2 4 C0.68 4 -0.64 4 -2 4 C-2 3.34 -2 2.68 -2 2 C-1.34 2 -0.68 2 0 2 C0 1.34 0 0.68 0 0 Z " fill="#FCC913" transform="translate(44,295)"/>
<path d="M0 0 C1.32 0 2.64 0 4 0 C4 0.66 4 1.32 4 2 C4.66 2 5.32 2 6 2 C6 2.66 6 3.32 6 4 C5.34 4 4.68 4 4 4 C4 4.66 4 5.32 4 6 C3.34 6 2.68 6 2 6 C2 5.34 2 4.68 2 4 C1.34 4 0.68 4 0 4 C0 2.68 0 1.36 0 0 Z " fill="#FBCF3E" transform="translate(106,45)"/>
<path d="M0 0 C1.32 0 2.64 0 4 0 C4 1.32 4 2.64 4 4 C3.34 4 2.68 4 2 4 C2 5.65 2 7.3 2 9 C-0.29013653 5.5647952 -0.17842973 4.014669 0 0 Z " fill="#FBC113" transform="translate(288,271)"/>
<path d="M0 0 C1.32 0 2.64 0 4 0 C4 0.66 4 1.32 4 2 C3.34 2 2.68 2 2 2 C1.67 3.32 1.34 4.64 1 6 C0.01 6 -0.98 6 -2 6 C-2 4.68 -2 3.36 -2 2 C-1.34 2 -0.68 2 0 2 C0 1.34 0 0.68 0 0 Z " fill="#FCCA21" transform="translate(114,73)"/>
<path d="M0 0 C0 1.32 0 2.64 0 4 C-1.32 4 -2.64 4 -4 4 C-4 3.34 -4 2.68 -4 2 C-5.32 1.67 -6.64 1.34 -8 1 C-5.29120665 -0.35439668 -2.99066732 -0.06501451 0 0 Z " fill="#FAC015" transform="translate(210,173)"/>
<path d="M0 0 C1.98 0 3.96 0 6 0 C4.35830472 2.02054804 2.69088222 4.02043058 1 6 C0.67 6 0.34 6 0 6 C0 4.02 0 2.04 0 0 Z " fill="#F4C43C" transform="translate(120,423)"/>
<path d="M0 0 C0.66 0 1.32 0 2 0 C2 1.32 2 2.64 2 4 C1.34 4 0.68 4 0 4 C0 4.66 0 5.32 0 6 C-1.32 6 -2.64 6 -4 6 C-4 5.34 -4 4.68 -4 4 C-3.34 4 -2.68 4 -2 4 C-2 3.34 -2 2.68 -2 2 C-1.34 2 -0.68 2 0 2 C0 1.34 0 0.68 0 0 Z " fill="#FADE5B" transform="translate(110,437)"/>
<path d="M0 0 C0 0.66 0 1.32 0 2 C-0.66 2 -1.32 2 -2 2 C-2 2.66 -2 3.32 -2 4 C-2.66 4 -3.32 4 -4 4 C-4 4.66 -4 5.32 -4 6 C-5.32 5.67 -6.64 5.34 -8 5 C-5.81209839 1.71814759 -4.05191042 0 0 0 Z " fill="#F9CD2D" transform="translate(90,255)"/>
<path d="M0 0 C1.9375 0.6875 1.9375 0.6875 2.9375 2.6875 C1.9475 2.6875 0.9575 2.6875 -0.0625 2.6875 C-0.0625 3.3475 -0.0625 4.0075 -0.0625 4.6875 C-0.7225 4.6875 -1.3825 4.6875 -2.0625 4.6875 C-2.0625 4.0275 -2.0625 3.3675 -2.0625 2.6875 C-2.7225 2.6875 -3.3825 2.6875 -4.0625 2.6875 C-4.0625 2.0275 -4.0625 1.3675 -4.0625 0.6875 C-2.0625 -0.3125 -2.0625 -0.3125 0 0 Z " fill="#FDC320" transform="translate(332.0625,176.3125)"/>
<path d="M0 0 C1.32 0 2.64 0 4 0 C4 1.32 4 2.64 4 4 C2.02 4 0.04 4 -2 4 C-2 3.34 -2 2.68 -2 2 C-1.34 2 -0.68 2 0 2 C0 1.34 0 0.68 0 0 Z " fill="#FCCE33" transform="translate(114,53)"/>
<path d="M0 0 C0.66 0 1.32 0 2 0 C2 1.98 2 3.96 2 6 C1.34 6 0.68 6 0 6 C0 6.66 0 7.32 0 8 C-0.66 8 -1.32 8 -2 8 C-2 6.68 -2 5.36 -2 4 C-1.34 4 -0.68 4 0 4 C0 2.68 0 1.36 0 0 Z " fill="#FAD455" transform="translate(410,51)"/>
<path d="M0 0 C1.32 0 2.64 0 4 0 C4 2 4 2 2.125 4.125 C0 6 0 6 -2 6 C-2 4.68 -2 3.36 -2 2 C-1.34 2 -0.68 2 0 2 C0 1.34 0 0.68 0 0 Z " fill="#FDDD56" transform="translate(368,475)"/>
<path d="M0 0 C0 1.32 0 2.64 0 4 C-0.66 4 -1.32 4 -2 4 C-2.33 4.66 -2.66 5.32 -3 6 C-3.99 6 -4.98 6 -6 6 C-6 4 -6 4 -4.125 1.875 C-2 0 -2 0 0 0 Z M-8 6 C-6 7 -6 7 -6 7 Z " fill="#FBCC23" transform="translate(420,431)"/>
<path d="M0 0 C1 3 1 3 0 6 C-1.32 6 -2.64 6 -4 6 C-4 4.68 -4 3.36 -4 2 C-2.68 2 -1.36 2 0 2 C0 1.34 0 0.68 0 0 Z " fill="#FCC514" transform="translate(234,297)"/>
<path d="M0 0 C0 1.32 0 2.64 0 4 C-0.66 4 -1.32 4 -2 4 C-2 4.66 -2 5.32 -2 6 C-3.32 6 -4.64 6 -6 6 C-6 4 -6 4 -4.125 1.875 C-2 0 -2 0 0 0 Z " fill="#FACA27" transform="translate(106,239)"/>
<path d="M0 0 C0.33 1.32 0.66 2.64 1 4 C0.34 4 -0.32 4 -1 4 C-1 4.66 -1 5.32 -1 6 C-2.32 6 -3.64 6 -5 6 C-5 5.34 -5 4.68 -5 4 C-3.37373596 2.61767557 -1.7074998 1.28062485 0 0 Z " fill="#FACA21" transform="translate(471,383)"/>
<path d="M0 0 C0.99 0.33 1.98 0.66 3 1 C1.625 2.5 1.625 2.5 0 4 C-0.66 4 -1.32 4 -2 4 C-2 4.66 -2 5.32 -2 6 C-2.66 6 -3.32 6 -4 6 C-4 4.68 -4 3.36 -4 2 C-2.68 2 -1.36 2 0 2 C0 1.34 0 0.68 0 0 Z " fill="#FDE05A" transform="translate(468,383)"/>
<path d="M0 0 C1.32 0 2.64 0 4 0 C4 0.66 4 1.32 4 2 C4.66 2.33 5.32 2.66 6 3 C4.68 3.99 3.36 4.98 2 6 C2 4.68 2 3.36 2 2 C1.34 2 0.68 2 0 2 C0 1.34 0 0.68 0 0 Z " fill="#F7BC21" transform="translate(334,341)"/>
<path d="M0 0 C0.33 1.32 0.66 2.64 1 4 C0.34 4 -0.32 4 -1 4 C-1 4.66 -1 5.32 -1 6 C-2.32 6 -3.64 6 -5 6 C-5 5.34 -5 4.68 -5 4 C-3.37373596 2.61767557 -1.7074998 1.28062485 0 0 Z " fill="#FDE15D" transform="translate(451,121)"/>
<path d="M0 0 C1.32 0 2.64 0 4 0 C4 0.66 4 1.32 4 2 C2.03852126 3.38938077 0.03833424 4.7260411 -2 6 C-2 4.68 -2 3.36 -2 2 C-1.34 2 -0.68 2 0 2 C0 1.34 0 0.68 0 0 Z " fill="#FACA28" transform="translate(464,105)"/>
<path d="M0 0 C0.66 0 1.32 0 2 0 C2.33 1.65 2.66 3.3 3 5 C1.35 4.67 -0.3 4.34 -2 4 C-2 3.34 -2 2.68 -2 2 C-1.34 2 -0.68 2 0 2 C0 1.34 0 0.68 0 0 Z " fill="#FCC420" transform="translate(330,345)"/>
<path d="M0 0 C1.32 0.33 2.64 0.66 4 1 C1.03 3.475 1.03 3.475 -2 6 C-2 4.68 -2 3.36 -2 2 C-1.34 2 -0.68 2 0 2 C0 1.34 0 0.68 0 0 Z " fill="#F8CB26" transform="translate(98,89)"/>
</svg>
