<?xml version="1.0" encoding="UTF-8"?>
<svg version="1.1" xmlns="http://www.w3.org/2000/svg" width="550" height="550">
<path d="M0 0 C0.99865438 -0.00525911 0.99865438 -0.00525911 2.01748359 -0.01062447 C4.24630912 -0.01992145 6.47487238 -0.01501963 8.70370865 -0.01015663 C10.31868396 -0.01389376 11.93365746 -0.01849553 13.54862809 -0.02388728 C17.98520354 -0.03612507 22.42170362 -0.03585589 26.8582921 -0.03349853 C31.64371053 -0.03309055 36.42910472 -0.04412765 41.21451187 -0.05361366 C50.58976982 -0.07022908 59.96500262 -0.07572346 69.34027407 -0.07683842 C76.96114028 -0.07778867 84.5819982 -0.0818978 92.20286179 -0.08823967 C113.80907161 -0.10585382 135.41526157 -0.11507831 157.02147862 -0.11357872 C158.76880254 -0.11345885 158.76880254 -0.11345885 160.55142593 -0.11333656 C161.71773081 -0.1132548 162.88403569 -0.11317304 164.08568314 -0.1130888 C182.98670364 -0.11227593 201.88764445 -0.13141354 220.7886419 -0.1596133 C240.19571879 -0.18833963 259.60275681 -0.20215372 279.00985551 -0.20042574 C289.90557994 -0.19976174 300.80122083 -0.20525856 311.69692612 -0.22678185 C320.97407465 -0.24499036 330.25110178 -0.24934368 339.52826044 -0.235763 C344.2606487 -0.22923162 348.99280402 -0.22912232 353.72517014 -0.2464695 C358.06052071 -0.26219775 362.39545361 -0.25933915 366.73079398 -0.24190123 C368.29605997 -0.23883079 369.86135711 -0.24246545 371.42658636 -0.25362138 C386.84655956 -0.35621368 396.59137355 3.76385739 408.04263687 14.09320641 C411.17704899 17.2852364 415.16763687 21.55807232 415.16763687 26.25726891 C415.82763687 26.25726891 416.48763687 26.25726891 417.16763687 26.25726891 C419.84200547 33.63805124 420.60108867 40.21758963 420.55582047 48.03412437 C420.5637059 49.73378349 420.5637059 49.73378349 420.57175064 51.46777916 C420.58487676 55.18681481 420.57623723 58.90541694 420.56607437 62.62445641 C420.5680975 65.22700647 420.57101093 67.82955598 420.57477188 70.43210411 C420.58021183 75.87729074 420.573086 81.32235484 420.55875015 86.76752281 C420.54244337 93.0330435 420.54770474 99.29827094 420.56422937 105.56378448 C420.57956901 111.62611211 420.57783645 117.68831137 420.56908417 123.75065041 C420.56709246 126.31411468 420.569505 128.87758651 420.57652283 131.44104195 C420.58420194 135.03476649 420.57244168 138.62794047 420.55582047 142.22162437 C420.56189316 143.26615776 420.56796585 144.31069115 420.57422256 145.38687706 C420.48629965 155.72744909 418.22693673 165.28189863 413.41763687 174.44476891 C413.07055679 175.12257408 412.72347672 175.80037926 412.36587906 176.49872398 C409.04573464 182.80896207 405.00688787 188.26831519 400.09669304 193.43740559 C397.67909679 196.97140895 397.66585192 199.01175661 397.66211319 203.26961327 C397.65297801 204.31075245 397.65297801 204.31075245 397.64365828 205.37292475 C397.62807409 207.6928704 397.6408397 210.01178122 397.65347672 212.3317318 C397.64801492 213.99771332 397.64077293 215.66368983 397.63188553 217.3296566 C397.61654764 220.91573754 397.61374697 224.50153236 397.62065125 228.08763885 C397.631446 233.76648294 397.61404325 239.44502891 397.59283829 245.1238308 C397.56256705 254.1156629 397.55088336 263.10740672 397.54726183 272.09928554 C397.5406239 288.17521059 397.51144043 304.25107326 397.46216547 320.32692331 C397.44573826 325.96272118 397.44023727 331.59839066 397.44375587 337.23421013 C397.44419563 340.75509298 397.43658759 344.27592817 397.42708015 347.7967968 C397.42441702 349.4188289 397.42511526 351.0408709 397.42959023 352.66289902 C397.46108161 364.93526701 397.26334672 376.67448102 391.29263687 387.69476891 C390.95361343 388.36185875 390.61459 389.02894859 390.26529312 389.71625328 C384.43230237 400.92757201 374.97539573 407.90151786 363.16763687 412.25726891 C354.60692555 414.16785199 346.24015149 414.54325139 337.49831009 414.51123619 C336.15935601 414.5135461 334.8204032 414.51672616 333.481453 414.52069068 C329.83565687 414.52897444 326.18996658 414.52494294 322.54417026 414.51871824 C318.59934164 414.51416828 314.65453044 414.52119003 310.70970535 414.52667809 C302.99530492 414.53554646 295.28094353 414.53366157 287.5665416 414.5278528 C281.29451232 414.52332656 275.02249394 414.52272757 268.75046349 414.52490044 C267.85604827 414.5252069 266.96163306 414.52551337 266.04011436 414.52582912 C264.22284781 414.5264686 262.40558126 414.52711703 260.58831472 414.5277743 C243.56951628 414.53347003 226.55073942 414.52693144 209.53194452 414.51617357 C194.94329406 414.50723722 180.35467543 414.50879227 165.76602554 414.51801109 C148.80442629 414.52872448 131.84284593 414.53292239 114.88124377 414.52678657 C113.07116068 414.5261495 111.26107759 414.52552076 109.45099449 414.52490044 C108.11526843 414.52443761 108.11526843 414.52443761 106.752558 414.52396543 C100.49082183 414.52224181 94.22909767 414.52514637 87.96736336 414.52985954 C80.33255408 414.53548018 72.6977859 414.53392702 65.0629813 414.52329805 C61.17097505 414.51805749 57.27903723 414.51595696 53.38703156 414.52259636 C49.81865485 414.52859143 46.2504095 414.52522256 42.68204457 414.51464126 C40.79192129 414.51137767 38.90178877 414.51784622 37.0116753 414.52475572 C19.04624672 414.44278839 6.28365536 409.64149237 -6.83236313 397.25726891 C-17.72658975 385.45519006 -18.27540612 370.05306164 -18.16952133 354.83392906 C-18.16871342 353.10792615 -18.16931264 351.3819221 -18.1711998 349.65592003 C-18.17275157 345.96302187 -18.16545166 342.27028849 -18.15135765 338.57741737 C-18.13010635 332.73589081 -18.13501512 326.89456191 -18.14442062 321.05301476 C-18.16722716 304.45063831 -18.15528482 287.84838318 -18.11727524 271.24603844 C-18.096471 262.05846026 -18.0971272 252.87112955 -18.12081021 243.68355596 C-18.13448047 237.87770539 -18.12132882 232.07273175 -18.08821261 226.26696897 C-18.07387109 222.65885483 -18.08450633 219.05113439 -18.10219574 215.44304848 C-18.1053725 213.7717109 -18.09828701 212.1003172 -18.08012962 210.42907524 C-17.66646914 201.86928008 -17.66646914 201.86928008 -20.2165699 193.97218513 C-21.99083832 192.14331657 -21.99083832 192.14331657 -24.83236313 190.25726891 C-24.83236313 189.59726891 -24.83236313 188.93726891 -24.83236313 188.25726891 C-25.49236313 188.25726891 -26.15236313 188.25726891 -26.83236313 188.25726891 C-40.06643063 166.35373783 -43.31107543 146.11161285 -43.30111313 120.84711266 C-43.30823539 118.62287269 -43.3159373 116.39863451 -43.32418442 114.17439842 C-43.33753838 109.54108108 -43.33923801 104.90793393 -43.33333969 100.27460289 C-43.327436 94.37874521 -43.35810684 88.48370878 -43.39845657 82.58800983 C-43.42447115 78.00393443 -43.42719885 73.42005364 -43.42356491 68.83591461 C-43.42524161 66.66369683 -43.43474176 64.49146861 -43.4527092 62.31932449 C-43.56713876 46.78625897 -42.10353473 34.24808799 -34.83236313 20.25726891 C-34.17236313 20.25726891 -33.51236313 20.25726891 -32.83236313 20.25726891 C-32.60548813 19.70039391 -32.37861313 19.14351891 -32.14486313 18.56976891 C-30.46517478 15.61031801 -28.29103028 13.59600107 -25.83236313 11.25726891 C-25.27548813 10.65914391 -24.71861313 10.06101891 -24.14486313 9.44476891 C-22.83236313 8.25726891 -22.83236313 8.25726891 -20.83236313 8.25726891 C-20.83236313 7.59726891 -20.83236313 6.93726891 -20.83236313 6.25726891 C-19.62679709 5.62694758 -18.41773124 5.00331921 -17.20736313 4.38226891 C-16.19802719 3.86019859 -16.19802719 3.86019859 -15.16830063 3.32758141 C-10.02509705 0.97099649 -5.66465347 0.00674552 0 0 Z " fill="#A56644" transform="translate(84.83236312866211,68.74273109436035)"/>
<path d="M0 0 C29.885625 -0.12375 29.885625 -0.12375 60.375 -0.25 C66.65321777 -0.28641602 72.93143555 -0.32283203 79.39990234 -0.36035156 C87.09887695 -0.37841797 87.09887695 -0.37841797 90.7093811 -0.3817749 C93.2173039 -0.38789513 95.72521533 -0.40191755 98.23306274 -0.42230225 C102.04409054 -0.45171641 105.8544025 -0.45561954 109.66552734 -0.45410156 C111.32596604 -0.47569021 111.32596604 -0.47569021 113.01994896 -0.497715 C126.15400059 -0.42800606 135.3030846 5.20181111 144.875 13.8359375 C148.00941212 17.02796749 152 21.30080342 152 26 C152.66 26 153.32 26 154 26 C156.6743686 33.38078233 157.4334518 39.96032072 157.38818359 47.77685547 C157.39606903 49.47651459 157.39606903 49.47651459 157.40411377 51.21051025 C157.41723989 54.9295459 157.40860036 58.64814803 157.3984375 62.3671875 C157.40046063 64.96973756 157.40337405 67.57228707 157.40713501 70.17483521 C157.41257496 75.62002183 157.40544913 81.06508593 157.39111328 86.51025391 C157.3748065 92.7757746 157.38006787 99.04100204 157.3965925 105.30651557 C157.41193214 111.3688432 157.41019958 117.43104247 157.4014473 123.4933815 C157.39945558 126.05684577 157.40186813 128.6203176 157.40888596 131.18377304 C157.41656507 134.77749759 157.4048048 138.37067157 157.38818359 141.96435547 C157.39425629 143.00888885 157.40032898 144.05342224 157.40658569 145.12960815 C157.31866278 155.47018019 155.05929986 165.02462972 150.25 174.1875 C149.90291992 174.86530518 149.55583984 175.54311035 149.19824219 176.24145508 C145.87911815 182.54975383 141.84385375 188.01191762 136.92989731 193.17508984 C134.50162245 196.72950607 134.49358391 198.81128292 134.48101807 203.09309387 C134.47351681 203.79565345 134.46601556 204.49821303 134.458287 205.22206229 C134.43802985 207.56997459 134.44610805 209.91691934 134.45410156 212.26489258 C134.44536542 213.95034743 134.4348795 215.63579399 134.42277527 217.32122803 C134.39489948 221.8931661 134.39151093 226.46483377 134.39249516 231.03684449 C134.38936741 235.81618456 134.36375209 240.59540259 134.34051514 245.37467957 C134.299941 254.42329107 134.2796111 263.47183049 134.26654124 272.52051896 C134.250676 282.82280107 134.21226237 293.12496042 134.17194796 303.42717135 C134.08952965 324.61807375 134.03544959 345.8089704 134 367 C133.67 367 133.34 367 133 367 C132.67 311.23 132.34 255.46 132 198 C131.34 198 130.68 198 130 198 C130 198.66 130 199.32 130 200 C129.34 200 128.68 200 128 200 C128 200.66 128 201.32 128 202 C127.34 202 126.68 202 126 202 C126 202.66 126 203.32 126 204 C124.68 204 123.36 204 122 204 C122 204.66 122 205.32 122 206 C121.34 206 120.68 206 120 206 C120 206.66 120 207.32 120 208 C118.68 208 117.36 208 116 208 C116 208.66 116 209.32 116 210 C114.68 210 113.36 210 112 210 C112 210.66 112 211.32 112 212 C110.02 212 108.04 212 106 212 C106 212.66 106 213.32 106 214 C104.02 214 102.04 214 100 214 C100 214.66 100 215.32 100 216 C92.26269471 218.53257158 84.54403612 218.22512539 76.5 218.125 C75.09115219 218.11495069 73.68229745 218.10582829 72.2734375 218.09765625 C68.8487795 218.07419969 65.42448061 218.04137384 62 218 C62 217.34 62 216.68 62 216 C60.02 216 58.04 216 56 216 C56 215.34 56 214.68 56 214 C53.36 214 50.72 214 48 214 C48 213.34 48 212.68 48 212 C46.68 212 45.36 212 44 212 C44 211.34 44 210.68 44 210 C42.68 210 41.36 210 40 210 C40 209.34 40 208.68 40 208 C39.34 208 38.68 208 38 208 C38 207.34 38 206.68 38 206 C36.68 206 35.36 206 34 206 C34 205.34 34 204.68 34 204 C33.34 204 32.68 204 32 204 C32 203.34 32 202.68 32 202 C31.34 202 30.68 202 30 202 C30 201.34 30 200.68 30 200 C28.68 200 27.36 200 26 200 C26 199.34 26 198.68 26 198 C25.34 198 24.68 198 24 198 C24 197.34 24 196.68 24 196 C23.34 196 22.68 196 22 196 C22 195.34 22 194.68 22 194 C21.34 194 20.68 194 20 194 C20 193.34 20 192.68 20 192 C19.34 192 18.68 192 18 192 C18 190.68 18 189.36 18 188 C17.34 188 16.68 188 16 188 C16 187.34 16 186.68 16 186 C15.34 186 14.68 186 14 186 C14 185.34 14 184.68 14 184 C13.34 184 12.68 184 12 184 C12 182.68 12 181.36 12 180 C11.34 180 10.68 180 10 180 C10 179.34 10 178.68 10 178 C9.34 178 8.68 178 8 178 C8 176.68 8 175.36 8 174 C7.34 174 6.68 174 6 174 C6 172.68 6 171.36 6 170 C5.34 170 4.68 170 4 170 C4 167.36 4 164.72 4 162 C3.34 162 2.68 162 2 162 C2 159.36 2 156.72 2 154 C1.34 154 0.68 154 0 154 C0 103.18 0 52.36 0 0 Z " fill="#E92C2B" transform="translate(348,69)"/>
<path d="M0 0 C1.21000986 -0.00024107 2.42001972 -0.00048214 3.66669655 -0.00073051 C7.57556182 0.00075984 11.48423534 0.01598017 15.39306641 0.03173828 C17.809488 0.03467957 20.22591086 0.03671948 22.64233398 0.0378418 C31.59311842 0.04831916 40.54387555 0.07624162 49.49462891 0.10205078 C69.50087891 0.14330078 89.50712891 0.18455078 110.11962891 0.22705078 C110.11962891 52.36705078 110.11962891 104.50705078 110.11962891 158.22705078 C109.45962891 158.22705078 108.79962891 158.22705078 108.11962891 158.22705078 C108.11962891 160.20705078 108.11962891 162.18705078 108.11962891 164.22705078 C107.45962891 164.22705078 106.79962891 164.22705078 106.11962891 164.22705078 C106.11962891 166.20705078 106.11962891 168.18705078 106.11962891 170.22705078 C105.45962891 170.22705078 104.79962891 170.22705078 104.11962891 170.22705078 C104.11962891 171.54705078 104.11962891 172.86705078 104.11962891 174.22705078 C103.45962891 174.22705078 102.79962891 174.22705078 102.11962891 174.22705078 C102.11962891 175.54705078 102.11962891 176.86705078 102.11962891 178.22705078 C101.45962891 178.22705078 100.79962891 178.22705078 100.11962891 178.22705078 C100.11962891 179.54705078 100.11962891 180.86705078 100.11962891 182.22705078 C99.45962891 182.22705078 98.79962891 182.22705078 98.11962891 182.22705078 C98.11962891 182.88705078 98.11962891 183.54705078 98.11962891 184.22705078 C97.45962891 184.22705078 96.79962891 184.22705078 96.11962891 184.22705078 C96.11962891 185.54705078 96.11962891 186.86705078 96.11962891 188.22705078 C95.45962891 188.22705078 94.79962891 188.22705078 94.11962891 188.22705078 C94.11962891 188.88705078 94.11962891 189.54705078 94.11962891 190.22705078 C93.45962891 190.22705078 92.79962891 190.22705078 92.11962891 190.22705078 C92.11962891 190.88705078 92.11962891 191.54705078 92.11962891 192.22705078 C91.45962891 192.22705078 90.79962891 192.22705078 90.11962891 192.22705078 C90.11962891 192.88705078 90.11962891 193.54705078 90.11962891 194.22705078 C89.45962891 194.22705078 88.79962891 194.22705078 88.11962891 194.22705078 C88.11962891 194.88705078 88.11962891 195.54705078 88.11962891 196.22705078 C87.45962891 196.22705078 86.79962891 196.22705078 86.11962891 196.22705078 C86.11962891 196.88705078 86.11962891 197.54705078 86.11962891 198.22705078 C85.45962891 198.22705078 84.79962891 198.22705078 84.11962891 198.22705078 C84.11962891 198.88705078 84.11962891 199.54705078 84.11962891 200.22705078 C83.45962891 200.22705078 82.79962891 200.22705078 82.11962891 200.22705078 C82.11962891 200.88705078 82.11962891 201.54705078 82.11962891 202.22705078 C80.79962891 202.22705078 79.47962891 202.22705078 78.11962891 202.22705078 C78.11962891 202.88705078 78.11962891 203.54705078 78.11962891 204.22705078 C77.45962891 204.22705078 76.79962891 204.22705078 76.11962891 204.22705078 C76.11962891 204.88705078 76.11962891 205.54705078 76.11962891 206.22705078 C74.79962891 206.22705078 73.47962891 206.22705078 72.11962891 206.22705078 C72.11962891 206.88705078 72.11962891 207.54705078 72.11962891 208.22705078 C71.45962891 208.22705078 70.79962891 208.22705078 70.11962891 208.22705078 C70.11962891 208.88705078 70.11962891 209.54705078 70.11962891 210.22705078 C68.13962891 210.22705078 66.15962891 210.22705078 64.11962891 210.22705078 C64.11962891 210.88705078 64.11962891 211.54705078 64.11962891 212.22705078 C62.79962891 212.22705078 61.47962891 212.22705078 60.11962891 212.22705078 C60.11962891 212.88705078 60.11962891 213.54705078 60.11962891 214.22705078 C58.13962891 214.22705078 56.15962891 214.22705078 54.11962891 214.22705078 C54.11962891 214.88705078 54.11962891 215.54705078 54.11962891 216.22705078 C45.88511133 218.35836595 37.96307461 218.46542853 29.49462891 218.35205078 C28.20427734 218.34302734 26.91392578 218.33400391 25.58447266 218.32470703 C22.42932642 218.30133558 19.27457965 218.2685717 16.11962891 218.22705078 C16.11962891 217.56705078 16.11962891 216.90705078 16.11962891 216.22705078 C13.47962891 216.22705078 10.83962891 216.22705078 8.11962891 216.22705078 C8.11962891 215.56705078 8.11962891 214.90705078 8.11962891 214.22705078 C6.13962891 214.22705078 4.15962891 214.22705078 2.11962891 214.22705078 C2.11962891 213.56705078 2.11962891 212.90705078 2.11962891 212.22705078 C0.79962891 212.22705078 -0.52037109 212.22705078 -1.88037109 212.22705078 C-1.88037109 211.56705078 -1.88037109 210.90705078 -1.88037109 210.22705078 C-3.20037109 210.22705078 -4.52037109 210.22705078 -5.88037109 210.22705078 C-5.88037109 209.56705078 -5.88037109 208.90705078 -5.88037109 208.22705078 C-6.54037109 208.22705078 -7.20037109 208.22705078 -7.88037109 208.22705078 C-7.88037109 207.56705078 -7.88037109 206.90705078 -7.88037109 206.22705078 C-9.20037109 206.22705078 -10.52037109 206.22705078 -11.88037109 206.22705078 C-11.88037109 205.56705078 -11.88037109 204.90705078 -11.88037109 204.22705078 C-12.54037109 204.22705078 -13.20037109 204.22705078 -13.88037109 204.22705078 C-13.88037109 203.56705078 -13.88037109 202.90705078 -13.88037109 202.22705078 C-15.20037109 202.22705078 -16.52037109 202.22705078 -17.88037109 202.22705078 C-17.88037109 201.56705078 -17.88037109 200.90705078 -17.88037109 200.22705078 C-18.54037109 200.22705078 -19.20037109 200.22705078 -19.88037109 200.22705078 C-19.88037109 199.56705078 -19.88037109 198.90705078 -19.88037109 198.22705078 C-20.54037109 198.22705078 -21.20037109 198.22705078 -21.88037109 198.22705078 C-21.88037109 197.56705078 -21.88037109 196.90705078 -21.88037109 196.22705078 C-22.74662109 195.85580078 -22.74662109 195.85580078 -23.63037109 195.47705078 C-26.20977089 194.0440509 -27.94158701 192.44280402 -29.88037109 190.22705078 C-29.88037109 189.56705078 -29.88037109 188.90705078 -29.88037109 188.22705078 C-30.54037109 188.22705078 -31.20037109 188.22705078 -31.88037109 188.22705078 C-45.11443859 166.32351971 -48.35908339 146.08139473 -48.34912109 120.81689453 C-48.35624335 118.59265456 -48.36394526 116.36841638 -48.37219238 114.1441803 C-48.38554634 109.51086296 -48.38724597 104.87771581 -48.38134766 100.24438477 C-48.37544396 94.34852709 -48.40611481 88.45349065 -48.44646454 82.55779171 C-48.47247912 77.97371631 -48.47520682 73.38983551 -48.47157288 68.80569649 C-48.47324957 66.6334787 -48.48274972 64.46125049 -48.50071716 62.28910637 C-48.61514672 46.75604085 -47.15154269 34.21786986 -39.88037109 20.22705078 C-39.22037109 20.22705078 -38.56037109 20.22705078 -37.88037109 20.22705078 C-37.65349609 19.67017578 -37.42662109 19.11330078 -37.19287109 18.53955078 C-35.51318275 15.58009988 -33.33903824 13.56578295 -30.88037109 11.22705078 C-30.32349609 10.62892578 -29.76662109 10.03080078 -29.19287109 9.41455078 C-27.88037109 8.22705078 -27.88037109 8.22705078 -25.88037109 8.22705078 C-25.88037109 7.56705078 -25.88037109 6.90705078 -25.88037109 6.22705078 C-24.67480506 5.59672945 -23.4657392 4.97310109 -22.25537109 4.35205078 C-21.24603516 3.82998047 -21.24603516 3.82998047 -20.21630859 3.29736328 C-13.33796229 0.14574642 -7.46940651 -0.04793454 0 0 Z " fill="#E92C2B" transform="translate(89.88037109375,68.77294921875)"/>
<path d="M0 0 C48.18 0 96.36 0 146 0 C146.1209091 37.05192279 146.1209091 37.05192279 146.14648438 52.63671875 C146.1642514 63.37683433 146.1850826 74.11687904 146.22631836 84.85693359 C146.25634221 92.68056224 146.27560365 100.50413313 146.28226548 108.3278178 C146.28615588 112.46541493 146.29521519 116.6028469 146.31719017 120.74039078 C146.33776122 124.64574649 146.34379282 128.55087118 146.33932304 132.45627594 C146.34013913 133.87913398 146.34598084 135.30200086 146.35761642 136.72481155 C146.53997653 160.20293064 139.22621276 180.94296469 122.6875 197.8125 C107.75295911 212.47425408 89.77227989 218.47555233 69.11914062 218.43164062 C50.4948014 218.02647956 34.90428571 209.20639274 22 196 C5.21207204 178.36986829 -0.35796233 156.86227322 -0.22705078 133.05175781 C-0.22648522 131.59187833 -0.22680605 130.13199829 -0.22793579 128.67211914 C-0.22850466 124.74728397 -0.21682673 120.82257351 -0.20278788 116.89776707 C-0.19020196 112.78184724 -0.18910387 108.66592389 -0.18673706 104.54998779 C-0.18054523 96.77301373 -0.16416581 88.99609656 -0.14403808 81.21914744 C-0.11740494 70.69805162 -0.10668786 60.17694002 -0.09503365 49.65581894 C-0.07628331 33.10383676 -0.03642244 16.55197458 0 0 Z " fill="#D0D0CF" transform="translate(201,69)"/>
<path d="M0 0 C0.69042892 -0.00686325 1.38085785 -0.0137265 2.09220886 -0.02079773 C4.35343537 -0.03895994 6.61396101 -0.03524373 8.87524414 -0.02954102 C10.4603345 -0.03410794 12.04542288 -0.03941503 13.63050842 -0.04542542 C16.94483509 -0.05433574 20.25892052 -0.05195728 23.57324219 -0.04199219 C27.80435355 -0.03050538 32.03462994 -0.0507195 36.26563168 -0.07990932 C39.53692343 -0.09832341 42.808017 -0.09796856 46.07934761 -0.0922718 C47.6385471 -0.09211922 49.19776056 -0.09811097 50.75691032 -0.11056328 C65.71145639 -0.21318664 65.71145639 -0.21318664 72.72290039 4.40405273 C73.60977539 4.96092773 74.49665039 5.51780273 75.41040039 6.09155273 C79.15763248 9.83878482 83.54608641 16.20036297 83.84594822 21.63355446 C83.84502643 22.56825254 83.84410463 23.50295063 83.84315491 24.4659729 C83.84522115 26.06964438 83.84522115 26.06964438 83.84732914 27.70571327 C83.84193198 29.47959199 83.84193198 29.47959199 83.83642578 31.28930664 C83.83654632 32.54839529 83.83666685 33.80748394 83.83679104 35.10472679 C83.83616663 38.51700043 83.83121262 41.92921368 83.8241806 45.34147644 C83.81849447 48.5409638 83.81821796 51.74044959 83.81750488 54.93994141 C83.8122532 64.30298316 83.7982921 73.66601838 83.78540039 83.02905273 C83.76477539 103.94280273 83.74415039 124.85655273 83.72290039 146.40405273 C149.06290039 146.40405273 214.40290039 146.40405273 281.72290039 146.40405273 C281.72290039 146.73405273 281.72290039 147.06405273 281.72290039 147.40405273 C174.80290039 147.40405273 67.88290039 147.40405273 -42.27709961 147.40405273 C-42.27709961 147.07405273 -42.27709961 146.74405273 -42.27709961 146.40405273 C-36.99709961 146.40405273 -31.71709961 146.40405273 -26.27709961 146.40405273 C-26.28820267 144.83519318 -26.29930573 143.26633362 -26.31074524 141.64993286 C-26.41220285 126.84864667 -26.4874053 112.04748872 -26.53616047 97.24594307 C-26.56189327 89.63671993 -26.5969487 82.02775715 -26.65429688 74.41870117 C-26.7042837 67.78317325 -26.7364264 61.14783398 -26.74754208 54.51212299 C-26.75403526 51.00158944 -26.76919092 47.49159537 -26.80574989 43.9812355 C-26.84632302 40.05322754 -26.84703926 36.12573736 -26.84472656 32.19750977 C-26.86270294 31.04591873 -26.88067932 29.8943277 -26.89920044 28.70783997 C-26.84710091 20.50371033 -25.19550508 13.67359118 -19.5215044 7.49113655 C-13.81454673 2.11833825 -7.75895569 0.03382409 0 0 Z " fill="#BAE6FC" transform="translate(154.277099609375,335.595947265625)"/>
<path d="M0 0 C0.89984619 -0.0071553 1.79969238 -0.01431061 2.72680664 -0.02168274 C3.71176117 -0.02437164 4.6967157 -0.02706055 5.71151733 -0.02983093 C7.27056793 -0.03968773 7.27056793 -0.03968773 8.8611145 -0.04974365 C12.30783153 -0.06948615 15.75450492 -0.08114265 19.20126343 -0.09111023 C20.37879559 -0.09518576 21.55632774 -0.09926128 22.76954269 -0.10346031 C29.0044309 -0.12432708 35.23929707 -0.13862508 41.47421265 -0.147995 C47.90683181 -0.15904865 54.33910404 -0.19343524 60.77160072 -0.23316669 C65.7233951 -0.25934633 70.67510708 -0.26768816 75.62696457 -0.27127647 C77.99755567 -0.27614046 80.36814314 -0.287749 82.73866653 -0.30631447 C86.06322723 -0.33072911 89.38689395 -0.32973595 92.71151733 -0.32279968 C93.68432648 -0.33560974 94.65713562 -0.3484198 95.65942383 -0.36161804 C103.38949807 -0.30306845 109.45192895 1.48905247 115.41220093 6.52217102 C120.26730341 12.34829399 122.70281814 16.54798646 122.79257202 24.14399719 C122.80863495 25.37925644 122.82469788 26.61451569 122.84124756 27.88720703 C122.85273753 29.23817757 122.86334564 30.58915586 122.87313843 31.94013977 C122.8784621 32.62245478 122.88378578 33.30476978 122.88927078 34.007761 C122.91597915 37.62200928 122.93535805 41.23622335 122.94979858 44.85054016 C122.96311435 47.83132272 122.99092445 50.81141686 123.03182983 53.79194641 C123.08134711 57.40056401 123.10594281 61.00855944 123.11302567 64.61750221 C123.11970751 65.98696501 123.13484933 67.3564156 123.15891647 68.72568321 C123.31864398 78.36609626 122.24811854 84.04572966 115.75595093 91.17060852 C115.20938843 91.61662415 114.66282593 92.06263977 114.09970093 92.52217102 C113.55313843 92.9836554 113.00657593 93.44513977 112.44345093 93.92060852 C106.83298445 97.65299512 101.49772894 97.44357191 94.96957397 97.43769836 C93.36378479 97.4477742 93.36378479 97.4477742 91.72555542 97.45805359 C88.18746292 97.47704725 84.64955999 97.48095858 81.11141968 97.48310852 C78.64908266 97.48953571 76.18674642 97.49626401 73.72441101 97.50328064 C68.56213613 97.515257 63.39992818 97.51896111 58.23764038 97.51777649 C51.63008275 97.51757334 45.02295539 97.54487078 38.41549969 97.57932091 C33.32905617 97.60158363 28.24271627 97.6056142 23.15622902 97.60455704 C20.72062511 97.60691411 18.28501838 97.61574355 15.84946251 97.63122177 C12.43867445 97.65086718 9.02881522 97.64504839 5.61801147 97.63301086 C4.61669693 97.64424988 3.61538239 97.65548889 2.58372498 97.66706848 C-4.70487743 97.60186518 -10.06635797 96.06215669 -15.60733032 91.21748352 C-16.13713501 90.5755304 -16.6669397 89.93357727 -17.21279907 89.27217102 C-18.02684204 88.31697571 -18.02684204 88.31697571 -18.85733032 87.34248352 C-23.72094467 80.4226069 -23.82860598 74.84530263 -23.76358032 66.59248352 C-23.76407883 65.37696808 -23.76457733 64.16145264 -23.76509094 62.90910339 C-23.76275412 60.342121 -23.75304882 57.77513616 -23.73648071 55.20820618 C-23.71292511 51.29311969 -23.71591886 47.37871649 -23.7225647 43.46357727 C-23.71698621 40.96487532 -23.70987526 38.46617622 -23.70108032 35.96748352 C-23.70199173 34.80266449 -23.70290314 33.63784546 -23.70384216 32.43772888 C-23.61539085 22.21933587 -22.30156181 14.0753175 -15.40029907 6.14717102 C-10.66021079 2.37481343 -6.12844741 0.0334919 0 0 Z " fill="#B9E6FD" transform="translate(309.4002990722656,335.8528289794922)"/>
<path d="M0 0 C0.33 0 0.66 0 1 0 C1.07029712 15.17800115 1.12308909 30.35599476 1.15543652 45.53412247 C1.17085985 52.58269974 1.1918618 59.63117545 1.22631836 66.6796875 C1.25958366 73.48780015 1.27687701 80.29580744 1.28463173 87.10399628 C1.29015487 89.69538783 1.30094003 92.28677393 1.31719017 94.87812042 C1.3391148 98.52075949 1.3419606 102.16296914 1.34057617 105.80566406 C1.351362 106.8659079 1.36214783 107.92615173 1.3732605 109.01852417 C1.33079671 119.41173139 -0.91655755 128.97863229 -5.75 138.1875 C-6.09708008 138.86530518 -6.44416016 139.54311035 -6.80175781 140.24145508 C-10.12088185 146.54975383 -14.15614625 152.01191762 -19.07010269 157.17508984 C-21.49837755 160.72950607 -21.50641609 162.81128292 -21.51898193 167.09309387 C-21.52648319 167.79565345 -21.53398444 168.49821303 -21.541713 169.22206229 C-21.56197015 171.56997459 -21.55389195 173.91691934 -21.54589844 176.26489258 C-21.55463458 177.95034743 -21.5651205 179.63579399 -21.57722473 181.32122803 C-21.60510052 185.8931661 -21.60848907 190.46483377 -21.60750484 195.03684449 C-21.61063259 199.81618456 -21.63624791 204.59540259 -21.65948486 209.37467957 C-21.700059 218.42329107 -21.7203889 227.47183049 -21.73345876 236.52051896 C-21.749324 246.82280107 -21.78773763 257.12496042 -21.82805204 267.42717135 C-21.91047035 288.61807375 -21.96455041 309.8089704 -22 331 C-22.33 331 -22.66 331 -23 331 C-23.33 275.23 -23.66 219.46 -24 162 C-24.66 162 -25.32 162 -26 162 C-26 162.66 -26 163.32 -26 164 C-26.66 164 -27.32 164 -28 164 C-28 164.66 -28 165.32 -28 166 C-28.66 166 -29.32 166 -30 166 C-30 166.66 -30 167.32 -30 168 C-31.32 168 -32.64 168 -34 168 C-34 168.66 -34 169.32 -34 170 C-34.66 170 -35.32 170 -36 170 C-36 170.66 -36 171.32 -36 172 C-37.32 172 -38.64 172 -40 172 C-40 172.66 -40 173.32 -40 174 C-41.32 174 -42.64 174 -44 174 C-44 174.66 -44 175.32 -44 176 C-45.98 176 -47.96 176 -50 176 C-50 176.66 -50 177.32 -50 178 C-51.98 178 -53.96 178 -56 178 C-56 178.66 -56 179.32 -56 180 C-63.73730529 182.53257158 -71.45596388 182.22512539 -79.5 182.125 C-80.90884781 182.11495069 -82.31770255 182.10582829 -83.7265625 182.09765625 C-87.1512205 182.07419969 -90.57551939 182.04137384 -94 182 C-94 181.34 -94 180.68 -94 180 C-95.98 180 -97.96 180 -100 180 C-100 179.34 -100 178.68 -100 178 C-102.64 178 -105.28 178 -108 178 C-108 177.34 -108 176.68 -108 176 C-109.32 176 -110.64 176 -112 176 C-112 175.34 -112 174.68 -112 174 C-113.32 174 -114.64 174 -116 174 C-116 173.34 -116 172.68 -116 172 C-116.66 172 -117.32 172 -118 172 C-118 171.34 -118 170.68 -118 170 C-119.32 170 -120.64 170 -122 170 C-122 169.34 -122 168.68 -122 168 C-122.66 168 -123.32 168 -124 168 C-124 167.34 -124 166.68 -124 166 C-124.66 166 -125.32 166 -126 166 C-126 165.34 -126 164.68 -126 164 C-127.32 164 -128.64 164 -130 164 C-130 163.34 -130 162.68 -130 162 C-130.66 162 -131.32 162 -132 162 C-132 161.34 -132 160.68 -132 160 C-132.66 160 -133.32 160 -134 160 C-134 159.34 -134 158.68 -134 158 C-134.66 158 -135.32 158 -136 158 C-136 157.34 -136 156.68 -136 156 C-136.66 156 -137.32 156 -138 156 C-138 154.68 -138 153.36 -138 152 C-138.66 152 -139.32 152 -140 152 C-140 151.34 -140 150.68 -140 150 C-140.66 150 -141.32 150 -142 150 C-142 149.34 -142 148.68 -142 148 C-142.66 148 -143.32 148 -144 148 C-144 146.68 -144 145.36 -144 144 C-144.66 144 -145.32 144 -146 144 C-146 143.34 -146 142.68 -146 142 C-146.66 142 -147.32 142 -148 142 C-148 140.68 -148 139.36 -148 138 C-148.66 138 -149.32 138 -150 138 C-150 136.68 -150 135.36 -150 134 C-150.66 134 -151.32 134 -152 134 C-152 131.36 -152 128.72 -152 126 C-152.66 126 -153.32 126 -154 126 C-154 123.36 -154 120.72 -154 118 C-154.66 118 -155.32 118 -156 118 C-156 111.07 -156 104.14 -156 97 C-104.52 97 -53.04 97 0 97 C0 64.99 0 32.98 0 0 Z " fill="#FD4B47" transform="translate(504,105)"/>
<path d="M0 0 C0.33 0 0.66 0 1 0 C1 31.35 1 62.7 1 95 C52.48 95 103.96 95 157 95 C157 103.25 157 111.5 157 120 C156.34 120 155.68 120 155 120 C155 121.98 155 123.96 155 126 C154.34 126 153.68 126 153 126 C153 127.98 153 129.96 153 132 C152.34 132 151.68 132 151 132 C151 133.32 151 134.64 151 136 C150.34 136 149.68 136 149 136 C149 137.32 149 138.64 149 140 C148.34 140 147.68 140 147 140 C147 141.32 147 142.64 147 144 C146.34 144 145.68 144 145 144 C145 144.66 145 145.32 145 146 C144.34 146 143.68 146 143 146 C143 147.32 143 148.64 143 150 C142.34 150 141.68 150 141 150 C141 150.66 141 151.32 141 152 C140.34 152 139.68 152 139 152 C139 152.66 139 153.32 139 154 C138.34 154 137.68 154 137 154 C137 154.66 137 155.32 137 156 C136.34 156 135.68 156 135 156 C135 156.66 135 157.32 135 158 C134.34 158 133.68 158 133 158 C133 158.66 133 159.32 133 160 C132.34 160 131.68 160 131 160 C131 160.66 131 161.32 131 162 C130.34 162 129.68 162 129 162 C129 162.66 129 163.32 129 164 C127.68 164 126.36 164 125 164 C125 164.66 125 165.32 125 166 C124.34 166 123.68 166 123 166 C123 166.66 123 167.32 123 168 C121.68 168 120.36 168 119 168 C119 168.66 119 169.32 119 170 C118.34 170 117.68 170 117 170 C117 170.66 117 171.32 117 172 C115.02 172 113.04 172 111 172 C111 172.66 111 173.32 111 174 C109.68 174 108.36 174 107 174 C107 174.66 107 175.32 107 176 C105.02 176 103.04 176 101 176 C101 176.66 101 177.32 101 178 C92.76548242 180.13131517 84.8434457 180.23837775 76.375 180.125 C75.08464844 180.11597656 73.79429688 180.10695313 72.46484375 180.09765625 C69.30969751 180.0742848 66.15495074 180.04152091 63 180 C63 179.34 63 178.68 63 178 C60.36 178 57.72 178 55 178 C55 177.34 55 176.68 55 176 C53.02 176 51.04 176 49 176 C49 175.34 49 174.68 49 174 C47.68 174 46.36 174 45 174 C45 173.34 45 172.68 45 172 C43.68 172 42.36 172 41 172 C41 171.34 41 170.68 41 170 C40.34 170 39.68 170 39 170 C39 169.34 39 168.68 39 168 C37.68 168 36.36 168 35 168 C35 167.34 35 166.68 35 166 C34.34 166 33.68 166 33 166 C33 165.34 33 164.68 33 164 C31.68 164 30.36 164 29 164 C29 163.34 29 162.68 29 162 C28.34 162 27.68 162 27 162 C27 161.34 27 160.68 27 160 C26.34 160 25.68 160 25 160 C25 159.34 25 158.68 25 158 C24.13375 157.62875 24.13375 157.62875 23.25 157.25 C20.67060021 155.81700012 18.93878408 154.21575324 17 152 C17 151.34 17 150.68 17 150 C16.34 150 15.68 150 15 150 C1.6498658 127.90436846 -1.4812088 107.64418032 -1.328125 82.16796875 C-1.32505967 79.9149844 -1.32318944 77.66199815 -1.32244873 75.40901184 C-1.31788195 70.725317 -1.30358703 66.04179758 -1.28125 61.3581543 C-1.25275691 55.35379933 -1.242013 49.34958049 -1.2375679 43.3451643 C-1.23341767 38.71013534 -1.2236069 34.07513378 -1.21169281 29.44011879 C-1.20600019 27.22451304 -1.20123818 25.00890469 -1.19742584 22.79329491 C-1.19056429 19.71135154 -1.17693772 16.62951628 -1.16113281 13.54760742 C-1.16001495 12.63492096 -1.15889709 11.7222345 -1.15774536 10.78189087 C-1.15203522 9.94271622 -1.14632507 9.10354156 -1.14044189 8.23893738 C-1.13746723 7.51252139 -1.13449257 6.7861054 -1.13142776 6.03767681 C-0.99488095 3.9206335 -0.57687394 2.03759973 0 0 Z " fill="#FD4A46" transform="translate(43,107)"/>
<path d="M0 0 C47.85 0 95.7 0 145 0 C145 25.74968232 139.92008923 46.21520574 121.6875 64.8125 C106.75295911 79.47425408 88.77227989 85.47555233 68.11914062 85.43164062 C49.4948014 85.02647956 33.90428571 76.20639274 21 63 C3.36004921 44.47510185 0 25.16118176 0 0 Z " fill="#FEFEFD" transform="translate(202,202)"/>
<path d="M0 0 C0.33 0 0.66 0 1 0 C1 5.28 1 10.56 1 16 C1.66 16 2.32 16 3 16 C3 65.5 3 115 3 166 C2.34 166 1.68 166 1 166 C1 169.3 1 172.6 1 176 C0.67 176 0.34 176 0 176 C0 117.92 0 59.84 0 0 Z " fill="#9F6E56" transform="translate(67,265)"/>
<path d="M0 0 C1.09868408 0.48608231 2.19736816 0.97216461 3.3293457 1.47297668 C8.47349579 3.38963523 13.28959244 3.44040804 18.73046875 3.43237305 C19.77526901 3.4425647 20.82006927 3.45275635 21.89653015 3.46325684 C25.32690868 3.49328944 28.7570075 3.5026381 32.1875 3.51171875 C34.57504192 3.5285726 36.96257501 3.5467238 39.35009766 3.56611633 C45.61685424 3.6135454 51.88357499 3.64340084 58.15045166 3.66955566 C64.55219599 3.69939684 70.95381696 3.74591501 77.35546875 3.79101562 C89.90357866 3.87696815 102.45171855 3.94491618 115 4 C114.67 4.66 114.34 5.32 114 6 C78.36 6 42.72 6 6 6 C6 5.34 6 4.68 6 4 C4.68 4 3.36 4 2 4 C2 3.34 2 2.68 2 2 C1.34 2 0.68 2 0 2 C0 1.34 0 0.68 0 0 Z " fill="#A98773" transform="translate(296,429)"/>
<path d="M0 0 C0.33 0 0.66 0 1 0 C1.04487549 0.56283691 1.08975098 1.12567383 1.13598633 1.70556641 C2.06153589 13.01732658 3.21939573 23.97026975 6 35 C4.68 35 3.36 35 2 35 C2 35.66 2 36.32 2 37 C0.02 37 -1.96 37 -4 37 C-4 35.02 -4 33.04 -4 31 C-3.34 31 -2.68 31 -2 31 C-2 29.02 -2 27.04 -2 25 C-1.34 25 -0.68 25 0 25 C0 16.75 0 8.5 0 0 Z " fill="#AC684D" transform="translate(200,202)"/>
<path d="M0 0 C0.66 0.33 1.32 0.66 2 1 C1.2884375 1.61875 1.2884375 1.61875 0.5625 2.25 C-1.16266518 4.182185 -1.56584875 5.48192275 -2 8 C-2.66 8 -3.32 8 -4 8 C-4 8.66 -4 9.32 -4 10 C-5.32 10 -6.64 10 -8 10 C-8 11.98 -8 13.96 -8 16 C-9.98 16.66 -11.96 17.32 -14 18 C-13.34 16.02 -12.68 14.04 -12 12 C-11.34 12 -10.68 12 -10 12 C-9.773125 11.443125 -9.54625 10.88625 -9.3125 10.3125 C-7.63281165 7.3530491 -5.45866715 5.33873216 -3 3 C-2.401875 2.401875 -1.80375 1.80375 -1.1875 1.1875 C-0.795625 0.795625 -0.40375 0.40375 0 0 Z " fill="#E35857" transform="translate(62,77)"/>
<path d="M0 0 C1.32 0 2.64 0 4 0 C4 1.32 4 2.64 4 4 C3.34 4 2.68 4 2 4 C2.33 6.31 2.66 8.62 3 11 C-0.81936528 9.44396229 -3.26044438 7.04395069 -6 4 C-6 3.34 -6 2.68 -6 2 C-5.34 2 -4.68 2 -4 2 C-4 2.66 -4 3.32 -4 4 C-3.34 4 -2.68 4 -2 4 C-2 3.34 -2 2.68 -2 2 C-1.34 2 -0.68 2 0 2 C0 1.34 0 0.68 0 0 Z " fill="#BEE2F4" transform="translate(296,419)"/>
<path d="M0 0 C0.33 0 0.66 0 1 0 C1.05407567 2.58361518 1.093707 5.16609255 1.125 7.75 C1.14175781 8.47960937 1.15851563 9.20921875 1.17578125 9.9609375 C1.21072239 13.8044624 1.17499684 16.74606772 -1 20 C-1.66 20 -2.32 20 -3 20 C-2.01 13.4 -1.02 6.8 0 0 Z " fill="#A97157" transform="translate(347,211)"/>
<path d="M0 0 C3.63094642 2.64960955 5.89851796 5.01824456 8 9 C6.02 9.33 4.04 9.66 2 10 C2 8.02 2 6.04 2 4 C1.34 4 0.68 4 0 4 C0 2.68 0 1.36 0 0 Z " fill="#E55658" transform="translate(490,81)"/>
<path d="M0 0 C0.66 0 1.32 0 2 0 C1.42365861 4.75481646 -0.55068521 7.97048212 -3 12 C-3.33 11.34 -3.66 10.68 -4 10 C-4.66 10 -5.32 10 -6 10 C-6 9.34 -6 8.68 -6 8 C-4.68 8 -3.36 8 -2 8 C-2 6.68 -2 5.36 -2 4 C-1.34 4 -0.68 4 0 4 C0 2.68 0 1.36 0 0 Z " fill="#F07875" transform="translate(498,237)"/>
<path d="M0 0 C0.66 0 1.32 0 2 0 C2 1.32 2 2.64 2 4 C3.32 4 4.64 4 6 4 C6 5.32 6 6.64 6 8 C5.34 8 4.68 8 4 8 C3.67 8.66 3.34 9.32 3 10 C0 3.375 0 3.375 0 0 Z " fill="#F1726C" transform="translate(46,231)"/>
<path d="M0 0 C2.64 0 5.28 0 8 0 C8 1.32 8 2.64 8 4 C6.68 4 5.36 4 4 4 C4 3.34 4 2.68 4 2 C2.68 2 1.36 2 0 2 C0 1.34 0 0.68 0 0 Z " fill="#EA5046" transform="translate(388,277)"/>
<path d="M0 0 C3.36591866 1.44253657 5.51047079 3.33264727 8 6 C7.34 6 6.68 6 6 6 C6 6.66 6 7.32 6 8 C4.68 7.67 3.36 7.34 2 7 C2.66 6.01 3.32 5.02 4 4 C3.34 4 2.68 4 2 4 C2 3.34 2 2.68 2 2 C1.34 2 0.68 2 0 2 C0 1.34 0 0.68 0 0 Z " fill="#E16060" transform="translate(482,75)"/>
<path d="M0 0 C0.99 0.66 1.98 1.32 3 2 C3 2.66 3 3.32 3 4 C1.34467377 5.01866229 -0.32260138 6.01810813 -2 7 C-2.33 7.66 -2.66 8.32 -3 9 C-3.66 8.67 -4.32 8.34 -5 8 C-3.35 5.36 -1.7 2.72 0 0 Z " fill="#A47259" transform="translate(337,248)"/>
<path d="M0 0 C0 1.65 0 3.3 0 5 C-1.98 5.66 -3.96 6.32 -6 7 C-5.39816251 4.97954558 -4.72693904 2.97888961 -4 1 C-2 0 -2 0 0 0 Z " fill="#E4514B" transform="translate(54,88)"/>
<path d="M0 0 C1.32 0.33 2.64 0.66 4 1 C-2.28571429 5.42857143 -2.28571429 5.42857143 -6 6 C-6 5.34 -6 4.68 -6 4 C-5.34 4 -4.68 4 -4 4 C-4 3.34 -4 2.68 -4 2 C-2.68 2 -1.36 2 0 2 C0 1.34 0 0.68 0 0 Z " fill="#C3D9E3" transform="translate(420,427)"/>
<path d="M0 0 C0.99 0.495 0.99 0.495 2 1 C2 1.66 2 2.32 2 3 C2.66 3 3.32 3 4 3 C4 5.64 4 8.28 4 11 C1.6870518 8.6870518 1.50419025 7.52095125 0.875 4.375 C0.70742187 3.55773437 0.53984375 2.74046875 0.3671875 1.8984375 C0.24601562 1.27195312 0.12484375 0.64546875 0 0 Z " fill="#BC8F7A" transform="translate(68,444)"/>
<path d="M0 0 C1.98 1.65 3.96 3.3 6 5 C5.67 5.99 5.34 6.98 5 8 C3.68 7.67 2.36 7.34 1 7 C1.66 6.01 2.32 5.02 3 4 C2.34 4 1.68 4 1 4 C0.67 2.68 0.34 1.36 0 0 Z " fill="#A16D50" transform="translate(225,267)"/>
<path d="M0 0 C3.3 0 6.6 0 10 0 C6 3 6 3 2.75 2.6875 C1.8425 2.460625 0.935 2.23375 0 2 C0 1.34 0 0.68 0 0 Z " fill="#9D6D50" transform="translate(134,337)"/>
<path d="M0 0 C-1.75 4.875 -1.75 4.875 -4 6 C-4 5.34 -4 4.68 -4 4 C-4.66 3.67 -5.32 3.34 -6 3 C-3.375 0 -3.375 0 0 0 Z " fill="#BFDCED" transform="translate(430,419)"/>
<path d="M0 0 C1.32 0.33 2.64 0.66 4 1 C2.71937515 2.7074998 1.38232443 4.37373596 0 6 C-0.66 6 -1.32 6 -2 6 C-2 4.68 -2 3.36 -2 2 C-1.34 2 -0.68 2 0 2 C0 1.34 0 0.68 0 0 Z " fill="#B48B74" transform="translate(468,463)"/>
<path d="M0 0 C-0.33 1.32 -0.66 2.64 -1 4 C-1.99 3.67 -2.98 3.34 -4 3 C-4 3.66 -4 4.32 -4 5 C-4.66 5 -5.32 5 -6 5 C-6.33 4.01 -6.66 3.02 -7 2 C-2.25 0 -2.25 0 0 0 Z " fill="#996F58" transform="translate(422,430)"/>
<path d="M0 0 C1.32 0 2.64 0 4 0 C4 0.66 4 1.32 4 2 C3.34 2 2.68 2 2 2 C2 2.66 2 3.32 2 4 C1.34 4 0.68 4 0 4 C-0.33 4.66 -0.66 5.32 -1 6 C-1.33 4.68 -1.66 3.36 -2 2 C-1.34 2 -0.68 2 0 2 C0 1.34 0 0.68 0 0 Z " fill="#C2E0F4" transform="translate(290,415)"/>
</svg>
