<?xml version="1.0" encoding="UTF-8"?>
<svg version="1.1" xmlns="http://www.w3.org/2000/svg" width="675" height="1012">
<path d="M0 0 C0.65313675 -0.00832352 1.3062735 -0.01664703 1.97920227 -0.02522278 C4.118847 -0.04913329 6.25818542 -0.05807341 8.39794922 -0.06469727 C9.90379924 -0.07368139 11.40964844 -0.08280351 12.91549683 -0.09205627 C16.06754716 -0.10849991 19.21949191 -0.1162373 22.37158203 -0.11914062 C26.37587788 -0.12450492 30.37915562 -0.16212251 34.38316536 -0.20788479 C37.49422661 -0.23789714 40.60505045 -0.24486944 43.71624374 -0.24586678 C45.19040439 -0.25002511 46.66456871 -0.26227902 48.13858414 -0.28338432 C64.7658669 -0.50242467 78.49996529 5.06816589 90.76513672 16.36889648 C99.01608422 25.06344331 103.89135282 35.86092932 107.07763672 47.30639648 C107.91037109 47.14655273 108.74310547 46.98670898 109.60107422 46.82202148 C127.32425581 44.19341478 142.75264561 47.91174683 157.20263672 58.62280273 C164.71603647 64.68133196 171.58364994 71.54989639 178.47320557 78.29858398 C179.48508036 79.2880688 180.50055996 80.27388338 181.5199585 81.25561523 C192.85655445 92.2127455 200.76506963 103.89985829 201.54638672 119.95092773 C201.57265611 122.34012895 201.58280007 124.72955644 201.57763672 127.11889648 C201.60599609 128.30032227 201.63435547 129.48174805 201.66357422 130.69897461 C201.7109293 152.30472874 187.93495436 166.4249917 173.62939453 180.81835938 C167.48386221 186.95863372 167.48386221 186.95863372 164.44482422 189.56030273 C158.16216134 196.84860637 157.7140227 208.06792334 156.15966797 217.27905273 C155.89552469 218.81329213 155.63075909 220.3474245 155.36540222 221.88145447 C154.67370649 225.88997878 153.99039247 229.89988664 153.30889893 233.91015625 C152.60998032 238.01382002 151.90302695 242.1160986 151.19677734 246.21850586 C149.81592654 254.24647929 148.44394008 262.27593444 147.07763672 270.30639648 C148.18751953 270.45262451 149.29740234 270.59885254 150.44091797 270.74951172 C157.82193231 271.87975432 162.95282917 276.48200168 167.60107422 282.13842773 C171.70093655 288.15806687 173.12973946 295.1230743 172.07763672 302.30639648 C170.18077488 309.96542353 166.42511849 315.6053605 160.07763672 320.30639648 C155.36136807 322.81324198 151.44384597 324.30639648 146.07763672 324.30639648 C146.08651917 324.8810968 146.09540161 325.45579712 146.10455322 326.0479126 C146.19373466 332.08351595 146.25366143 338.11892914 146.29736328 344.1550293 C146.31735504 346.40120052 146.34455769 348.64732052 146.37939453 350.89331055 C146.79095976 378.12924499 146.79095976 378.12924499 138.57763672 390.24389648 C138.01044922 391.09854492 137.44326172 391.95319336 136.85888672 392.83374023 C128.36412445 404.62581154 116.30744877 412.22057812 102.00073242 414.92700195 C96.33388639 415.66251341 90.65605157 415.5101556 84.95263672 415.43139648 C80.70388672 415.39014648 76.45513672 415.34889648 72.07763672 415.30639648 C72.40763672 424.54639648 72.73763672 433.78639648 73.07763672 443.30639648 C81.12483983 445.46448564 89.17773108 447.59518629 97.24295044 449.68499756 C101.79015821 450.86674456 106.33361283 452.0625651 110.87670898 453.26000977 C113.22649787 453.87623541 115.57775705 454.48688051 117.93041992 455.09204102 C121.37547893 455.97943732 124.81467592 456.88705654 128.25341797 457.79858398 C129.29218582 458.06130096 130.33095367 458.32401794 131.40119934 458.59469604 C141.19027931 461.22897714 150.46757621 465.50561406 156.07763672 474.30639648 C160.67077462 482.43050915 161.38162626 490.79625322 159.55810547 499.90014648 C157.09079343 507.38716231 151.65216866 512.93291818 146.49707031 518.69702148 C143.56744489 522.01867453 140.81404242 525.48733691 138.03076172 528.93139648 C136.38937991 530.92731677 134.6908709 532.83374903 132.95263672 534.74389648 C130.8869512 537.03779645 130.8869512 537.03779645 131.07763672 539.24389648 C131.91904739 540.97930599 132.77762665 542.70637636 133.64013672 544.43139648 C135.88921536 549.63099909 136.01041321 555.04461203 134.45654297 560.47827148 C132.05262364 565.99125981 128.19953526 570.18349687 123.07763672 573.30639648 C116.54345559 575.76770238 111.03177552 575.58670706 104.46435547 573.42358398 C101.45191007 572.01350316 98.82840097 570.16882195 96.07763672 568.30639648 C96.13600204 569.45057541 96.19436737 570.59475433 96.25450134 571.77360535 C97.23423433 592.04593515 97.67568118 612.33557695 98.18867612 632.62379098 C98.2971968 636.90549175 98.40704623 641.18715804 98.51688999 645.46882504 C98.77619696 655.57682673 99.03345259 665.68487911 99.28930664 675.79296875 C99.55195585 686.16835939 99.81777128 696.54366543 100.0851894 706.91893417 C100.31619673 715.88516734 100.54539692 724.85144545 100.77314228 733.81776208 C100.90853311 739.14781872 101.04453718 744.47785769 101.18222237 749.80785561 C101.31153617 754.81736021 101.43856199 759.82691802 101.56392288 764.83652306 C101.60989367 766.65925457 101.65661993 768.48196724 101.70421791 770.30465698 C102.00836628 781.97481342 102.13366416 793.63228437 102.07763672 805.30639648 C103.27524879 805.75136475 103.27524879 805.75136475 104.49705505 806.20532227 C107.07763672 807.30639648 107.07763672 807.30639648 108.36694336 808.92358398 C109.40458798 812.40259857 109.42313545 815.83146324 109.44873047 819.43139648 C109.45775894 820.21530762 109.46678741 820.99921875 109.47608948 821.80688477 C109.49056857 823.46098015 109.4994729 825.1151325 109.50317383 826.76928711 C109.51509835 829.2982593 109.56432448 831.82481195 109.61474609 834.35327148 C109.62420787 835.9626346 109.63144408 837.57201267 109.63623047 839.18139648 C109.65576279 839.93565918 109.6752951 840.68992187 109.69541931 841.46704102 C109.66543508 844.95763256 109.47374228 846.86249947 107.11573792 849.50500488 C102.94793507 851.9762343 99.63042283 851.86867746 94.86865234 851.82397461 C93.48972054 851.83448853 93.48972054 851.83448853 92.08293152 851.84521484 C89.04960769 851.86279429 86.01721974 851.85117208 82.98388672 851.83764648 C80.87308575 851.84034141 78.76228598 851.84422383 76.65148926 851.84924316 C72.22977874 851.85513815 67.80839165 851.84657502 63.38671875 851.82788086 C57.72042344 851.80509156 52.05488598 851.8182146 46.38861847 851.84217072 C42.03056127 851.85662851 37.67268359 851.85202273 33.31462097 851.84165955 C31.22543752 851.83899222 29.13623775 851.8422622 27.04707336 851.85157776 C24.12648378 851.86174282 21.20711948 851.84624248 18.28662109 851.82397461 C17.42413254 851.83207153 16.56164398 851.84016846 15.67301941 851.84851074 C11.6880615 851.79225547 9.54687722 851.58312613 6.04626465 849.51867676 C3.11935467 846.22951017 3.29299441 842.88284266 3.26513672 838.68139648 C3.24435059 837.84979004 3.22356445 837.01818359 3.20214844 836.16137695 C3.16307646 834.42021132 3.13493829 832.67876937 3.1171875 830.93725586 C3.07849301 828.36335579 2.97453967 825.79954478 2.85498047 823.22827148 C2.80208895 821.62938157 2.75122775 820.03042288 2.70263672 818.43139648 C2.66420654 817.68937988 2.62577637 816.94736328 2.58618164 816.18286133 C2.52529264 812.14931339 2.92624257 810.4962556 5.47607422 807.29858398 C8.07763672 805.30639648 8.07763672 805.30639648 10.07763672 805.30639648 C9.74763672 761.41639648 9.41763672 717.52639648 9.07763672 672.30639648 C8.08763672 677.25639648 7.09763672 682.20639648 6.07763672 687.30639648 C4.54139709 692.63406372 4.54139709 692.63406372 3.78978157 695.00531387 C2.56029671 698.97802563 1.62241754 703.02014775 0.6574707 707.0637207 C0.43591309 707.98224823 0.21435547 708.90077576 -0.01391602 709.84713745 C-0.7376177 712.85109338 -1.45714681 715.85602886 -2.17626953 718.86108398 C-2.68272757 720.97041867 -3.18931652 723.07972194 -3.69602966 725.18899536 C-4.75444711 729.59794782 -5.81068262 734.00741611 -6.86547852 738.41723633 C-8.21118343 744.04212433 -9.56323385 749.66546499 -10.91705418 755.28840446 C-11.96405667 759.64082732 -13.00718941 763.99417089 -14.0492382 768.34778214 C-14.5458825 770.42032838 -15.04380918 772.4925678 -15.54309273 774.56447983 C-19.23999346 789.83392655 -19.23999346 789.83392655 -21.92236328 805.30639648 C-21.09736328 805.82202148 -20.27236328 806.33764648 -19.42236328 806.86889648 C-16.92236328 809.30639648 -16.92236328 809.30639648 -16.66772461 812.50097656 C-17.06637527 818.45856799 -18.58379708 824.09888689 -20.06567383 829.859375 C-20.60994646 831.99422273 -21.124875 834.13485792 -21.63916016 836.27709961 C-21.98569405 837.64538851 -22.33394318 839.01324439 -22.68408203 840.38061523 C-22.9930542 841.61384521 -23.30202637 842.8470752 -23.62036133 844.11767578 C-25.20080186 847.98831779 -26.3659272 849.12384618 -29.92236328 851.30639648 C-32.94052456 851.87270514 -35.90016806 851.83296488 -38.96362305 851.79223633 C-39.86501007 851.79603302 -40.76639709 851.79982971 -41.69509888 851.80374146 C-44.66834542 851.81113826 -47.64061015 851.78977812 -50.61376953 851.76733398 C-52.68212265 851.76494913 -54.75047797 851.76404433 -56.8188324 851.76455688 C-61.15060006 851.76143046 -65.48203638 851.74487588 -69.8137207 851.71801758 C-75.36784298 851.6840169 -80.92160161 851.67638972 -86.47581577 851.67790794 C-90.74545262 851.67736429 -95.01500989 851.66639821 -99.28462029 851.65190506 C-101.33275691 851.64553873 -103.38090255 851.64159855 -105.42904854 851.64011765 C-108.28968822 851.63578414 -111.14994136 851.6182825 -114.01049805 851.59692383 C-115.28157158 851.59828339 -115.28157158 851.59828339 -116.57832336 851.59967041 C-123.97879885 851.51882167 -123.97879885 851.51882167 -126.92236328 849.30639648 C-129.34974882 844.49553389 -128.80931048 840.71606569 -127.54345703 835.67749023 C-127.37491714 834.9653688 -127.20637726 834.25324738 -127.0327301 833.51954651 C-126.67320293 832.02083713 -126.30544172 830.52408173 -125.92993164 829.02929688 C-125.36204999 826.75266299 -124.83118091 824.46952932 -124.30322266 822.18334961 C-123.94799891 820.72252689 -123.59064667 819.26221976 -123.23095703 817.80249023 C-123.07549911 817.12528427 -122.9200412 816.44807831 -122.75987244 815.75035095 C-121.53553002 811.02998528 -119.76706292 808.30384291 -115.92236328 805.30639648 C-114.60236328 805.30639648 -113.28236328 805.30639648 -111.92236328 805.30639648 C-111.83789948 804.74350418 -111.75343567 804.18061188 -111.66641235 803.60066223 C-110.02957656 793.69753888 -107.33717958 784.06956158 -104.75830078 774.38061523 C-104.24187776 772.4280586 -103.72582277 770.47540459 -103.21011353 768.5226593 C-101.85245292 763.38597182 -100.48968675 758.25065235 -99.12585449 753.11560059 C-97.7670738 747.99579822 -96.413363 742.87465617 -95.05908203 737.75366211 C-94.00080834 733.75422839 -92.94216088 729.75489373 -91.88330078 725.75561523 C-91.4954604 724.29070459 -91.4954604 724.29070459 -91.09978485 722.7961998 C-88.54193993 713.13856428 -85.97649245 703.48330115 -83.36474609 693.84008789 C-82.98190814 692.42220587 -82.59914366 691.004304 -82.21646118 689.58638 C-81.5287925 687.03854228 -80.83474723 684.4927536 -80.1368103 681.94767761 C-79.83997345 680.84893814 -79.5431366 679.75019867 -79.23730469 678.61816406 C-78.98091217 677.67942947 -78.72451965 676.74069489 -78.46035767 675.77351379 C-77.78032391 673.07588614 -77.78032391 673.07588614 -77.92236328 669.30639648 C-79.68580078 668.53295898 -79.68580078 668.53295898 -81.48486328 667.74389648 C-90.2305056 663.33237779 -94.88623501 656.41478129 -97.92236328 647.30639648 C-98.81381683 639.97165208 -98.00127256 633.57387265 -95.40673828 626.68530273 C-95.14088425 625.95681625 -94.87503021 625.22832977 -94.60112 624.47776794 C-93.72119899 622.08224987 -92.82418593 619.69375058 -91.92236328 617.30639648 C-91.61622101 616.49299805 -91.31007874 615.67959961 -90.99465942 614.84155273 C-88.97273841 609.4832959 -86.92221636 604.1362973 -84.86199951 598.79266357 C-82.88626172 593.66764233 -80.91846613 588.53957044 -78.94970703 583.41186523 C-78.33582123 581.81378021 -78.33582123 581.81378021 -77.70953369 580.18341064 C-73.04239604 568.02738316 -68.41841875 555.85500069 -63.79736328 543.68139648 C-63.40843903 542.65692413 -63.01951477 541.63245178 -62.61880493 540.57693481 C-62.23920624 539.57701508 -61.85960754 538.57709534 -61.46850586 537.546875 C-61.09514099 536.56386917 -60.72177612 535.58086334 -60.33709717 534.56806946 C-59.60401834 532.63590269 -58.87234178 530.70320324 -58.14215088 528.76994324 C-56.34005705 524.00453208 -54.5120088 519.25204248 -52.63305664 514.51635742 C-52.26483795 513.57845367 -51.89661926 512.64054993 -51.51724243 511.67422485 C-50.82693697 509.91851734 -50.12831787 508.16604304 -49.41928101 506.41781616 C-47.25873812 500.89203143 -46.19669519 495.71477025 -45.73486328 489.80639648 C-45.67402054 489.03131744 -45.6131778 488.2562384 -45.55049133 487.45767212 C-45.49789658 486.77868866 -45.44530182 486.0997052 -45.39111328 485.40014648 C-44.41983892 474.98808535 -39.26518409 466.36309729 -32.92236328 458.30639648 C-32.47763672 457.72116211 -32.03291016 457.13592773 -31.57470703 456.53295898 C-28.71876711 452.91482288 -25.58204885 450.07149225 -21.92236328 447.30639648 C-21.26236328 447.30639648 -20.60236328 447.30639648 -19.92236328 447.30639648 C-19.92236328 436.74639648 -19.92236328 426.18639648 -19.92236328 415.30639648 C-23.46986328 415.36827148 -27.01736328 415.43014648 -30.67236328 415.49389648 C-47.89878126 415.57694147 -62.00174478 411.81519025 -74.73876953 399.58764648 C-85.86124438 387.96774432 -90.29668597 374.68733077 -90.11767578 358.80249023 C-90.11484589 357.83859879 -90.11201599 356.87470734 -90.10910034 355.88160706 C-90.09800176 352.83557143 -90.07291692 349.78984162 -90.04736328 346.74389648 C-90.03732012 344.66512472 -90.02819662 342.5863483 -90.02001953 340.50756836 C-89.99809633 335.44039517 -89.96363884 330.37344748 -89.92236328 325.30639648 C-90.61251526 325.24730606 -91.30266724 325.18821564 -92.01373291 325.12733459 C-92.91718445 325.04470871 -93.82063599 324.96208282 -94.75146484 324.87695312 C-96.09606781 324.75737999 -96.09606781 324.75737999 -97.46783447 324.63539124 C-103.82576358 323.78320107 -108.5094793 319.16366054 -112.35986328 314.30639648 C-117.0996991 307.32137528 -117.78971687 300.62656612 -116.92236328 292.30639648 C-114.76505828 284.64504844 -110.45528445 278.62232059 -103.60986328 274.49389648 C-99.3328214 272.25490812 -95.71889529 271.5680255 -90.92236328 271.30639648 C-91.19854492 270.31470459 -91.47472656 269.3230127 -91.75927734 268.30126953 C-93.29174004 262.15823103 -94.18670502 255.89803487 -95.1727829 249.64966774 C-95.79145093 245.75236751 -96.43292083 241.85879293 -97.07080078 237.96459961 C-97.87849603 233.02894883 -98.67916648 228.09250993 -99.45263672 223.15136719 C-100.08152313 219.13781137 -100.73489457 215.12892128 -101.40479279 211.122015 C-101.65451483 209.60088365 -101.89529481 208.07825517 -102.12676239 206.55423927 C-102.45175144 204.42255871 -102.80785265 202.29824919 -103.17138672 200.17285156 C-103.46212067 198.36038689 -103.46212067 198.36038689 -103.75872803 196.51130676 C-105.31618978 192.22171072 -107.2655374 190.97138316 -110.92236328 188.30639648 C-111.97931549 187.17234894 -113.00483545 186.0075448 -113.98486328 184.80639648 C-116.73551586 181.55952374 -119.65079071 178.57585054 -122.69750977 175.61254883 C-135.4455311 163.18751345 -144.98772908 149.17375904 -145.30273438 130.79614258 C-145.2837414 121.32900593 -144.78750726 113.1150475 -140.92236328 104.30639648 C-140.32101563 102.91614258 -140.32101563 102.91614258 -139.70751953 101.49780273 C-133.88461021 89.59881411 -123.60138005 80.80758755 -113.92236328 72.06030273 C-111.42527881 69.79440096 -109.06520875 67.43230232 -106.73486328 64.99389648 C-96.61355739 54.80920037 -82.61729235 47.41554805 -68.05517578 47.07592773 C-66.38584812 47.07985249 -64.71651396 47.09427392 -63.04736328 47.11889648 C-62.19400391 47.11954102 -61.34064453 47.12018555 -60.46142578 47.12084961 C-54.20435315 47.16540155 -54.20435315 47.16540155 -51.92236328 48.30639648 C-51.82955078 46.94514648 -51.82955078 46.94514648 -51.73486328 45.55639648 C-49.7038333 31.94300633 -40.9695429 20.16134865 -30.77001953 11.38061523 C-21.72703524 4.79375013 -11.29303166 0.10260742 0 0 Z " fill="#A46648" transform="translate(350.92236328125,50.693603515625)"/>
<path d="M0 0 C4.29 0 8.58 0 13 0 C13 6.6 13 13.2 13 20 C26.86 20 40.72 20 55 20 C55 13.4 55 6.8 55 0 C58.96 0 62.92 0 67 0 C67 6.6 67 13.2 67 20 C73.6 20 80.2 20 87 20 C88.2065625 22.7534375 88.2065625 22.7534375 89.4375 25.5625 C93.55854063 33.72808863 99.01191204 38.00062606 107.45532227 41.25878906 C110.77958421 43.11831133 113.63503013 44.96313494 116 48 C116.81548373 51.20469396 116.53921164 54.28034256 116.33398438 57.56103516 C116.26846835 59.74086274 116.21087551 61.92093613 116.15917969 64.10113525 C116.1258252 65.34116554 116.0924707 66.58119583 116.05810547 67.8588028 C115.91811729 75.11692401 116.180577 82.37521787 116.38149548 89.63020396 C116.46037915 92.48156862 116.53478608 95.33302032 116.60807037 98.18453407 C116.71216381 102.21832373 116.81820243 106.25205461 116.92597961 110.28574753 C117.09733943 116.70267077 117.26398818 123.11971155 117.43005371 129.53677368 C117.75309499 141.99585874 118.08068716 154.45482198 118.40886688 166.91377258 C118.82696555 182.79312155 119.24317573 198.67251865 119.65483522 214.55203593 C119.8198897 220.91293605 119.98728689 227.27376863 120.15660858 233.63455653 C120.26186561 237.60580671 120.36516956 241.57710609 120.46799278 245.54841995 C120.5155413 247.36954136 120.56387759 249.19064243 120.61312294 251.01171875 C120.92807559 262.67761671 121.05800424 274.32985476 121 286 C122.19761208 286.44496826 122.19761208 286.44496826 123.41941833 286.89892578 C126 288 126 288 127.28930664 289.6171875 C128.32695126 293.09620209 128.34549873 296.52506676 128.37109375 300.125 C128.38012222 300.90891113 128.3891507 301.69282227 128.39845276 302.50048828 C128.41293186 304.15458366 128.42183618 305.80873601 128.42553711 307.46289062 C128.43746163 309.99186282 128.48668776 312.51841546 128.53710938 315.046875 C128.54657115 316.65623812 128.55380736 318.26561618 128.55859375 319.875 C128.57812607 320.6292627 128.59765839 321.38352539 128.61778259 322.16064453 C128.58779836 325.65123608 128.39610556 327.55610299 126.0381012 330.1986084 C121.87029835 332.66983781 118.55278611 332.56228097 113.79101562 332.51757812 C112.41208382 332.52809204 112.41208382 332.52809204 111.0052948 332.53881836 C107.97197098 332.5563978 104.93958302 332.54477559 101.90625 332.53125 C99.79544903 332.53394492 97.68464926 332.53782735 95.57385254 332.54284668 C91.15214202 332.54874167 86.73075493 332.54017854 82.30908203 332.52148438 C76.64278672 332.49869507 70.97724926 332.51181811 65.31098175 332.53577423 C60.95292455 332.55023203 56.59504687 332.54562624 52.23698425 332.53526306 C50.1478008 332.53259574 48.05860103 332.53586572 45.96943665 332.54518127 C43.04884706 332.55534633 40.12948276 332.539846 37.20898438 332.51757812 C36.34649582 332.52567505 35.48400726 332.53377197 34.59538269 332.54211426 C30.61042478 332.48585898 28.46924051 332.27672964 24.96862793 330.21228027 C22.04171795 326.92311369 22.21535769 323.57644617 22.1875 319.375 C22.16671387 318.54339355 22.14592773 317.71178711 22.12451172 316.85498047 C22.08543974 315.11381483 22.05730157 313.37237288 22.03955078 311.63085938 C22.00085629 309.0569593 21.89690296 306.4931483 21.77734375 303.921875 C21.72445223 302.32298508 21.67359103 300.72402639 21.625 299.125 C21.58656982 298.3829834 21.54813965 297.6409668 21.50854492 296.87646484 C21.44765592 292.8429169 21.84860585 291.18985912 24.3984375 287.9921875 C27 286 27 286 29 286 C28.67 242.11 28.34 198.22 28 153 C27.01 157.95 26.02 162.9 25 168 C23.46376038 173.32766724 23.46376038 173.32766724 22.71214485 175.69891739 C21.48265999 179.67162915 20.54478082 183.71375127 19.57983398 187.75732422 C19.35827637 188.67585175 19.13671875 189.59437927 18.90844727 190.54074097 C18.18474558 193.5446969 17.46521647 196.54963238 16.74609375 199.5546875 C16.23963571 201.66402219 15.73304676 203.77332545 15.22633362 205.88259888 C14.16791618 210.29155134 13.11168066 214.70101963 12.05688477 219.11083984 C10.71117985 224.73572784 9.35912943 230.35906851 8.0053091 235.98200798 C6.95830661 240.33443084 5.91517387 244.6877744 4.87312508 249.04138565 C4.37648078 251.1139319 3.8785541 253.18617132 3.37927055 255.25808334 C-0.31763017 270.52753006 -0.31763017 270.52753006 -3 286 C-2.175 286.515625 -1.35 287.03125 -0.5 287.5625 C2 290 2 290 2.25463867 293.19458008 C1.85598801 299.1521715 0.3385662 304.7924904 -1.14331055 310.55297852 C-1.68758318 312.68782625 -2.20251172 314.82846143 -2.71679688 316.97070312 C-3.06333077 318.33899202 -3.4115799 319.7068479 -3.76171875 321.07421875 C-4.07069092 322.30744873 -4.37966309 323.54067871 -4.69799805 324.8112793 C-6.27843858 328.6819213 -7.44356392 329.8174497 -11 332 C-14.01816128 332.56630865 -16.97780478 332.5265684 -20.04125977 332.48583984 C-20.94264679 332.48963654 -21.84403381 332.49343323 -22.7727356 332.49734497 C-25.74598214 332.50474177 -28.71824687 332.48338164 -31.69140625 332.4609375 C-33.75975937 332.45855264 -35.82811468 332.45764784 -37.89646912 332.4581604 C-42.22823678 332.45503397 -46.5596731 332.4384794 -50.89135742 332.41162109 C-56.4454797 332.37762042 -61.99923833 332.36999323 -67.55345249 332.37151146 C-71.82308934 332.37096781 -76.09264661 332.36000173 -80.362257 332.34550858 C-82.41039363 332.33914225 -84.45853927 332.33520207 -86.50668526 332.33372116 C-89.36732494 332.32938765 -92.22757807 332.31188601 -95.08813477 332.29052734 C-96.3592083 332.2918869 -96.3592083 332.2918869 -97.65596008 332.29327393 C-105.05643557 332.21242519 -105.05643557 332.21242519 -108 330 C-110.42738554 325.18913741 -109.8869472 321.40966921 -108.62109375 316.37109375 C-108.36828392 315.30291161 -108.36828392 315.30291161 -108.11036682 314.21315002 C-107.75083965 312.71444065 -107.38307844 311.21768525 -107.00756836 309.72290039 C-106.43968671 307.4462665 -105.90881762 305.16313284 -105.38085938 302.87695312 C-105.02563563 301.4161304 -104.66828339 299.95582328 -104.30859375 298.49609375 C-104.15313583 297.81888779 -103.99767792 297.14168182 -103.83750916 296.44395447 C-102.61316674 291.7235888 -100.84469964 288.99744643 -97 286 C-95.68 286 -94.36 286 -93 286 C-92.91390472 285.43139755 -92.82780945 284.8627951 -92.73910522 284.27696228 C-91.1247837 274.5472885 -88.50655592 265.08795705 -85.9765625 255.56640625 C-85.46976511 253.64737691 -84.96329244 251.72826179 -84.4571228 249.80906677 C-83.3921388 245.77460829 -82.32437198 241.74090066 -81.25439453 237.70776367 C-79.92169543 232.68413065 -78.59400331 227.65919396 -77.2682457 222.63372517 C-71.05827119 199.09851466 -64.74380966 175.5935549 -58.31189156 152.11802292 C-53.01795986 132.79439006 -47.87530407 113.43352789 -42.953125 94.01171875 C-42.68830322 92.9682579 -42.42348145 91.92479706 -42.15063477 90.84971619 C-40.84341836 85.697199 -39.54107322 80.54354796 -38.24804688 75.38745117 C-27.58386057 33.07329018 -27.58386057 33.07329018 -9.15234375 20.8125 C-7 20 -7 20 0 20 C0 13.4 0 6.8 0 0 Z " fill="#1DB0F5" transform="translate(332,570)"/>
<path d="M0 0 C0.65313675 -0.00832352 1.3062735 -0.01664703 1.97920227 -0.02522278 C4.118847 -0.04913329 6.25818542 -0.05807341 8.39794922 -0.06469727 C9.90379924 -0.07368139 11.40964844 -0.08280351 12.91549683 -0.09205627 C16.06754716 -0.10849991 19.21949191 -0.1162373 22.37158203 -0.11914062 C26.37587788 -0.12450492 30.37915562 -0.16212251 34.38316536 -0.20788479 C37.49422661 -0.23789714 40.60505045 -0.24486944 43.71624374 -0.24586678 C45.19040439 -0.25002511 46.66456871 -0.26227902 48.13858414 -0.28338432 C64.7658669 -0.50242467 78.49996529 5.06816589 90.76513672 16.36889648 C99.01608422 25.06344331 103.89135282 35.86092932 107.07763672 47.30639648 C107.91037109 47.14655273 108.74310547 46.98670898 109.60107422 46.82202148 C127.32425581 44.19341478 142.75264561 47.91174683 157.20263672 58.62280273 C164.71603647 64.68133196 171.58364994 71.54989639 178.47320557 78.29858398 C179.48508036 79.2880688 180.50055996 80.27388338 181.5199585 81.25561523 C192.85655445 92.2127455 200.76506963 103.89985829 201.54638672 119.95092773 C201.57265611 122.34012895 201.58280007 124.72955644 201.57763672 127.11889648 C201.60599609 128.30032227 201.63435547 129.48174805 201.66357422 130.69897461 C201.7109293 152.30472874 187.93495436 166.4249917 173.62939453 180.81835938 C171.45509463 182.99079899 169.26628742 185.1484278 167.07763672 187.30639648 C165.40978928 188.97188154 163.74285222 190.63827991 162.07763672 192.30639648 C161.07763672 193.30639648 161.07763672 193.30639648 159.20544338 193.42944431 C158.38043866 193.42852252 157.55543394 193.42760073 156.70542908 193.426651 C155.76166916 193.42802567 154.81790924 193.42940033 153.84555054 193.43081665 C152.8018631 193.42722137 151.75817566 193.4236261 150.68286133 193.41992188 C149.5903154 193.4200679 148.49776947 193.42021393 147.37211609 193.42036438 C143.74138439 193.41966471 140.11070326 193.41186977 136.47998047 193.40405273 C133.97034229 193.40218875 131.46070374 193.40076475 128.95106506 193.39976501 C123.00829079 193.39632996 117.06553288 193.38843921 111.12276703 193.37841552 C103.69561747 193.36615902 96.26846567 193.36077441 88.84130859 193.35522461 C75.58674199 193.34448459 62.33219051 193.32759731 49.07763672 193.30639648 C49.86460937 192.52031006 50.65158203 191.73422363 51.46240234 190.92431641 C64.90425651 177.468659 67.86684897 164.68868721 70.07763672 146.30639648 C52.10674777 147.61799731 40.93127823 152.12994663 28.07763672 165.30639648 C27.47951172 164.48139648 26.88138672 163.65639648 26.26513672 162.80639648 C19.56594928 154.84285536 10.90106206 150.24346791 1.07763672 147.30639648 C0.08763672 146.97639648 -0.90236328 146.64639648 -1.92236328 146.30639648 C-3.81449065 146.08459863 -5.711208 145.90025633 -7.60986328 145.74389648 C-8.60373047 145.66010742 -9.59759766 145.57631836 -10.62158203 145.48999023 C-11.38083984 145.4294043 -12.14009766 145.36881836 -12.92236328 145.30639648 C-12.67277256 159.82803846 -9.92277707 174.20389628 0.07763672 185.30639648 C2.17987406 187.3127423 4.31201321 189.2050872 6.57373047 191.02905273 C7.07001953 191.45057617 7.56630859 191.87209961 8.07763672 192.30639648 C8.07763672 192.63639648 8.07763672 192.96639648 8.07763672 193.30639648 C-6.55200593 193.42328747 -21.18158662 193.51141267 -35.81160164 193.56545734 C-42.60486605 193.59122025 -49.39784001 193.6263334 -56.19091797 193.68359375 C-62.74611191 193.7388225 -69.3011174 193.76781562 -75.85653305 193.7807827 C-78.35801825 193.7900241 -80.85948685 193.80807032 -83.36084366 193.83504677 C-86.86364736 193.8713225 -90.36520286 193.87634217 -93.86816406 193.87402344 C-94.90322586 193.89199982 -95.93828766 193.9099762 -97.00471497 193.92849731 C-101.59513036 193.89559863 -104.86590321 193.86538816 -108.50949097 190.88224792 C-112.52585651 186.5945942 -112.52585651 186.5945942 -113.98486328 184.80639648 C-116.73551586 181.55952374 -119.65079071 178.57585054 -122.69750977 175.61254883 C-135.4455311 163.18751345 -144.98772908 149.17375904 -145.30273438 130.79614258 C-145.2837414 121.32900593 -144.78750726 113.1150475 -140.92236328 104.30639648 C-140.32101563 102.91614258 -140.32101563 102.91614258 -139.70751953 101.49780273 C-133.88461021 89.59881411 -123.60138005 80.80758755 -113.92236328 72.06030273 C-111.42527881 69.79440096 -109.06520875 67.43230232 -106.73486328 64.99389648 C-96.61355739 54.80920037 -82.61729235 47.41554805 -68.05517578 47.07592773 C-66.38584812 47.07985249 -64.71651396 47.09427392 -63.04736328 47.11889648 C-62.19400391 47.11954102 -61.34064453 47.12018555 -60.46142578 47.12084961 C-54.20435315 47.16540155 -54.20435315 47.16540155 -51.92236328 48.30639648 C-51.82955078 46.94514648 -51.82955078 46.94514648 -51.73486328 45.55639648 C-49.7038333 31.94300633 -40.9695429 20.16134865 -30.77001953 11.38061523 C-21.72703524 4.79375013 -11.29303166 0.10260742 0 0 Z " fill="#3D3D3D" transform="translate(350.92236328125,50.693603515625)"/>
<path d="M0 0 C30.36 0 60.72 0 92 0 C92.33 9.24 92.66 18.48 93 28 C101.04720311 30.15808916 109.10009436 32.28878981 117.16531372 34.37860107 C121.71252149 35.56034807 126.25597611 36.75616861 130.79907227 37.95361328 C133.14886115 38.56983893 135.50012033 39.18048402 137.8527832 39.78564453 C141.29784221 40.67304083 144.7370392 41.58066006 148.17578125 42.4921875 C149.2145491 42.75490448 150.25331696 43.01762146 151.32356262 43.28829956 C161.11264259 45.92258065 170.38993949 50.19921758 176 59 C180.59313791 67.12411267 181.30398954 75.48985674 179.48046875 84.59375 C177.01315672 92.08076583 171.57453194 97.6265217 166.41943359 103.390625 C163.48980817 106.71227805 160.7364057 110.18094042 157.953125 113.625 C156.31174319 115.62092028 154.61323418 117.52735255 152.875 119.4375 C150.80931448 121.73139997 150.80931448 121.73139997 151 123.9375 C151.84141067 125.6729095 152.69998994 127.39997987 153.5625 129.125 C155.81157864 134.32460261 155.93277649 139.73821555 154.37890625 145.171875 C151.97498692 150.68486333 148.12189854 154.87710039 143 158 C136.73709943 160.3591195 130.90363085 160.55107101 124.59765625 158.3125 C120.3223603 156.15235047 116.69470266 153.23880891 112.953125 150.26953125 C110.29371839 148.22572802 107.65994662 146.53081319 104.75 144.875 C97.19640593 140.45456874 90.83432059 135.57754916 88 127 C88 126.01 88 125.02 88 124 C81.4 124 74.8 124 68 124 C68 117.4 68 110.8 68 104 C64.04 104 60.08 104 56 104 C56 110.6 56 117.2 56 124 C42.14 124 28.28 124 14 124 C14 117.4 14 110.8 14 104 C9.71 104 5.42 104 1 104 C1 110.6 1 117.2 1 124 C-3.455 124.99 -3.455 124.99 -8 126 C-19.94518287 132.63621271 -26.73987628 143.91578012 -30.39599609 156.70410156 C-31.94458371 162.36655867 -33.37819552 168.0577563 -34.8125 173.75 C-35.34234964 175.82016013 -35.87320198 177.89006386 -36.4050293 179.9597168 C-37.71100779 185.04991614 -39.00651878 190.142703 -40.29833984 195.23651123 C-41.9560362 201.76534891 -43.63367301 208.28907002 -45.3125 214.8125 C-45.77910034 216.63068237 -45.77910034 216.63068237 -46.25512695 218.4855957 C-49.32190127 230.37453067 -52.62410007 242.19553931 -56 254 C-64.04192155 252.12058414 -69.8876373 247.72557688 -74.4921875 240.734375 C-78.68895013 232.46338295 -79.52729999 224.27323729 -76.93261719 215.31469727 C-76.46049404 213.99890625 -75.97710507 212.68712005 -75.484375 211.37890625 C-75.08559395 210.28617653 -75.08559395 210.28617653 -74.67875671 209.17137146 C-73.7988357 206.77585338 -72.90182265 204.3873541 -72 202 C-71.69385773 201.18660156 -71.38771545 200.37320313 -71.07229614 199.53515625 C-69.05037513 194.17689942 -66.99985308 188.82990082 -64.93963623 183.48626709 C-62.96389844 178.36124585 -60.99610285 173.23317395 -59.02734375 168.10546875 C-58.41345795 166.50738373 -58.41345795 166.50738373 -57.78717041 164.87701416 C-53.12003276 152.72098667 -48.49605547 140.5486042 -43.875 128.375 C-43.48607574 127.35052765 -43.09715149 126.3260553 -42.69644165 125.27053833 C-42.31684296 124.27061859 -41.93724426 123.27069885 -41.54614258 122.24047852 C-41.17277771 121.25747269 -40.79941284 120.27446686 -40.41473389 119.26167297 C-39.68165506 117.32950621 -38.9499785 115.39680675 -38.2197876 113.46354675 C-36.41769377 108.6981356 -34.58964552 103.945646 -32.71069336 99.20996094 C-32.15836533 97.80310532 -32.15836533 97.80310532 -31.59487915 96.36782837 C-30.90457369 94.61212086 -30.20595459 92.85964656 -29.49691772 91.11141968 C-27.33637484 85.58563495 -26.27433191 80.40837377 -25.8125 74.5 C-25.75165726 73.72492096 -25.69081451 72.94984192 -25.62812805 72.15127563 C-25.54923592 71.13280045 -25.54923592 71.13280045 -25.46875 70.09375 C-24.49747564 59.68168887 -19.34282081 51.0567008 -13 43 C-12.55527344 42.41476562 -12.11054688 41.82953125 -11.65234375 41.2265625 C-8.79640383 37.6084264 -5.65968557 34.76509576 -2 32 C-1.34 32 -0.68 32 0 32 C0 21.44 0 10.88 0 0 Z " fill="#FCB02A" transform="translate(331,466)"/>
<path d="M0 0 C12.37652879 -0.87707684 22.18310267 2.53106162 32 10 C32.9075 10.680625 33.815 11.36125 34.75 12.0625 C37.29810951 14.25670541 39.65661829 16.58966453 42 19 C42.7425 18.01 43.485 17.02 44.25 16 C50.75283469 8.45425786 60.05078925 2.44212572 70 1 C74.34769605 0.79204568 78.65214996 0.81600008 83 1 C82.60821223 16.26013347 80.66340434 29.21030764 70 41 C67.69 42.98 65.38 44.96 63 47 C117.45 47.495 117.45 47.495 173 48 C170.75 63.75 170.75 63.75 169.76318359 69.37255859 C169.43306778 71.2629335 169.43306778 71.2629335 169.09628296 73.1914978 C168.8637158 74.51048617 168.63109957 75.82946588 168.3984375 77.1484375 C168.1544824 78.5408703 167.91072202 79.93333723 167.66714478 81.32583618 C167.03451974 84.93946779 166.39930329 88.55263886 165.76348877 92.16571045 C165.1115494 95.87321229 164.46214096 99.58115737 163.8125 103.2890625 C162.54410058 110.52647026 161.27295478 117.76339191 160 125 C155.44505617 125.10068287 152.75908462 124.73802427 148.71875 122.578125 C147.72407715 122.05371826 146.7294043 121.52931152 145.70458984 120.98901367 C144.6470752 120.41513916 143.58956055 119.84126465 142.5 119.25 C141.38705566 118.65872314 140.27411133 118.06744629 139.12744141 117.45825195 C131.29395136 113.28295384 123.51006539 109.01520428 115.734375 104.73339844 C107.0689359 99.98407124 98.28325696 95.47813095 89.49099731 90.96987915 C80.86955854 86.54693058 72.30379821 82.04487997 63.8125 77.375 C61.27723087 75.9857767 58.74170776 74.59701847 56.20605469 73.20849609 C54.80224379 72.43947618 53.39916551 71.66911626 51.99707031 70.89697266 C50.31855379 69.97901996 48.62854744 69.08215827 46.9375 68.1875 C46.08027344 67.72730469 45.22304688 67.26710938 44.33984375 66.79296875 C40.67744644 65.55178903 37.95273135 66.57680034 34.48657227 68.11645508 C33.60541748 68.57947021 32.7242627 69.04248535 31.81640625 69.51953125 C30.81851074 70.04071533 29.82061523 70.56189941 28.79248047 71.09887695 C27.72658691 71.66437256 26.66069336 72.22986816 25.5625 72.8125 C24.44504395 73.39926514 23.32758789 73.98603027 22.17626953 74.59057617 C14.31590952 78.73238554 6.51673389 82.98038638 -1.26538086 87.2668457 C-9.93135942 92.01527426 -18.71669814 96.52184603 -27.50900269 101.03012085 C-36.13040438 105.45305039 -44.69688186 109.95393509 -53.1875 114.625 C-73.88148194 126 -73.88148194 126 -78 126 C-79.98441107 118.64147977 -81.28882115 111.18623056 -82.6015625 103.68359375 C-82.84524575 102.29930723 -83.08901146 100.91503523 -83.33285522 99.53077698 C-83.84084358 96.64237868 -84.34643893 93.75357306 -84.85058594 90.86450195 C-85.49459805 87.17622636 -86.1467458 83.48944025 -86.80095863 79.8029623 C-87.30604735 76.94939015 -87.80570584 74.09488644 -88.30387497 71.24009895 C-88.54196722 69.88070169 -88.78196776 68.52163713 -89.02397537 67.16293144 C-89.36231575 65.25993039 -89.69229723 63.35544902 -90.02197266 61.45092773 C-90.21135406 60.37141342 -90.40073547 59.29189911 -90.59585571 58.17967224 C-91 55 -91 55 -91 48 C-36.055 47.505 -36.055 47.505 20 47 C15.05 42.545 15.05 42.545 10 38 C1.58930213 26.31847518 -0.77420645 14.15077349 0 0 Z " fill="#FBAF2A" transform="translate(338,196)"/>
<path d="M0 0 C1.26887054 0.34090668 2.53774109 0.68181335 3.84506226 1.03305054 C6.51179607 1.7513229 9.17529413 2.48029653 11.83691406 3.21728516 C15.21781713 4.15249568 18.6054128 5.0601053 21.99593544 5.95972633 C25.2722403 6.83319082 28.54196746 7.73016275 31.8125 8.625 C33.01379547 8.94401276 34.21509094 9.26302551 35.45278931 9.59170532 C46.82529437 12.77792471 56.55221082 17.36026782 62.5234375 27.921875 C66.32682999 36.08332139 66.78615364 45.13786783 63.9609375 53.7109375 C61.08422033 60.00503145 56.26126692 64.99347265 51.69287109 70.1015625 C48.76324567 73.42321555 46.0098432 76.89187792 43.2265625 80.3359375 C41.58518069 82.33185778 39.88667168 84.23829005 38.1484375 86.1484375 C36.08275198 88.44233747 36.08275198 88.44233747 36.2734375 90.6484375 C37.11484817 92.383847 37.97342744 94.11091737 38.8359375 95.8359375 C41.08501614 101.03554011 41.20621399 106.44915305 39.65234375 111.8828125 C37.24842442 117.39580083 33.39533604 121.58803789 28.2734375 124.7109375 C22.01053693 127.070057 16.17706835 127.26200851 9.87109375 125.0234375 C5.5957978 122.86328797 1.96814016 119.94974641 -1.7734375 116.98046875 C-4.43284411 114.93666552 -7.06661588 113.24175069 -9.9765625 111.5859375 C-17.53015657 107.16550624 -23.89224191 102.28848666 -26.7265625 93.7109375 C-26.7265625 92.7209375 -26.7265625 91.7309375 -26.7265625 90.7109375 C-33.3265625 90.7109375 -39.9265625 90.7109375 -46.7265625 90.7109375 C-46.7265625 84.1109375 -46.7265625 77.5109375 -46.7265625 70.7109375 C-39.4665625 70.7109375 -32.2065625 70.7109375 -24.7265625 70.7109375 C-24.0665625 69.0609375 -23.4065625 67.4109375 -22.7265625 65.7109375 C-21.7347326 64.2386097 -20.69309623 62.79844815 -19.6015625 61.3984375 C-19.06273437 60.70105469 -18.52390625 60.00367188 -17.96875 59.28515625 C-17.55882812 58.76566406 -17.14890625 58.24617187 -16.7265625 57.7109375 C-17.5 57.61296875 -18.2734375 57.515 -19.0703125 57.4140625 C-28.68709226 56.0334357 -35.67093168 53.60977652 -42.7265625 46.7109375 C-48.95219273 38.38135467 -51.03895336 30.06945106 -49.7265625 19.7109375 C-46.75153561 10.56710485 -41.74652246 4.11750268 -33.4140625 -0.59765625 C-22.35610196 -5.71905144 -11.26841658 -3.11684044 0 0 Z " fill="#A46749" transform="translate(445.7265625,499.2890625)"/>
<path d="M0 0 C0.33 0 0.66 0 1 0 C1 5.94 1 11.88 1 18 C2.65 18.66 4.3 19.32 6 20 C8.77823526 23.48476242 8.34079105 27.86293218 8.37109375 32.125 C8.38012222 32.90891113 8.3891507 33.69282227 8.39845276 34.50048828 C8.41293186 36.15458366 8.42183618 37.80873601 8.42553711 39.46289062 C8.43746163 41.99186282 8.48668776 44.51841546 8.53710938 47.046875 C8.54657115 48.65623812 8.55380736 50.26561618 8.55859375 51.875 C8.57812607 52.6292627 8.59765839 53.38352539 8.61778259 54.16064453 C8.58779836 57.65123608 8.39610556 59.55610299 6.0381012 62.1986084 C1.87029835 64.66983781 -1.44721389 64.56228097 -6.20898438 64.51757812 C-7.12827225 64.5245874 -8.04756012 64.53159668 -8.9947052 64.53881836 C-12.02802902 64.5563978 -15.06041698 64.54477559 -18.09375 64.53125 C-20.20455097 64.53394492 -22.31535074 64.53782735 -24.42614746 64.54284668 C-28.84785798 64.54874167 -33.26924507 64.54017854 -37.69091797 64.52148438 C-43.35721328 64.49869507 -49.02275074 64.51181811 -54.68901825 64.53577423 C-59.04707545 64.55023203 -63.40495313 64.54562624 -67.76301575 64.53526306 C-69.8521992 64.53259574 -71.94139897 64.53586572 -74.03056335 64.54518127 C-76.95115294 64.55534633 -79.87051724 64.539846 -82.79101562 64.51757812 C-84.08474846 64.52972351 -84.08474846 64.52972351 -85.40461731 64.54211426 C-89.38957522 64.48585898 -91.53075949 64.27672964 -95.03137207 62.21228027 C-97.95828205 58.92311369 -97.78464231 55.57644617 -97.8125 51.375 C-97.83328613 50.54339355 -97.85407227 49.71178711 -97.87548828 48.85498047 C-97.91456026 47.11381483 -97.94269843 45.37237288 -97.96044922 43.63085938 C-97.99914371 41.0569593 -98.10309704 38.4931483 -98.22265625 35.921875 C-98.27554777 34.32298508 -98.32640897 32.72402639 -98.375 31.125 C-98.41343018 30.3829834 -98.45186035 29.6409668 -98.49145508 28.87646484 C-98.5466367 25.22099803 -98.20046916 23.27616363 -96.03633118 20.2948761 C-91.88435221 17.15678715 -88.95873037 17.36169566 -83.89526367 17.52416992 C-82.98745148 17.53319336 -82.07963928 17.5422168 -81.14431763 17.55151367 C-78.1513174 17.58721028 -75.16030201 17.65865346 -72.16796875 17.73046875 C-70.09006448 17.76224003 -68.01212494 17.79177619 -65.93415833 17.81916809 C-60.47068548 17.89719147 -55.00822009 18.00555814 -49.54541016 18.12023926 C-43.96871521 18.23194345 -38.39160151 18.31496182 -32.81445312 18.40039062 C-21.87565302 18.57217852 -10.93791002 18.77867174 0 19 C0 12.73 0 6.46 0 0 Z " fill="#4FC6FE" transform="translate(452,838)"/>
<path d="M0 0 C0.33 1.32 0.66 2.64 1 4 C29.71 4 58.42 4 88 4 C88.33 3.01 88.66 2.02 89 1 C95 7 95 7 95.16088867 10.10473633 C94.91275582 16.11226233 93.34746237 21.75790839 91.85668945 27.55297852 C91.31241682 29.68782625 90.79748828 31.82846143 90.28320312 33.97070312 C89.93666923 35.33899202 89.5884201 36.7068479 89.23828125 38.07421875 C88.92930908 39.30744873 88.62033691 40.54067871 88.30200195 41.8112793 C86.72156142 45.6819213 85.55643608 46.8174497 82 49 C78.98183872 49.56630865 76.02219522 49.5265684 72.95874023 49.48583984 C72.05735321 49.48963654 71.15596619 49.49343323 70.2272644 49.49734497 C67.25401786 49.50474177 64.28175313 49.48338164 61.30859375 49.4609375 C59.24024063 49.45855264 57.17188532 49.45764784 55.10353088 49.4581604 C50.77176322 49.45503397 46.4403269 49.4384794 42.10864258 49.41162109 C36.5545203 49.37762042 31.00076167 49.36999323 25.44654751 49.37151146 C21.17691066 49.37096781 16.90735339 49.36000173 12.637743 49.34550858 C10.58960637 49.33914225 8.54146073 49.33520207 6.49331474 49.33372116 C3.63267506 49.32938765 0.77242193 49.31188601 -2.08813477 49.29052734 C-2.93551712 49.29143372 -3.78289948 49.29234009 -4.65596008 49.29327393 C-12.05643557 49.21242519 -12.05643557 49.21242519 -15 47 C-17.42738554 42.18913741 -16.8869472 38.40966921 -15.62109375 33.37109375 C-15.36828392 32.30291161 -15.36828392 32.30291161 -15.11036682 31.21315002 C-14.75083965 29.71444065 -14.38307844 28.21768525 -14.00756836 26.72290039 C-13.43968671 24.4462665 -12.90881762 22.16313284 -12.38085938 19.87695312 C-12.02563563 18.4161304 -11.66828339 16.95582328 -11.30859375 15.49609375 C-11.15313583 14.81888779 -10.99767792 14.14168182 -10.83750916 13.44395447 C-9.61316674 8.7235888 -7.84469964 5.99744643 -4 3 C-2.68 3 -1.36 3 0 3 C0 2.01 0 1.02 0 0 Z " fill="#4FC6FE" transform="translate(239,853)"/>
<path d="M0 0 C0.66 0 1.32 0 2 0 C2.268125 0.65226563 2.53625 1.30453125 2.8125 1.9765625 C5.6585763 8.32406162 8.5026248 13.05973211 15 16 C19.36202906 17.03047934 23.5228303 17.53362816 28 18 C28 24.6 28 31.2 28 38 C25.03 38.66 22.06 39.32 19 40 C7.05481713 46.63621271 0.26012372 57.91578012 -3.39599609 70.70410156 C-4.94458371 76.36655867 -6.37819552 82.0577563 -7.8125 87.75 C-8.34234964 89.82016013 -8.87320198 91.89006386 -9.4050293 93.9597168 C-10.71100779 99.04991614 -12.00651878 104.142703 -13.29833984 109.23651123 C-14.9560362 115.76534891 -16.63367301 122.28907002 -18.3125 128.8125 C-18.77910034 130.63068237 -18.77910034 130.63068237 -19.25512695 132.4855957 C-22.32190127 144.37453067 -25.62410007 156.19553931 -29 168 C-37.04192155 166.12058414 -42.8876373 161.72557688 -47.4921875 154.734375 C-51.68895013 146.46338295 -52.52729999 138.27323729 -49.93261719 129.31469727 C-49.46049404 127.99890625 -48.97710507 126.68712005 -48.484375 125.37890625 C-48.08559395 124.28617653 -48.08559395 124.28617653 -47.67875671 123.17137146 C-46.7988357 120.77585338 -45.90182265 118.3873541 -45 116 C-44.69385773 115.18660156 -44.38771545 114.37320313 -44.07229614 113.53515625 C-42.05027315 108.17662917 -39.99967454 102.82934942 -37.93936157 97.48544312 C-35.96514184 92.36455505 -33.99858981 87.24072174 -32.03125 82.1171875 C-31.62219925 81.05241684 -31.2131485 79.98764618 -30.79170227 78.89060974 C-25.69771915 65.62259965 -20.65855278 52.33373851 -15.6210022 39.04421997 C-11.7727818 28.89235579 -7.92030259 18.74209073 -4.01171875 8.61328125 C-3.72005325 7.85210495 -3.42838776 7.09092865 -3.12788391 6.3066864 C-1.11603405 1.11603405 -1.11603405 1.11603405 0 0 Z " fill="#A4684B" transform="translate(304,552)"/>
<path d="M0 0 C0.66423477 -0.00700928 1.32846954 -0.01401855 2.01283264 -0.02124023 C4.19193269 -0.0387366 6.36971663 -0.02722905 8.54882812 -0.01367188 C10.07287849 -0.01636924 11.59692718 -0.02025369 13.12097168 -0.02526855 C16.30851698 -0.03115222 19.49561262 -0.02263779 22.68310547 -0.00390625 C26.75867254 0.01888331 30.83318584 0.00575405 34.90871429 -0.01819611 C38.05385201 -0.03268515 41.19874195 -0.02803403 44.34388733 -0.01768494 C45.8461164 -0.0150262 47.34836833 -0.01825731 48.85057068 -0.02760315 C50.95436754 -0.03782097 53.05648383 -0.02219881 55.16015625 0 C56.35451294 0.00318237 57.54886963 0.00636475 58.77941895 0.00964355 C63.57515801 0.74765422 66.71880219 2.96853999 69.89257812 6.58007812 C72.32478548 10.54841644 72.46036772 13.95410301 72.08007812 18.51757812 C70.39888595 22.76846818 68.08517586 26.1920375 64.08007812 28.51757812 C60.73869729 29.63137174 58.20563357 29.6580814 54.68432617 29.67871094 C54.04003662 29.68367584 53.39574707 29.68864075 52.73193359 29.6937561 C50.60187711 29.70835236 48.47189514 29.71517589 46.34179688 29.72070312 C44.85830178 29.72645722 43.37480671 29.73221492 41.89131165 29.73797607 C38.78015802 29.74847923 35.66903018 29.75432619 32.55786133 29.7578125 C28.5799492 29.763292 24.60238025 29.78731095 20.62457561 29.81578445 C17.55928059 29.83445083 14.49406752 29.83961858 11.42872047 29.84114838 C9.96275776 29.84416706 8.49679622 29.85216905 7.03088951 29.86533356 C4.97500234 29.88247657 2.91994422 29.88049424 0.86401367 29.87402344 C-0.30386185 29.87766907 -1.47173737 29.8813147 -2.67500305 29.8850708 C-7.65708989 29.32084084 -10.88622724 27.66302354 -14.23242188 23.95507812 C-17.33150412 19.478626 -17.56206929 15.8808657 -16.91992188 10.51757812 C-13.32470125 3.18885915 -8.06627866 0.02149266 0 0 Z " fill="#FF5050" transform="translate(393.919921875,911.482421875)"/>
<path d="M0 0 C0.66423477 -0.00700928 1.32846954 -0.01401855 2.01283264 -0.02124023 C4.19193269 -0.0387366 6.36971663 -0.02722905 8.54882812 -0.01367188 C10.07287849 -0.01636924 11.59692718 -0.02025369 13.12097168 -0.02526855 C16.30851698 -0.03115222 19.49561262 -0.02263779 22.68310547 -0.00390625 C26.75867254 0.01888331 30.83318584 0.00575405 34.90871429 -0.01819611 C38.05385201 -0.03268515 41.19874195 -0.02803403 44.34388733 -0.01768494 C45.8461164 -0.0150262 47.34836833 -0.01825731 48.85057068 -0.02760315 C50.95436754 -0.03782097 53.05648383 -0.02219881 55.16015625 0 C56.35451294 0.00318237 57.54886963 0.00636475 58.77941895 0.00964355 C63.57515801 0.74765422 66.71880219 2.96853999 69.89257812 6.58007812 C72.32478548 10.54841644 72.46036772 13.95410301 72.08007812 18.51757812 C70.39888595 22.76846818 68.08517586 26.1920375 64.08007812 28.51757812 C60.73869729 29.63137174 58.20563357 29.6580814 54.68432617 29.67871094 C54.04003662 29.68367584 53.39574707 29.68864075 52.73193359 29.6937561 C50.60187711 29.70835236 48.47189514 29.71517589 46.34179688 29.72070312 C44.85830178 29.72645722 43.37480671 29.73221492 41.89131165 29.73797607 C38.78015802 29.74847923 35.66903018 29.75432619 32.55786133 29.7578125 C28.5799492 29.763292 24.60238025 29.78731095 20.62457561 29.81578445 C17.55928059 29.83445083 14.49406752 29.83961858 11.42872047 29.84114838 C9.96275776 29.84416706 8.49679622 29.85216905 7.03088951 29.86533356 C4.97500234 29.88247657 2.91994422 29.88049424 0.86401367 29.87402344 C-0.30386185 29.87766907 -1.47173737 29.8813147 -2.67500305 29.8850708 C-7.65708989 29.32084084 -10.88622724 27.66302354 -14.23242188 23.95507812 C-17.33150412 19.478626 -17.56206929 15.8808657 -16.91992188 10.51757812 C-13.32470125 3.18885915 -8.06627866 0.02149266 0 0 Z " fill="#FF5050" transform="translate(216.919921875,911.482421875)"/>
<path d="M0 0 C7.59 0 15.18 0 23 0 C23.04519838 8.01471528 23.08188586 16.02933134 23.10362434 24.04413986 C23.11405811 27.7658029 23.12820982 31.48737416 23.15087891 35.20898438 C23.1726219 38.80106762 23.18457169 42.39306263 23.18975449 45.9852066 C23.19344764 47.35512938 23.20065945 48.72504738 23.21146011 50.09493256 C23.22599349 52.01473779 23.22681708 53.93463196 23.22705078 55.85449219 C23.231492 56.94703308 23.23593323 58.03957397 23.24050903 59.16522217 C22.90304539 63.14276285 21.97030859 65.17670787 18.9375 67.75 C14.88161774 69.47590734 11.3472053 69.58383519 7 69 C4.10371264 67.76753729 2.58808329 66.91019522 0.88528442 64.27471924 C-0.2509178 61.35527212 -0.23978589 58.98732952 -0.22705078 55.85449219 C-0.22689972 54.61350769 -0.22674866 53.37252319 -0.22659302 52.09393311 C-0.21638061 50.7449121 -0.20594864 49.39589273 -0.1953125 48.046875 C-0.19158049 46.6625387 -0.18873441 45.27819975 -0.18673706 43.89385986 C-0.17911534 40.2573309 -0.15947955 36.62096269 -0.1373291 32.98449707 C-0.11683909 29.27093683 -0.10772861 25.55735052 -0.09765625 21.84375 C-0.07623213 14.56241836 -0.04106207 7.28125222 0 0 Z " fill="#3BBFFE" transform="translate(351,590)"/>
<path d="M0 0 C2.31 0 4.62 0 7 0 C7.14695312 0.60328125 7.29390625 1.2065625 7.4453125 1.828125 C8.60831686 5.97216353 9.49420785 8.50625052 12.625 11.5625 C17.88056723 13.80098234 22.37760573 13.815856 27.8125 12.125 C31.09878307 9.22116347 31.09878307 9.22116347 34 0 C42.58 0 51.16 0 60 0 C60 9.12865551 57.97455349 15.80464387 51.50390625 22.5625 C44.05778723 29.44113189 36.71628441 31.82968621 26.57421875 31.51171875 C18.50744055 30.35680296 11.13459555 26.49074132 6.17578125 19.9375 C4.06025897 16.45145664 2.50191486 12.7817446 1 9 C0.67 8.34 0.34 7.68 0 7 C-0.04022391 4.6670134 -0.04320247 2.33293334 0 0 Z " fill="#FBFAF9" transform="translate(388,348)"/>
<path d="M0 0 C8.91 0 17.82 0 27 0 C27.99 2.97 28.98 5.94 30 9 C32.24178198 11.70332533 33.66821361 12.79175704 37.1484375 13.3359375 C41.89128546 13.54077811 45.22681502 13.10732881 49 10 C51.78993324 7.00340503 52.84859706 3.89705611 54 0 C55.98 0 57.96 0 60 0 C60.51008152 8.16130426 58.0573549 14.53782429 53 21 C49.34326418 24.72655416 46.40500307 27.63022541 41 28 C37.84375 27.0390625 37.84375 27.0390625 34.5 25.625 C28.34991852 23.05288648 23.80023924 21.96726232 17.12353516 22.01464844 C8.05041419 21.9520608 8.05041419 21.9520608 4.9140625 19.109375 C3.6341562 16.76675862 2.76748123 14.55242329 2 12 C1.566875 11.13375 1.13375 10.2675 0.6875 9.375 C0 7 0 7 0 0 Z " fill="#FBF9F8" transform="translate(311,348)"/>
<path d="M0 0 C13.86 0 27.72 0 42 0 C42 6.6 42 13.2 42 20 C28.14 20 14.28 20 0 20 C0 13.4 0 6.8 0 0 Z " fill="#FE4C4A" transform="translate(345,570)"/>
<path d="M0 0 C2.70565668 2.55534242 4.95924879 4.93759971 7 8.0625 C9.04570037 11.06712242 11.12367971 12.82332519 14 15 C15.74285583 18.48571166 14.86359033 22.29513158 14 26 C11.75410675 28.99452434 10.55130633 29.81623122 7 31 C-6.54872047 32.17814961 -6.54872047 32.17814961 -10.8125 28.625 C-14.17945063 24.58465925 -14.44689702 22.27338481 -14 17 C-12.14513472 14.11465402 -10.01520379 12.01481395 -7.5625 9.625 C-4.62027925 6.61101777 -2.38116757 3.46970131 0 0 Z " fill="#86401F" transform="translate(379,361)"/>
<path d="M0 0 C2 2 2 2 2.25 4.5 C2 7 2 7 0 9 C-5.30417721 9.90559123 -8.387637 7.82500272 -12.79296875 5.24609375 C-20.25561738 1.03266912 -29.63974377 0.74516329 -37.88671875 2.67578125 C-39.53054192 3.19423669 -41.16463745 3.74582481 -42.78125 4.34375 C-45.32894471 5.09729351 -47.35673832 5.24670442 -50 5 C-52 3 -52 3 -52.125 -0.125 C-52.08375 -1.07375 -52.0425 -2.0225 -52 -3 C-35.90637272 -13.27252805 -15.45566202 -10.39808841 0 0 Z " fill="#884828" transform="translate(373,307)"/>
<path d="M0 0 C0.94165512 -0.00287018 1.88331024 -0.00574036 2.85350037 -0.00869751 C4.84138593 -0.01073663 6.82929163 -0.0052174 8.81713867 0.00732422 C11.86357317 0.02339782 14.90868455 0.00746106 17.95507812 -0.01171875 C19.88672168 -0.00973664 21.81836442 -0.00589364 23.75 0 C25.11881065 -0.00910904 25.11881065 -0.00910904 26.51527405 -0.0184021 C27.36302902 -0.00894562 28.210784 0.00051086 29.08422852 0.01025391 C30.20197411 0.01383408 30.20197411 0.01383408 31.34230042 0.01748657 C33.8635093 0.50594719 34.75591724 1.3864312 36.30859375 3.3984375 C36.68359375 5.8984375 36.68359375 5.8984375 36.30859375 8.3984375 C34.74204073 10.43933002 33.85145533 11.29560059 31.29760742 11.77938843 C30.5316626 11.78177521 29.76571777 11.78416199 28.9765625 11.78662109 C28.10555908 11.79607758 27.23455566 11.80553406 26.3371582 11.8152771 C25.39960693 11.80920441 24.46205566 11.80313171 23.49609375 11.796875 C22.04819458 11.80118027 22.04819458 11.80118027 20.57104492 11.80557251 C18.53010471 11.80761411 16.48914498 11.80207757 14.44824219 11.78955078 C11.32051935 11.7734987 8.19408879 11.78939645 5.06640625 11.80859375 C3.08463256 11.80661134 1.10285967 11.8027677 -0.87890625 11.796875 C-1.81645752 11.80294769 -2.75400879 11.80902039 -3.7199707 11.8152771 C-4.59097412 11.80582062 -5.46197754 11.79636414 -6.359375 11.78662109 C-7.12531982 11.78423431 -7.89126465 11.78184753 -8.68041992 11.77938843 C-11.23443493 11.29556894 -12.12187205 10.43685747 -13.69140625 8.3984375 C-14.12890625 5.8984375 -14.12890625 5.8984375 -13.69140625 3.3984375 C-10.04910311 -0.7811726 -5.1082481 -0.03406949 0 0 Z " fill="#884727" transform="translate(400.69140625,318.6015625)"/>
<path d="M0 0 C4.18822359 1.4497697 5.24168137 3.5006073 7.6875 7.0546875 C11.68201686 12.34742234 16.8234471 14.81790449 23.25 16.125 C24.97850912 16.25878554 26.70775128 16.38333073 28.4375 16.5 C31.80471366 16.79257802 33.06505245 17.00026793 35.9375 18.9375 C37.25 21.125 37.25 21.125 37.125 23.25 C36.25 25.125 36.25 25.125 34.25 27.125 C22.83405588 28.65108975 12.32646477 24.93614944 3.25 18.125 C-0.21392318 14.74431342 -3.06887383 11.14668925 -5.75 7.125 C-5.3328799 2.84951898 -4.73890445 0.21540475 0 0 Z " fill="#884828" transform="translate(343.75,389.875)"/>
<path d="M0 0 C6.93 0 13.86 0 21 0 C20.67 1.65 20.34 3.3 20 5 C19.78110297 7.60784735 19.59008713 10.20140616 19.4375 12.8125 C19.293125 15.184375 19.14875 17.55625 19 20 C12.73 20 6.46 20 0 20 C0 13.4 0 6.8 0 0 Z " fill="#FE4D4A" transform="translate(399,570)"/>
<path d="M0 0 C1.093125 0.00257813 2.18625 0.00515625 3.3125 0.0078125 C4.405625 0.00523437 5.49875 0.00265625 6.625 0 C9.3125 0.1328125 9.3125 0.1328125 10.3125 1.1328125 C11.08990446 15.51479505 10.28534648 30.54519222 8 44.7578125 C7.84180786 45.83252808 7.84180786 45.83252808 7.68041992 46.92895508 C7.32421875 48.921875 7.32421875 48.921875 6.3125 52.1328125 C4.20703125 53.59375 4.20703125 53.59375 2.3125 54.1328125 C2.18541575 43.33065111 2.36918534 32.55430559 2.75 21.7578125 C2.78923584 20.57533936 2.82847168 19.39286621 2.86889648 18.17456055 C2.91087158 17.05992432 2.95284668 15.94528809 2.99609375 14.796875 C3.05108032 13.30341553 3.05108032 13.30341553 3.10717773 11.77978516 C3.28884379 9.43778359 3.65645479 7.38144332 4.3125 5.1328125 C2.0025 5.1328125 -0.3075 5.1328125 -2.6875 5.1328125 C-3.25 3.1953125 -3.25 3.1953125 -3.6875 1.1328125 C-2.6875 0.1328125 -2.6875 0.1328125 0 0 Z " fill="#0597DC" transform="translate(353.6875,670.8671875)"/>
<path d="M0 0 C8.58 0 17.16 0 26 0 C26 6.17733665 25.71557294 7.45874419 22 12 C17.80099603 14.58265098 13.80047583 14.66673275 9 14 C4.07270658 11.62759946 1.91367172 9.1031246 0 4 C0 2.68 0 1.36 0 0 Z " fill="#434140" transform="translate(395,348)"/>
<path d="M0 0 C8.58 0 17.16 0 26 0 C26 6.7810219 26 6.7810219 23.1875 9.8125 C22.66542969 10.39644531 22.14335937 10.98039062 21.60546875 11.58203125 C18.37331077 14.43671092 14.47867717 14.46292172 10.359375 14.40234375 C6.92604887 13.81685933 4.94400714 12.28667261 2.3125 10.09375 C1 8 1 8 0 0 Z " fill="#43403F" transform="translate(338,348)"/>
<path d="M0 0 C2.97 0 5.94 0 9 0 C9 6.6 9 13.2 9 20 C6.03 20 3.06 20 0 20 C0 13.4 0 6.8 0 0 Z " fill="#FE4C4A" transform="translate(323,570)"/>
<path d="M0 0 C0.33 1.32 0.66 2.64 1 4 C-0.12019531 4.54269531 -1.24039062 5.08539062 -2.39453125 5.64453125 C-3.86734492 6.36686662 -5.33999254 7.08954062 -6.8125 7.8125 C-7.55048828 8.16892578 -8.28847656 8.52535156 -9.04882812 8.89257812 C-9.76103516 9.24384766 -10.47324219 9.59511719 -11.20703125 9.95703125 C-11.8616333 10.27647705 -12.51623535 10.59592285 -13.19067383 10.92504883 C-15.08465257 11.94392853 -15.08465257 11.94392853 -16.6003418 13.6472168 C-17.29317261 14.31684448 -17.29317261 14.31684448 -18 15 C-20.1875 14.6875 -20.1875 14.6875 -22 14 C-21.04617406 8.3259585 -16.66088498 5.91067952 -12.2265625 2.7265625 C-8.05449523 0.06474583 -4.8809392 -0.39844402 0 0 Z " fill="#995433" transform="translate(450,543)"/>
<path d="M0 0 C0.66 0.33 1.32 0.66 2 1 C-2.62 5.62 -7.24 10.24 -12 15 C-12 10.39852874 -9.10228152 8.19311408 -6 5 C-4.05341967 3.24193983 -2.06456557 1.62215867 0 0 Z " fill="#FDC056" transform="translate(329,498)"/>
<path d="M0 0 C0.66 0 1.32 0 2 0 C1.67 2.97 1.34 5.94 1 9 C-1.08954032 4.82091936 -1.16552619 4.19589427 0 0 Z " fill="#3DADE3" transform="translate(357,724)"/>
</svg>
